<?xml version="1.0" encoding="utf-8"?>
<!-- Generator: Adobe Illustrator 27.9.0, SVG Export Plug-In . SVG Version: 6.00 Build 0)  -->
<svg version="1.1" id="Layer_1" xmlns="http://www.w3.org/2000/svg" xmlns:xlink="http://www.w3.org/1999/xlink" x="0px" y="0px"
	 viewBox="0 0 79.6 74.5" style="enable-background:new 0 0 79.6 74.5;" xml:space="preserve">
<style type="text/css">
	.st0{fill:#FFFFFF;}
	.st1{fill:#27AAE1;}
</style>
<path id="Path_1803" class="st0" d="M39.7,70.5h1l0.2-30.2h-3L39.7,70.5z"/>
<path id="Path_1804" class="st0" d="M32.8,70.5H34l3-30.2h-2.7L32.8,70.5z"/>
<path id="Path_1805" class="st0" d="M31.5,40l1.3-9.3l-0.8-7l-1.2,16.1L31.5,40z"/>
<path id="Path_1952" class="st0" d="M33.4,20.1h1.1l0.7-11.4h-4.6l0.6,10.9L33.4,20.1z"/>
<path id="Path_1953" class="st0" d="M36.3,21.1h0.6l0.5-6.8l-1.3,0.5L36.3,21.1z"/>
<g>
	<path class="st0" d="M29.2,29.5l0.3-0.1v0.1l0.7-0.1h0.3v0.8l0.6,1.2c0,0.2,0.1,0.4,0.2,0.6l1-0.5l0.3,1.7l-0.5,0.7l3.7,0.4
		c-0.1-0.3-0.4-0.8-0.4-0.9v-0.1l-0.2-1c0-0.3,0.1-0.6,0.3-0.8c0.2-0.2,0.4-0.2,0.6-0.2c0.1,0,0.2,0,0.4,0c0.4,0,0.9,0.1,1.2,0.3
		c0.4,0.2,0.7,0.5,1.1,0.8c0.2,0.2,0.5,0.3,0.8,0.3c0.1,0.1,0.2,0.1,0.3,0.1s0.2,0,0.4-0.2l0.1-0.1c-0.1-0.2-0.1-0.3-0.2-0.4
		C40.1,32,40,31.9,40,31.8s-0.1-0.1-0.1-0.2c-0.1-0.2-0.2-0.4-0.2-0.6c0.1-0.3,0.3-0.6,0.5-0.8l0.1-0.1l1-0.3h0.1c0.2,0,0.5,0,0.7,0
		c0.1-0.1,0.2-0.2,0.3-0.4c0-0.3,0-0.7,0.1-1c0-0.1,0.1-0.5,0.2-0.8v-0.2h2.6v-0.2l-0.4-0.7L44.7,26l-0.8-0.8l-0.2-0.8l0.6-0.8v-0.4
		l-0.1-0.1l-1,0.1l-0.8,0.5l-1.1,0.6l-1.2,0.4l-0.9-0.3V23c0.1-0.1,0.2-0.7,0.3-0.9c0-0.2-0.2-0.4-0.3-0.5c-0.2-0.1-0.8-0.4-1-0.5
		h-0.5c-0.2,0.1-0.8,0.4-1,0.5c-0.6,0.2-1.2,0.2-1.8,0.1c-0.1,0-0.3,0-0.4,0c-0.2,0-0.4,0-0.6,0c-0.2,0-0.3,0-0.5,0
		c-0.1,0-0.1,0-0.2,0c-0.1,0.1-0.3,0.2-0.4,0.3c-0.4,0.2-0.9,0.3-1.4,0.2c-0.1,0-0.4-0.1-0.5-0.2l-0.7,0.2v-0.1
		c-0.6,0.7-1.2,1.4-1.7,2.2c0.2,0.3,0.5,0.5,0.7,0.8c0,0,0.1,0.1,0.1,0.2s0.1,0.3-0.4,0.9v0.1h-0.1c-0.5,0.3-0.8,0.4-1,0.5
		c-0.1,0.6-0.2,1.3-0.3,2c0.1,0.2,0.3,0.5,0.4,0.7C28.3,29.6,28.8,29.6,29.2,29.5z M31.3,31.8C31.3,31.8,31.4,31.8,31.3,31.8
		L31.3,31.8z"/>
	<path class="st0" d="M29.7,29.9l0.1,2.8l1.1-0.6c0-0.1-0.1-0.4-0.2-0.6l-0.6-1.3v-0.3C30.1,29.9,29.7,29.9,29.7,29.9z"/>
	<path class="st0" d="M39.9,37.1c-0.7-0.4-1.2-0.8-1.6-1.4c-0.1,0-0.1,0-0.2,0c-0.2,0.1-0.5,0.1-0.7,0.1c-0.4-0.1-0.9-0.8-1.2-1.2
		l-0.6,1.2h0.1l1.3,0.1l1.2,0.5l1,0.7l0.3,0.7l0.2,0.6v0.4l0.7,0.5l1.1,0.5l0.2,0.6c0,0.4,0.1,0.7,0.1,1.1c0.1,0.3,0,0.7,0,1.1
		c0,0,0,0.1,0,0.2c-0.1,0.2-0.1,0.4-0.1,0.6c0,0.4,0.2,0.7,0.4,0.9l0.6,0.7l0.6,0.1l1-0.2l0.6-0.3c0.3-0.3,0.6-0.8,0.7-0.9
		c0.3-0.3,0.6-0.7,0.9-1l0.1-0.1c0.1-0.1,0.2-0.1,0.2-0.2c-0.1-0.1-0.1-0.3-0.1-0.4c0-0.3,0-0.6,0-0.9V41l0.4-1l0.4-1l0.2-0.5v-0.9
		l-0.2-0.4L46.6,37c-0.4-0.1-0.9-0.3-1-0.3c-0.4,0-1.1-0.8-1.1-0.8c-0.3-0.4-0.4-0.8-0.5-1.3c0-0.2-0.1-0.3-0.1-0.4v-0.1
		c-0.2,0-0.3,0-0.5,0s-0.5,0-0.7,0c-0.1,0-0.6,0.2-1,0.3c-0.1,0-0.2,0.1-0.3,0.1c-0.1,0.1-0.1,0.2-0.2,0.2c-0.1,0.2-0.2,0.4-0.2,0.6
		c0,0.1-0.1,0.2-0.1,0.3c-0.1,0.1-0.1,0.3,0,0.5c0,0.1,0.1,0.2,0,0.4C40.9,37,39.9,37.1,39.9,37.1z"/>
	<polygon class="st0" points="34.5,36.7 35.6,34.6 31.3,34.1 32.2,32.8 32.1,32.1 29.9,33.2 30,36.1 	"/>
	<path class="st0" d="M48.6,21.5c0,0.8,0.1,1,0.2,1.1c0.2,0.2,0.5,0.3,0.8,0.4h0.1c0.1,0,0.3,0,0.4,0c0.1,0,0.3,0,0.4,0
		c0.1,0,0.1,0,0.2,0c0.4,0,0.7-0.1,1.1-0.1c-0.9-1.2-2.1-2.3-3.4-3.1c0.1,0.6,0.2,1.5,0.2,1.6V21.5z"/>
	<path class="st0" d="M28.9,25.3c-0.2-0.2-0.3-0.4-0.5-0.6c-0.3,0.5-0.5,1-0.7,1.5c0.1,0,0.6-0.2,1-0.5
		C28.8,25.5,28.8,25.4,28.9,25.3z"/>
	<path class="st0" d="M18.9,17.4c1.6,0.5,3.3-0.5,3.7-2.1l0.2-0.8c-0.7-0.2-1.7-0.6-1.8-1.1c-0.7-0.6-1.5-0.8-2.4-0.7
		c-0.9,0-1.8-0.2-2.6-0.6l-0.3,1.2c-0.5,1.6,0.5,3.3,2,3.8L18.9,17.4C18.9,17.4,18.9,17.4,18.9,17.4z"/>
	<path class="st0" d="M53.4,30.7l-1,1.3c-0.2,0.2-0.4,0.4-0.5,0.6v2.3l0.4,0.8c0.3,0.1,0.5,0.4,0.6,0.6c0.1,0.2,0.2,0.5,0.2,0.7
		l0.4-0.4l0.2,0.2c0.1,0.2,0.3,0.3,0.4,0.5c0.6-1.7,0.9-3.4,0.9-5.2c0-0.9-0.1-1.8-0.4-2.6c-0.2,0.1-0.5,0.2-0.7,0.3
		C53.8,29.9,53.6,30.3,53.4,30.7z"/>
	<path class="st0" d="M16.3,16.9l-0.6,1.7c0.8,0.2,1.7,0.4,2.5,0.7l0.2-1.5l-0.8-0.2C17.1,17.4,16.7,17.2,16.3,16.9z"/>
	<path class="st0" d="M20.5,20.9C20.5,20.8,20.4,20.8,20.5,20.9C20.4,20.9,20.5,20.9,20.5,20.9z"/>
	<path class="st0" d="M27,28.7c0-0.1,0.1-0.7,0.2-1.2c0.1-0.2,0.1-0.3,0.1-0.4c-0.2,0.7-0.4,1.4-0.6,1.9c0.2,0.1,0.3,0.2,0.5,0.2
		C27.1,29.1,27,28.9,27,28.7z"/>
	<path class="st0" d="M15.2,18.6l0.6-2c-0.1-0.2-0.3-0.4-0.4-0.6c-0.4-0.8-0.6-1.8-0.3-2.7l0.1-0.4L15.1,13
		c-0.6-0.5-0.9-1.3-0.7-2.1c0.1-0.4,0.3-0.6,0.6-0.8c0.3-0.1,0.6-0.2,0.9-0.1l0.3-1c0-0.1,0-0.1,0-0.1c0.6-1.9,2.5-3,4.4-2.5
		l1.1,0.3c0.1,0,0.1,0,0.1,0c1.9,0.6,3,2.5,2.5,4.4l-1.1,4.2c-0.5,1.8-2.3,2.9-4.1,2.6l-0.2,1.5c1.7,0.3,3.4,0.2,5.1-0.1
		c-0.2-2.2,0-4.5,0.6-6.7c0.9-2.8,1-4.8,0.2-6.1c-0.6-0.9-1.5-1.5-2.6-1.7h-0.1c-1.4-0.6-3-0.6-4.5-0.1c-2.1,0.7-3.8,2.6-5.1,5.6
		c-0.7,1.7-1.6,3.4-2.5,5c1.4,1.1,3,2.1,4.6,3.2C14.8,18.5,15,18.6,15.2,18.6z"/>
	<polygon class="st0" points="70.7,62.9 66,64.3 66.2,64.5 	"/>
	<path class="st0" d="M61.4,15.4c-0.3-0.2-0.7-0.3-1-0.3h-0.1C60.6,15.1,61,15.2,61.4,15.4c-0.3,0.1-0.5,0.1-0.7,0.2
		c-0.1-0.2-0.3-0.4-0.4-0.5c0,0,0,0-0.1,0c-0.2,0-0.4,0-0.5,0c-0.6,0.2-1.1,0.5-1.4,1c0.9-0.1,1.7-0.2,2.5-0.5
		C61,15.5,61.2,15.5,61.4,15.4z"/>
	<polygon class="st0" points="55.3,61 50.7,61.9 50.9,62.2 51,62.3 55.3,61.1 55.8,61 57.5,61 57.8,62.7 57.9,62.7 57.5,60.9 
		55.8,60.9 	"/>
	<path class="st0" d="M15.3,10.6C15.2,10.7,15,10.8,15,11c-0.1,0.5,0,1,0.4,1.3l0.4-1.8C15.6,10.5,15.5,10.5,15.3,10.6z"/>
	<path class="st0" d="M63.4,42.9L63.4,42.9c-0.5,0-1,0-1.5-0.1c-0.7,1.3-5.1,10.5-5.7,17.7H57h0.6v-0.1H57
		C58.5,52.4,62.8,43.9,63.4,42.9z"/>
	<path class="st0" d="M62,26.3c-0.1,0-0.3,0-0.4,0l0.2,0.6l1.1-0.5l0.9-0.4l-0.3-0.6C63.1,25.9,62.6,26.2,62,26.3z"/>
	<path class="st0" d="M61.9,17.4L61.9,17.4c0-0.2-0.1-0.3-0.2-0.4c-1,0.4-2,0.6-3.1,0.6c-0.4,0-0.7-0.1-1.1-0.1
		c0,0.1-0.1,0.3-0.1,0.4C58.9,18.3,60.5,18.1,61.9,17.4z"/>
	<path class="st0" d="M62.8,25.3c0.3-0.2,0.6-0.5,0.8-0.8c0.8-1.5,1-3.2,0.6-4.8c-0.2-0.9-0.5-1.7-0.9-2.4l0,0
		c0.4,0.8,0.7,1.5,0.8,2.3c0.4,1.6,0.2,3.3-0.6,4.8C63.3,24.7,63,25,62.8,25.3c0.7-2.4,0.5-5-0.6-7.4c-1,0.5-2.1,0.8-3.1,0.8
		c-0.6,0-1.2-0.1-1.7-0.3c-0.1,0.9-0.1,1.8,0.1,2.7c0.2,1.4,0.8,2.6,1.9,3.6c0.6,0.8,1.6,1.1,2.6,1C62.3,25.6,62.6,25.5,62.8,25.3z"
		/>
	<path class="st0" d="M62.6,16.5c0.1,0.1,0.2,0.3,0.3,0.4C62.8,16.8,62.7,16.6,62.6,16.5z"/>
	<path class="st0" d="M61.4,16.5c-0.1-0.1-0.2-0.3-0.3-0.4c0.3-0.1,0.6-0.2,0.8-0.3c-0.3,0.1-0.5,0.2-0.8,0.3
		c-0.9,0.3-1.9,0.5-2.9,0.5c-0.1,0-0.2,0-0.3,0c-0.1,0.1-0.1,0.2-0.2,0.4C59,17.2,60.2,16.9,61.4,16.5z"/>
	<path class="st0" d="M18.1,23.5c0.2,0.1,0.3,0.3,0.5,0.4c0.6,0.5,1.2,1,1.9,1.5l0,0c-0.7-0.5-1.3-1-1.9-1.5
		c0.9-1.5,1.6-2.6,1.8-3.1c-0.3-0.1-0.5-0.3-0.8-0.4C19.3,20.9,18.8,22.3,18.1,23.5z"/>
	<path class="st0" d="M29.2,32.8l-0.1-2.9c-4.9,0.7-14.3-8.6-14.7-9l0.4-0.4c0,0.1,1.1,1.2,2.8,2.6c0.6-1.2,1.2-2.5,1.4-3
		c-2.5-0.9-5.1-1.5-7.8-1.6L9.9,31.2c1.8-1.1,3.4-2.4,4.7-4c-0.4-0.5-0.8-1-1.1-1.6l0.5-0.3c2.9,5.1,13.3,12.8,15.6,14.5L29.2,32.8z
		"/>
	<path class="st0" d="M66.6,33l-2-6.7l-1.4,0.6l-1.7,0.7l-1.6,0.6l0.2,1.2c0.2,1.4,0.5,3.5,0.8,5.7c1.5-1.8,2.8-3.9,3.6-6.2
		c0.1-0.1,0.1-0.2,0.1-0.2l0.5,0.2c-0.1,0-0.1,0-0.1,0.1c-1,2.8-4,9.1-9.8,9.8V40C56.5,40,62.7,39.7,66.6,33
		C66.6,32.9,66.6,33,66.6,33z"/>
	<path class="st0" d="M53.4,37.4l-0.3,0.3v1.1l-2.7,0.3l1.9,1.4l2.3-0.5v-1.3C54.1,38.3,53.8,37.9,53.4,37.4z"/>
	<path class="st0" d="M66.7,32.9l0.5,0.4c0,0,0,0,0-0.1L66.7,32.9z"/>
	<path class="st0" d="M52.5,38.3v-0.5c0-0.2,0-0.5,0-0.6c0-0.2,0-0.5-0.1-0.7c-0.1-0.1-0.2-0.3-0.4-0.4h-0.1L51.4,35v-2.5
		c0-0.3,0.3-0.7,0.6-1l0.9-1.2c0.2-0.3,0.4-0.7,0.6-1c0,0,0.1-0.1,1-0.4c-0.4-1.9-1.2-3.8-2.4-5.4h-0.5c-0.1,0-0.3,0-0.9,0.1h-0.1
		c-0.1,0-0.1,0-0.2,0c-0.1,0-0.2,0-0.3,0c-0.2,0-0.3,0-0.5,0h-0.1c-0.5-0.1-0.9-0.3-1.2-0.6c-0.3-0.4-0.4-1-0.3-1.5v-0.1
		c0-0.1-0.2-1.1-0.3-1.9h0.1c-2.2-1.3-4.7-2-7.2-2c-3.6,0-7.1,1.4-9.7,3.9H31h0.1c0.1,0,0.5,0.2,0.6,0.2c0.3,0,0.6,0,0.9-0.1
		c0.2-0.3,0.5-0.4,0.8-0.5c0.1,0,0.1,0,0.2,0c0.3,0,0.5,0,0.7,0s0.3,0,0.4,0c0.2,0,0.4,0,0.6,0c0.4,0.1,0.9,0.1,1.4,0
		c0.3-0.2,1.1-0.6,1.1-0.6h0.1h0.6h0.1c0.1,0.1,0.9,0.5,1.1,0.6c0.3,0.2,0.8,0.8,0.6,1.2c0,0.3-0.1,0.5-0.2,0.8v0.9l0.1,0.1l0.9-0.3
		l1.1-0.6l0.9-0.6l1.4-0.1l0.4,0.4v0.8l-0.6,0.8l0.1,0.4l0.8,0.8l0.3,0.6L46,27v0.9h-2.7c-0.1,0.3-0.2,0.6-0.2,0.7
		c0,0.2,0,0.5,0,0.8v0.1c-0.1,0.2-0.3,0.7-0.7,0.8c-0.2,0-0.5,0-0.8,0l-0.8,0.2c-0.1,0.1-0.2,0.3-0.3,0.4c0,0.1,0,0.2,0.1,0.3
		c0,0,0.1,0.1,0.1,0.2s0,0.2,0.1,0.3c0.2,0.3,0.4,0.8,0.1,1l-0.1,0.1c-0.2,0.3-0.6,0.4-0.9,0.4c-0.1,0-0.2,0-0.3,0
		c-0.4,0-0.8-0.2-1.1-0.4c-0.4-0.2-0.7-0.5-1.1-0.7c-0.2-0.1-0.5-0.2-0.8-0.2c-0.2,0-0.3,0-0.4,0s-0.1,0-0.2,0.1
		c0,0.1-0.1,0.2-0.1,0.3l0.2,0.9c0.1,0.3,0.4,0.9,0.5,1c0.3,0.4,0.9,1.2,1.1,1.2s0.4-0.1,0.5-0.1c0.2-0.1,0.7-0.2,0.8,0.2
		c0.3,0.4,0.7,0.8,1.1,1.1c0.1,0,0.3,0,0.4-0.1c-0.1-0.2-0.1-0.5,0-0.8c0-0.1,0.1-0.2,0.1-0.3c0-0.3,0.2-0.7,0.4-0.9
		c0.1-0.1,0.1-0.1,0.1-0.1c0.1-0.2,0.2-0.2,0.5-0.3c0.5-0.1,1-0.3,1-0.3c0.3-0.1,0.5-0.1,0.8-0.1c0.7,0,1,0.1,1,0.4v0.1
		c0.1,0.1,0.1,0.3,0.1,0.5c0.1,0.3,0.2,0.6,0.4,0.9c0.2,0.2,0.5,0.4,0.7,0.6c0.4,0.1,0.7,0.2,1.1,0.3l1.1,0.3l0.4,0.7v1.2l-0.3,0.6
		l-0.4,1l-0.4,0.9c0,0.4,0,0.7,0,1c0.3,0.4,0,0.7-0.2,0.9l-0.1,0.1c-0.3,0.3-0.6,0.6-0.8,0.9c-0.1,0.2-0.6,0.9-0.7,1l-0.8,0.4
		l-1.2,0.2l-0.9-0.2l-0.7-0.8c-0.4-0.3-0.6-0.8-0.6-1.3c0-0.2,0.1-0.4,0.1-0.6c0-0.1,0-0.1,0-0.2c0-0.4,0-0.7,0-1.1
		c0-0.4,0-0.7-0.1-1L41,40.1l-0.9-0.5l-0.9-0.7v-0.6L39,37.8l-0.2-0.5L38,36.7l-1-0.4l-1.1-0.1c-0.2,0.1-0.3,0.1-0.4,0.1v-0.1
		l-0.6,1.1l-4.8-0.7l0.2,4.4l-0.5-0.3c-0.1,0-0.6-0.4-1.3-0.9c0.4,0.7,0.9,1.3,1.4,1.9c2.6,3.2,6.6,5.1,10.8,5.1
		c4.5,0,8.7-2.2,11.3-5.8l-3.1-2.3L52.5,38.3z"/>
	<path class="st0" d="M59.7,31.2c-0.2,0.8-0.4,1.5-0.7,2.3c-1,2.7-2.5,4.2-4.4,4.4c0.2,0.2,0.3,0.3,0.4,0.4c2.1-0.2,4-1.2,5.4-2.7
		C60.1,34.1,59.9,32.5,59.7,31.2z"/>
	<polygon class="st0" points="71.1,60.6 71,60.6 72,61.8 66.4,63.9 66.4,63.9 72.1,61.8 	"/>
	<path class="st0" d="M68.2,42c-1.1,0.4-2.1,0.6-3.2,0.8c-1.9,10.7,2.3,15.3,4.1,16.7C65.3,54,67.7,44,68.2,42z"/>
	<polygon class="st0" points="64.5,62.4 65,62.8 67.9,61.3 	"/>
	<path class="st0" d="M70.9,40.2l-5-14.4h-0.1L70.9,40.2c-1.6,0.9-3.3,1.6-5.1,1.9l3-1.8l-1.9-6.5l0,0c-1.3,2.1-3.2,4-5.4,5.2
		c0.2,1.6,0.4,2.8,0.5,3.3c1.3,0.2,2.6,0.1,3.9-0.1C67.7,41.8,69.4,41.2,70.9,40.2z"/>
	<path class="st0" d="M70.1,59.3c0.1,0.1,0.1,0.2,0.1,0.2l0.2,0.2C70.3,59.6,70.2,59.4,70.1,59.3c-4.2-6.7-0.8-15.6,0.4-18.4l0,0
		C69.2,43.6,65.9,52.6,70.1,59.3z"/>
	<path class="st0" d="M21.5,13.3c0.4,0.3,0.9,0.5,1.4,0.6l0.8-2.9c0.5-1.6-0.5-3.3-2.1-3.7L20.5,7c-0.2-0.1-0.5-0.1-0.8-0.1
		c-1.4,0-2.6,0.9-2.9,2.2l-0.7,2.5c0.7,0.4,1.6,0.6,2.4,0.6C19.6,12.1,21.4,12.6,21.5,13.3z"/>
	<polygon class="st0" points="12.7,64.9 16.8,67.9 19.8,65.8 13.9,64.9 	"/>
	<polygon class="st0" points="18,62.6 20.4,63.8 22,62.7 18.3,62.6 	"/>
	<path class="st0" d="M15.4,28.3c-0.1-0.2-0.3-0.3-0.4-0.4c-1.5,1.6-3.2,3.1-5.1,4.2l-0.1,0.6C12,31.6,13.9,30.1,15.4,28.3z"/>
	<path class="st0" d="M11.8,60.1c0.1,0.7,0.4,2.8,0.7,4.3h1.2l0.7-4.2c-0.2,0-0.4,0-0.6,0C13.1,60.2,12.4,60.1,11.8,60.1z"/>
	<path class="st0" d="M17.6,30.7L17.6,30.7c-2.2,2.6-5,4.7-8.2,6v0.1C12.6,35.5,15.4,33.4,17.6,30.7z"/>
	<path class="st0" d="M17.2,60c0.1,0.8,0.2,1.7,0.2,2.1h1c0.1-0.4,0.2-1.3,0.4-2.2C18.3,59.9,17.8,60,17.2,60L17.2,60z"/>
	<path class="st0" d="M9.1,37.3L9.1,37.3L7,58.7c2.3,0.7,4.8,1,7.2,0.9h0.3c2.7-0.1,5.4-0.4,8-0.9c-0.9-2.4-1.5-10.7-2-25.3
		c-1-0.8-1.9-1.6-2.8-2.5c-2.1,2.5-4.8,4.6-7.8,6 M9.2,37.5L9.2,37.5c0.2-0.2,0.4-0.3,0.9-0.5C9.7,37.2,9.4,37.4,9.2,37.5z"/>
	<path class="st1" d="M20.5,25.4c0-1.7,0-3.9,0-4.5l0,0c0,0-0.1,0-0.1-0.1c-0.2,0.5-0.9,1.6-1.8,3.1C19.2,24.4,19.8,24.9,20.5,25.4z
		"/>
	<path class="st1" d="M17.6,30.7c-0.8-0.8-1.6-1.6-2.2-2.4c0,0,0,0,0-0.1c-1.5,1.9-3.4,3.4-5.5,4.3v0.1l-0.4,4
		C12.6,35.4,15.4,33.3,17.6,30.7z"/>
	<path class="st1" d="M61.3,15.4c-0.3-0.2-0.7-0.3-1-0.3c0.1,0.1,0.3,0.3,0.4,0.5C60.9,15.5,61.1,15.5,61.3,15.4z"/>
	<path class="st1" d="M62.9,16.9c-0.1-0.1-0.2-0.3-0.3-0.4c-0.3,0.2-0.6,0.4-0.9,0.5c0.1,0.1,0.2,0.2,0.2,0.4
		C62.3,17.3,62.6,17.1,62.9,16.9z"/>
	<path class="st1" d="M62.7,25.3c0.3-0.3,0.6-0.6,0.8-0.9c0.8-1.5,1-3.2,0.6-4.8c-0.2-0.8-0.5-1.5-0.8-2.3c-0.3,0.3-0.7,0.4-1,0.6
		c0,0,0,0-0.1,0C63.3,20.3,63.5,23,62.7,25.3z"/>
	<path class="st1" d="M61.4,16.5c0.1,0,0.2-0.1,0.4-0.2c0.1-0.1,0.3-0.1,0.5-0.2l0,0c-0.1-0.1-0.2-0.2-0.3-0.3
		c-0.2,0.1-0.5,0.2-0.8,0.3C61.2,16.2,61.3,16.4,61.4,16.5z"/>
	<path class="st1" d="M65.8,42.1c1.8-0.3,3.5-1,5-2l-5-14.3l-1.1,0.5h-0.1l2,6.7c0,0,0-0.1,0.1-0.1l0.5,0.3c0,0,0,0,0,0.1l0,0
		c-0.1,0.2-0.2,0.3-0.3,0.5l1.9,6.5L65.8,42.1z"/>
	<polygon class="st1" points="71,60.6 69.9,60.6 68.2,61.2 67.9,61.3 65,62.8 65,62.8 66.4,63.9 72,61.8 	"/>
	<path class="st1" d="M69.1,59.5c0.2,0.2,0.4,0.3,0.7,0.5h0.8c-0.1-0.1-0.1-0.2-0.2-0.3l-0.2-0.2c0,0,0-0.1-0.1-0.2
		c-4.2-6.7-0.9-15.7,0.4-18.4c-0.7,0.5-1.5,0.8-2.3,1.1C67.7,44,65.3,54,69.1,59.5z"/>
	<polygon class="st1" points="66.2,64.5 66,64.3 65.6,64.4 64.1,63.2 63.9,63.3 66.2,65.3 70.7,62.9 70.7,62.9 	"/>
	<polygon class="st1" points="51.8,65 56.6,63.5 51.6,64.2 51.6,64.1 51.3,64.2 	"/>
	<path class="st1" d="M62.6,49.1c0.3-0.6,0.6-1.3,0.9-1.9c0,0,0,0,0-0.1C63.2,47.8,62.9,48.4,62.6,49.1z"/>
	<path class="st1" d="M57.6,60.4c0.3-0.9,0.7-1.7,1-2.6C58.1,59.1,57.8,60,57.6,60.4L57.6,60.4z"/>
	<path class="st1" d="M63.5,47.1L63.5,47.1c0.2-0.3,0.4-0.7,0.6-1.1c0.1-0.9,0.2-1.9,0.4-3c-0.3,0-0.7,0-1,0h-0.2
		c-0.5,0.9-4.8,9.4-6.3,17.5h0.5c0.9-2.1,1.8-4.3,2.7-6.3c0.2-0.4,0.3-0.7,0.5-1.1c0,0,0-0.1,0.1-0.1C61.7,50.9,62.5,48.8,63.5,47.1
		z"/>
	<path class="st1" d="M60.7,53.1L60.7,53.1C60.7,53,60.7,53,60.7,53.1C60.7,53,60.7,53.1,60.7,53.1z"/>
	<polygon class="st1" points="55.8,61 55.3,61.1 51,62.3 51.8,63.5 57.8,62.7 57.5,61 	"/>
	<path d="M71.4,60.2c-6-7.5-0.3-19.1,0-19.7h0.1l-5.3-15.4l-1.8,0.7L64,25c0.9-1.6,1.2-3.5,0.7-5.3c-0.2-0.9-0.5-1.7-1-2.5
		c0.3-0.2,0.4-0.3,0.5-0.3l-0.4-0.4c0,0-0.2,0.1-0.4,0.3c-0.1-0.1-0.2-0.3-0.3-0.4c0.1-0.1,0.3-0.2,0.4-0.3l-0.4-0.4
		c-0.1,0.1-0.3,0.2-0.4,0.3c-0.1-0.1-0.2-0.2-0.3-0.3c0.3-0.1,0.5-0.3,0.6-0.3l-0.3-0.5c0,0-0.3,0.2-0.8,0.4c-1.3-1-3.1-0.8-4.1,0.5
		c-0.1,0.1-0.2,0.3-0.3,0.4c-0.1,0-0.2,0-0.3,0l-0.1,0.5h0.1c-0.1,0.1-0.1,0.2-0.2,0.4c-0.1,0-0.1,0-0.2,0l-0.1,0.5h0.1
		c-0.3,1.2-0.4,2.5-0.1,3.8c0.3,1.4,1,2.8,2,3.8c0.6,0.6,1.3,1,2.2,1.2l0.2,0.7l-2,0.8v0.2c0,0,0.1,0.5,0.2,1.4
		c-0.1,0.8-1,7.4-4.8,7.9c0.6-1.7,0.9-3.4,0.9-5.2c0-1-0.1-1.9-0.3-2.9l-0.2-0.5c-1.6-8-9.4-13.1-17.4-11.5
		C31.6,18.5,27.1,23.1,26,29c-1.9-0.8-3.6-1.9-5.2-3.1c0-2,0-5,0-5.1v-0.1l-0.1-0.1c-0.3-0.2-0.6-0.4-0.8-0.5c0.4,0,0.8,0.1,1.2,0.1
		c1,0,2-0.1,3-0.3l0.2-0.1v-0.2c-0.3-2.3-0.1-4.5,0.5-6.7c1-2.9,1-5.1,0.2-6.5c-0.7-1.1-1.7-1.8-3-2c-1.6-0.6-3.3-0.7-4.9-0.1
		c-2.2,0.8-4,2.8-5.4,5.9c-0.7,1.7-1.6,3.4-2.5,5.1l-0.3,0.2l0.3,0.2c1.2,0.9,2.4,1.8,3.7,2.5c-1.2-0.1-2-0.1-2.1-0.1h-0.3l-4,41.2
		l0.2,0.1c1.4,0.5,2.9,0.8,4.3,0.9c0.1,0.7,0.5,3.1,0.8,4.6v0.2l-0.1,0.1l4.8,3.5l4.5-3.1l-7-1.1l0.7-4.3c0.6,0,1.1,0,1.7-0.1
		c0.1,1.1,0.2,2.3,0.2,2.3v0.2l-0.1,0.1l3.6,1.8l3.3-2.2l-4.8-0.2c0.1-0.5,0.2-1.4,0.4-2.3c2.2-0.3,3.8-0.6,3.8-0.6l0.3-0.1
		l-0.2-0.3C22,57,21.3,48.6,20.9,34c2.2,1.9,4.4,3.7,6,4.9C27.5,40,28.2,41,29,42c5.1,6.2,14.3,7.1,20.5,2c1-0.9,1.9-1.8,2.7-2.9
		l2.2-0.5c0.1,0,0.2,0,0.3,0c1.9,0,3.9-0.5,5.6-1.4c0.2,1.7,0.4,3,0.5,3.3c-0.6,1.2-5.2,10.6-5.8,18l-5.7,1.1l0.5,0.8l1.2,1.8h0.3
		h0.2l4.5-0.6l2-0.3l-0.3-2.7c0,0,0-0.1,0.1-0.2c0.2-0.4,0.6-1.2,1.1-2.4c0.6-1.3,1.3-3.3,2-5l-0.2-0.1c-0.2,0.4-0.4,0.9-0.6,1.3
		c-0.9,2.1-1.8,4.2-2.7,6.3v0.1h-0.6H56c0.6-7.2,5-16.4,5.7-17.7c0.5,0.1,1,0.1,1.5,0.1l0,0h0.2c0.3,0,0.7,0,1,0
		c-0.2,1.1-0.3,2.1-0.4,3c-0.2,0.4-0.4,0.8-0.6,1.2c0,0,0,0,0,0.1c-0.2,8.3,3.7,11.8,5.1,12.9L62.8,62l1,0.9l0.3,0.3l1.5,1.2
		l0.4-0.1l4.7-1.4l0,0l0,0l2.2-0.8L71.4,60.2z M57.5,60.9l0,1.9l0.3-0.1l-6,0.8L51,62.3v-0.1l-0.2-0.3l4.6-0.9l0.5-0.1H57.5z
		 M59.7,15.1c0.1,0,0.3,0,0.5,0h0.1h0.1c0.3,0,0.7,0.1,1,0.3c-0.2,0.1-0.4,0.1-0.6,0.2c-0.8,0.3-1.6,0.4-2.5,0.5
		C58.6,15.6,59.1,15.3,59.7,15.1z M57.9,16.6c0.1,0,0.2,0,0.3,0c1,0,2-0.2,2.9-0.5c0.3-0.1,0.5-0.2,0.8-0.3c0.1,0.1,0.2,0.2,0.3,0.3
		l0,0c-0.2,0.1-0.3,0.1-0.5,0.2c-0.1,0.1-0.2,0.1-0.4,0.2c-1.2,0.5-2.4,0.7-3.7,0.5C57.8,16.8,57.8,16.7,57.9,16.6z M57.5,17.5
		c0.4,0,0.7,0.1,1.1,0.1c1.1,0,2.1-0.2,3.1-0.6c0.3-0.1,0.6-0.3,0.9-0.5c0.1,0.1,0.2,0.3,0.3,0.4c-0.3,0.2-0.6,0.4-1,0.5l0,0
		c-1.4,0.7-3,0.9-4.5,0.5C57.4,17.8,57.5,17.6,57.5,17.5z M59.4,24.7c-1.1-1-1.7-2.2-1.9-3.6c-0.2-0.9-0.2-1.8-0.1-2.7
		c0.5,0.2,1.1,0.3,1.7,0.3c1.1,0,2.2-0.3,3.1-0.8c0,0,0,0,0.1,0c0.3-0.2,0.7-0.3,1-0.6l0,0c0.4,0.7,0.7,1.5,0.9,2.4
		c0.4,1.6,0.2,3.3-0.6,4.8c-0.2,0.3-0.5,0.6-0.8,0.8c-0.2,0.2-0.5,0.3-0.8,0.4C61,25.8,60,25.5,59.4,24.7z M63.8,26l-0.9,0.4
		l-1.1,0.5l-0.2-0.6c0.1,0,0.3,0,0.4,0c0.6-0.1,1.1-0.4,1.5-0.9L63.8,26z M55,32.1c0,1.8-0.3,3.5-0.9,5.2c-0.1-0.2-0.3-0.3-0.4-0.5
		l-0.2-0.2L53.1,37c0-0.2-0.1-0.5-0.2-0.7c-0.1-0.2-0.3-0.5-0.6-0.6l-0.4-0.8v-2.3c0.1-0.2,0.3-0.4,0.5-0.6l1-1.3
		c0.2-0.4,0.4-0.8,0.5-0.9c0.2-0.1,0.5-0.2,0.7-0.3C54.9,30.3,55,31.2,55,32.1z M51.8,22.9c-0.4,0-0.7,0.1-1.1,0.1
		c-0.1,0-0.1,0-0.2,0c-0.1,0-0.3,0-0.4,0c-0.1,0-0.3,0-0.4,0h-0.1c-0.3-0.1-0.6-0.2-0.8-0.4c-0.1-0.1-0.2-0.3-0.2-1.1v-0.1
		c0-0.1-0.1-1-0.2-1.6C49.7,20.6,50.9,21.7,51.8,22.9z M28.4,24.7c0.2,0.2,0.3,0.4,0.5,0.6c-0.1,0.1-0.1,0.2-0.2,0.4
		c-0.4,0.3-0.9,0.5-1,0.5C27.9,25.7,28.1,25.2,28.4,24.7z M27.8,26.8c0.2-0.1,0.5-0.2,1-0.5h0.1v-0.1c0.5-0.6,0.4-0.8,0.4-0.9
		s-0.1-0.2-0.1-0.2c-0.2-0.3-0.5-0.5-0.7-0.8c0.5-0.8,1.1-1.5,1.7-2.2v0.1l0.7-0.2c0.1,0.1,0.4,0.2,0.5,0.2c0.5,0.1,1,0,1.4-0.2
		c0.1-0.1,0.3-0.2,0.4-0.3c0.1,0,0.1,0,0.2,0c0.2,0,0.3,0,0.5,0s0.4,0,0.6,0c0.1,0,0.3,0,0.4,0c0.6,0.1,1.2,0.1,1.8-0.1
		c0.2-0.1,0.8-0.4,1-0.5h0.5c0.2,0.1,0.8,0.4,1,0.5c0.1,0.1,0.3,0.3,0.3,0.5c-0.1,0.2-0.2,0.8-0.3,0.9v1.4l0.9,0.3l1.2-0.4l1.1-0.6
		l0.8-0.5l1-0.1l0.1,0.1v0.4l-0.6,0.8l0.2,0.8l0.8,0.8l0.2,0.5l0.4,0.7v0.2h-2.6v0.2c-0.1,0.3-0.2,0.7-0.2,0.8
		c-0.1,0.3-0.1,0.7-0.1,1c-0.1,0.2-0.2,0.3-0.3,0.4c-0.2,0-0.5,0-0.7,0h-0.1l-1,0.3l-0.1,0.1c-0.2,0.2-0.4,0.5-0.5,0.8
		c0,0.2,0.1,0.4,0.2,0.6c0,0.1,0.1,0.1,0.1,0.2s0.1,0.2,0.2,0.3c0.1,0.1,0.1,0.2,0.2,0.4l-0.1,0.1c-0.2,0.2-0.3,0.2-0.4,0.2
		s-0.2,0-0.3-0.1c-0.3,0-0.6-0.1-0.8-0.3c-0.4-0.3-0.7-0.6-1.1-0.8c-0.3-0.2-0.8-0.3-1.2-0.3c-0.2,0-0.3,0-0.4,0
		c-0.2,0-0.4,0-0.6,0.2c-0.2,0.2-0.3,0.5-0.3,0.8l0.2,1v0.1c0,0.1,0.3,0.6,0.4,0.9l-3.7-0.4l0.5-0.7l-0.3-1.7l-1,0.5
		c-0.1-0.2-0.2-0.4-0.2-0.6l-0.6-1.2v-0.8h-0.3l-0.7,0.1v-0.1l-0.3,0.1c-0.4,0.1-0.9,0.1-1.3,0c-0.1-0.2-0.3-0.5-0.4-0.7
		C27.6,28.1,27.7,27.4,27.8,26.8z M40.9,36.1c-0.1-0.2-0.1-0.4,0-0.5c0-0.1,0.1-0.2,0.1-0.3c0-0.2,0.1-0.4,0.2-0.6
		c0.1,0,0.1-0.1,0.2-0.2c0.1,0,0.2-0.1,0.3-0.1c0.4-0.1,0.9-0.3,1-0.3c0.2,0,0.5,0,0.7,0s0.3,0,0.5,0v0.1c0,0.1,0.1,0.2,0.1,0.4
		c0.1,0.5,0.2,0.9,0.5,1.3c0,0,0.7,0.8,1.1,0.8c0.1,0,0.6,0.2,1,0.3l0.9,0.2l0.2,0.4v0.9L47.5,39l-0.4,1l-0.4,1v0.1
		c0,0.3,0,0.6,0,0.9c0,0.1,0,0.3,0.1,0.4c0,0.1-0.1,0.1-0.2,0.2l-0.1,0.1c-0.3,0.3-0.6,0.7-0.9,1c-0.1,0.1-0.4,0.6-0.7,0.9l-0.6,0.3
		l-1,0.2L42.7,45l-0.6-0.7c-0.2-0.2-0.4-0.5-0.4-0.9c0-0.2,0-0.4,0.1-0.6c0-0.1,0-0.2,0-0.2c0-0.4,0.1-0.8,0-1.1
		c0-0.4-0.1-0.7-0.1-1.1l-0.2-0.6l-1.1-0.5l-0.7-0.5v-0.4l-0.2-0.6l-0.3-0.7l-1-0.7L37,35.9l-1.3-0.1h-0.1l0.6-1.2
		c0.3,0.4,0.8,1.1,1.2,1.2c0.2,0,0.5,0,0.7-0.1c0.1,0,0.1,0,0.2,0c0.4,0.6,0.9,1,1.6,1.4c0,0,1-0.1,1-0.6
		C41,36.3,40.9,36.2,40.9,36.1z M30.7,31.5c0.1,0.2,0.2,0.5,0.2,0.6l-1.1,0.6l-0.1-2.8h0.4v0.3L30.7,31.5z M32.1,32.1l0.1,0.7
		l-0.9,1.3l4.3,0.5l-1.1,2.1L30,36.1l-0.1-2.9L32.1,32.1z M27.3,27.1c0,0.1,0,0.2-0.1,0.4C27.1,28,27,28.6,27,28.7
		c0,0.2,0.1,0.4,0.2,0.5c-0.2,0-0.3-0.1-0.5-0.2C26.9,28.5,27.1,27.8,27.3,27.1z M20.4,20.8C20.4,20.8,20.5,20.8,20.4,20.8
		c0.1,0.1,0.1,0.1,0.1,0.1c0,0.6,0,2.8,0,4.5l0,0c-0.7-0.5-1.3-1-1.9-1.5c-0.2-0.1-0.3-0.3-0.5-0.4c0.7-1.2,1.2-2.6,1.5-3.1
		C19.9,20.5,20.1,20.7,20.4,20.8z M10,15.3c0.9-1.6,1.8-3.3,2.5-5c1.3-3,3-4.9,5.1-5.6c1.5-0.5,3.1-0.5,4.5,0.1h0.1
		c1.1,0.2,2,0.8,2.6,1.7c0.8,1.3,0.7,3.3-0.2,6.1c-0.6,2.2-0.8,4.5-0.6,6.7c-1.7,0.3-3.4,0.4-5.1,0.1l0.2-1.5
		c1.8,0.3,3.6-0.8,4.1-2.6l1.1-4.2c0.5-1.9-0.6-3.8-2.5-4.4c0,0,0,0-0.1,0l-1.1-0.3c-1.9-0.5-3.8,0.6-4.4,2.5c0,0,0,0,0,0.1l-0.3,1
		c-0.3-0.1-0.6,0-0.9,0.1c-0.3,0.2-0.5,0.4-0.6,0.8c-0.2,0.8,0.1,1.6,0.7,2.1l0.1-0.1l-0.1,0.4c-0.3,0.9-0.1,1.9,0.3,2.7
		c0.1,0.2,0.3,0.4,0.4,0.6l-0.6,2c-0.2,0-0.4-0.1-0.6-0.1C13,17.4,11.4,16.4,10,15.3z M17.7,17.1c-1.5-0.5-2.5-2.2-2-3.8l0.3-1.2
		c0.8,0.4,1.7,0.6,2.6,0.6c0.9-0.1,1.7,0.1,2.4,0.7c0.1,0.5,1.1,0.9,1.8,1.1l-0.2,0.8c-0.4,1.6-2.1,2.6-3.7,2.1c0,0,0,0-0.1,0
		L17.7,17.1z M18.4,17.8l-0.2,1.5c-0.8-0.3-1.7-0.5-2.5-0.7l0.6-1.7c0.4,0.3,0.8,0.5,1.3,0.7L18.4,17.8z M15.4,12.3
		C15,12,14.9,11.5,15,11c0-0.2,0.2-0.3,0.3-0.4c0.2-0.1,0.3-0.1,0.5-0.1L15.4,12.3z M16.1,11.6l0.7-2.5c0.3-1.3,1.5-2.2,2.9-2.2
		c0.3,0,0.6,0,0.8,0.1l1.1,0.3c1.6,0.4,2.6,2.1,2.1,3.7l-0.8,2.9c-0.5-0.1-1-0.3-1.4-0.6c-0.1-0.7-1.9-1.2-3-1.1
		C17.7,12.2,16.8,12,16.1,11.6z M9.4,36.7l0.4-4v-0.1L9.9,32c1.9-1.1,3.6-2.6,5.1-4.2c0.1,0.2,0.3,0.3,0.4,0.4c0,0,0,0,0,0.1
		c0.6,0.8,1.4,1.6,2.2,2.4l0,0C15.4,33.4,12.6,35.5,9.4,36.7L9.4,36.7z M19.8,65.8l-3,2.1l-4.1-3h1.2L19.8,65.8z M13.7,64.4h-1.2
		c-0.3-1.5-0.6-3.6-0.7-4.3c0.6,0,1.3,0.1,2,0.1c0.2,0,0.4,0,0.6,0L13.7,64.4z M22,62.7l-1.6,1.1L18,62.6h0.3L22,62.7z M18.4,62.1
		h-1c0-0.4-0.1-1.3-0.2-2.1h0.1c0.5,0,1-0.1,1.5-0.1C18.6,60.8,18.5,61.7,18.4,62.1z M22.5,58.7c-2.6,0.5-5.3,0.8-8,0.9h-0.3
		c-2.4,0.1-4.9-0.2-7.2-0.9l2.1-21.3v-0.1c0.2-0.1,0.5-0.2,0.8-0.4c3-1.4,5.7-3.5,7.8-6c0.9,0.9,1.8,1.7,2.8,2.5
		C21,48,21.6,56.3,22.5,58.7z M14,25.3l-0.5,0.3c0.3,0.6,0.7,1.1,1.1,1.6c-1.3,1.6-2.9,2.9-4.7,4l1.3-12.7c2.7,0.1,5.3,0.7,7.8,1.6
		c-0.2,0.5-0.8,1.8-1.4,3c-1.7-1.4-2.8-2.5-2.8-2.6l-0.4,0.4c0.4,0.4,9.8,9.7,14.7,9l0.1,2.9l0.4,7C27.3,38.1,16.9,30.4,14,25.3z
		 M40.7,46.8c-4.2,0-8.2-1.9-10.8-5.1c-0.5-0.6-1-1.2-1.4-1.9c0.7,0.5,1.2,0.9,1.3,0.9l0.5,0.3l-0.2-4.4l4.8,0.7l0.6-1.1v0.1
		c0.1,0,0.2,0,0.4-0.1l1.1,0.1l1,0.4l0.8,0.6l0.2,0.5l0.2,0.5v0.6l0.9,0.7l0.9,0.5l0.1,0.4c0.1,0.3,0.1,0.6,0.1,1s0,0.7,0,1.1
		c0,0.1,0,0.1,0,0.2c0,0.2-0.1,0.4-0.1,0.6c0,0.5,0.2,1,0.6,1.3l0.7,0.8l0.9,0.2l1.2-0.2l0.8-0.4c0.1-0.1,0.6-0.8,0.7-1
		c0.2-0.3,0.5-0.6,0.8-0.9l0.1-0.1c0.2-0.2,0.5-0.5,0.2-0.9c0-0.3,0-0.6,0-1l0.4-0.9l0.4-1l0.3-0.6v-1.2l-0.4-0.7l-1.1-0.3
		c-0.4-0.1-0.7-0.2-1.1-0.3c-0.2-0.2-0.5-0.4-0.7-0.6c-0.2-0.3-0.3-0.6-0.4-0.9c0-0.2,0-0.4-0.1-0.5v-0.1c0-0.3-0.3-0.4-1-0.4
		c-0.3,0-0.5,0-0.8,0.1c0,0-0.5,0.2-1,0.3c-0.3,0.1-0.4,0.1-0.5,0.3c0,0,0,0-0.1,0.1c-0.2,0.2-0.4,0.6-0.4,0.9
		c0,0.1-0.1,0.2-0.1,0.3c-0.1,0.3-0.1,0.6,0,0.8c-0.1,0.1-0.3,0.1-0.4,0.1c-0.4-0.3-0.8-0.7-1.1-1.1c-0.1-0.4-0.6-0.3-0.8-0.2
		c-0.1,0-0.3,0.1-0.5,0.1s-0.8-0.8-1.1-1.2c-0.1-0.1-0.4-0.7-0.5-1l-0.2-0.9c0-0.1,0.1-0.2,0.1-0.3c0.1-0.1,0.1-0.1,0.2-0.1
		s0.2,0,0.4,0c0.3,0,0.6,0.1,0.8,0.2c0.4,0.2,0.7,0.5,1.1,0.7c0.3,0.2,0.7,0.4,1.1,0.4c0.1,0,0.2,0,0.3,0c0.3,0,0.7-0.1,0.9-0.4
		l0.1-0.1c0.3-0.2,0.1-0.7-0.1-1c-0.1-0.1-0.1-0.2-0.1-0.3c0-0.1-0.1-0.2-0.1-0.2c-0.1-0.1-0.1-0.2-0.1-0.3c0.1-0.1,0.2-0.3,0.3-0.4
		l0.8-0.2c0.3,0,0.6,0,0.8,0c0.4-0.1,0.6-0.6,0.7-0.8v-0.1c0-0.3,0-0.6,0-0.8c0-0.1,0.1-0.4,0.2-0.7H46V27l-0.5-0.8l-0.3-0.6
		l-0.8-0.8l-0.1-0.4l0.6-0.8v-0.8l-0.4-0.4l-1.4,0.1l-0.9,0.6l-1.1,0.6L40.2,24l-0.1-0.1V23c0.1-0.3,0.2-0.5,0.2-0.8
		c0.2-0.4-0.3-1-0.6-1.2c-0.2-0.1-1-0.5-1.1-0.6h-0.1h-0.6h-0.1c0,0-0.8,0.4-1.1,0.6c-0.5,0.1-1,0.1-1.4,0c-0.2,0-0.4,0-0.6,0
		c-0.1,0-0.2,0-0.4,0s-0.4,0-0.7,0c-0.1,0-0.1,0-0.2,0c-0.3,0.1-0.6,0.2-0.8,0.5c-0.3,0.1-0.6,0.1-0.9,0.1c-0.1,0-0.5-0.2-0.6-0.2
		H31h-0.1c2.6-2.5,6.1-3.9,9.7-3.9c2.5,0,5,0.7,7.2,2h-0.1c0.1,0.8,0.3,1.8,0.3,1.9v0.1c-0.1,0.5,0,1.1,0.3,1.5
		c0.3,0.3,0.7,0.5,1.2,0.6h0.1c0.2,0,0.3,0,0.5,0c0.1,0,0.2,0,0.3,0s0.1,0,0.2,0h0.1c0.6-0.1,0.8-0.1,0.9-0.1h0.5
		c1.2,1.6,2,3.5,2.4,5.4c-0.9,0.3-1,0.4-1,0.4c-0.2,0.3-0.4,0.7-0.6,1L52,31.5c-0.3,0.3-0.6,0.7-0.6,1V35l0.5,1.1H52
		c0.2,0.1,0.3,0.3,0.4,0.4c0.1,0.2,0.1,0.5,0.1,0.7c0,0.1,0,0.4,0,0.6v0.5l-3.6,0.4l2.9,2.2C49.2,44.4,45.2,46.8,40.7,46.8z
		 M54.6,40l-2.3,0.5l-1.9-1.4l2.7-0.3v-1.1l0.3-0.3c0.4,0.5,0.7,0.9,1.2,1.3V40z M54.6,37.9c1.9-0.2,3.4-1.7,4.4-4.4
		c0.3-0.8,0.5-1.5,0.7-2.3c0.2,1.3,0.4,2.9,0.7,4.4c-1.4,1.5-3.3,2.5-5.4,2.7C54.9,38.2,54.8,38.1,54.6,37.9z M62,42.3
		c-0.1-0.5-0.3-1.7-0.5-3.3c2.2-1.2,4.1-3.1,5.4-5.2l0,0c0.1-0.2,0.2-0.3,0.3-0.5l0,0l-0.5-0.4c-4,6.8-10.2,7.1-11.5,7.1v-1.2
		c5.8-0.7,8.8-7,9.8-9.8c0-0.1,0-0.1,0.1-0.1l-0.5-0.2c0,0,0,0.1-0.1,0.2c-0.8,2.3-2.1,4.4-3.6,6.2c-0.3-2.2-0.6-4.3-0.8-5.7
		l-0.2-1.2l1.6-0.6l1.7-0.7l1.4-0.6h0.1l1.1-0.5h0.1l5,14.4c-1.5,1-3.2,1.6-5,2C64.6,42.4,63.3,42.5,62,42.3z M65,42.8
		c1.1-0.2,2.1-0.4,3.2-0.8c0.8-0.3,1.6-0.6,2.3-1.1l0,0c-1.2,2.8-4.6,11.7-0.4,18.4c0.1,0.1,0.2,0.3,0.3,0.4
		c0.1,0.1,0.1,0.2,0.2,0.3h-0.8c-0.3-0.2-0.5-0.3-0.7-0.5C67.3,58.1,63.1,53.5,65,42.8z M66.4,63.9L66.4,63.9L65,62.8l0,0l-0.5-0.4
		l3.4-1.1l0.3-0.1l1.7-0.6H71h0.1l1,1.2L66.4,63.9z"/>
	<path d="M31.3,31.8L31.3,31.8C31.4,31.8,31.3,31.8,31.3,31.8z"/>
	<path d="M63.5,47c-0.9,1.7-1.9,3.7-2.8,5.8c0,0,0,0,0.1,0.1l0.1,0.1c0,0,0-0.1,0.1-0.2c0.5-1.1,1.1-2.5,1.7-3.6
		c0.3-0.6,0.7-1.3,1-2C63.7,47.2,63.5,47.1,63.5,47z"/>
</g>
</svg>
