<?xml version="1.0" encoding="utf-8"?>
<!-- Generator: Adobe Illustrator 27.8.1, SVG Export Plug-In . SVG Version: 6.00 Build 0)  -->
<svg version="1.1" id="Layer_1" xmlns="http://www.w3.org/2000/svg" xmlns:xlink="http://www.w3.org/1999/xlink" x="0px" y="0px"
	 viewBox="0 0 500 500" style="enable-background:new 0 0 500 500;" xml:space="preserve">
<style type="text/css">
	.st0{fill:#FFFFFF;}
	.st1{clip-path:url(#SVGID_00000141458007525950650500000013370022761087486106_);}
	.st2{fill:#27AAE1;}
</style>
<path id="Path_1803" class="st0" d="M260.8,279.7h1l0.2-30.2h-3L260.8,279.7z"/>
<path id="Path_1804" class="st0" d="M253.9,279.7h1.2l3-30.2h-2.7L253.9,279.7z"/>
<path id="Path_1805" class="st0" d="M252.6,249.2l1.3-9.3l-0.8-7l-1.2,16.1L252.6,249.2z"/>
<path id="Path_1952" class="st0" d="M254.5,229.3h1.1l0.7-11.4h-4.6l0.6,10.9L254.5,229.3z"/>
<path id="Path_1953" class="st0" d="M257.4,230.3h0.6l0.5-6.8l-1.3,0.5L257.4,230.3z"/>
<g id="Group_276" transform="translate(-3.684 24.467)">
	<g>
		<defs>
			<rect id="SVGID_1_" x="224.5" y="201.5" width="66.2" height="64.9"/>
		</defs>
		<clipPath id="SVGID_00000091008279703054167170000011403599070275028399_">
			<use xlink:href="#SVGID_1_"  style="overflow:visible;"/>
		</clipPath>
		
			<g id="Group_275" transform="translate(3.684 -24.467)" style="clip-path:url(#SVGID_00000091008279703054167170000011403599070275028399_);">
			<path id="Path_2368" class="st2" d="M234.6,247.7c0-1.7,0-3.9,0-4.5c0,0-0.1,0-0.1-0.1c-0.2,0.5-0.9,1.6-1.8,3.1
				C233.3,246.7,233.9,247.2,234.6,247.7"/>
			<path id="Path_2369" class="st2" d="M223.5,259.7l0,0.1c0.2-0.1,0.5-0.3,0.9-0.5C223.9,259.5,223.7,259.6,223.5,259.7"/>
			<path id="Path_2370" class="st2" d="M231.7,252.9c-0.8-0.8-1.5-1.6-2.2-2.4c-1.5,1.9-3.4,3.4-5.6,4.4l-0.4,4.1
				C226.7,257.7,229.5,255.6,231.7,252.9"/>
			<path id="Path_2371" class="st2" d="M275.4,237.7c-0.3-0.2-0.7-0.3-1-0.3c0.1,0.1,0.3,0.3,0.4,0.5
				C275,237.8,275.2,237.8,275.4,237.7"/>
			<path id="Path_2372" class="st2" d="M277,239.2c-0.1-0.1-0.2-0.3-0.3-0.4c-0.3,0.2-0.6,0.3-0.9,0.5c0.1,0.1,0.2,0.3,0.3,0.5
				C276.4,239.6,276.7,239.4,277,239.2"/>
			<path id="Path_2373" class="st2" d="M276.8,247.6L276.8,247.6c0.3-0.3,0.6-0.6,0.8-0.9c0.8-1.5,1-3.2,0.6-4.8
				c-0.2-0.8-0.5-1.6-0.9-2.4c-0.3,0.2-0.7,0.4-1,0.6C277.4,242.5,277.6,245.2,276.8,247.6"/>
			<path id="Path_2374" class="st2" d="M276.3,238.4c-0.1-0.1-0.2-0.2-0.3-0.3c-0.2,0.1-0.5,0.2-0.8,0.3c0.1,0.1,0.2,0.3,0.3,0.4
				C275.8,238.6,276,238.5,276.3,238.4"/>
			<path id="Path_2375" class="st2" d="M282.9,262.6l-3,1.8c1.8-0.3,3.5-1,5-2l-5-14.4l-1.2,0.5l2,6.8c0,0,0-0.1,0.1-0.1l0.5,0.3
				c-0.1,0.2-0.2,0.4-0.3,0.5L282.9,262.6z"/>
			<path id="Path_2376" class="st2" d="M286.1,284.1l-1-1.2h-1.2l-1.7,0.6l-3.2,1.6l1.4,1.1L286.1,284.1z"/>
			<path id="Path_2377" class="st2" d="M283.2,281.8c0.2,0.2,0.5,0.4,0.7,0.5h0.8c-0.1-0.1-0.1-0.2-0.2-0.3l-0.2-0.2
				c0,0,0-0.1-0.1-0.2c-4.2-6.7-0.9-15.7,0.4-18.4c-0.7,0.4-1.5,0.8-2.3,1.1C281.8,266.3,279.4,276.3,283.2,281.8"/>
			<path id="Path_2378" class="st2" d="M280.3,286.8l-1.8-1.5l-0.5,0.3l2.3,2l4.5-2.4L280.3,286.8z"/>
			<path id="Path_2379" class="st2" d="M264.5,284.7l-0.1,0l1.5,2.6l4.8-1.5l-5,0.7L264.5,284.7z"/>
			<path id="Path_2380" class="st2" d="M271.1,282.7l0.6,0c1.9-5,4.1-9.8,6.6-14.6c0.1-1,0.2-2,0.4-3c-0.3,0-0.7,0-1,0h-0.2h0
				C277.4,265.2,272.7,274.2,271.1,282.7"/>
			<path id="Path_2381" class="st2" d="M279,265.1L279,265.1L279,265.1L279,265.1"/>
			<path id="Path_2382" class="st2" d="M271.6,283.3l-1.7,0l-0.5,0.1l-4.5,1.2l0.9,1.4l6.1-0.8L271.6,283.3z"/>
			<path id="Path_2383" d="M284.8,285.2l2.2-0.8l-1.5-1.9c-6-7.5-0.3-19.1,0-19.7l0.1,0l-5.3-15.4l-1.8,0.7l-0.4-0.8
				c0.9-1.6,1.2-3.5,0.7-5.3c-0.2-0.9-0.5-1.7-1-2.5c0.3-0.2,0.4-0.3,0.5-0.3l-0.4-0.4c0,0-0.2,0.1-0.4,0.3
				c-0.1-0.1-0.2-0.3-0.3-0.4c0.1-0.1,0.3-0.2,0.4-0.3l-0.4-0.4c-0.1,0.1-0.3,0.2-0.4,0.3c-0.1-0.1-0.2-0.2-0.3-0.3
				c0.3-0.1,0.5-0.3,0.6-0.3l-0.3-0.5c0,0-0.3,0.2-0.8,0.4c-1.3-1-3.1-0.8-4.1,0.5c-0.1,0.1-0.2,0.3-0.3,0.4c-0.1,0-0.2,0-0.3,0
				l-0.1,0.5c0,0,0.1,0,0.1,0c-0.1,0.1-0.1,0.2-0.2,0.4c-0.1,0-0.1,0-0.2,0l-0.1,0.5c0,0,0.1,0,0.1,0c-0.3,1.2-0.4,2.5-0.1,3.8
				c0.3,1.4,1,2.8,2,3.8c0.6,0.6,1.3,1,2.2,1.2l0.2,0.7l-2,0.8l0,0.2c0,0,0.1,0.5,0.2,1.4c-0.1,0.8-1,7.4-4.8,7.9
				c0.6-1.7,0.9-3.4,0.9-5.2c0-1-0.1-1.9-0.3-2.9l0,0l-0.2-0.5l0,0c-1.6-8-9.4-13.1-17.4-11.5c-5.9,1.2-10.4,5.8-11.5,11.7
				c-1.9-0.8-3.6-1.9-5.2-3.1c0-2,0-5,0-5.1v-0.1l-0.1-0.1c-0.3-0.2-0.6-0.4-0.8-0.5c0.4,0,0.8,0.1,1.2,0.1c1,0,2-0.1,3-0.3l0.2-0.1
				l0-0.2c-0.3-2.3-0.1-4.5,0.5-6.7c1-2.9,1-5.1,0.2-6.5c-0.7-1.1-1.7-1.8-3-2c-1.6-0.6-3.3-0.7-4.9-0.1c-2.2,0.8-4,2.8-5.4,5.9
				c-0.7,1.7-1.6,3.4-2.5,5.1l-0.3,0.2l0.3,0.2c1.2,0.9,2.4,1.8,3.7,2.5c-1.2-0.1-2-0.1-2.1-0.1h-0.3l-4,41.2l0.2,0.1
				c1.4,0.5,2.9,0.8,4.3,0.9c0.1,0.7,0.5,3.1,0.8,4.6l0,0.2l-0.1,0.1l4.8,3.5l4.5-3.1l-7-1.1l0.7-4.3c0.6,0,1.1,0,1.7-0.1
				c0.1,1.1,0.2,2.3,0.2,2.3l0,0.2l-0.1,0.1l3.6,1.8l3.3-2.2l-4.8-0.2c0.1-0.5,0.2-1.4,0.4-2.3c2.2-0.3,3.8-0.6,3.8-0.6l0.3-0.1
				l-0.2-0.3c-0.9-1.8-1.6-10.2-2-24.8c2.2,1.9,4.4,3.7,6,4.9c0.6,1.1,1.3,2.1,2.1,3.1c5.1,6.2,14.3,7.1,20.5,2
				c1-0.9,1.9-1.8,2.7-2.9l2.2-0.5c0.1,0,0.2,0,0.3,0c1.9,0,3.9-0.5,5.6-1.4c0.2,1.7,0.4,3,0.5,3.3c-0.6,1.2-5.2,10.6-5.8,18
				l-5.7,1.1l0.5,0.8l1.2,1.8l5-0.7l2-0.3l-0.5-2.6l0,0c0.3-0.8,3.5-8.7,6-13.6c-0.3,8.4,3.7,12,5.1,13.1l-5.8,1.9l1,0.9l1.8,1.5
				L284.8,285.2z M273.8,237.4c0.1,0,0.3,0,0.5,0c0.1,0,0.1,0,0.2,0c0.3,0,0.7,0.1,1,0.3c-0.2,0.1-0.4,0.1-0.6,0.2
				c-0.8,0.3-1.6,0.4-2.5,0.5C272.7,237.9,273.2,237.6,273.8,237.4 M272,238.9c0.1,0,0.2,0,0.3,0c1,0,2-0.2,2.9-0.5
				c0.3-0.1,0.5-0.2,0.8-0.3c0.1,0.1,0.2,0.2,0.3,0.3c-1.4,0.7-2.9,1.1-4.5,0.9C271.9,239.1,271.9,239,272,238.9 M272.7,239.9
				c1.1,0,2.1-0.2,3.1-0.6c0.3-0.1,0.6-0.3,0.9-0.5c0.1,0.1,0.2,0.3,0.3,0.4c-0.3,0.2-0.6,0.4-1,0.5c-1.4,0.7-3,0.9-4.5,0.5
				c0-0.1,0.1-0.3,0.1-0.4C272,239.8,272.3,239.9,272.7,239.9 M271.6,243.4c-0.2-0.9-0.2-1.8-0.1-2.7c0.5,0.2,1.1,0.3,1.7,0.3
				c1.1,0,2.2-0.3,3.2-0.8c0.3-0.2,0.7-0.3,1-0.6c0.4,0.7,0.7,1.5,0.9,2.4c0.4,1.6,0.2,3.3-0.6,4.8c-0.2,0.3-0.5,0.6-0.8,0.8l0,0
				c-0.2,0.2-0.5,0.3-0.8,0.4c-1,0.1-2-0.2-2.6-1C272.4,246,271.8,244.8,271.6,243.4 M275.7,248.6c0.1,0,0.3,0,0.4,0
				c0.6-0.1,1.1-0.4,1.5-0.9l0.3,0.6l-0.9,0.4l-1.1,0.5L275.7,248.6z M273.1,255.8c0.3-0.8,0.5-1.5,0.7-2.3c0.2,1.3,0.4,2.9,0.7,4.4
				c-1.4,1.5-3.3,2.5-5.4,2.7c-0.1-0.1-0.2-0.2-0.4-0.4C270.6,260,272.1,258.5,273.1,255.8 M264.5,261.4l2.7-0.3V260l0.3-0.3
				c0.4,0.5,0.7,0.9,1.2,1.3v1.3l-2.3,0.5L264.5,261.4z M269.1,254.4c0,1.8-0.3,3.5-0.9,5.2c-0.1-0.2-0.3-0.3-0.4-0.5l-0.2-0.2
				l-0.4,0.4c0-0.2-0.1-0.5-0.2-0.7c-0.1-0.2-0.3-0.5-0.6-0.6l-0.4-0.8v-2.3c0.1-0.2,0.3-0.4,0.5-0.6l1-1.3l0,0
				c0.2-0.4,0.4-0.8,0.5-0.9c0.2-0.1,0.5-0.2,0.7-0.3C269,252.6,269.1,253.5,269.1,254.4 M265.9,245.2L265.9,245.2
				c-0.4,0-0.7,0.1-1.1,0.1c-0.1,0-0.1,0-0.2,0c-0.1,0-0.3,0-0.4,0c-0.1,0-0.3,0-0.4,0c0,0-0.1,0-0.1,0c-0.3-0.1-0.6-0.2-0.8-0.4
				c-0.1-0.1-0.2-0.3-0.2-1.1v-0.1c0-0.1-0.1-1-0.2-1.6C263.8,242.9,265,244,265.9,245.2 M254.2,247l1.2-0.4l1.1-0.6l0.8-0.5l1-0.1
				l0.1,0.1v0.4l-0.6,0.8l0.2,0.8l0.8,0.8l0.2,0.5l0.4,0.7v0.2h-2.6l0,0.2c-0.1,0.3-0.2,0.7-0.2,0.8c-0.1,0.3-0.1,0.7-0.1,1
				c-0.1,0.2-0.2,0.3-0.3,0.4c-0.2,0-0.5,0-0.7,0l-0.1,0l-1,0.3l-0.1,0.1c-0.2,0.2-0.4,0.5-0.5,0.8c0,0.2,0.1,0.4,0.2,0.6
				c0,0.1,0.1,0.1,0.1,0.2c0,0.1,0.1,0.2,0.2,0.3c0.1,0.1,0.1,0.2,0.2,0.4c0,0-0.1,0.1-0.1,0.1c-0.2,0.2-0.3,0.2-0.4,0.2
				c-0.1,0-0.2,0-0.3-0.1c-0.3,0-0.6-0.1-0.8-0.3c-0.4-0.3-0.7-0.6-1.1-0.8c-0.3-0.2-0.8-0.3-1.2-0.3c-0.2,0-0.3,0-0.4,0
				c-0.2,0-0.4,0-0.6,0.2c-0.2,0.2-0.3,0.5-0.3,0.8l0.2,1l0,0.1c0,0.1,0.3,0.6,0.4,0.9l-3.7-0.4l0.5-0.7l-0.3-1.7l-1,0.5
				c-0.1-0.2-0.2-0.4-0.2-0.6l-0.6-1.2v-0.8l-0.3,0l-0.7,0.1v-0.1l-0.3,0.1c-0.4,0.1-0.9,0.1-1.3,0c-0.1-0.2-0.3-0.5-0.4-0.7
				c0.1-0.7,0.2-1.4,0.3-2c0.2-0.1,0.5-0.2,1-0.5l0.1,0l0-0.1c0.5-0.6,0.4-0.8,0.4-0.9c0-0.1-0.1-0.2-0.1-0.2
				c-0.2-0.3-0.5-0.5-0.7-0.8c0.5-0.8,1.1-1.5,1.7-2.2l0,0.1l0.7-0.2c0.1,0.1,0.4,0.2,0.5,0.2c0.5,0.1,1,0,1.4-0.2
				c0.1-0.1,0.3-0.2,0.4-0.3c0.1,0,0.1,0,0.2,0c0.2,0,0.3,0,0.5,0c0.2,0,0.4,0,0.6,0c0.1,0,0.3,0,0.4,0c0.6,0.1,1.2,0.1,1.8-0.1
				c0.2-0.1,0.8-0.4,1-0.5h0.5c0.2,0.1,0.8,0.4,1,0.5c0.1,0.1,0.3,0.3,0.3,0.5c-0.1,0.2-0.2,0.8-0.3,0.9l0,1.4L254.2,247z
				 M255,258.4c-0.1-0.2-0.1-0.4,0-0.5c0-0.1,0.1-0.2,0.1-0.3c0-0.2,0.1-0.4,0.2-0.6c0.1,0,0.1-0.1,0.2-0.2c0.1,0,0.2-0.1,0.3-0.1
				c0.4-0.1,0.9-0.3,1-0.3c0.2,0,0.5,0,0.7,0c0.2,0,0.3,0,0.5,0c0,0,0,0.1,0,0.1c0,0.1,0.1,0.2,0.1,0.4c0.1,0.5,0.2,0.9,0.5,1.3
				c0,0,0.7,0.8,1.1,0.8l0,0c0.1,0,0.6,0.2,1,0.3l0.9,0.2l0.2,0.4v0.9l-0.2,0.5l-0.4,1l-0.4,1v0.1c0,0.3,0,0.6,0,0.9
				c0,0.1,0,0.3,0.1,0.4c0,0.1-0.1,0.1-0.2,0.2l-0.1,0.1c-0.3,0.3-0.6,0.7-0.9,1c-0.1,0.1-0.4,0.6-0.7,0.9l-0.6,0.3l-1,0.2l-0.6-0.1
				l-0.6-0.7c-0.2-0.2-0.4-0.5-0.4-0.9c0-0.2,0-0.4,0.1-0.6c0-0.1,0-0.2,0-0.2c0-0.4,0.1-0.8,0-1.1c0-0.4-0.1-0.7-0.1-1.1l-0.2-0.6
				l-1.1-0.5l-0.7-0.5l0-0.4l-0.2-0.6l-0.3-0.7l-1-0.7l-1.2-0.5l-1.3-0.1l-0.1,0l0,0l0.6-1.2c0.3,0.4,0.8,1.1,1.2,1.2
				c0.2,0,0.5,0,0.7-0.1c0.1,0,0.1,0,0.2,0c0.4,0.6,0.9,1,1.6,1.4c0,0,1-0.1,1-0.6C255.1,258.6,255,258.5,255,258.4 M243.8,252.2
				l0.4,0v0.3l0.6,1.3c0.1,0.2,0.2,0.5,0.2,0.6c0,0,0,0,0,0l-1.1,0.6L243.8,252.2z M244,255.5l2.2-1.1l0.1,0.7l-0.9,1.3l4.3,0.5
				l-1.1,2.1l-4.5-0.6L244,255.5z M245.4,254.2v-0.1C245.4,254.1,245.5,254.1,245.4,254.2L245.4,254.2z M241.8,248.5L241.8,248.5
				c0.2-0.5,0.4-1,0.7-1.5c0.2,0.2,0.3,0.4,0.5,0.6c-0.1,0.1-0.1,0.2-0.2,0.4C242.4,248.3,241.9,248.5,241.8,248.5 M241.4,249.4
				c0,0.1,0,0.2-0.1,0.4c-0.1,0.5-0.2,1.1-0.2,1.2c0,0.2,0.1,0.4,0.2,0.5c-0.2,0-0.3-0.1-0.5-0.2C241,250.8,241.2,250.1,241.4,249.4
				 M234.5,243.1c0,0,0.1,0,0.1,0.1c0,0.6,0,2.8,0,4.5c-0.7-0.5-1.3-1-1.9-1.5c-0.2-0.1-0.3-0.3-0.5-0.4c0.7-1.2,1.2-2.6,1.5-3.1
				C234,242.8,234.2,243,234.5,243.1 M229.5,234.6c-0.4-0.3-0.5-0.8-0.4-1.3c0-0.2,0.2-0.3,0.3-0.4c0.2-0.1,0.3-0.1,0.5-0.1
				L229.5,234.6z M237,236.2c-0.5-0.1-1-0.3-1.4-0.6c-0.1-0.7-1.9-1.2-3-1.1c-0.8,0-1.7-0.2-2.4-0.6l0.7-2.5
				c0.3-1.3,1.5-2.2,2.9-2.2c0.3,0,0.6,0,0.8,0.1l1.1,0.3c1.6,0.4,2.6,2.1,2.1,3.7c0,0,0,0,0,0L237,236.2z M229.8,235.6l0.3-1.2
				c0.8,0.4,1.7,0.6,2.6,0.6c0.9-0.1,1.7,0.1,2.4,0.7c0.1,0.5,1.1,0.9,1.8,1.1l-0.2,0.8c-0.4,1.6-2.1,2.6-3.7,2.1c0,0,0,0-0.1,0
				l-1.1-0.3C230.3,238.9,229.3,237.2,229.8,235.6C229.8,235.6,229.8,235.6,229.8,235.6 M230.4,239.2c0.4,0.3,0.8,0.5,1.3,0.7
				l0.8,0.2l-0.2,1.5c-0.8-0.3-1.7-0.5-2.5-0.7L230.4,239.2z M224.1,237.6c0.9-1.6,1.8-3.3,2.5-5c1.3-3,3-4.9,5.1-5.6
				c1.5-0.5,3.1-0.5,4.5,0.1l0.1,0c1.1,0.2,2,0.8,2.6,1.7c0.8,1.3,0.7,3.3-0.2,6.1c-0.6,2.2-0.8,4.5-0.6,6.7
				c-1.7,0.3-3.4,0.4-5.1,0.1l0,0.1l0,0l0.2-1.6c1.8,0.3,3.6-0.8,4.1-2.6l1.1-4.2c0.5-1.9-0.6-3.8-2.5-4.4c0,0,0,0-0.1,0l-1.1-0.3
				c-1.9-0.5-3.8,0.6-4.4,2.5c0,0,0,0,0,0.1l-0.3,1c-0.3-0.1-0.6,0-0.9,0.1c-0.3,0.2-0.5,0.4-0.6,0.8c-0.2,0.8,0.1,1.6,0.7,2.1
				l0.1-0.1l-0.1,0.4c-0.3,0.9-0.1,1.9,0.3,2.7c0.1,0.2,0.3,0.4,0.4,0.6l-0.6,2c-0.2,0-0.4-0.1-0.6-0.1
				C227.1,239.7,225.5,238.7,224.1,237.6 M225.3,240.8c2.7,0.1,5.3,0.7,7.8,1.6c-0.2,0.5-0.8,1.8-1.4,3c-1.7-1.4-2.8-2.5-2.8-2.6
				l-0.4,0.4c0.4,0.4,9.8,9.7,14.7,9l0.1,2.9l0,0l0,0l0.4,7c-2.3-1.7-12.7-9.4-15.6-14.5l-0.5,0.3c0.3,0.6,0.7,1.1,1.1,1.6
				c-1.3,1.6-2.9,2.9-4.7,4L225.3,240.8z M223.9,255l0.1-0.7c1.9-1.1,3.6-2.6,5.1-4.2c0.1,0.2,0.3,0.3,0.4,0.5
				c0.6,0.8,1.4,1.6,2.2,2.4c-2.2,2.7-5,4.8-8.2,6.1L223.9,255z M230.9,290.2l-4.1-3h1.2l5.9,0.9L230.9,290.2z M227.8,286.7h-1.2
				c-0.3-1.5-0.6-3.6-0.7-4.3c0.6,0,1.3,0.1,2,0.1c0.2,0,0.4,0,0.6,0L227.8,286.7z M234.5,286.1l-2.4-1.2h0.3l3.7,0.1L234.5,286.1z
				 M232.5,284.4h-1c0-0.4-0.1-1.3-0.2-2.1l0.1,0c0.5,0,1-0.1,1.5-0.1C232.7,283.1,232.6,284,232.5,284.4 M236.8,281
				c-2.6,0.5-5.3,0.8-8,0.9l-0.3,0l0,0c-2.4,0.1-4.9-0.2-7.2-0.9l2.1-21.3l0-0.1c0.2-0.1,0.5-0.2,0.8-0.4c3-1.4,5.7-3.5,7.8-6
				c0.9,0.9,1.8,1.7,2.8,2.5C235.3,270.3,235.9,278.6,236.8,281 M254.8,269.1c-4.2,0-8.2-1.9-10.8-5.1c-0.5-0.6-1-1.2-1.4-1.9
				c0.7,0.5,1.2,0.9,1.3,0.9l0.5,0.3l-0.2-4.4l4.8,0.7l0.6-1.1v0.1c0.1,0,0.2,0,0.4-0.1l1.1,0.1l1,0.4l0.8,0.6l0.2,0.5l0.2,0.5
				l0,0.6l0.9,0.7l0.9,0.5l0.1,0.4c0.1,0.3,0.1,0.6,0.1,1c0,0.4,0,0.7,0,1.1c0,0.1,0,0.1,0,0.2c0,0.2-0.1,0.4-0.1,0.6
				c0,0.5,0.2,1,0.6,1.3l0.7,0.8l0.9,0.2l1.2-0.2l0.8-0.4l0,0c0.1-0.1,0.6-0.8,0.7-1c0.2-0.3,0.5-0.6,0.8-0.9l0.1-0.1
				c0.2-0.2,0.5-0.5,0.2-0.9c0-0.3,0-0.6,0-1l0.4-0.9l0.4-1l0.3-0.6v-1.2l-0.4-0.7l-1.1-0.3c-0.4-0.1-0.7-0.2-1.1-0.3
				c-0.2-0.2-0.5-0.4-0.7-0.6c-0.2-0.3-0.3-0.6-0.4-0.9c0-0.2,0-0.4-0.1-0.5c0,0,0-0.1,0-0.1c0-0.3-0.3-0.4-1-0.4
				c-0.3,0-0.5,0-0.8,0.1l0,0c0,0-0.5,0.2-1,0.3c-0.3,0.1-0.4,0.1-0.5,0.3c0,0,0,0-0.1,0.1c-0.2,0.2-0.4,0.6-0.4,0.9
				c0,0.1-0.1,0.2-0.1,0.3c-0.1,0.3-0.1,0.6,0,0.8v0c-0.1,0.1-0.3,0.1-0.4,0.1c-0.4-0.3-0.8-0.7-1.1-1.1c-0.1-0.4-0.6-0.3-0.8-0.2
				c-0.1,0-0.3,0.1-0.5,0.1c-0.2,0-0.8-0.8-1.1-1.2c-0.1-0.1-0.4-0.7-0.5-1l-0.2-0.9c0-0.1,0.1-0.2,0.1-0.3c0.1-0.1,0.1-0.1,0.2-0.1
				c0.1,0,0.2,0,0.4,0c0.3,0,0.6,0.1,0.8,0.2c0.4,0.2,0.7,0.5,1.1,0.7c0.3,0.2,0.7,0.4,1.1,0.4c0.1,0,0.2,0,0.3,0
				c0.3,0,0.7-0.1,0.9-0.4c0,0,0.1-0.1,0.1-0.1c0.3-0.2,0.1-0.7-0.1-1c-0.1-0.1-0.1-0.2-0.1-0.3c0-0.1-0.1-0.2-0.1-0.2
				c-0.1-0.1-0.1-0.2-0.1-0.3c0.1-0.1,0.2-0.3,0.3-0.4l0.8-0.2c0.3,0,0.6,0,0.8,0c0.4-0.1,0.6-0.6,0.7-0.8l0,0v-0.1
				c0-0.3,0-0.6,0-0.8c0-0.1,0.1-0.4,0.2-0.7h2.7v-0.9l-0.5-0.8l-0.3-0.6l-0.8-0.8l-0.1-0.4l0.6-0.8v-0.8l-0.4-0.4l-1.4,0.1
				l-0.9,0.6l-1.1,0.6l-0.9,0.3l-0.1-0.1l0-0.9c0.1-0.3,0.2-0.5,0.2-0.8c0.2-0.4-0.3-1-0.6-1.2c-0.2-0.1-1-0.5-1.1-0.6l-0.1,0H252
				l-0.1,0c0,0-0.8,0.4-1.1,0.6c-0.5,0.1-1,0.1-1.4,0c-0.2,0-0.4,0-0.6,0c-0.1,0-0.2,0-0.4,0c-0.2,0-0.4,0-0.7,0c-0.1,0-0.1,0-0.2,0
				c-0.3,0.1-0.6,0.2-0.8,0.5c-0.3,0.1-0.6,0.1-0.9,0.1c-0.1,0-0.5-0.2-0.6-0.2l-0.1,0l-0.1,0c2.6-2.5,6.1-3.9,9.7-3.9
				c2.5,0,5,0.7,7.2,2l-0.1,0c0.1,0.8,0.3,1.8,0.3,1.9v0.1c-0.1,0.5,0,1.1,0.3,1.5c0.3,0.3,0.7,0.5,1.2,0.6c0,0,0.1,0,0.1,0
				c0.2,0,0.3,0,0.5,0c0.1,0,0.2,0,0.3,0c0.1,0,0.1,0,0.2,0c0,0,0.1,0,0.1,0c0.6-0.1,0.8-0.1,0.9-0.1h0.5c1.2,1.6,2,3.5,2.4,5.4
				c-0.9,0.3-1,0.4-1,0.4c-0.2,0.3-0.4,0.7-0.6,1l-0.9,1.2c-0.3,0.3-0.6,0.7-0.6,1v2.5l0.5,1.1l0.1,0c0.2,0.1,0.3,0.3,0.4,0.4
				c0.1,0.2,0.1,0.5,0.1,0.7c0,0.1,0,0.4,0,0.6h0v0.5l-3.6,0.4l3.1,2.3C263.5,266.9,259.3,269.1,254.8,269.1 M280.8,255.2
				C280.7,255.2,280.7,255.2,280.8,255.2c-4,6.8-10.2,7.1-11.5,7.1v-1.2c5.8-0.7,8.8-7,9.8-9.8c0-0.1,0-0.1,0.1-0.1l-0.5-0.2
				c0,0,0,0.1-0.1,0.2c-0.8,2.3-2.1,4.4-3.6,6.2c-0.3-2.2-0.6-4.3-0.8-5.7v0h0l-0.2-1.2l1.6-0.6v0l1.7-0.7l1.5-0.6l1.2-0.5l5,14.4
				c-1.5,1-3.2,1.6-5,2c-1.3,0.2-2.6,0.3-3.9,0.1c-0.1-0.5-0.3-1.7-0.5-3.3c2.2-1.2,4.1-3.1,5.4-5.2c0.1-0.2,0.2-0.3,0.3-0.5
				L280.8,255.2z M275.9,265.1c0.5,0.1,1,0.1,1.5,0.1h0.2c0.3,0,0.7,0,1,0c-0.2,1.1-0.3,2.1-0.4,3c-2.4,4.7-4.6,9.6-6.6,14.6l-0.6,0
				l-0.8,0C270.8,275.6,275.2,266.4,275.9,265.1 M265,284.5l-0.2-0.3l4.6-0.9l0.5-0.1l1.7,0l0.4,1.8l-6.1,0.8L265,284.5z
				 M279.1,265.1L279.1,265.1l-0.1,0L279.1,265.1c1.1-0.2,2.1-0.4,3.2-0.8c0.8-0.3,1.6-0.6,2.3-1.1c-1.2,2.8-4.6,11.7-0.4,18.4
				c0.1,0.1,0.2,0.3,0.3,0.4c0.1,0.1,0.1,0.2,0.2,0.3h-0.8c-0.3-0.2-0.5-0.3-0.7-0.5C281.4,280.4,277.2,275.8,279.1,265.1
				 M278.6,284.7l3.7-1.2l1.7-0.6h1.2l1,1.2l-5.7,2.1l-1.4-1.1L278.6,284.7z"/>
		</g>
	</g>
</g>
</svg>
