<?xml version="1.0" encoding="utf-8"?>
<!-- Generator: Adobe Illustrator 27.8.1, SVG Export Plug-In . SVG Version: 6.00 Build 0)  -->
<svg version="1.1" id="Layer_1" xmlns="http://www.w3.org/2000/svg" xmlns:xlink="http://www.w3.org/1999/xlink" x="0px" y="0px"
	 viewBox="0 0 500 500" style="enable-background:new 0 0 500 500;" xml:space="preserve">
<style type="text/css">
	.st0{fill:#FFFFFF;}
	.st1{fill:none;}
	.st2{fill:#27AAE1;}
</style>
<path id="Path_1803" class="st0" d="M260.8,279.7h1l0.2-30.2h-3L260.8,279.7z"/>
<path id="Path_1804" class="st0" d="M253.9,279.7h1.2l3-30.2h-2.7L253.9,279.7z"/>
<path id="Path_1805" class="st0" d="M252.6,249.2l1.3-9.3l-0.8-7l-1.2,16.1L252.6,249.2z"/>
<path id="Path_1952" class="st0" d="M254.5,229.3h1.1l0.7-11.4h-4.6l0.6,10.9L254.5,229.3z"/>
<path id="Path_1953" class="st0" d="M257.4,230.3h0.6l0.5-6.8l-1.3,0.5L257.4,230.3z"/>
<g>
	<path class="st1" d="M265.2,270l0.2-4.4l-1.1-6.3l1.5-0.7l0.4-6.3c-0.6,0-1.2,0-1.9,0c-0.7,0-1.3,0-2,0l1.1,17.8l-0.2,0.1
		c-0.8,0.4-1.6,0.9-2.2,1.2l5.4,0l-0.1-0.8L265.2,270z"/>
	<path class="st1" d="M262.1,259.5l-2,11.6c0.4-0.3,1.2-0.7,2.6-1.5L262.1,259.5z"/>
	<polygon class="st1" points="260.8,263.4 258.6,276.5 260.8,263.4 	"/>
	
		<rect x="267.4" y="276.9" transform="matrix(0.9769 -0.2137 0.2137 0.9769 -53.0433 63.5537)" class="st1" width="0" height="0.5"/>
	<polygon class="st1" points="265.8,269.6 266.2,269.7 265.9,268.3 	"/>
	<path class="st1" d="M265.7,263.4L265.7,263.4l3.1,1.4c0.3,4.8,0.6,11.8,0.6,13c0,0,0,0,0,0h0c0.1-1.1-0.3-8.2-0.6-13L265.7,263.4z
		"/>
	<polygon class="st1" points="283.4,243.4 283.3,243.4 283.3,243.4 283.3,243.4 	"/>
	<polygon class="st1" points="259.8,277 259.8,277 259.1,276.9 	"/>
	<polygon class="st1" points="269.9,264.7 266.3,263 266.3,263 	"/>
	<rect x="267.7" y="259" transform="matrix(0.3205 -0.9473 0.9473 0.3205 -65.2834 430.9574)" class="st1" width="0" height="3.9"/>
	<path class="st1" d="M257.5,251.4L257.5,251.4c2.1,0.1,4.4,0.2,6.8,0.2c1.6,0,3.2,0,4.7-0.1l-0.1-1.3l-2.1,1.2l-2.1-0.7l1-2.7
		l-3.7,2.1l-0.8-0.4l0.4,0.9l-2.1,0.7l-2.1-1.2L257.5,251.4z"/>
	<path class="st1" d="M257.2,256.8l4.9,2.3l-0.4-7c-1.4,0-2.8-0.1-4.2-0.2L257.2,256.8z"/>
	<path class="st1" d="M266.8,252.2l-0.3,6l2.9-1.4l-0.3-4.7C268.3,252.1,267.6,252.1,266.8,252.2z"/>
	<rect x="265.3" y="259.6" transform="matrix(0.9851 -0.1717 0.1717 0.9851 -40.9625 49.449)" class="st1" width="0" height="3.9"/>
	<path class="st1" d="M269.7,271.5l0.3,0.1v-6.2l-0.6-0.3C269.5,266.6,269.6,269.1,269.7,271.5z"/>
	<polygon class="st1" points="285.6,243.4 282.8,244.2 282.9,246.1 286.5,245.5 	"/>
	<polygon class="st1" points="270.6,264.9 270.6,264.9 270.4,263.3 	"/>
	<polygon class="st1" points="270.3,262.4 282.8,262.4 282.8,264.9 282.8,264.9 282.8,262.4 270.3,262.4 	"/>
	<path class="st1" d="M284.6,243l1-0.3l2.5-3c-0.1-0.8-0.2-1.6-0.2-2.4c-1.8,2.5-3.2,4.3-4.1,5.5c0.1,0,0.2,0.1,0.4,0.1
		C284.3,243,284.4,243,284.6,243z"/>
	<path class="st1" d="M282.8,243.1c1.1-1.4,3.4-4.5,5-6.6c-0.2-1.6-0.3-3-0.4-4c-0.6,1.1-1.9,3.3-4.7,7.9L282.8,243.1z"/>
	<path class="st1" d="M288.9,228.2c-0.7-0.3-1.3-0.7-1.8-1.3c-0.1,1.4-0.7,2.7-1.8,3.7l0.3,1.5l1.2-0.1l0,0.1
		c0.2-0.3,0.3-0.5,0.4-0.7l-0.1-0.9l0-0.3h1.8V228.2z"/>
	<polygon class="st1" points="280.8,283.5 281.9,283.5 282.8,265.6 280.8,265.6 	"/>
	<path class="st1" d="M274.3,265.6h-0.5l-0.7,10.7l2.3-0.5C275.2,273.1,274.7,268.8,274.3,265.6z"/>
	<polygon class="st1" points="270.6,265.6 270.6,283.1 272.1,283.4 272.6,276.4 272.5,276.4 272.6,276.4 273.2,265.6 	"/>
	<path class="st1" d="M274.9,265.6c1.1,9.1,1.3,11.6,1.3,12.3c0.3,0,0.7,0,1-0.1l-0.2-12.2H274.9z"/>
	<path class="st1" d="M274.1,276.6l1.5,0.8c0-0.3-0.1-0.7-0.1-1.2L274.1,276.6z"/>
	<path class="st1" d="M258.2,264.7l-0.4,0.2c-0.3,4.5-0.6,11-0.6,12.7c0-1.7,0.3-8.2,0.6-12.7L258.2,264.7z"/>
	<path class="st1" d="M231.1,252.8l8.9,5.4c0,0-5.5,13.3-6.8,16.9l-0.6-0.2l0,0l0.6,0.2l0.1,0l9.1-18.2l-7.4-4.7
		C233.7,252.5,232.4,252.7,231.1,252.8z"/>
	<polygon class="st1" points="227.4,252.7 238.5,258.5 238.5,258.5 	"/>
	<polygon class="st1" points="233.9,275.3 236,275.5 236,271.1 	"/>
	<path class="st1" d="M236.6,269.8v5.7l0.6,0.1c0.1-0.9,0.1-2.1,0.2-3.5h0c0.1-1.4,0.2-2.9,0.3-4.5L236.6,269.8z"/>
	<path class="st1" d="M238.5,246.7c0,1,1.8,2,5,2.9l0.1-2.5l-5-0.8C238.5,246.3,238.5,246.5,238.5,246.7z"/>
	<path class="st1" d="M237,239.8l2.5,3l2.4,0.7c-0.9-1.1-2.4-3.1-4.6-6.1v0C237.1,238.1,237,239,237,239.8z"/>
	<path class="st1" d="M224.9,277.3h1.2l0.4-19.1c-1.6,0.1-2.4,0.1-2.9,0.1L224.9,277.3z"/>
	<path class="st1" d="M243.7,244.7l-4.3-1.3l-0.4,1l0,0c0.1,0.1,0.3,0.2,0.5,0.3c0.1,0,2,0.3,4.2,0.6l0,1.1l0,0l0-1.1L243.7,244.7z"
		/>
	<polygon class="st1" points="236.6,262 237.8,258.8 236.6,258.2 	"/>
	<path class="st1" d="M233.6,275.9l-0.6-0.2c-0.1,0.2-0.1,0.3-0.1,0.3c0.3,0,5.4,1.2,6.7,1.5l0.2-1L233.6,275.9L233.6,275.9z"/>
	<polygon class="st1" points="232.4,275.5 232.4,275.5 232.1,276.2 239.5,278.5 239.5,278.5 232.1,276.2 	"/>
	<path class="st1" d="M267.3,244.2l-2.6-1.4l-5.2,2.2l0.3,0.8l2.3,1l5.2-2.4L267.3,244.2z M264.8,244.6l-0.2,0.2l-0.4-0.4l-2.7,1.5
		l-0.1-0.3l2.6-1.4l-0.3-0.3l0.2-0.2l0.4,0.4l0.8-0.4l0.1,0.3l-0.7,0.4L264.8,244.6z"/>
	<polygon class="st1" points="260.6,260.4 260.8,263.4 260.8,263.4 260.6,260.4 257,261.6 257,261.6 	"/>
	<rect x="256.4" y="263.9" transform="matrix(0.9059 -0.4235 0.4235 0.9059 -87.4364 134.2526)" class="st1" width="4" height="0"/>
	<polygon class="st1" points="257.6,249.5 258,242.9 258,242.8 257.6,249.5 259.7,250.7 260.9,250.3 260.9,250.3 259.7,250.7 	"/>
	<polygon class="st1" points="255.9,264.9 243.7,264.9 243.7,264.9 255.9,264.9 256.3,262.4 256.3,262.4 	"/>
	<polygon class="st1" points="266.2,247.1 267,245.2 262.4,247.3 262.4,249.2 	"/>
	<polygon class="st1" points="261,248.9 261.8,249.3 261.8,247.3 260.1,246.6 	"/>
	<path class="st1" d="M249.5,265.6l-0.2,12.2l0,0c0.3,0.1,0.7,0.1,1,0.1c0-0.7,0.2-3.1,1.3-12.3H249.5z"/>
	<path class="st1" d="M250.9,277.5l1.5-0.8l-1.4-0.3C251,276.8,251,277.2,250.9,277.5z"/>
	<polygon class="st1" points="244.7,283.5 245.7,283.5 245.7,265.6 243.7,265.6 	"/>
	<polygon class="st1" points="243.7,262.4 243.7,262.4 245.2,262.4 	"/>
	<path class="st1" d="M252.2,265.6c-0.4,3.3-0.9,7.5-1.1,10.1l2.2,0.5l-0.7-10.6H252.2z"/>
	<polygon class="st1" points="254,276.3 254.1,276.4 254,276.5 254.4,283.4 255.9,283.1 255.9,265.5 253.3,265.5 	"/>
	<path class="st1" d="M223.5,257.7c1.2,0,6.8-0.3,11.2-0.5l-3-1.6l-6.8-0.8l-0.6-23l-1.7,0.3C222.8,241.7,223.3,255.8,223.5,257.7
		L223.5,257.7z"/>
	<path class="st1" d="M254.5,232.2l0.3-1.5c0-0.3,0.1-0.7,0.1-1c0.1-1.8-0.6-3.6-1.8-4.9h0c-0.6-0.6-1.3-0.9-2.1-0.9
		c-2.2,0-3.9,2.6-3.9,5.8l0,0c0,3.2,1.8,5.8,3.9,5.8C252.5,235.4,253.9,234.1,254.5,232.2z"/>
	<path class="st1" d="M249.7,235.8l-0.1,1.3l2.1,0V236c-0.2,0.1-0.5,0.1-0.7,0.1C250.5,236.1,250.1,236,249.7,235.8z"/>
	<path class="st1" d="M246.2,237.8c0.7,0,1.7,0,2.7,0C247.9,237.7,246.9,237.7,246.2,237.8z"/>
	<path class="st1" d="M274.2,237.8h3.5v0L274.2,237.8L274.2,237.8c-1.8,0-3.7,0-5.3,0l0,0C270.5,237.8,272.4,237.8,274.2,237.8
		L274.2,237.8z"/>
	<path class="st1" d="M256.3,261.7L256.3,261.7l1.3-23.9c-1.7,0-3.5,0-5.4,0v0c1.8,0,3.7,0,5.4,0L256.3,261.7z"/>
	<path class="st1" d="M255.5,230.2c0.2,0.1,0.5,0.2,0.7,0.3c0.1,0,0.2,0,0.2,0c1.7,0.1,3.1-2,3.2-4.7c0.1-2.6-1.2-4.8-2.9-4.9h0
		c-1.4,0-2.7,1.5-3,3.6c1.2,1.4,1.8,3.2,1.8,5.1C255.6,229.8,255.5,230,255.5,230.2z"/>
	<polygon class="st1" points="266.8,250.7 266.8,250.7 265.6,250.3 268.5,242.8 268.5,242.8 265.6,250.3 	"/>
	<path class="st1" d="M259.3,244.4l5.5-2.3l2.8,1.5l0.7-1.8c-1.3,0-2.6-0.1-4-0.1c-2,0-4,0-6,0.1L259.3,244.4z"/>
	<path class="st1" d="M256.1,231.1c-0.2,0-0.4-0.1-0.6-0.2l0,0c-0.1,0.4-0.1,0.8-0.3,1.2l1.6,0.2l0.1-0.9
		C256.7,231.3,256.4,231.2,256.1,231.1z"/>
	<polygon class="st1" points="243.7,261.7 244.6,237.8 243.7,261.7 	"/>
	<path class="st1" d="M255,232.7c-0.4,1.4-1.4,2.5-2.7,3.1v1.4c1.6,0,3.5,0,5.7,0h0.3l-0.2,4.1c0.9,0,1.8-0.1,2.7-0.1l-1-8l-2.7-0.3
		L255,232.7z"/>
	<path class="st1" d="M290.1,246.7c0-0.5-0.7-1.2-1.9-1.7l-1.2,1.2l-0.1,0l-4,0.7l0.1,3.2C287.5,249.1,290.1,247.8,290.1,246.7z"/>
	<path class="st1" d="M234.2,217C234.2,217,234.2,217,234.2,217L234.2,217C234.2,217,234.2,217,234.2,217c-1.7,3.4-1.5,7.4,0.4,10.7
		c0,0,0,0,0,0c0.1,0,0.1,0,0.2,0c1.2,0,2.3-0.6,2.9-1.6c1-1.3,1.5-2.9,1.7-4.6c0.2-1.5,0-3-0.5-4.4c-0.6,0.1-1.2,0.2-1.8,0.2
		C236.1,217.4,235.1,217.3,234.2,217c-0.4-0.1-0.9-0.2-1.3-0.4c0,0,0,0,0,0C233.3,216.8,233.8,217,234.2,217z"/>
	<path class="st1" d="M230.6,252.2c1.5-0.1,3-0.3,4.5-0.6l0,0c0.1-0.8,0.4-4,0.8-7.6l-3.5-3.5l0.4-0.4l0.5,0.5l3.2,3.2h0v0l1.5,1.5
		l0,0l-1.5-1.5v0h0l-3.2-3.2l0.7-0.3c0,0,3,2.5,4.6,3.7l0.4-0.9l-5.3-6.4l0.5-0.4l2.3,2.8c0.4-3.8,0.7-7.3,0.8-8.4H231L230.6,252.2
		c-1.7,0.1-3.5-0.1-5.1-0.5l0,0C227.2,252.1,228.9,252.3,230.6,252.2z"/>
	<path class="st1" d="M235.5,228.4c-0.2,0-0.4,0.1-0.5,0.1c-0.1,0-0.2,0-0.3,0c-0.5,0-0.9-0.2-1.3-0.4l-0.4,2.1h2.5V228.4z"/>
	<polygon class="st1" points="230.1,254.8 225.4,252.3 225.4,254.3 	"/>
	<path class="st1" d="M233.6,215.8c-0.1,0.1-0.2,0.2-0.3,0.3c0,0,0,0,0,0C233.4,216,233.5,215.9,233.6,215.8z"/>
	<path class="st1" d="M243.8,243.7l0.1-1.5l-0.3,0l-0.1-0.2c-3.5-5.9-5-8.5-5.7-9.7c-0.1,1.1-0.2,2.5-0.4,4c1.9,2.7,5.1,6.9,5.6,7.3
		C243.2,243.8,243.5,243.7,243.8,243.7z"/>
	<path class="st1" d="M234.5,215.3c0.1,0,0.2,0,0.4,0.1C234.7,215.3,234.6,215.3,234.5,215.3z"/>
	<path class="st1" d="M238,215.8c-0.1-0.1-0.2-0.2-0.3-0.3c-0.3,0-0.6,0.1-0.9,0.1c-0.6,0-1.1,0-1.7-0.1c0,0,0,0,0,0l0,0.1
		C236,215.7,237,215.8,238,215.8z"/>
	<polygon class="st1" points="234.3,215.3 234.3,215.3 234.2,215.3 234.2,215.3 	"/>
	<path class="st1" d="M234.5,216.5L234.5,216.5c1.3,0.3,2.7,0.4,4.1,0.2c-0.1-0.1-0.1-0.2-0.2-0.3c-0.3,0-0.6,0.1-0.9,0.1
		c-0.9,0-1.8-0.1-2.7-0.4c-0.4-0.1-0.8-0.2-1.1-0.3c0,0,0,0,0,0c0.3,0.1,0.7,0.2,1.1,0.3C234.6,216.2,234.6,216.3,234.5,216.5z"/>
	<path class="st1" d="M235.6,214.7l-0.1,0.1c0,0,0,0,0,0c0.5,0.1,0.9,0.1,1.4,0.1c-0.2-0.1-0.5-0.2-0.8-0.2l0,0
		C236,214.7,235.8,214.7,235.6,214.7c-0.1,0-0.3,0-0.4,0.1c0,0,0,0,0,0C235.3,214.7,235.5,214.7,235.6,214.7z"/>
	<polygon class="st1" points="288.4,258.2 287.3,258.8 288.4,262 	"/>
	<polygon class="st1" points="299.6,254.3 299.7,252.3 294.9,254.8 	"/>
	<path class="st1" d="M283.8,230.5c0.3-0.1,0.7-0.2,1-0.4l0,0c1.1-1,1.7-2.5,1.7-4c-0.8-1.3-1.3-2.8-1.5-4.4
		c-0.4-0.5-1.1-0.8-1.7-0.8c-1.7,0.1-3,2.2-2.9,4.9c0.1,2.6,1.5,4.8,3.2,4.7C283.7,230.6,283.8,230.5,283.8,230.5z"/>
	<path class="st1" d="M290.4,257.2c4.4,0.2,10,0.5,11.2,0.5l0,0c0.2-1.9,0.7-15.9,1-25.5l-1.7-0.3l-0.6,23l-6.9,0.8L290.4,257.2z"/>
	<path class="st1" d="M287.9,231.4L287.9,231.4C287.9,231.4,287.9,231.4,287.9,231.4c0.2,1.6,0.4,4.6,0.8,7.7l2.3-2.8l0.5,0.4
		l-5.3,6.4l0.9,2.2l1.5-1.5l3.7-3.7l0.4,0.4l-3.5,3.5c0,0.3,0,0.5,0.1,0.7c1,0.6,1.5,1.2,1.5,1.9c-0.1,0.7-0.5,1.4-1.2,1.7
		c0.2,1.6,0.3,2.7,0.3,3.2c1.1,0.2,6,1.2,9.7,0l-4.1-20.9v0h-7.7C287.8,230.9,287.9,231.1,287.9,231.4z"/>
	<path class="st1" d="M290.3,228.4c-0.1,0-0.2,0-0.3,0c-0.2,0-0.3,0-0.5,0v1.7h2.5l-0.4-2.2C291.2,228.2,290.8,228.3,290.3,228.4z"
		/>
	<path class="st1" d="M299,277.3h1.1l1.3-19c-0.5,0-1.5,0-2.9-0.1L299,277.3z"/>
	<path class="st1" d="M289.3,251.9c0,0-0.1-1.3-0.3-3.1c-1.9,0.9-3.9,1.5-5.9,1.9l0.2,5.2l6-3.8L289.3,251.9z"/>
	<polygon class="st1" points="291.4,275.9 285.3,276.5 285.6,278.5 292.9,276.2 292.7,275.5 291.5,275.9 	"/>
	<path class="st1" d="M287.9,275.6l0.6-0.1v-5.7l-1.1-2.2c0.1,1.5,0.2,3,0.3,4.4l0,0C287.7,273.5,287.8,274.7,287.9,275.6z"/>
	<path class="st1" d="M295.3,252.8c-1.8,0-3.5-0.2-5.3-0.5l-6.8,4.3l0.1,1.6l8.5,17l0.7-0.3l-6-16.4l11.2-5.8
		C296.9,252.8,296.1,252.8,295.3,252.8z"/>
	<polygon class="st1" points="289,275.5 291.1,275.3 289,271.1 	"/>
	<path class="st1" d="M287.3,226.2c0.6,1,1.7,1.6,2.9,1.6c2.2-0.2,3.6-3.3,3.2-6.9c-0.1-1.6-0.7-3.2-1.7-4.6
		c-0.6-0.9-1.6-1.5-2.7-1.6c-0.1,0-0.2,0-0.2,0c-2.2,0.2-3.6,3.3-3.2,6.9C285.8,223.3,286.4,224.9,287.3,226.2z"/>
	<ellipse class="st1" cx="275.6" cy="229.6" rx="3.9" ry="5.8"/>
	<path class="st1" d="M274.8,236v1.2l2.1,0l-0.2-1.3c-0.4,0.2-0.8,0.3-1.3,0.3C275.3,236.1,275.1,236,274.8,236z"/>
	<path class="st1" d="M277.4,235.5l0.2,1.6h1.4c0.3-2.2,0.5-4.3,0.5-4.3l0-0.2C279.2,233.8,278.4,234.8,277.4,235.5z"/>
	<path class="st1" d="M282,237.8l0.9,24h0L282,237.8c-0.6,0-2.2,0-4.3,0v0C279.7,237.7,281.4,237.7,282,237.8z"/>
	<path class="st1" d="M282.4,237.2l0.2,0.1l0.1,1.9c1.3-2.2,3-5,3.9-6.6l-6.4,0.6c-0.1,0.6-0.3,2.3-0.5,4
		C280.6,237.1,281.5,237.1,282.4,237.2z"/>
	<path class="st1" d="M283.9,231.2c-0.2,0.1-0.5,0.1-0.7,0.1l0.1,0.9l1.7-0.2l-0.3-1.2C284.5,231,284.2,231.1,283.9,231.2z"/>
	<path class="st2" d="M235.2,214.8c0.1,0,0.2,0,0.3,0l0.1-0.1C235.5,214.7,235.3,214.7,235.2,214.8z"/>
	<path class="st2" d="M234.5,216.5L234.5,216.5c0.1-0.1,0.2-0.3,0.2-0.4c-0.4-0.1-0.8-0.2-1.1-0.3c0,0,0,0,0,0
		c-0.1,0.1-0.2,0.2-0.3,0.3C233.6,216.3,234,216.4,234.5,216.5z"/>
	<polygon class="st2" points="234.2,217 234.2,217 234.2,217 	"/>
	<path class="st2" d="M234.2,217c-0.4-0.1-0.9-0.2-1.3-0.4c-0.8,1.3-1.3,2.7-1.4,4.1c-0.4,3.5,1,6.5,3,6.9
		C232.7,224.5,232.5,220.4,234.2,217z"/>
	<path class="st2" d="M234.2,215.3c0.3,0.1,0.5,0.1,0.8,0.2l0,0c0,0,0,0,0,0l0-0.1c-0.1,0-0.2,0-0.2,0c-0.1,0-0.3,0-0.4-0.1
		C234.4,215.3,234.3,215.3,234.2,215.3L234.2,215.3L234.2,215.3L234.2,215.3z"/>
	<path class="st2" d="M240,258.2l-8.9-5.4c-0.4,0-0.9,0-1.3,0c-0.8,0-1.6,0-2.4-0.1l11.2,5.8l0,0l0,0l-6,16.4l0.6,0.2
		C234.4,271.5,240,258.2,240,258.2z"/>
	<polygon class="st2" points="231.5,276.2 231.4,276.5 231.4,276.5 231.4,276.5 	"/>
	<path class="st2" d="M233,275.7l-0.6-0.2l-0.2,0.7l7.3,2.3l0.2-1c-1.4-0.3-6.4-1.5-6.7-1.5C232.9,276,232.9,275.9,233,275.7z"/>
	<path class="st2" d="M230.6,252.2l0.4-21.4h-1.4l-4.1,20.9C227.2,252.1,228.9,252.3,230.6,252.2z"/>
	<path class="st2" d="M233.3,240.6l3.2,3.2h0v0l1.5,1.5l0.5-1.2l0,0c-1.6-1.2-4.6-3.7-4.6-3.7L233.3,240.6z"/>
	<path class="st2" d="M239.5,244.7c-0.2-0.1-0.3-0.2-0.5-0.3l-0.5,1.1l5.1,0.8l0-1.1C241.5,245,239.7,244.8,239.5,244.7z"/>
	<path d="M222.3,244.9c0.3,9.9,0.5,12.4,0.6,13.1h0l1.3,20h2.4l0.4-19.8c1.9-0.1,4.6-0.2,8.7-0.4l0.2,0.1v5.8l-4.2,11.6h0l-0.3,0.9
		l0,0.1l-0.1,0.3l0,0l0,0.1l8.6,2.7l0.5-3.3l-2.7-0.3c0.1-0.9,0.1-2.1,0.2-3.6c0.1-1.8,0.3-3.9,0.4-5.9l4.8-9.5l-7.4-4.7l0-0.1
		c0,0,0.3-3.3,0.7-7.3l1.5,1.5c-0.1,0.2-0.1,0.4-0.1,0.6c0,1.6,2.7,2.7,5.6,3.5l-0.4,11.9h0v3.5h0l1,18.6h2.2v-18.6h2.6l-0.2,12.7
		l0.3,0c0.4,0.1,0.8,0.1,1.3,0.1c0.5,0,0.6-0.1,0.6-0.2c0,0,0,0,0-0.1l2.5-1.4l0.5,7.4h0l2.6-0.7v-18.1l0.6-0.3
		c-0.2,3.5-0.7,12.4-0.5,12.9c0,0.1,0.1,0.2,0.2,0.3c0.2,0.1,0.4,0.1,0.5,0.1c0.5,0,0.9-0.1,1.4-0.2l0.2,0l0,0l2.9-1.4l-2.5-0.5
		l0.8-4.4h6.5l0.8,4.4l-2.5,0.5l2.8,1.3l0,0.1l0.2,0c0.4,0.1,0.9,0.2,1.4,0.2c0.2,0,0.4,0,0.5-0.1c0.1-0.1,0.2-0.1,0.2-0.2
		c0.1-0.3,0-3.1-0.2-6.2h0.3v11.6l2.7,0.7h0l0.5-7.4l2.5,1.4c0,0,0,0,0,0.1c0.1,0.1,0.2,0.2,0.6,0.2c0.4,0,0.9-0.1,1.3-0.1l0.3,0
		l-0.2-12.7h2.5v18.6h2.3l1-18.6h0v-3.2h0l-0.1-2.7l3.3,6.5c0.1,2,0.3,4.1,0.4,5.9c0.1,1.4,0.2,2.7,0.2,3.6l-2.7,0.3l0.5,3.3
		l8.7-2.8l-0.5-1.3l-0.1-0.3v0l-4.1-11.3v-5.8l0.2-0.1c3.7,0.2,6.6,0.3,8.7,0.4l0.5,19.8h2.3l1.4-20h0c0.2-0.7,0.3-3.2,0.7-13.1
		c0.2-6.4,0.4-12.9,0.4-13l0-0.2v-0.1l-3-0.6l-0.4,18.3l-3.7-19.3h-3.3l-0.5-2.6c1.4-1.3,2.3-3.9,2-6.8c-0.1-1.8-0.8-3.4-1.8-4.9
		c-0.8-1.2-2.1-1.9-3.5-1.8c-2.3,0.2-4,3.2-3.8,6.8c-0.5-0.3-1.1-0.5-1.7-0.5c-2,0.1-3.6,2.5-3.5,5.5c0.1,2.4,1.2,4.4,2.8,5.1
		l0.2,1.4l-3.1,0.3c0.3-1,0.5-2,0.5-3c0-3.5-2-6.4-4.6-6.4c-2.5,0-4.6,2.9-4.6,6.4c0,2.9,1.4,5.3,3.2,6.1h0v1.4c-1.6,0-3.4,0-5.7,0
		h-0.3l0.2,4c-1.4,0-2.8-0.1-4.2-0.1c-1,0-1.9,0-2.9,0l-1.1-8.6l-2.8-0.3l0.2-1.4c1.5-0.7,2.6-2.7,2.7-5.1c0.1-3-1.5-5.4-3.5-5.5
		c-1.6,0-3.1,1.5-3.6,3.7c-0.6-0.5-1.4-0.8-2.3-0.8c-2.5,0-4.6,2.9-4.6,6.4c-0.1,2.3,0.9,4.5,2.7,5.8l-0.2,1.6
		c-1.6-0.1-3.2-0.1-4.8,0.1l-0.2,0.1l-0.2,4.3c-1.7-2.8-5.6-9.5-6-10.2c0.1-0.6,0.1-0.9,0.1-0.9l0-0.3h-1.7v-1.9
		c0.8-0.3,1.5-0.9,2-1.6c1-1.4,1.7-3.1,1.8-4.9c0.2-1.6,0-3.2-0.6-4.6c0,0,0.1,0,0.1,0l-0.2-0.6c-0.1,0-0.1,0-0.2,0.1
		c-0.1-0.1-0.1-0.3-0.2-0.4l-0.2-0.5c0,0-0.1,0-0.1,0c-0.1-0.1-0.2-0.2-0.3-0.3l-0.1-0.6c-0.1,0-0.2,0.1-0.4,0.1
		c-0.5-0.4-1.1-0.7-1.7-0.7c-0.7-0.1-1.5,0.1-2.1,0.5c-0.4-0.1-0.7-0.2-0.7-0.2l-0.2,0.6c-0.2,0-0.3-0.1-0.3-0.1l-0.2,0.6l0.2,0.1
		c-0.1,0.1-0.2,0.2-0.3,0.3l0,0c-0.1,0-0.1-0.1-0.2-0.1l-0.2,0.3l-0.3,0.1c0.1,0.1,0.2,0.2,0.3,0.2c-0.8,1.3-1.3,2.8-1.4,4.3
		c-0.3,2.9,0.5,5.5,2,6.8l-0.5,2.6H229l-3.7,19.2l-0.4-18.2l-3,0.5l0,0.3C221.9,232,222.1,238.5,222.3,244.9z M226,277.3h-1.2
		l-1.3-19c0.4,0,1.2,0,2.9-0.1L226,277.3z M236.6,262v-3.8l1.2,0.6L236.6,262z M239.8,276.5l-0.2,1l-0.2,1l0,0l-7.3-2.3l0.2-0.7l0,0
		l0.6,0.2l0.6,0.2l0-0.1L239.8,276.5z M233.9,275.3l2.1-4.2v4.4L233.9,275.3z M237.4,272.1c-0.1,1.4-0.2,2.6-0.2,3.5l-0.6-0.1v-5.7
		l1.1-2.2C237.6,269.2,237.5,270.7,237.4,272.1L237.4,272.1z M242.4,256.9l-9.1,18.2l-0.1,0l-0.6-0.2l0,0l6-16.4l0,0l-11.2-5.8
		c0.8,0.1,1.6,0.1,2.4,0.1c0.5,0,0.9,0,1.3,0c1.3-0.1,2.6-0.2,3.9-0.5L242.4,256.9z M243.5,249.5c-3.2-0.8-5-1.9-5-2.9
		c0-0.2,0.1-0.3,0.2-0.5l5,0.8L243.5,249.5z M241.8,243.4l-2.4-0.7l-2.5-3c0.1-0.8,0.2-1.6,0.2-2.4v0
		C239.4,240.3,240.9,242.4,241.8,243.4z M243.7,246.4l-5.1-0.8l0.5-1.1l0,0l0.4-1l4.3,1.3l0,0.6L243.7,246.4L243.7,246.4z
		 M245.7,283.5h-1l-1-18h2L245.7,283.5z M250.3,277.8c-0.3,0-0.7,0-1-0.1l0,0l0.2-12.2h2.1C250.5,274.7,250.3,277.2,250.3,277.8z
		 M250.9,277.5c0-0.3,0.1-0.7,0.1-1.2l1.4,0.3L250.9,277.5z M251.1,275.7c0.3-2.6,0.7-6.9,1.1-10.1h0.4l0.7,10.6L251.1,275.7z
		 M255.9,283.1l-1.5,0.4l-0.4-7l0.1-0.1l-0.1,0l-0.7-10.8h2.6V283.1z M255.9,264.9h-12.3v0h0v-2.6h0v0l1.5,0h11l0,0h0L255.9,264.9z
		 M256.6,264.7L256.6,264.7L256.6,264.7l0.3-2.4h0.1l0-0.1l3.1-1.1l0.1,1.8l0,0l0,0L256.6,264.7z M257,261.6l0.2-4.1l4.3,2.1
		l-0.7,3.8l0,0l0,0l-0.2-3.1L257,261.6L257,261.6L257,261.6z M262.1,246.8l-2.3-1l-0.3-0.8l5.2-2.2l2.6,1.4l-0.1,0.2L262.1,246.8z
		 M267,245.2l-0.7,1.9l-3.8,2.2l0-1.9L267,245.2z M261.8,249.3l-0.8-0.4l-0.9-2.3l1.7,0.7L261.8,249.3z M260.9,250.3L260.9,250.3
		L260.9,250.3l-1.2,0.4l-2.1-1.2l0.4-6.7l0,0l0,0L260.9,250.3z M259.7,251.3l2.1-0.7l-0.4-0.9l0.8,0.4l3.7-2.1l-1,2.7l2.1,0.7
		l2.1-1.2l0.1,1.3c-1.5,0.1-3.1,0.1-4.7,0.1c-2.4,0-4.6-0.1-6.8-0.2l0,0l0.1-1.2L259.7,251.3z M266.3,263l0.1-1.8l3.2,1.1l0,0.1h0
		l0.3,2.4L266.3,263L266.3,263L266.3,263z M269.6,261.6l-3.7-1.3l-0.2,3.1l0,0l0,0l-0.7-3.8l0,0l0,0l4.3-2.1L269.6,261.6
		L269.6,261.6L269.6,261.6z M266.5,258.2l0.3-6c0.8,0,1.5,0,2.3-0.1l0.3,4.7L266.5,258.2z M261.7,252.2l0.4,7l-4.9-2.3l0.3-4.8
		C258.9,252.1,260.3,252.1,261.7,252.2z M259.8,277L259.8,277L259.8,277l-0.8,0.4l0.1-0.5L259.8,277z M258.6,276.5l-0.2,1.2
		c-0.4,0.1-0.8,0.1-1.1,0.1c0-0.1,0-0.2,0-0.3c0-1.7,0.3-8.2,0.6-12.7l0.4-0.2l2.6-1.2l0,0l0,0L258.6,276.5z M262.1,259.5l0.6,10.1
		c-1.5,0.8-2.2,1.3-2.6,1.5L262.1,259.5z M261,271.3c0.6-0.3,1.4-0.8,2.2-1.2l0.2-0.1l-1.1-17.8c0.7,0,1.3,0,2,0c0.6,0,1.3,0,1.9,0
		l-0.4,6.3l-1.5,0.7l1.1,6.3l-0.2,4.4l1.1,0.5l0.1,0.8L261,271.3z M265.8,269.6l0.1-1.3l0.3,1.5L265.8,269.6z M267.5,277.4l-0.8-0.4
		l0.7-0.1l0,0l0,0L267.5,277.4L267.5,277.4L267.5,277.4z M269.3,277.8L269.3,277.8C269.3,277.8,269.3,277.8,269.3,277.8
		C269.3,277.8,269.3,277.8,269.3,277.8c-0.4,0-0.8,0-1.1-0.1l-2.5-14.3l0,0l0,0l3.1,1.4C269,269.6,269.4,276.7,269.3,277.8z
		 M270,271.6l-0.3-0.1c-0.1-2.4-0.2-4.9-0.3-6.3l0.6,0.3V271.6z M272.6,276.4L272.6,276.4L272.6,276.4l-0.4,7.1l-1.5-0.4v-17.5h2.6
		L272.6,276.4z M273.9,265.6h0.5c0.4,3.2,0.9,7.5,1.1,10.1l-2.3,0.5L273.9,265.6z M274.1,276.6l1.4-0.3c0,0.5,0.1,0.9,0.1,1.2
		L274.1,276.6z M276.2,277.8c0-0.7-0.2-3.2-1.3-12.3h2.1l0.2,12.2C276.9,277.8,276.6,277.8,276.2,277.8z M281.9,283.5h-1.1v-18h2
		L281.9,283.5z M282.8,264.9L282.8,264.9L282.8,264.9l-12.3,0l0,0h0l-0.2-1.7l-0.1-0.9h0l0,0h12.6V264.9z M282.8,244.2l2.8-0.8
		l0.9,2.1l-3.6,0.6L282.8,244.2z M287.2,230.4l0.1,0.9c-0.1,0.1-0.2,0.4-0.4,0.7l0-0.1l-1.2,0.1l-0.3-1.5c1-1,1.7-2.3,1.8-3.7
		c0.5,0.6,1.1,1,1.8,1.3v1.9h-1.8L287.2,230.4z M287.4,232.4c0.1,1.1,0.2,2.5,0.4,4c-1.6,2.1-3.8,5.2-5,6.6l-0.1-2.7
		C285.4,235.7,286.7,233.5,287.4,232.4z M287.8,237.4c0.1,0.8,0.2,1.6,0.2,2.4l-2.5,3l-1,0.3c-0.2,0-0.3-0.1-0.5-0.1
		c-0.1,0-0.2-0.1-0.4-0.1C284.7,241.7,286,239.9,287.8,237.4z M283.3,243.4L283.3,243.4L283.3,243.4L283.3,243.4L283.3,243.4z
		 M282.9,246.8l4-0.7l0.1,0l1.2-1.2c1.2,0.6,1.9,1.2,1.9,1.7c0,1.2-2.6,2.4-7.1,3.3L282.9,246.8z M283,250.6c2-0.4,4-1,5.9-1.9
		c0.2,1.9,0.3,3.1,0.3,3.1l0,0.1l-6,3.8L283,250.6z M292.9,276.2l-7.4,2.3l-0.3-2l6.2-0.7l0,0.1l1.2-0.5L292.9,276.2z M287.4,267.7
		l1.1,2.2v5.7l-0.6,0.1c-0.1-0.9-0.1-2.1-0.2-3.6l0,0C287.6,270.7,287.5,269.2,287.4,267.7z M289,275.5v-4.4l2.1,4.2L289,275.5z
		 M286.5,258.5l6,16.4l-0.7,0.3l-8.5-17l-0.1-1.6l6.8-4.3c1.7,0.4,3.5,0.5,5.3,0.5c0.8,0,1.6,0,2.4-0.1L286.5,258.5z M288.4,258.2
		v3.8l-1.2-3.2L288.4,258.2z M300.2,277.3H299l-0.5-19.1c1.4,0.1,2.4,0.1,2.9,0.1L300.2,277.3z M300.2,254.8l0.6-23l1.7,0.3
		c-0.3,9.6-0.8,23.6-1,25.5l0,0c-1.2,0-6.8-0.3-11.2-0.5l3-1.6L300.2,254.8z M299.6,254.3l-4.7,0.5l4.8-2.5L299.6,254.3z
		 M295.5,230.7L295.5,230.7l4.1,20.9c-3.7,1.1-8.6,0.2-9.7,0c0-0.5-0.2-1.7-0.3-3.2c0.6-0.3,1.1-1,1.2-1.7c0-0.7-0.5-1.3-1.5-1.9
		c0-0.2-0.1-0.5-0.1-0.7l3.5-3.5l-0.4-0.4l-3.7,3.7l-1.5,1.5l-0.9-2.2l5.3-6.4l-0.5-0.4l-2.3,2.8c-0.3-3.2-0.6-6.1-0.8-7.6
		c0,0,0-0.1,0-0.1h0c0-0.3,0-0.5-0.1-0.7H295.5z M289.5,230.1v-1.7c0.2,0,0.3,0,0.5,0c0.1,0,0.2,0,0.3,0c0.5,0,0.9-0.2,1.3-0.4
		l0.4,2.2H289.5z M288.9,214.7c0.1,0,0.2,0,0.2,0c1.1,0.1,2.1,0.7,2.7,1.6c1,1.3,1.5,2.9,1.7,4.6c0.4,3.6-1.1,6.7-3.2,6.9
		c-1.2,0-2.3-0.6-2.9-1.6c-1-1.3-1.5-2.9-1.7-4.6C285.3,218,286.7,214.9,288.9,214.7z M280.4,225.8c-0.1-2.6,1.2-4.8,2.9-4.9
		c0.7,0,1.3,0.3,1.7,0.8c0.1,1.6,0.7,3.1,1.5,4.4c0,1.5-0.6,3-1.7,4l0,0c-0.3,0.2-0.6,0.3-1,0.4c-0.1,0-0.1,0-0.2,0
		C282,230.6,280.5,228.5,280.4,225.8z M285,232.1l-1.7,0.2l-0.1-0.9c0.2,0,0.5-0.1,0.7-0.1c0.3,0,0.6-0.1,0.8-0.2L285,232.1z
		 M280.2,233.2l6.4-0.6c-0.9,1.6-2.6,4.3-3.9,6.6l-0.1-1.9l-0.2-0.1c-0.9-0.1-1.8-0.1-2.7-0.1C279.9,235.4,280.1,233.8,280.2,233.2z
		 M271.6,229.6c0-3.2,1.8-5.8,3.9-5.8s3.9,2.6,3.9,5.8c0,3.2-1.8,5.8-3.9,5.8S271.6,232.8,271.6,229.6z M279.6,232.6l0,0.2
		c0,0-0.3,2.1-0.5,4.3h-1.4l-0.2-1.6C278.4,234.8,279.2,233.8,279.6,232.6z M277,237.1l-2.1,0V236c0.2,0.1,0.5,0.1,0.7,0.1
		c0.4,0,0.9-0.1,1.3-0.3L277,237.1z M268.9,237.8c1.6,0,3.5,0,5.3,0v0h3.4v0c0,0,0,0,0,0v0c2,0,3.7,0,4.3,0l0.9,24h0l0,0h-12.6
		L268.9,237.8C268.9,237.8,268.9,237.8,268.9,237.8L268.9,237.8z M268.5,242.8L268.5,242.8L268.5,242.8l0.4,6.7l-2.1,1.2l0,0l0,0
		l-1.2-0.4L268.5,242.8z M264.3,241.8c1.4,0,2.7,0,4,0.1l-0.7,1.8l-2.8-1.5l-5.5,2.3l-1-2.5C260.3,241.8,262.2,241.8,264.3,241.8z
		 M259.8,233.2l1,8c-0.9,0-1.8,0.1-2.7,0.1l0.2-4.1H258c-2.3,0-4.1,0-5.7,0v-1.4c1.3-0.6,2.3-1.8,2.7-3.1l2.1,0.2L259.8,233.2z
		 M255.2,232.1c0.1-0.4,0.2-0.8,0.3-1.2l0,0c0.2,0.1,0.4,0.2,0.6,0.2c0.3,0.1,0.6,0.2,0.9,0.2l-0.1,0.9L255.2,232.1z M256.8,221
		L256.8,221c1.7,0.1,3,2.2,2.9,4.9c-0.1,2.6-1.5,4.7-3.2,4.7c-0.1,0-0.2,0-0.2,0c-0.3-0.1-0.5-0.2-0.7-0.3c0-0.2,0-0.4,0-0.6
		c0-1.9-0.6-3.7-1.8-5.1C254.2,222.4,255.4,220.9,256.8,221z M247.1,229.6L247.1,229.6c0-3.2,1.8-5.8,3.9-5.8c0.8,0,1.6,0.3,2.1,0.9
		h0c1.2,1.3,1.9,3.1,1.8,4.9c0,0.3,0,0.7-0.1,1l-0.3,1.5c-0.6,1.9-2,3.2-3.5,3.2C248.8,235.4,247.1,232.8,247.1,229.6z M251.7,236
		v1.2l-2.1,0l0.1-1.3c0.4,0.2,0.8,0.3,1.3,0.3C251.2,236.1,251.4,236,251.7,236z M244.6,237.8c0.3,0,0.9,0,1.6,0c0.7,0,1.7,0,2.7,0
		v0h3.4v0c0,0,0,0,0,0v0c1.8,0,3.7,0,5.4,0l-1.3,23.9h0l0,0h-12.6l0,0h0L244.6,237.8z M237.7,232.4c0.7,1.2,2.2,3.8,5.7,9.7l0.1,0.2
		l0.3,0l-0.1,1.5c-0.3,0-0.6,0.1-0.9,0.1c-0.5-0.4-3.7-4.7-5.6-7.3C237.4,234.8,237.6,233.4,237.7,232.4z M235.6,214.7
		c0.2,0,0.4,0,0.5,0l0,0c0.3,0,0.5,0.1,0.8,0.2c-0.5,0-0.9,0-1.4-0.1c0,0,0,0,0,0c-0.1,0-0.2,0-0.3,0c0,0,0,0,0,0
		C235.3,214.7,235.5,214.7,235.6,214.7z M234.3,215.3L234.3,215.3c0.1,0,0.1,0,0.2,0c0.1,0,0.2,0,0.4,0.1c0.1,0,0.2,0,0.2,0
		c0,0,0,0,0,0c0.6,0.1,1.1,0.1,1.7,0.1c0.3,0,0.6,0,0.9-0.1c0.1,0.1,0.2,0.2,0.3,0.3c-1,0-2,0-2.9-0.3c0,0,0,0,0,0l0,0
		C234.8,215.4,234.5,215.3,234.3,215.3C234.2,215.3,234.2,215.3,234.3,215.3L234.3,215.3z M233.6,215.8
		C233.6,215.8,233.6,215.8,233.6,215.8C233.7,215.8,233.7,215.8,233.6,215.8c0.3,0,0.7,0.1,1.1,0.2c0.9,0.2,1.8,0.3,2.7,0.4
		c0.3,0,0.6,0,0.9-0.1c0.1,0.1,0.1,0.2,0.2,0.3c-1.4,0.2-2.7,0.1-4.1-0.2l0,0l0,0c-0.4-0.1-0.8-0.2-1.2-0.3c0,0,0,0,0,0
		C233.4,216,233.5,215.9,233.6,215.8z M234.2,217c0.9,0.2,1.9,0.3,2.9,0.3c0.6,0,1.2-0.1,1.8-0.2c0.5,1.4,0.7,2.9,0.5,4.4
		c-0.1,1.6-0.7,3.2-1.7,4.6c-0.6,1-1.7,1.6-2.9,1.6c-0.1,0-0.1,0-0.2,0c0,0,0,0,0,0c-2-0.4-3.4-3.4-3-6.9c0.1-1.5,0.6-2.9,1.4-4.1
		c0,0,0,0,0,0C233.3,216.8,233.8,217,234.2,217z M233.4,228c0.4,0.2,0.8,0.4,1.3,0.4c0.1,0,0.2,0,0.3,0c0.2,0,0.4,0,0.5-0.1v1.7H233
		L233.4,228z M225.5,251.6l4.1-20.9h1.4h6.2c-0.1,1.1-0.4,4.6-0.8,8.4l-2.3-2.8l-0.5,0.4l5.3,6.4l-0.4,0.9l0,0l-0.5,1.2l0,0
		l-1.5-1.5v0h0l-3.2-3.2l-0.5-0.5l-0.4,0.4l3.5,3.5c-0.4,3.6-0.7,6.7-0.8,7.6l0,0c-1.5,0.3-3,0.5-4.5,0.6
		C228.9,252.3,227.2,252.1,225.5,251.6L225.5,251.6z M230.1,254.8l-4.7-0.5l0-1.9L230.1,254.8z M224.3,231.8l0.6,23l6.8,0.8l3,1.6
		c-4.4,0.2-10,0.5-11.2,0.5v0c-0.2-1.9-0.7-15.9-1-25.5L224.3,231.8z"/>
	<polygon points="264.9,243.6 264.1,244 263.7,243.6 263.5,243.8 263.9,244.2 261.2,245.6 261.4,245.8 264.1,244.4 264.5,244.8 
		264.8,244.6 264.4,244.2 265.1,243.8 	"/>
	<path class="st0" d="M268.7,264.8l-3.1-1.4l0,0l2.5,14.3c0.4,0.1,0.8,0.1,1.1,0.1c0,0,0,0,0,0C269.4,276.7,269,269.6,268.7,264.8z"
		/>
	<polygon class="st0" points="267.4,276.9 266.7,277 267.5,277.4 267.5,277.4 267.4,276.9 	"/>
	<polygon class="st0" points="269.3,257.5 265,259.6 265,259.6 265.7,263.4 265.7,263.4 265.9,260.4 265.9,260.4 269.6,261.6 
		269.6,261.6 	"/>
	<path class="st0" d="M270.2,261.7h12.6l0,0l-0.9-24c-0.6,0-2.2,0-4.3,0c0,0,0,0,0,0v0v0h-3.5v0c-1.8,0-3.7,0-5.3,0c0,0,0,0,0,0
		L270.2,261.7z"/>
	<polygon class="st0" points="269.6,262.4 269.6,262.4 269.6,262.3 266.4,261.2 266.3,263 266.3,263 269.9,264.7 	"/>
	<polygon class="st0" points="270.3,262.4 270.3,262.4 270.4,263.3 270.6,264.9 270.6,264.9 282.8,264.9 282.8,264.9 282.8,262.4 	
		"/>
	<polygon class="st0" points="266.8,250.7 266.8,250.7 268.9,249.5 268.5,242.8 268.5,242.8 265.6,250.3 	"/>
	<polygon class="st0" points="259,277.4 259.8,277 259.8,277 259.1,276.9 	"/>
	<path class="st0" d="M243.7,261.7h12.6l0,0l1.3-23.9c-1.7,0-3.5,0-5.4,0c0,0,0,0,0,0v0h-3.4v0c-1,0-1.9,0-2.7,0c-0.7,0-1.3,0-1.6,0
		L243.7,261.7L243.7,261.7z"/>
	<polygon class="st0" points="260.2,263 260.1,261.2 256.9,262.3 256.9,262.4 256.9,262.4 256.6,264.7 256.6,264.7 260.2,263 	"/>
	<path class="st0" d="M260.8,263.4l-2.6,1.2l-0.4,0.2c-0.3,4.5-0.6,11-0.6,12.7c0,0.1,0,0.2,0,0.3c0.4,0,0.8,0,1.1-0.1l0.2-1.2
		L260.8,263.4L260.8,263.4z"/>
	<polygon class="st0" points="256.3,262.4 256.3,262.4 245.2,262.4 243.7,262.4 243.7,262.4 243.7,264.9 243.7,264.9 255.9,264.9 	
		"/>
	<polygon class="st0" points="260.8,263.4 260.8,263.4 261.5,259.6 257.2,257.5 257,261.6 257,261.6 260.6,260.4 	"/>
	<polygon class="st0" points="258,242.9 257.6,249.5 259.7,250.7 260.9,250.3 260.9,250.3 258,242.8 	"/>
</g>
</svg>
