<?xml version="1.0" encoding="utf-8"?>
<!-- Generator: Adobe Illustrator 27.8.1, SVG Export Plug-In . SVG Version: 6.00 Build 0)  -->
<svg version="1.1" id="Layer_1" xmlns="http://www.w3.org/2000/svg" xmlns:xlink="http://www.w3.org/1999/xlink" x="0px" y="0px"
	 viewBox="0 0 500 500" style="enable-background:new 0 0 500 500;" xml:space="preserve">
<style type="text/css">
	.st0{fill:none;}
	.st1{fill:#FFFFFF;}
	.st2{fill:#27AAE1;}
	.st3{fill:none;stroke:#000000;stroke-width:0;stroke-linecap:round;stroke-linejoin:round;}
</style>
<g>
	<path class="st0" d="M282.9,171.6l1.5-0.2c0,0,0,0,0,0L282.9,171.6c0,0.2,0.1,0.8,0.1,1.5c0,0,0,0,0,0
		C283,172.5,282.9,171.9,282.9,171.6z"/>
	<path class="st0" d="M245.9,171c4.5,0,16.5,0.1,27.2,0.1C262.4,171.1,250.5,171.1,245.9,171z"/>
	<rect x="275.9" y="172.8" class="st0" width="1.5" height="0"/>
	<path class="st0" d="M283,173.6c0,0.1,0,0.2,0,0.3C283.1,173.8,283.1,173.7,283,173.6z"/>
	<polygon class="st0" points="289.9,181.5 290.2,181.5 289.9,181.5 	"/>
	<polygon class="st0" points="263.1,237.2 263.6,237.1 263.1,237.2 263.3,237.7 263.3,237.7 	"/>
	<polygon class="st0" points="261.1,235.7 265,184.1 265,184.1 265.6,175.9 265.6,175.9 265,184.1 261.1,235.7 262.6,236 	"/>
	<polygon class="st0" points="263.4,243.6 261.6,240.4 258.5,249.8 254.7,249.2 254.7,249.2 258.5,249.8 261.6,240.4 263.4,243.6 
		264.7,242.7 264.7,242.7 	"/>
	<path class="st0" d="M289.4,155.5c0,9.4-4.5,17.1-10,17.1c0,0,0,0,0,0C284.9,172.6,289.4,164.9,289.4,155.5c0-9.4-4.5-17.1-10-17.1
		c0,0,0,0,0,0C284.9,138.4,289.4,146,289.4,155.5z"/>
	<path class="st0" d="M269.2,174.9c1.9-0.1,4.2-0.2,6.7-0.3l1.5-0.1c1.9-0.1,3.8-0.1,5.6-0.2l1.5-0.1l0,0c-0.1-0.7-0.1-1.5-0.2-2.1
		c0.3-0.3,0.7-0.6,1-0.9c3.3,0,5.8,0,6.9,0.1l0,0c-1.1,0-3.6-0.1-6.9-0.1h0c-0.3,0.3-0.6,0.6-1,0.9c0,0,0,0,0,0
		c0.1,0.6,0.1,1.5,0.2,2.1l-1.5,0.1c0,0,0,0,0,0c-1.8,0.1-3.8,0.1-5.6,0.2v0l-1.5,0.1v0C273.5,174.7,271.1,174.8,269.2,174.9z"/>
	<polygon class="st0" points="273.2,171.2 273.2,171.2 273.2,171.2 273.2,169.7 271.9,169.6 273.2,169.7 273.2,171.2 273.2,171.2 
		273.2,171.2 	"/>
	<polygon class="st0" points="267.5,333.8 267.5,333.8 271.5,333.8 275.9,289.7 271.5,333.8 	"/>
	<polygon class="st0" points="291.9,176.6 292.1,181.3 292.1,182 290.6,182 290.6,182 292.1,182 292.1,181.3 292.1,181.3 
		291.9,176.6 	"/>
	<polygon class="st0" points="221.6,336 221.6,336 221,336 224.5,233.4 224.5,233.4 221,336 217.2,336 216.4,233.4 216.4,233.4 
		217.2,336 	"/>
	
		<rect x="240.8" y="174.7" transform="matrix(5.863362e-02 -0.9983 0.9983 5.863362e-02 55.7591 408.6282)" class="st0" width="7.4" height="0"/>
	
		<rect x="264.1" y="175.8" transform="matrix(6.651901e-02 -0.9978 0.9978 6.651901e-02 71.1301 427.625)" class="st0" width="0" height="0"/>
	<polygon class="st0" points="287.6,181.7 286.8,172.9 286.8,172.9 287.6,181.7 288.3,181.7 288.4,182.1 289.9,182 289.9,182 
		288.4,182.1 288.3,181.7 288,176.8 288.3,181.7 	"/>
	<path class="st0" d="M264,175.1L264,175.1l0.8,0c0,0,0.1,0,0.2,0c-0.1,0-0.2,0-0.2,0L264,175.1z"/>
	<polygon class="st0" points="299.2,247.7 299.3,247.7 301.9,243.7 301.8,243.7 	"/>
	<path class="st0" d="M228.6,129.2C228.6,129.2,228.6,129.2,228.6,129.2c1,0,2.1,0.2,3,0.7c0,0,0,0,0,0
		C230.7,129.5,229.7,129.2,228.6,129.2z"/>
	
		<rect x="216.6" y="337.5" transform="matrix(0.8768 -0.4808 0.4808 0.8768 -135.5654 145.7685)" class="st0" width="0.2" height="0"/>
	<polygon class="st0" points="304.3,240.7 306,252.2 302.8,253.6 302.8,253.6 306,252.2 304.3,240.7 	"/>
	<path class="st0" d="M227.1,129.4c-0.1,0.2-0.3,0.4-0.4,0.6c0,0,0,0,0,0C226.8,129.8,227,129.6,227.1,129.4
		C227.1,129.4,227.1,129.4,227.1,129.4z"/>
	<path class="st0" d="M221.2,133.9c1,0.2,1.9,0.4,2.9,0.5C223.2,134.3,222.2,134.1,221.2,133.9z"/>
	<polygon class="st0" points="304.5,240.4 305.8,240.2 305.8,240.2 	"/>
	<path class="st0" d="M229.9,133c1.7-0.1,3.4-0.3,5-0.6c0.1,0,0.2,0,0.3-0.1c-0.1,0-0.2,0-0.3,0.1c-0.4-0.4-0.8-0.9-1.2-1.2
		c0,0,0,0,0,0c0.4,0.4,0.9,0.8,1.2,1.2C233.3,132.8,231.6,133,229.9,133z"/>
	<path class="st0" d="M223.6,131.2C223.6,131.2,223.6,131.2,223.6,131.2c0.7,0.1,1.4,0.2,2.1,0.3c0,0,0,0,0,0
		c0.7,0.1,1.5,0.1,2.3,0.1c0,0,0,0,0,0c-0.8,0-1.5,0-2.3-0.1C225,131.5,224.3,131.4,223.6,131.2L223.6,131.2
		C223.6,131.2,223.6,131.2,223.6,131.2z"/>
	<polygon class="st0" points="269,346.9 269,346.9 271.1,336.5 	"/>
	<polygon class="st0" points="271.5,334.5 271.9,334.5 271.5,334.5 	"/>
	
		<rect x="293.5" y="335.2" transform="matrix(0.4692 -0.8831 0.8831 0.4692 -140.317 437.2099)" class="st0" width="0" height="0.2"/>
	<polygon class="st0" points="293,333.8 293.1,330.2 293,333.8 289.7,333.8 288.1,305.6 289.7,333.8 	"/>
	<polygon class="st0" points="296.9,345.1 290.4,335.4 290.4,335.4 296.9,345.1 307,342.4 307,342.4 	"/>
	<polygon class="st0" points="295.2,195.5 295.3,195.6 295.3,195.6 295.2,195.5 293.9,196.1 293.9,196.1 	"/>
	<polygon class="st0" points="281.1,236.2 284.1,236.2 284.1,236.2 281.1,236.2 281,237.1 281,237.1 	"/>
	<polygon class="st0" points="305.3,203.8 305.3,203.8 295.3,178.7 295.3,178.7 305.3,203.8 	"/>
	<polygon class="st0" points="306,205.3 305.6,205.3 299.9,206.2 299.2,206.3 299.2,206.3 299.9,206.2 299.9,206.2 305.6,205.3 
		304.3,239.2 304.3,239.2 305.6,205.3 306,205.3 305.8,203.8 305.8,203.8 	"/>
	<polygon class="st0" points="267.3,335.1 266.1,334.1 266.1,334.1 267.3,335.1 267.1,335.4 267.1,335.4 267.1,335.4 	"/>
	<polygon class="st0" points="209,201.6 212.8,190.6 212.8,190.5 212.8,190.5 212.8,190.6 212.8,190.6 	"/>
	<path class="st0" d="M230.1,166.5c0,0,0.1,0,0.1,0C230.1,166.5,230.1,166.5,230.1,166.5z"/>
	<path class="st0" d="M231.6,164.8L231.6,164.8l0,1.2c-0.1,0-0.2,0.1-0.3,0.1c0.1,0,0.2-0.1,0.3-0.1V164.8z"/>
	<path class="st0" d="M230.8,166.3C230.8,166.3,230.9,166.3,230.8,166.3C230.9,166.3,230.8,166.3,230.8,166.3z"/>
	<polygon class="st0" points="226,166.2 226,166.2 226,169.5 226,169.5 	"/>
	<path class="st0" d="M228.6,166.6C228.7,166.6,228.7,166.6,228.6,166.6C228.7,166.6,228.6,166.6,228.6,166.6
		C228.6,166.6,228.6,166.6,228.6,166.6L228.6,166.6z"/>
	<path class="st0" d="M222,139.9c-2,7-2.1,16.3,5.9,25.1c0,0,0,0,0,0h0C219.9,156.2,220,146.9,222,139.9z"/>
	<path class="st0" d="M227.3,166.5C227.3,166.5,227.3,166.5,227.3,166.5C227.3,166.5,227.3,166.5,227.3,166.5z"/>
	<path class="st0" d="M217.6,147.1c0-3.6,0.7-7.1,2-10.4c0,0,0,0,0,0C218.3,140.1,217.6,143.6,217.6,147.1c0,5.9,1.8,11.2,4.5,14.4
		C219.4,158.3,217.6,153.1,217.6,147.1z"/>
	<polygon class="st0" points="203.9,238.1 203.9,238.1 203.7,238.7 203.7,238.7 203.7,238.7 	"/>
	<polygon class="st0" points="209.5,244 210.3,243.5 207.6,238.7 207.3,238.2 207.3,238.2 207.6,238.7 207.6,238.7 210.3,243.5 	"/>
	<polygon class="st0" points="201.1,247.8 200.7,249.5 200.7,249.5 	"/>
	
		<rect x="211" y="201.5" transform="matrix(5.855446e-02 -0.9983 0.9983 5.855446e-02 26.1921 430.7084)" class="st0" width="61" height="0"/>
	<polygon class="st0" points="250.9,343.8 251.8,343.3 251.8,343.3 	"/>
	<polygon class="st0" points="234.7,231.9 234.7,231.9 222.2,228.9 219,171 219,171 222.2,228.9 	"/>
	<polygon class="st0" points="209,201.6 209.7,201.9 209.8,201.9 209,201.6 206,200.5 	"/>
	<polygon class="st0" points="200.7,198.5 201.5,198.8 206,200.5 206,200.5 201.5,198.8 205.5,189.2 201.5,198.8 200.7,198.5 
		200.2,200 200.2,200 	"/>
	<path class="st0" d="M229.2,166.6c0.1,0,0.1,0,0.2,0C229.4,166.6,229.3,166.6,229.2,166.6z"/>
	<polygon class="st0" points="237.6,336 239.6,233.4 239.6,233.4 237.6,336 237.2,336 232,233.4 232,233.4 237.2,336 233.9,336 
		228.8,233.4 228.8,233.4 233.9,336 	"/>
	
		<rect x="238.1" y="337.4" transform="matrix(0.3969 -0.9179 0.9179 0.3969 -166.1579 422.0616)" class="st0" width="0" height="0.1"/>
	<polygon class="st0" points="235,337.5 233.8,336.2 233.8,336.2 235,337.5 244.1,347.1 244.1,347.1 235,337.5 	"/>
	<polygon class="st0" points="213.9,347.1 213,346.6 220.3,337.5 220.3,337.5 213,346.6 205.9,343.2 205.9,343.2 213,346.6 
		213.9,347.1 218.9,340.1 	"/>
	<polygon class="st0" points="250,344.2 248.9,344.8 250,344.2 250,344.2 242.6,339.9 	"/>
	<path class="st1" d="M285.5,175.8c-7.3,0.3-17,0.7-19.8,0.8l6.5,59h21.6V181l-0.2,1.7l-6.1,0.5l-1.2,0.1L285.5,175.8z"/>
	<path class="st1" d="M284.5,172.2c0.1,0.6,0.1,1.5,0.2,2.1l0.7,0l0,0l-0.1-1.3l1.5-0.1v0l0,0l0.8,8.9l0.7-0.1l-0.4-4.8l1.5-0.1
		l0.3,4.8l0,0l0.3,0l0.4,0v0l-0.2-4.7l1.5-0.1l0,0l0,0l0.2,4.7l0.1,0l1-6.4l-0.8-3.6c-1.1,0-3.6-0.1-6.9-0.1
		C285.1,171.6,284.8,171.9,284.5,172.2z"/>
	<polygon class="st1" points="203.9,237.2 206.3,237.2 205.6,202 201.3,200.4 	"/>
	<polygon class="st1" points="237.6,336 239.6,233.4 232,233.4 237.2,336 	"/>
	<path class="st1" d="M244.8,171l-0.4,7.4l0,0c1.8-0.2,10.6-1.1,19.7-2l0-0.6l0,0l0,0l0,0l-0.1-0.7l0,0l0,0l0.8,0c0,0,0.1,0,0.2,0
		c0.6,0,2.1-0.1,4.2-0.2c1.9-0.1,4.2-0.2,6.7-0.3v0l0,0v-1.4c-1-0.5-2-1.2-2.8-2.1l0,0v0c0,0,0,0,0,0l0,0c0,0,0,0,0,0
		c-10.7-0.1-22.7-0.1-27.2-0.1C245.5,171,245.1,171,244.8,171L244.8,171L244.8,171z"/>
	<path class="st1" d="M283.1,173.9c0-0.1,0-0.2,0-0.3c0-0.1,0-0.3,0-0.4c0,0,0,0,0,0c0,0,0,0,0,0c0,0,0,0,0,0
		c-1.1,0.6-2.4,0.9-3.6,1c-0.6,0-1.3-0.1-1.9-0.3v0.7c1.9-0.1,3.8-0.1,5.6-0.2C283.1,174.2,283.1,174,283.1,173.9z"/>
	<polygon class="st1" points="204.6,253.3 205.3,240.6 208.9,244.4 209.5,244 210.3,243.5 207.6,238.7 203.7,238.7 203.7,238.7 
		203.7,238.7 201.1,247.8 200.7,249.5 	"/>
	<polygon class="st1" points="206,200.5 212.5,184.2 212.5,184.2 211.9,173.7 205.5,189.2 201.5,198.8 	"/>
	<path class="st1" d="M289.4,155.5c0-9.4-4.5-17.1-10-17.1c-5.5,0-10,7.7-10,17.1s4.5,17.1,10,17.1
		C284.9,172.6,289.4,164.9,289.4,155.5z"/>
	<path class="st1" d="M225.7,131.5C225.7,131.5,225.7,131.5,225.7,131.5C225.7,131.5,225.7,131.5,225.7,131.5
		c-0.3,0.4-0.5,0.9-0.8,1.4c0,0,0,0,0,0c1.7,0.1,3.4,0.2,5,0.1c1.7-0.1,3.3-0.3,5-0.6c-0.4-0.4-0.8-0.9-1.2-1.2
		c-1.9,0.2-3.8,0.4-5.7,0.4c0,0,0,0,0,0c0,0,0,0,0,0C227.2,131.6,226.4,131.6,225.7,131.5z"/>
	<path class="st1" d="M223.3,136.2C223.3,136.2,223.3,136.2,223.3,136.2c4.5,0.7,9.1,0.4,13.5-1c-0.3-0.5-0.6-1-0.9-1.4c0,0,0,0,0,0
		c0,0,0,0,0,0c-2.7,0.5-5.4,0.8-8.1,0.8c-1.3,0-2.5-0.1-3.7-0.2C223.9,135,223.6,135.5,223.3,136.2
		C223.3,136.2,223.3,136.2,223.3,136.2z"/>
	<polygon class="st1" points="295.3,195.7 299.6,204.7 299.6,204.7 305.3,203.8 295.3,178.7 295.3,195.6 295.3,195.6 295.3,195.6 	
		"/>
	<path class="st1" d="M227.9,165c0.3,0,0.5,0,0.8,0c6.1,0,11-8,11-17.9c0-3.6-0.7-7.2-2.1-10.6c0,0,0,0,0,0c-3.1,1-6.3,1.5-9.5,1.5
		c-1.7,0-3.5-0.2-5.2-0.5c-0.3,0.7-0.5,1.5-0.8,2.3C220,146.9,219.9,156.2,227.9,165z"/>
	<path class="st1" d="M231.6,169.5V166c-0.1,0-0.2,0.1-0.3,0.1c-0.1,0-0.3,0.1-0.4,0.1c0,0-0.1,0-0.1,0c-0.2,0.1-0.4,0.1-0.6,0.2
		c0,0-0.1,0-0.1,0c-0.2,0-0.4,0.1-0.6,0.1c-0.1,0-0.1,0-0.2,0c-0.2,0-0.3,0-0.5,0c0,0-0.1,0-0.1,0h0c0,0-0.1,0-0.1,0
		c-0.4,0-0.8,0-1.3-0.1c0,0,0,0,0,0c-0.4-0.1-0.9-0.2-1.3-0.3v3.3H231.6z"/>
	<path class="st1" d="M227.1,129.4c-0.1,0.2-0.3,0.4-0.4,0.6c0,0,0,0,0,0c1.7,0.1,3.3,0,5-0.1c-0.9-0.4-2-0.7-3-0.7
		C228.1,129.2,227.6,129.3,227.1,129.4z"/>
	<polygon class="st1" points="304.3,240.7 301,240.3 301,240.3 297.8,246.6 299.2,247.7 301.8,243.7 301.9,243.7 301.9,243.7 
		303.4,245.9 302.8,253.6 306,252.2 	"/>
	<polygon class="st1" points="221.6,336 227.2,233.4 224.5,233.4 221,336 	"/>
	<polygon class="st1" points="299.9,206.2 299.9,206.2 299.9,206.2 301.2,238.8 304.3,239.2 305.6,205.3 	"/>
	<polygon class="st1" points="262.6,236 263.2,236.1 267.5,206.4 267.5,206.4 265,184.1 261.1,235.7 	"/>
	<polygon class="st1" points="272.2,237.1 267.5,333.8 271.5,333.8 275.9,289.7 281,237.1 281,237.1 281,237.1 272.2,237.1 	"/>
	<polygon class="st1" points="261.6,240.4 263.4,243.6 264.7,242.7 263.3,237.7 263.3,237.7 263.3,237.7 263.3,237.7 260.7,237.2 
		260.7,237.2 254.7,249.2 258.5,249.8 	"/>
	<polygon class="st1" points="234.7,231.9 239.7,231.9 243.2,171 224.4,171 224.4,171 219,171 222.2,228.9 	"/>
	<polygon class="st1" points="307,342.4 293.6,335.4 293.6,335.4 293.6,335.4 293.6,335.4 290.4,335.4 296.9,345.1 	"/>
	<polygon class="st1" points="293,333.8 293.1,330.2 293.8,237.1 293.8,237.1 284.2,237.1 284.2,237.1 288.1,305.6 289.7,333.8 	"/>
	<polygon class="st1" points="271.3,335.4 267.1,335.4 267.1,335.4 258.6,345.4 269,346.9 271.1,336.5 	"/>
	<polygon class="st1" points="213.9,347.1 218.9,340.1 220.8,337.5 220.3,337.5 213,346.6 	"/>
	<polygon class="st1" points="239.6,338.1 242.6,339.9 250,344.2 250.9,343.8 251.8,343.3 	"/>
	<path class="st2" d="M221.2,133.9c-0.3,0.5-0.6,1-0.9,1.5c1,0.3,2,0.6,3,0.8c0,0,0,0,0,0c0.3-0.6,0.5-1.2,0.8-1.7c0,0,0,0,0,0
		c0,0,0,0,0,0C223.2,134.3,222.2,134.1,221.2,133.9z"/>
	<path class="st2" d="M225.5,130c0.4,0,0.8,0.1,1.1,0.1c0.2-0.2,0.3-0.5,0.4-0.6C226.5,129.5,226,129.7,225.5,130z"/>
	<path class="st2" d="M222.1,161.6c1.6,2,3.6,3.2,5.7,3.4c-8-8.9-7.9-18.1-5.9-25.1c0.2-0.8,0.5-1.6,0.8-2.3c0,0,0,0,0,0
		c-1-0.2-2.1-0.5-3.1-0.8c-1.4,3.3-2.1,6.8-2,10.4C217.6,153.1,219.4,158.3,222.1,161.6z"/>
	<polygon class="st2" points="223.6,131.2 223.6,131.2 223.6,131.2 	"/>
	<path class="st2" d="M225.7,131.5c-0.7-0.1-1.4-0.1-2.1-0.3c-0.5,0.4-0.9,0.9-1.3,1.3c0.9,0.2,1.8,0.3,2.6,0.4
		C225.2,132.4,225.4,132,225.7,131.5C225.7,131.5,225.7,131.5,225.7,131.5z"/>
	<polygon class="st2" points="221,336 224.5,233.4 216.4,233.4 217.2,336 	"/>
	<polygon class="st2" points="220.3,337.5 216.6,337.5 216.6,337.5 216.6,337.5 216.6,337.5 205.9,343.2 213,346.6 	"/>
	<polygon class="st2" points="234.7,231.9 222.2,228.9 219,171 213.3,171 216.4,231.9 	"/>
	<polygon class="st2" points="253,346 251.6,345.2 244.2,348.7 244.9,349.4 244.9,349.4 	"/>
	<polygon class="st2" points="242.6,339.9 239.6,338.1 239.6,338.1 238.2,337.5 238.2,337.5 238.2,337.5 238.2,337.5 235,337.5 
		244.1,347.1 248.9,344.8 250,344.2 	"/>
	<polygon class="st2" points="237.2,336 232,233.4 228.8,233.4 233.9,336 	"/>
	<polygon class="st2" points="207.3,237.2 208.7,203.1 205.6,202 205.6,202 206.3,237.2 	"/>
	<polygon class="st2" points="206,200.5 209,201.6 212.8,190.6 212.8,190.6 212.8,190.6 212.5,184.2 206,200.5 	"/>
	<path d="M236.8,135.2C236.8,135.2,236.8,135.2,236.8,135.2L236.8,135.2c0.7-0.2,1.2-0.4,1.4-0.5c-0.2-0.5-0.5-0.9-0.8-1.3
		c-0.4,0.1-0.9,0.2-1.5,0.4c0,0,0,0,0,0C236.3,134.2,236.5,134.7,236.8,135.2z"/>
	<path d="M228.6,127.7c-1.9,0-3.8,0.6-5.4,1.9c0,0,0,0,0,0c-0.3-0.1-0.7-0.2-1-0.3l-0.5,1.4c0,0,0.1,0,0.1,0
		c0.6,0.2,1.1,0.3,1.7,0.4l0,0c0.7,0.1,1.4,0.2,2.1,0.3c0.7,0.1,1.5,0.1,2.3,0.1c0,0,0,0,0,0c1.9,0,3.8-0.1,5.7-0.4c0,0,0,0,0,0
		c0.4,0.4,0.9,0.8,1.2,1.2c0.1,0,0.2,0,0.3-0.1c-0.1,0-0.2,0-0.3,0.1c-1.7,0.3-3.3,0.5-5,0.6c-1.7,0.1-3.4,0.1-5-0.1c0,0,0,0,0,0
		c-0.9-0.1-1.8-0.2-2.6-0.4c0.4-0.5,0.9-0.9,1.3-1.3c0,0,0,0,0,0c0,0,0,0,0,0c0,0,0,0,0,0c-0.6-0.1-1.2-0.2-1.7-0.4
		c-0.4,0.4-0.8,0.9-1.2,1.4c0.5,0.1,1.1,0.3,1.6,0.4l0,0c0,0,0,0,0,0c-0.5-0.1-1.1-0.2-1.6-0.4c-0.1,0-0.2,0-0.3-0.1l-0.2,0.7
		l-0.2,0.8c0.4,0.1,0.8,0.2,1.3,0.3v0c1,0.2,1.9,0.4,2.9,0.5c0,0,0,0,0,0c1.2,0.1,2.5,0.2,3.7,0.2c2.7,0,5.4-0.3,8.1-0.8
		c0.6-0.1,1.2-0.3,1.5-0.4c0.2-0.1,0.5-0.1,0.7-0.2l-0.7-1.3c-0.3,0.1-0.6,0.2-0.9,0.3c-0.1,0-0.2,0-0.3,0.1c0.1,0,0.2,0,0.3-0.1
		c-0.3-0.4-0.6-0.8-1-1.1c0,0,0,0,0,0c0.5-0.1,0.8-0.1,0.9-0.2l-0.3-1.5c0,0-0.9,0.2-2.1,0.3c0,0,0,0,0,0
		C232.5,128.3,230.6,127.7,228.6,127.7L228.6,127.7z M231.6,129.9c-1.7,0.2-3.3,0.2-5,0.1c0,0,0,0,0,0c0,0,0,0,0,0
		c-0.4,0-0.8,0-1.1-0.1c0.5-0.2,1-0.4,1.6-0.6c0,0,0,0,0,0c0.5-0.1,1-0.2,1.5-0.2c0,0,0,0,0,0C229.7,129.2,230.7,129.5,231.6,129.9
		C231.6,129.9,231.6,129.9,231.6,129.9z"/>
	<line class="st3" x1="244" y1="169.5" x2="244.9" y2="169.5"/>
	<path d="M206.6,244.2l1.9,2l3.9-2.2l-3.6-6.3l1.4-35l2.8-8.1l0.5-1.3l-0.5,1.3l1.9,38v0h0v0l0.8,103.6l-13.1,7l11.8,5.7l8.3-11.5
		l0.2-0.3l0,0l-0.2,0.3h0.3l5-90.3l4.5,90.3h0.4l-0.2-0.2l0,0l0.2,0.2l10.8,11.5l0.5-0.3l7.3-3.6l3.9-1.9l-16.4-7l2-103.5v0l0,0
		l3.1-52.7l-0.1,0l-0.2-1.5l0,0l0.2,1.5l0.1,0c1.1-0.1,10.2-1,19.7-2l-4.4,58.1l0.1-0.1l1.4,0.7l0,0l-1.4-0.7l-0.1,0.1l-7.2,14.3
		l7.2,1l2.5-7.3l0.9,1.7l3.6-2.5l-1.9-6.4l0,0l3.5-24.4l0.9-6l-0.9-0.1l0.9,0.1l-0.9,6l2.6,23.8v-0.1l1.5,0.1l0,0l-1.5-0.1v0.1
		l-4.8,97.9l0,0l-10.3,12.2l14.5,2.1l2.6-13.3l0.1-0.6l0,0l-0.1,0.6h0.1l9.6-97.7h0.2l5.6,97.7h0.3l0,0l7.6,11.5l14.9-3.9l-16.6-8.8
		l0.8-97v0h0v-0.8l0,0l-1.5,0l0,0l1.5,0v-37.1l3.1,6.5l1.3,33.8l0.1-0.2l1.4,0.7l0,0l-1.4-0.7l-0.1,0.2l-3.8,7.5l3.8,2.9l2.2-3.4
		L301,256l6.7-2.9l-1.9-12.9v0l0,0l1.4-35.7l-11.9-30.1l-0.6,0.2l0,0.2l-0.3,1.7l0,0l-0.7,4.5v54.5h-21.6l-6.5-59c0,0,0,0,0,0
		c2.8-0.1,12.5-0.5,19.8-0.8l0.7,7.6l1.2-0.1l6.1-0.5l0.2-1.7l0.7-4.5l0.3-1.7l0-0.2l-1.1-4.8l-0.6,0c0,0-2.5-0.1-6.2-0.1
		c-0.5,0-1.1,0-1.7,0v0c0.6,0,1.1,0,1.7,0c2.5-3.4,4.1-8.5,4.1-14.3c0-10.3-5.2-18.6-11.5-18.6s-11.5,8.4-11.5,18.6
		c0,5.7,1.6,10.8,4.1,14.2c-11.4-0.1-23.8-0.1-27.1-0.1h-0.8l0,1.5h0l0-1.5h-10.9v-4.2c4.7-2.8,8-9.9,8-18.1c0-3.8-0.7-7.6-2.2-11.1
		l0.2-0.1l-0.6-1.4c0,0-0.1,0-0.2,0.1c-0.3,0.1-0.8,0.3-1.4,0.5c-4.4,1.4-9,1.7-13.5,1l0,0c-1-0.2-2-0.4-3-0.8
		c-0.3-0.1-0.5-0.2-0.8-0.3l0,0c0.3,0.1,0.5,0.2,0.8,0.3c0.3-0.5,0.6-1,0.9-1.5c-0.4-0.1-0.8-0.2-1.3-0.3l0.2-0.8
		c-2.8,4.3-4.2,9.3-4.1,14.3c0,8.4,3.5,15.6,8.3,18.3v-0.4l1.5,0h-1.5v4.4h-12.7l0,0.6l0.1-0.2l0,0l-0.1,0.2l-12.1,29l2.7,38.6l0,0
		l-3.4,12.2l7,6.7L206.6,244.2z M306,252.2l-3.2,1.4l0,0l0.7-7.7l-1.6-2.2l0,0l-2.6,4l0,0l-1.4-1.1l3.2-6.3l0,0l3.3,0.4l0,0
		L306,252.2z M304.5,240.4l1.3-0.2v0L304.5,240.4z M306,205.3l-0.4,0.1l-1.3,33.9l0,0l-3.1-0.4l-1.2-32.6l0,0l-0.7,0.1l0,0l0.7-0.1
		l5.7-0.8L306,205.3l-0.2-1.5l0,0L306,205.3z M295.2,195.5l0.1,0.2l0,0v-16.9v0l9.9,25.1l0,0l0,0l-5.7,0.8l0,0l-4.3-9l0,0
		L295.2,195.5l-1.4,0.7l0,0L295.2,195.5z M269,346.9L269,346.9l-10.4-1.5l8.4-10l0,0l0.2-0.3l-1.2-1l0,0l1.2,1l-0.2,0.3h4.2
		l-0.2,1.1L269,346.9z M271.5,334.5L271.5,334.5l0.4,0.1L271.5,334.5z M288.1,305.6l-3.9-68.5l0,0h9.6l0,0l-0.7,93.1l0,3.6h-3.3
		L288.1,305.6z M296.9,345.1l-6.5-9.7h0h3.2l0,0l-0.2-0.1l0,0l0.2,0.1l0,0l13.4,7.1l0,0L296.9,345.1z M281.1,236.2h3l0,0
		L281.1,236.2l-0.1,0.9l0,0l-5.2,52.6l-4.3,44.2h-4l0,0l4.7-96.7l0,0h8.8L281.1,236.2z M265,184.1l0.6-8.2h0L265,184.1L265,184.1
		l2.5,22.3l0,0l-4.2,29.7l-0.6-0.1l-1.5-0.3L265,184.1z M263.4,243.6l-1.8-3.2l-3.2,9.3l-3.8-0.5l0,0l6-12l0,0l2.6,0.5l0,0l-0.1-0.4
		l0.4-0.1l-0.4,0.1l0.1,0.4l0,0l1.5,5l0,0L263.4,243.6z M289.4,155.5c0,9.4-4.5,17.1-10,17.1c0,0,0,0,0,0c-5.5,0-10-7.7-10-17.1
		s4.5-17.1,10-17.1c0,0,0,0,0,0C284.9,138.4,289.4,146,289.4,155.5z M275.9,172.8L275.9,172.8l1.5,0v0H275.9z M245.9,171
		c4.5,0,16.5,0.1,27.2,0.1c0,0,0,0,0,0l0,0v0l0-1.5l-1.3,0l1.3,0l0,1.5c0,0,0,0,0,0c0.8,0.8,1.7,1.5,2.8,2.1v1.4l0,0l1.5-0.1v0v-0.7
		c0.6,0.2,1.3,0.3,1.9,0.3c1.3,0,2.5-0.3,3.6-1c0,0,0,0,0,0c0-0.6-0.1-1.2-0.1-1.5l1.5-0.2c0,0,0,0,0,0l-1.5,0.2
		c0,0.2,0.1,0.8,0.1,1.5c0,0,0,0,0,0c0,0.1,0,0.3,0,0.4c0,0.1,0,0.2,0,0.3c0,0.2,0,0.3,0,0.4c0,0,0,0,0,0l1.5-0.1
		c0-0.7-0.1-1.5-0.2-2.1c0,0,0,0,0,0c0.3-0.3,0.7-0.6,1-0.9h0c3.3,0,5.8,0,6.9,0.1l0,0l0.8,3.6l-1,6.4l-0.1,0l0,0l0,0.7l-1.5,0.1v0
		l1.5-0.1l0-0.7l-0.2-4.7l0,0l-1.5,0.1l0.2,4.7v0l-0.4,0l-0.3,0l0,0l0,0l-0.3-4.8l-1.5,0.1l0.4,4.8l0,0.4l1.5-0.1l0,0l-1.5,0.1
		l0-0.4l-0.7,0.1l-0.8-8.9v0l-1.5,0.1l0.1,1.3l0,0l-0.7,0l0,0l-1.5,0.1c-1.8,0.1-3.8,0.1-5.6,0.2l-1.5,0.1c-2.5,0.1-4.8,0.2-6.7,0.3
		c-2.1,0.1-3.6,0.1-4.2,0.2c-0.1,0-0.2,0-0.2,0l-0.8,0l0,0l0.1,0.7l0,0l0,0l0,0l0,0l0,0l0,0.6c-9.1,0.9-17.9,1.8-19.7,2l0,0l0,0
		l0.4-7.4l0,0h0l0,0C245.1,171,245.5,171,245.9,171z M205.6,202L205.6,202l3.1,1.2l-1.4,34h-1h-2.5l-2.5-36.8L205.6,202z
		 M216.4,233.4h8.1l0,0h2.7L221.6,336l0,0h-4.4L216.4,233.4L216.4,233.4z M213.9,347.1l-0.9-0.4l-7.1-3.4l0,0l10.7-5.7l0,0l0.2-0.1
		l0,0l-0.2,0.1l0,0h3.7h0h0.5l-1.9,2.6L213.9,347.1z M228.8,233.4L228.8,233.4h3.2l0,0h7.6l0,0l-2,102.5h-3.6L228.8,233.4z
		 M250.9,343.8l-0.9,0.4l0,0l-1.1,0.6l-4.8,2.3l0,0l-9.1-9.6l-1.2-1.3l0,0l1.2,1.3h0h3.2l0,0l-0.1-0.1l0,0l0.1,0.1l0,0l1.4,0.6l0,0
		l12.2,5.2l0,0L250.9,343.8z M217.6,147.1c0-3.6,0.7-7.1,2-10.4c0,0,0,0,0,0c1,0.3,2,0.6,3.1,0.8c0,0,0,0,0,0
		c1.7,0.3,3.4,0.5,5.2,0.5c3.2,0,6.5-0.5,9.5-1.5c0,0,0,0,0,0c1.4,3.3,2.1,6.9,2.1,10.6c0,9.9-4.9,17.9-11,17.9c-0.3,0-0.5,0-0.8,0
		h0c0,0,0,0,0,0c-2.1-0.2-4.1-1.5-5.7-3.4C219.4,158.3,217.6,153.1,217.6,147.1z M226,166.2C226,166.2,226,166.2,226,166.2
		c0.4,0.1,0.9,0.3,1.3,0.3c0,0,0,0,0,0c0.4,0.1,0.8,0.1,1.3,0.1c0.1,0,0.1,0,0.2,0c0.2,0,0.3,0,0.5,0c0.1,0,0.1,0,0.2,0
		c0.2,0,0.4-0.1,0.6-0.1c0,0,0.1,0,0.1,0c0.2,0,0.4-0.1,0.6-0.2c0,0,0.1,0,0.1,0c0.1,0,0.3-0.1,0.4-0.1c0.1,0,0.2-0.1,0.3-0.1v-1.2
		h0v1.2v3.5H226h0V166.2z M219,171L219,171h5.5h0h18.8h0l-3.6,60.9h0h-4.9h0h-18.3l-3.1-60.9H219z M200.7,198.5l0.7,0.3l4-9.6
		l6.5-15.5l0.5,10.5l0,0l0.3,6.4l0,0l0,0l0,0l0,0l-3.8,11l0.7,0.3l0,0l-0.7-0.3l-3-1.1l-4.5-1.7L200.7,198.5l-0.5,1.4l0,0
		L200.7,198.5z M201.1,247.8l2.6-9.1l0,0l0.2-0.6l0,0l-0.2,0.6l0,0h3.8h0l-0.3-0.5l0,0l0.3,0.5l2.8,4.8l-0.8,0.5l-0.6,0.4l-3.6-3.8
		l-0.7,12.7l-4-3.8l0,0L201.1,247.8z"/>
</g>
</svg>
