<?xml version="1.0" encoding="utf-8"?>
<!-- Generator: Adobe Illustrator 27.8.1, SVG Export Plug-In . SVG Version: 6.00 Build 0)  -->
<svg version="1.1" id="Layer_1" xmlns="http://www.w3.org/2000/svg" xmlns:xlink="http://www.w3.org/1999/xlink" x="0px" y="0px"
	 viewBox="0 0 500 500" style="enable-background:new 0 0 500 500;" xml:space="preserve">
<style type="text/css">
	.st0{fill:#FFFFFF;}
	.st1{fill:none;}
	.st2{fill:#27AAE1;}
	.st3{fill:none;stroke:#000000;stroke-width:0;stroke-linecap:round;stroke-linejoin:round;}
</style>
<path id="Path_1803" class="st0" d="M260.8,279.7h1l0.2-30.2h-3L260.8,279.7z"/>
<path id="Path_1804" class="st0" d="M253.9,279.7h1.2l3-30.2h-2.7L253.9,279.7z"/>
<path id="Path_1805" class="st0" d="M252.6,249.2l1.3-9.3l-0.8-7l-1.2,16.1L252.6,249.2z"/>
<path id="Path_1952" class="st0" d="M254.5,229.3h1.1l0.7-11.4h-4.6l0.6,10.9L254.5,229.3z"/>
<path id="Path_1953" class="st0" d="M257.4,230.3h0.6l0.5-6.8l-1.3,0.5L257.4,230.3z"/>
<g>
	<path class="st1" d="M272.5,219.7l-0.7-0.2l0,0L272.5,219.7L272.5,219.7c-0.1,0.1-0.3,0.3-0.4,0.5
		C272.3,220,272.4,219.8,272.5,219.7l1.3,0.3l0,0L272.5,219.7z"/>
	<polygon class="st1" points="266,229.4 266.2,229.1 266,229.4 	"/>
	<polygon class="st1" points="266.4,226.3 266.3,228.6 266.3,228.6 266.4,226.3 266.4,226.3 266.4,226.3 	"/>
	<path class="st1" d="M266.4,226.8C266.4,226.8,266.4,226.8,266.4,226.8c0.2-0.2,0.6-0.7,1-1.2C267,226.1,266.6,226.6,266.4,226.8z"
		/>
	<polygon class="st1" points="272.3,248.5 276,248.9 276,248.9 272.3,248.5 272.3,248.5 	"/>
	<path class="st1" d="M271.5,246l0-0.2l0,0L271.5,246c0.4,0,0.7,0,1-0.1l0,0C272.3,246,271.9,246,271.5,246z"/>
	
		<rect x="277.5" y="229.7" transform="matrix(0.8151 -0.5794 0.5794 0.8151 -81.7437 203.3336)" class="st1" width="0.3" height="0"/>
	<polygon class="st1" points="272.1,248.1 272.6,246 272.1,248.1 	"/>
	<polygon class="st1" points="264.3,248.6 264.3,248.6 267.9,248.1 268.3,248.4 268.3,248.4 267.9,248.1 	"/>
	<path class="st1" d="M267.7,245.6L267.7,245.6L267.7,245.6L267.7,245.6L267.7,245.6c0.3,0.1,0.7,0.1,1,0.2l-0.5,1.9h0l0.5-1.9l0,0
		C268.3,245.8,268,245.7,267.7,245.6z"/>
	<polygon class="st1" points="262,215.2 263,213.8 262.7,212.9 262.7,212.9 263,213.8 262,215.2 260.6,214.5 260.6,214.5 	"/>
	<path class="st1" d="M269,219c0-0.3,0-0.7,0-1c0,0,0,0,0,0c0,0,0,0,0,0c-0.3,0-0.5-0.1-0.7-0.1c0.2,0.1,0.5,0.1,0.7,0.2l0,0
		C268.9,218.3,268.9,218.7,269,219C269,219,269,219,269,219c0.7,0,1.4,0,2.2,0.1c0,0,0,0,0,0v0C270.4,219,269.7,219,269,219z"/>
	<polygon class="st1" points="271,217.7 271.2,217.9 271.2,217.9 271,217.7 271,217.7 	"/>
	<path class="st1" d="M270.8,217.7H269c-0.8,0-1.5-0.7-1.5-1.5v0c0,0.8,0.7,1.5,1.5,1.5L270.8,217.7l0,0.1c0,0,0,0,0,0v-0.3l0,0
		V217.7z"/>
	<path class="st1" d="M272.7,214.1c-0.1,0.1-0.2,0.2-0.3,0.2c-0.3,0.2-0.6,0.3-0.9,0.3c-0.2,0-0.4,0-0.5-0.1c-0.7-0.3-1.4-0.3-2.1,0
		l0,0c-0.5,0.1-1.1,0-1.6-0.2c0,0,0,0,0,0v0c0.5,0.2,1,0.3,1.6,0.2c0.7-0.3,1.4-0.3,2.1,0c0.2,0.1,0.4,0.1,0.5,0.1
		c0.3,0,0.6-0.1,0.9-0.3v0C272.6,214.3,272.7,214.2,272.7,214.1L272.7,214.1z"/>
	<path class="st1" d="M269.3,218.6c0-0.1,0-0.1,0-0.1C269.3,218.5,269.3,218.6,269.3,218.6z"/>
	<polygon class="st1" points="270.8,219 269.3,219 269.3,219 270.8,219 270.8,218.1 270.8,218.1 	"/>
	<path class="st1" d="M267.2,214.2c0,0,0.1,0,0.2,0.1C267.3,214.3,267.2,214.2,267.2,214.2z"/>
	<polygon class="st1" points="276.5,231 276.5,231 276.5,231 276.3,231.7 276.5,232.2 276.5,232.2 276.3,231.7 	"/>
	<path class="st1" d="M270,209.3L270,209.3L270,209.3c-0.3-0.1-0.6-0.1-0.8-0.1C269.4,209.2,269.7,209.2,270,209.3L270,209.3z"/>
	<path class="st1" d="M273.3,210.1c0.3,1.1,0.4,2.2,0.4,3.4c0.1,2.3,0.3,4.9,1.1,6c-0.2,0.1-0.4,0.1-0.6,0.2l0,0
		c0.2-0.1,0.5-0.1,0.6-0.2c-0.8-1.1-1-3.7-1.1-6C273.7,212.3,273.6,211.2,273.3,210.1c-0.2-0.5-0.7-0.7-1.2-0.8
		C272.6,209.4,273.1,209.6,273.3,210.1z"/>
	<path class="st1" d="M267.1,213.8L267.1,213.8c-0.1,0.1-0.2,0.2-0.2,0.3c0,0,0,0,0,0C266.9,214,267,213.9,267.1,213.8z"/>
	<path class="st1" d="M272.5,212.2v1.7c0,0,0,0,0,0L272.5,212.2c0-0.8-0.7-1.5-1.5-1.5h0C271.8,210.7,272.4,211.4,272.5,212.2z"/>
	<path class="st1" d="M272.8,214.7C272.8,214.7,272.8,214.7,272.8,214.7l0-1c0.2,0.1,0.3,0.2,0.3,0.4c0,0,0,0,0,0
		c0-0.2-0.2-0.3-0.3-0.4c0,0-0.1,0-0.1-0.1l0,0l0,0c0,0,0.1,0,0.1,0.1V214.7z"/>
	<polygon class="st1" points="267.3,213.9 267.2,214.2 267.2,214.2 267.3,213.9 267.4,214 267.4,214 	"/>
	<polygon class="st1" points="279.3,232.4 279.3,232.4 279,231.9 	"/>
	<path class="st1" d="M276.6,258.6C276.7,258.6,276.7,258.6,276.6,258.6L276.6,258.6C276.7,258.6,276.7,258.6,276.6,258.6
		C276.7,258.6,276.7,258.6,276.6,258.6z"/>
	<polygon class="st1" points="279.3,257.1 279.1,257.3 279.3,257.1 	"/>
	<path class="st1" d="M278.1,270.5l-0.5-8.1l-0.3,0l0,0l0.3,0L278.1,270.5L278.1,270.5c2.2,0.5,5.4-0.6,6.1-0.9c0,0,0,0,0,0
		C283.5,269.8,280.3,270.9,278.1,270.5z"/>
	<path class="st1" d="M279.4,252.9c0,0.1,0.1,0.3,0.1,0.4C279.5,253.2,279.5,253,279.4,252.9c-0.2-0.7-0.8-1.1-1.4-1.3c0,0,0,0,0,0
		C278.7,251.8,279.2,252.2,279.4,252.9z"/>
	<path class="st1" d="M275.4,268.7L275.4,268.7L275.4,268.7c0.9-1.5,1.6-3.1,2-4.7l0,0l0,0C277,265.7,276.3,267.3,275.4,268.7
		l-0.1,0l-1.1-0.5l2.3-8.6l0,0l-2.3,8.6l1.1,0.5L275.4,268.7z"/>
	<path class="st1" d="M279.7,255.5c-0.1,0.3-0.1,0.6-0.3,0.9c0.2-0.5,0.3-0.9,0.3-1.4C279.7,255.2,279.7,255.4,279.7,255.5
		L279.7,255.5z"/>
	
		<rect x="274.1" y="268.5" transform="matrix(0.9487 -0.3162 0.3162 0.9487 -70.8313 100.4494)" class="st1" width="0.1" height="0"/>
	<path class="st1" d="M277.5,265C277.5,265,277.5,265,277.5,265C277.5,265,277.5,265,277.5,265L277.5,265z"/>
	<polygon class="st1" points="277.9,270.4 278,270.1 278,270.1 277.9,270.4 277.8,270.4 277.8,270.4 	"/>
	<path class="st1" d="M278.2,258.2c0.1-0.1,0.2-0.2,0.3-0.3c0.1-0.2,0.3-0.3,0.4-0.5c-0.1,0.2-0.3,0.3-0.4,0.5
		C278.4,258,278.3,258.1,278.2,258.2z"/>
	<path class="st1" d="M275.7,269c0.1-0.1,0.2-0.3,0.3-0.4l1.7-0.6l0,0l-1.7,0.6c0,0,0,0,0,0C275.9,268.7,275.8,268.8,275.7,269
		l-0.2-0.2l0,0L275.7,269z"/>
	<polygon class="st1" points="271.1,269.4 271.1,271.6 271.1,269.4 	"/>
	<path class="st1" d="M276.1,245.1L276.1,245.1c-2.5-6.3-2.4-16.5-2.2-21.8l0,0C273.6,228.5,273.5,238.8,276.1,245.1z"/>
	<polygon class="st1" points="274.4,220.7 278.5,228.9 278.5,228.9 274.4,220.7 274.4,221 	"/>
	<path class="st1" d="M279,257.2c0,0-0.1,0.1-0.1,0.2C278.9,257.3,279,257.3,279,257.2z"/>
	<path class="st1" d="M274.2,223.1L274.2,223.1L274.2,223.1L274.2,223.1L274.2,223.1C274.2,223.2,274.2,223.1,274.2,223.1z"/>
	<polygon class="st1" points="277.2,231.5 276.9,231.4 276.8,231.5 276.8,231.5 276.9,231.4 277.2,231.5 	"/>
	<polygon class="st1" points="277.6,229.9 277.6,229.9 276.6,230.5 276.6,230.5 276.6,230.5 277.6,229.9 	"/>
	<polygon class="st1" points="269.1,217.8 269.1,217.8 269.1,217.8 	"/>
	<path class="st1" d="M266.6,219.5c1.6-0.2,3.3-0.2,4.9,0l0.2-0.2l2.5,0.7l0,0.2l-0.1,0.2l-2.1,2.4l0,0.1c-2.3,2.7-5.5,6.5-5.7,6.6
		h0c0,0,0,0,0,0c-0.6,3.7-2.5,12.8-2.7,13.8c3.2,3,8,2.8,10.7,2.3c-2.7,0.4-7.5,0.7-10.7-2.3c0.2-1.1,2.1-10.1,2.7-13.8c0,0,0,0,0,0
		c0.1-0.1,3.4-4,5.7-6.7l2.1-2.3c0,0,0,0,0,0l0.1-0.2l-0.3,2.8c0,0,0,0,0,0.1l0.3-2.9l0-0.2l0-0.2l0,0l0,0.2l-2.5-0.7l-0.2,0.2
		C269.9,219.3,268.3,219.3,266.6,219.5L266.6,219.5L266.6,219.5z"/>
	<polygon class="st1" points="261.6,209.8 260.8,209.3 260.9,208.9 260.9,208.9 260.7,208.8 260.7,208.8 260.9,208.9 260.8,209.3 
		260.8,209.3 261.6,209.8 261.7,210.5 261.7,210.5 	"/>
	<polygon class="st1" points="261.3,210 261.3,210 261.3,210.1 	"/>
	<polygon class="st1" points="261.4,211.3 260.6,210 260.7,209.7 260.5,209.6 260.6,209.3 260.6,209.3 260.5,209.6 260.7,209.7 
		260.6,210 261.4,211.3 260.9,214.3 260.9,214.3 	"/>
	<path class="st1" d="M262.8,209C262.8,209,262.8,209,262.8,209C262.8,209,262.8,209,262.8,209z"/>
	<polygon class="st1" points="262.4,210 262.2,209.2 260.9,208.6 261.6,206.1 261.6,206.1 260.9,208.6 262.2,209.2 262.4,210 
		262.1,210.1 262.1,210.1 	"/>
	<polygon class="st1" points="249.9,223.8 250,223.7 250,223.7 	"/>
	
		<rect x="251.3" y="229.6" transform="matrix(1 -7.259354e-03 7.259354e-03 1 -1.7297 1.8308)" class="st1" width="0" height="19.1"/>
	<polygon class="st1" points="253.2,229.4 253.2,229.6 253.2,229.6 252.5,242.5 253.2,229.6 253.3,229.4 	"/>
	<polygon class="st1" points="255.2,249.1 255.3,249.1 255.3,249.1 254.7,249.1 254.5,248.8 254.3,249 254.3,249 254.5,248.8 
		254.7,249.1 255.2,249.1 	"/>
	<polygon class="st1" points="252.5,249 252.2,248.8 252,249.1 251.3,249.1 251.3,249.1 249.3,250.1 249.3,250.1 251.3,249.1 
		251.7,249.1 251.7,249.1 252,249.1 252.2,248.8 252.5,249 	"/>
	<polygon class="st1" points="250.8,250.8 250.8,250.8 249.4,250.2 	"/>
	<path class="st1" d="M272.9,269.1c1.7,0.1,3.3,0.4,4.9,1l0,0C276.2,269.5,274.5,269.2,272.9,269.1L272.9,269.1z"/>
	<polygon class="st1" points="255.6,229.4 255.6,229.6 255.6,229.6 255.2,248.8 255.2,248.8 255.6,229.6 255.6,229.4 	"/>
	
		<rect x="256.3" y="250.6" transform="matrix(0.7682 -0.6402 0.6402 0.7682 -100.8422 222.5839)" class="st1" width="1.3" height="0"/>
	<polygon class="st1" points="257.1,223.9 257.1,223.9 257.4,230.3 258,230.3 258.4,223.4 	"/>
	<rect x="256.5" y="231" transform="matrix(0.4945 -0.8692 0.8692 0.4945 -70.8619 340.2161)" class="st1" width="1" height="0"/>
	<polygon class="st1" points="256.9,223.7 256.9,223.7 256.9,223.7 257,224 257,224 	"/>
	<path class="st1" d="M244.5,253.2c-0.2,0.7-0.3,1.3-0.2,2C244.3,254.6,244.3,253.9,244.5,253.2z"/>
	<polygon class="st1" points="255.3,249 255.4,248.8 255.3,249 	"/>
	<path class="st1" d="M245.4,258.2C245.4,258.2,245.4,258.2,245.4,258.2C245.4,258.2,245.4,258.2,245.4,258.2
		C245.4,258.2,245.4,258.2,245.4,258.2z"/>
	<path class="st1" d="M246.7,264L246.7,264l0.1-1.6l-0.3,0l0,0l0.3,0L246.7,264l-0.2,0h0L246.7,264L246.7,264c0.4,1.7,1.1,3.3,2,4.7
		l0,0l0.1,0l0,0l-0.1,0C247.7,267.3,247.1,265.7,246.7,264z"/>
	<path class="st1" d="M245.5,270.5c-2.2,0.3-5-0.7-5.6-0.9c1.3-7.9,3.2-11,3.5-11.6l0,0l0,0c-0.4,0.6-2.2,3.7-3.5,11.6
		C240.5,269.8,243.3,270.8,245.5,270.5z"/>
	<polygon class="st1" points="244.8,257.7 244.8,257.5 244.9,257.5 244.9,257.5 245,257.3 244.7,257.1 244.7,257.1 245,257.3 
		244.8,257.5 	"/>
	<polygon class="st1" points="258,230.6 258,230.4 258,230.4 258,230.6 258,230.6 	"/>
	<path class="st1" d="M248.4,269c-0.1-0.1-0.2-0.3-0.3-0.4c-0.7-1.1-1.2-2.4-1.5-3.6c-0.1-0.3-0.2-0.6-0.2-0.9h0
		c0.1,0.3,0.1,0.6,0.2,0.9l-0.2,3l0,0l0.2-3c0.4,1.3,0.9,2.5,1.5,3.6l0,0C248.2,268.7,248.3,268.8,248.4,269L248.4,269z"/>
	<path class="st1" d="M246.1,270.8l0.1,0l0-0.3c1.6-0.6,3.3-0.9,5-1l0-0.3c0,0,0,0,0,0l0,0.3c-1.7,0.1-3.4,0.4-5,1l0,0l0,0.3
		L246.1,270.8c-0.5,0.1-1,0.2-1.4,0.2c-0.8,0-1.5-0.1-2.3-0.3c0.8,0.1,1.5,0.2,2.3,0.3C245.2,270.9,245.6,270.9,246.1,270.8z"/>
	<path class="st1" d="M245.7,258c0.2,0.3,0.5,0.5,0.9,0.6c0.3,0.1,0.5,0.1,0.8,0C246.7,258.7,246.1,258.5,245.7,258z"/>
	<path class="st1" d="M245.5,257.8c-0.5-0.6-0.8-1.3-1-2C244.6,256.6,245,257.2,245.5,257.8z"/>
	<path class="st1" d="M248.8,257.3c-0.2,0.6-0.7,1.1-1.4,1.3C248.1,258.5,248.6,258,248.8,257.3c0.6-1.7,0.3-3.7-1-5
		c-0.3-0.3-0.7-0.6-1.1-0.7c0.4,0.1,0.8,0.3,1.1,0.7C249.1,253.7,249.4,255.6,248.8,257.3z"/>
	<path class="st1" d="M252.9,271.7c-0.4,0.3-3.2,2.4-4.9,2.4c-2,0-6.6-0.6-7.1-1.4c-0.4-0.8-0.7-1.7-0.8-2.6c0,0,0,0,0,0
		c0,0,0,0,0,0c0.2,0.9,0.4,1.8,0.8,2.6c0.5,0.8,5,1.5,7.1,1.4C249.7,274.1,252.5,272,252.9,271.7l0-2.2l0,0V271.7z"/>
	<path class="st1" d="M246.9,268.5l-0.5-0.2l-0.1,1.8c-0.1,0-0.2,0.1-0.2,0.1l0.1,0.3l0,0l-0.1-0.3c0,0,0.1,0,0.2-0.1c0,0,0,0,0,0
		l0.1-1.8L246.9,268.5z"/>
	<polygon class="st1" points="251.8,211.2 251.7,211.5 251.8,211.2 	"/>
	<path class="st1" d="M255.3,211.1c0,0-0.1,0.1-0.3,0.1l0,0C255.2,211.2,255.3,211.1,255.3,211.1z"/>
	<path class="st1" d="M252.6,210.5c-0.1,0.1-0.2,0.1-0.2,0.2l0,0C252.4,210.6,252.5,210.6,252.6,210.5L252.6,210.5z"/>
	<path class="st1" d="M253.3,210.1c0,0,0,0.1-0.1,0.1c0,0,0,0,0,0C253.3,210.2,253.3,210.2,253.3,210.1
		C253.3,210.1,253.3,210.1,253.3,210.1z"/>
	<path class="st1" d="M253,210.8c0-0.1,0.1-0.2,0.1-0.2C253.1,210.6,253,210.7,253,210.8C253,210.8,253,210.8,253,210.8z"/>
	<polygon class="st1" points="255,211.2 255,211.2 255,211.2 	"/>
	<path class="st1" d="M269,217.9C269,217.9,269,217.8,269,217.9C269,217.8,269,217.9,269,217.9z"/>
	<path class="st1" d="M253.3,210.1c0.1,0,0.1,0,0.2,0c0.2,0,0.3,0,0.5,0.1c0,0,0,0,0,0c-0.2-0.1-0.3-0.1-0.5-0.1
		C253.4,210.1,253.4,210.1,253.3,210.1L253.3,210.1z"/>
	<path class="st1" d="M267.2,213.4L267.2,213.4C267.2,213.4,267.2,213.4,267.2,213.4L267.2,213.4
		C267.1,213.4,267.1,213.4,267.2,213.4C267.2,213.4,267.2,213.4,267.2,213.4z"/>
	<path class="st1" d="M272.6,214.9C272.6,214.9,272.6,214.9,272.6,214.9l0.2,0.2v1.1c0,0.9-0.7,1.7-1.6,1.8v0
		c0.9-0.1,1.6-0.9,1.6-1.8v-1.1l0,0l0,0L272.6,214.9z"/>
	
		<rect x="257.8" y="230.9" transform="matrix(0.6839 -0.7295 0.7295 0.6839 -87.8365 261.4211)" class="st1" width="0" height="2.4"/>
	<path class="st1" d="M270.9,210.4c1,0,1.9,0.8,1.9,1.9v1.1c0,0,0,0,0,0v-1.1C272.8,211.2,271.9,210.4,270.9,210.4l-1.9,0
		c-0.4,0-0.7,0.1-1,0.3c0.3-0.2,0.7-0.3,1-0.3H270.9z"/>
	<path class="st1" d="M272.8,215.1L272.8,215.1c0.5-0.3,0.7-0.7,0.6-1c0-0.2-0.2-0.4-0.3-0.5c0.1,0.1,0.3,0.3,0.3,0.5
		C273.5,214.4,273.3,214.7,272.8,215.1z"/>
	<path class="st1" d="M267.2,215.1L267.2,215.1c-0.5-0.4-0.6-0.7-0.6-1c0-0.1,0.1-0.3,0.2-0.4c-0.1,0.1-0.2,0.2-0.2,0.4
		C266.5,214.4,266.7,214.7,267.2,215.1L267.2,215.1L267.2,215.1L267.2,215.1z"/>
	<polygon class="st1" points="252.2,228.8 254.5,229.3 251.2,229.3 251.2,229.3 255.6,229.3 256.2,217.9 251.6,217.9 251.6,217.9 	
		"/>
	<rect x="250.5" y="221.6" class="st1" width="0" height="0"/>
	
		<rect x="247.7" y="221.4" transform="matrix(0.3158 -0.9488 0.9488 0.3158 -39.1868 388.5051)" class="st1" width="4.1" height="0"/>
	<polygon class="st1" points="248.3,223.1 248.5,223.1 250.4,218.5 250.6,217.8 250.6,217.8 250.4,218.5 248.5,223.1 248.3,223.1 
		248.2,223.4 248.2,223.4 	"/>
	<polygon class="st1" points="258.6,223.1 258.6,223.1 258.6,223.1 	"/>
	<polygon class="st1" points="256.3,221.6 256.3,221.6 256.5,218.5 256.2,217.8 256.2,217.8 256.5,218.5 	"/>
	<polygon class="st1" points="248.9,230.3 248.4,223.4 249.1,223.7 249.1,223.7 249.8,223.9 249.5,230.3 249.5,230.3 249.8,223.9 
		249.1,223.7 248.4,223.4 248.4,223.4 248.9,230.3 	"/>
	<path class="st1" d="M253.5,217.1C253.5,217.1,253.5,217.1,253.5,217.1c-0.1,0-0.3,0-0.5-0.1v0
		C253.2,217.1,253.4,217.1,253.5,217.1L253.5,217.1z"/>
	<path class="st1" d="M252,211.3C252,211.3,252,211.3,252,211.3C252,211.3,252,211.3,252,211.3c0.2,0.1,0.5,0.1,0.8,0.2h0
		c0.4,0,0.8,0,1.2,0c-0.4,0-0.8,0-1.1,0c0-0.1,0.1-0.2,0.1-0.3c0.2,0,0.4,0,0.5,0c0,0,0,0,0,0c-0.2,0-0.3,0-0.5,0c0,0,0,0,0,0
		c0,0.1-0.1,0.2-0.1,0.3C252.5,211.4,252.2,211.3,252,211.3z"/>
	<path class="st1" d="M254.1,217c-0.1,0-0.3,0.1-0.4,0.1C253.8,217.1,253.9,217.1,254.1,217L254.1,217z"/>
	<rect x="248.6" y="232.5" transform="matrix(0.6845 -0.729 0.729 0.6845 -91.3704 254.7602)" class="st1" width="0" height="1"/>
	<polygon class="st1" points="249.1,230.9 249.1,230.9 249.8,231.6 250.1,231.5 250.1,231.5 249.8,231.6 	"/>
	<path class="st1" d="M291.3,230.6C291.4,230.6,291.4,230.6,291.3,230.6C291.4,230.6,291.4,230.6,291.3,230.6
		C291.3,230.6,291.3,230.6,291.3,230.6z"/>
	<path class="st1" d="M283.9,255.1l-2-0.8c1.3-0.6,3.1-1.3,3.4-1.3h0c-0.3,0.1-2.1,0.8-3.4,1.3L283.9,255.1l1.6-1.9L283.9,255.1z"/>
	<polygon class="st1" points="281.2,252.5 281.2,252.5 282.4,253.7 	"/>
	<polygon class="st1" points="285.2,252.6 285.2,252.6 285.2,252.9 285.2,252.9 	"/>
	<path class="st1" d="M292.2,230.8c-0.1,0-0.1,0-0.2,0C292.1,230.8,292.1,230.8,292.2,230.8z"/>
	<path class="st1" d="M294.7,241c-0.3,0-1.3,0.2-2.3,0.3l1.4-5.8l0,0l-1.4,5.8l-0.1,0.3c1-0.1,1.9-0.2,2.3-0.3l0,0l0.2,0l0.1,0l0,0
		l-0.1,0l-0.2,0c-0.4,0-1.4,0.2-2.3,0.3l0.1-0.3C293.5,241.2,294.4,241.1,294.7,241c0.5-5.8-0.2-9.1-0.4-9.6c0,0,0,0,0,0
		C294.5,231.9,295.3,235.2,294.7,241z"/>
	<path class="st1" d="M293.9,229.8L293.9,229.8c-0.1,0.2-0.2,0.3-0.4,0.5C293.7,230.2,293.8,230,293.9,229.8
		c0.5-0.8,0.8-1.7,0.8-2.6c0-1.3-0.4-2.4-1-3.1c0.6,0.7,1,1.8,1,3.1C294.7,228.1,294.4,229,293.9,229.8z"/>
	<polygon class="st1" points="295.8,245.7 294.4,245.8 294.4,245.8 295.8,245.8 295.8,245.6 296.1,245.6 296.1,245.6 295.8,245.6 	
		"/>
	<polygon class="st1" points="288.2,243.4 288.2,243.4 288.2,243.4 288.2,243.4 288.2,243.4 	"/>
	<polygon class="st1" points="288.3,246.1 288,246.1 288,246.1 286.8,246.2 286.8,246.2 287.6,255.1 288,255.1 288,255.1 
		287.6,255.1 286.8,246.2 288,246.1 288,246.1 288.3,246.1 	"/>
	<polygon class="st1" points="290.2,241.9 290.9,241.8 290.8,242.6 290.8,242.6 290.8,242.6 290.9,241.8 290.9,241.8 290.2,241.9 
		289.9,241.9 289.9,241.9 	"/>
	<polygon class="st1" points="286.4,246.1 286.1,246.1 286.1,246.2 285.5,246.2 285.5,246.2 286.1,246.2 285.9,252.6 285.9,252.6 
		286.1,246.2 286.1,246.1 286.4,246.1 	"/>
	<polygon class="st1" points="288.2,250.9 288.2,251 288.2,250.9 	"/>
	<path class="st1" d="M292.4,231.8c0.2-0.1,0.4-0.1,0.5-0.2C292.7,231.6,292.6,231.7,292.4,231.8L292.4,231.8l0,0.2l0,0L292.4,231.8
		z"/>
	<path class="st1" d="M293.2,230.9l0-0.2l0,0L293.2,230.9c-0.3,0.2-0.6,0.2-0.9,0.3v0C292.6,231.1,292.9,231,293.2,230.9
		L293.2,230.9z"/>
	<path class="st1" d="M293.3,231.4L293.3,231.4c-0.1,0-0.3,0.1-0.4,0.2C293.1,231.5,293.2,231.5,293.3,231.4z"/>
	<polygon class="st1" points="294.3,250.1 294.3,250.1 288.2,250.1 288.2,249.8 288.2,249.8 288.2,250.1 288.3,250.1 288.3,250.1 	
		"/>
	<polygon class="st1" points="294.1,245.8 294.1,245.7 294.4,245.7 294.4,245.7 294.1,245.7 294.1,245.8 288.3,246.1 288.3,249.8 
		294.3,249.8 	"/>
	<path class="st1" d="M290.9,230.2C290.9,230.2,290.9,230.2,290.9,230.2C290.9,230.2,290.9,230.2,290.9,230.2z"/>
	<path class="st1" d="M293,230.6c-0.1,0-0.2,0.1-0.3,0.1C292.8,230.7,292.9,230.7,293,230.6z"/>
	<path class="st1" d="M291.8,230.8c-0.1,0-0.1,0-0.2,0C291.7,230.7,291.8,230.7,291.8,230.8z"/>
	<path class="st1" d="M293.5,230.3c-0.1,0.1-0.3,0.2-0.5,0.3C293.2,230.5,293.4,230.4,293.5,230.3z"/>
	<path class="st1" d="M292.6,230.8c-0.1,0-0.2,0-0.3,0C292.4,230.8,292.5,230.8,292.6,230.8z"/>
	<path class="st1" d="M282.4,253.7L282.4,253.7c0.9-0.4,2.2-0.9,2.7-1c0,0,0,0,0,0l0-0.4l0.1,0l0-0.3l0,0l0,0.3l-0.1,0l0,0.4
		C284.6,252.8,283.3,253.3,282.4,253.7z"/>
	
		<rect x="237.3" y="245" transform="matrix(8.129036e-02 -0.9967 0.9967 8.129036e-02 -26.137 461.6194)" class="st1" width="0.2" height="0"/>
	<polygon class="st1" points="235.9,245 235.9,245 235.9,245 230.1,244.7 229.9,248.6 236,248.6 236,248.6 235.9,248.6 	"/>
	<polygon class="st1" points="238.5,251.8 239.5,253 238.5,251.8 	"/>
	<polygon class="st1" points="229.8,244.6 229.8,244.6 229.8,244.7 229.8,244.7 229.3,253.9 229.3,253.9 229.8,244.7 	"/>
	<polygon class="st1" points="238.5,243.4 238.4,244.8 227.9,244.3 227.9,242.8 227.9,242.8 227.9,244.3 238.4,244.8 	"/>
	<path class="st1" d="M229.5,226.1c0-0.9,0.2-1.8,0.7-2.6c0.3-0.6,1-1,1.7-1.1c0.5,0,1,0.2,1.4,0.6c-0.4-0.4-0.9-0.6-1.4-0.6
		c-0.7,0.1-1.3,0.5-1.7,1.1C229.7,224.3,229.4,225.2,229.5,226.1c0,0.5,0.1,1,0.3,1.5C229.6,227.1,229.5,226.6,229.5,226.1z"/>
	<rect x="228.1" y="242.8" class="st1" width="0" height="0"/>
	<polygon class="st1" points="294.6,243.9 291.9,243.8 291.9,243.8 291.9,243.8 291.8,243.8 285.6,243.6 285.6,243.6 291.9,243.8 
		291.9,243.8 294.5,243.9 294.5,243.9 296,243.9 296,243.9 294.5,243.9 294.5,243.9 296,243.9 296,243.9 296,243.9 296.3,243.9 
		296.3,245.4 296.3,245.4 296.3,243.9 296.1,243.9 	"/>
	<path class="st1" d="M238.9,251.8l0.1-0.3c0,0,0,0,0,0L238.9,251.8L238.9,251.8L238.9,251.8c0.3,0.1,2.1,0.8,3.4,1.3l0,0
		C241,252.6,239.2,251.9,238.9,251.8L238.9,251.8z"/>
	<polygon class="st1" points="239,251.2 239.1,250.8 239.1,250.8 239,251.2 239.2,251.2 239.1,251.5 239.1,251.5 239.2,251.2 	"/>
	<polygon class="st1" points="242.9,251.4 242.9,251.4 239.2,251.2 	"/>
	<polygon class="st1" points="234.3,240.8 234,240.8 234,240.8 234.3,240.8 	"/>
	<polygon class="st1" points="233.3,240.7 233.3,240.7 234,240.8 234,240.8 234,240.8 234,240.8 233.3,240.7 233.2,240.4 
		233.2,240.4 	"/>
	<polygon class="st1" points="236,242.3 236,242.3 238.9,242.2 238.9,242.2 	"/>
	<polygon class="st1" points="238.1,245.1 238.1,245.1 238.3,251.5 238.3,251.5 238.1,245.1 	"/>
	<polygon class="st1" points="233.6,241.5 235.8,241.7 235.8,241.7 	"/>
	<polygon class="st1" points="231.8,240.5 231.8,240.5 231.9,241.1 	"/>
	<polygon class="st1" points="231.8,240.5 231.8,240.5 231.8,240.5 231.8,240.5 231.8,240.5 231.7,240.2 230.3,234.4 230.3,234.4 
		231.7,240.2 231.7,240.2 	"/>
	<path class="st1" d="M233.8,240.4L233.8,240.4c-0.8-2.9-1.2-6-1.1-9.1c-1.2-0.5-2.5-1-2.9-1.1c0,0,0,0,0,0c0.4,0.1,1.7,0.6,2.9,1.1
		C232.6,234.4,232.9,237.5,233.8,240.4z"/>
	<polygon class="st1" points="233.1,241.8 235,241.9 233.1,241.8 231.5,232.2 231.5,232.2 	"/>
	<polygon class="st1" points="235.6,242.3 235.6,242.3 235,242.3 	"/>
	<polygon class="st1" points="292.7,233.4 292.3,233.3 292.3,233.3 292.7,233.4 291.1,242.9 291.1,242.9 	"/>
	<rect x="256" y="276" transform="matrix(0.8042 -0.5944 0.5944 0.8042 -114.2259 206.2835)" class="st1" width="0" height="1.1"/>
	<polygon class="st1" points="279.6,258.1 279.6,258.1 279.2,257.5 	"/>
	<polygon class="st1" points="296.1,228.2 298,228.2 296.2,240.6 298,228.2 296.1,228.2 294.9,243.6 294.9,243.6 	"/>
	<polygon class="st1" points="290.4,241.5 290.4,241.5 291,241.5 292.2,233.9 291,241.5 	"/>
	<path class="st1" d="M262.3,255.4c1.5,0,2.7,1.8,2.7,4.1c0,1.4-0.5,2.7-1.2,3.4c0.7-0.7,1.2-2,1.2-3.4
		C265,257.2,263.8,255.4,262.3,255.4c-0.6,0-1.1,0.3-1.5,0.7C261.2,255.7,261.7,255.4,262.3,255.4z"/>
	<polygon class="st1" points="291.6,243.7 291.6,243.7 291.7,243.5 291.7,243.5 291.7,243.5 	"/>
	<polygon class="st1" points="292,243.5 292,243.5 294.6,243.5 294.9,243.6 294.6,243.5 294.6,243.5 	"/>
	<path class="st1" d="M266.3,266.5l3.2,9.4l3.1,0.7c-0.1,0.2-0.1,0.4-0.2,0.5h0c0.1-0.2,0.2-0.4,0.2-0.5l-3.1-0.7L266.3,266.5
		L266.3,266.5z"/>
	<polygon class="st1" points="266.4,271 266.4,271 266.7,270.9 	"/>
	<path class="st1" d="M265.2,276.6c0.8-0.2,1.4-0.4,1.7-0.5l-0.2-1.8l0.2,1.8C266.7,276.2,266.1,276.4,265.2,276.6z"/>
	<path class="st1" d="M278.7,258.1L278.7,258.1c0.2-0.2,0.4-0.4,0.5-0.6C279.1,257.7,278.9,257.9,278.7,258.1z"/>
	<path class="st1" d="M257.3,276.1L257.3,276.1C257.4,276.1,257.4,276.1,257.3,276.1C257.4,276.1,257.4,276.1,257.3,276.1z"/>
	<polygon class="st1" points="266.7,270.9 266.7,270.9 266.7,270.9 268.5,276 268.5,276 	"/>
	<path class="st1" d="M288.9,243.1l-0.3,0c0,0.1,0,0.1-0.1,0.2l0,0c0-0.1,0-0.2,0.1-0.2L288.9,243.1z"/>
	<path class="st1" d="M283.9,270C283.9,270,283.9,270,283.9,270c0-0.2,0.1-0.3,0.1-0.3l0,0C284,269.8,284,269.9,283.9,270z"/>
	<path class="st1" d="M261.2,277.5c0.7,0,1.5-0.1,2.2-0.2c0.9-0.1,1.7-0.3,2.5-0.5l-1,2c-2,0.5-4.1,0.5-6.1,0l0,0
		c2,0.5,4.1,0.5,6.1,0l1-2l0,0c-0.8,0.2-1.7,0.4-2.5,0.5C262.7,277.4,261.9,277.4,261.2,277.5c-1.1,0-2.2-0.2-3.2-0.6l-0.2-0.4
		l-0.3,0.1l0,0l0.3-0.1l0.2,0.4C259,277.3,260.1,277.5,261.2,277.5z"/>
	<polygon class="st1" points="278.7,258.1 278.7,258.1 278.7,258.1 	"/>
	<polygon class="st1" points="293.6,235.4 293.8,235.5 293.6,235.4 	"/>
	<path class="st0" d="M233.3,240.7l0.1,0.8l0.2,0l2.2,0.2l0,0l0,0l0,0.1c0,0,0.1,0.2,0.1,0.4l3-0.1l0,0h0l-0.2,2.9l-0.6,0l0.2,6.4
		h0.6l1.3-10.6l-5.9-0.1l0,0l0,0l0,0l-0.2,0h0h0l0,0l0,0L233.3,240.7z"/>
	<path class="st0" d="M253.3,210.1L253.3,210.1c0,0,0,0.1-0.1,0.1c0.3,0,0.5,0,0.8,0c-0.2-0.1-0.3-0.1-0.5-0.1
		C253.4,210.1,253.4,210.1,253.3,210.1z"/>
	<path class="st0" d="M235,242.3l0.6,0c0-0.1,0-0.2-0.1-0.3l-0.6-0.1l-1.8-0.2l-1.6-9.5l0,0l0,0l0.3-0.1l1.4,8.2l0,0l0,0l0,0
		l0.6,0.1c-0.9-2.9-1.2-6-1.1-9.1c-1.2-0.5-2.5-1-2.9-1.1c-0.2,0.5-0.8,3.4-0.5,8.4l0.1,1.3c0.3,0,1.3,0.2,2.2,0.3l-1.4-5.8l0,0l0,0
		l0.3-0.1l1.9,8l0,0l0,0l0,0L235,242.3z"/>
	<path class="st0" d="M229.4,239.9L229.4,239.9C229.4,239.9,229.4,239.9,229.4,239.9c0-0.4-0.1-0.9-0.1-1.3l0-0.3c0,0.1,0,0.2,0,0.3
		L229.4,239.9C229.4,239.9,229.4,239.9,229.4,239.9z"/>
	<polygon class="st0" points="231.8,240.5 231.8,240.5 231.8,240.5 231.8,240.5 	"/>
	<path class="st0" d="M231.8,240.5c-0.9-0.1-1.9-0.2-2.3-0.3l0,0c0,0,0,0,0,0l0,0l0.2,2.2l2.6-0.1l-0.3-1.3L231.8,240.5z"/>
	<polygon class="st0" points="228.1,227.1 226.2,227.1 228.4,242.5 229.3,242.4 229.3,242.4 229.3,242.4 	"/>
	<path class="st0" d="M254.1,217c-0.1,0-0.3,0.1-0.4,0.1c0,0-0.1,0-0.1,0c0,0,0,0,0,0v0c-0.2,0-0.3,0-0.5-0.1v0.6h1v0h0V217z"/>
	<polygon class="st0" points="257.9,233.3 258.6,232.6 258,230.6 258,230.6 257.3,230.6 256.8,231.5 257.1,231.6 257.7,230.9 
		257.7,230.9 257.7,230.9 	"/>
	<path class="st0" d="M253.4,211.1C253.4,211.1,253.4,211.1,253.4,211.1c-0.2,0-0.3,0-0.5,0c0,0.1-0.1,0.2-0.1,0.3
		c0.4,0,0.8,0,1.1,0c0.4,0,0.8-0.1,1.1-0.2c0,0,0,0,0,0v0c0-0.1-0.1-0.2-0.1-0.2C254.4,211.1,253.9,211.1,253.4,211.1
		C253.4,211.1,253.4,211.1,253.4,211.1z"/>
	<path class="st0" d="M253,210.8c0.6,0,1.1,0,1.7-0.1c-0.1-0.1-0.1-0.1-0.2-0.2l0,0c-0.4,0-0.7,0.1-1.1,0.1c-0.1,0-0.2,0-0.3,0
		C253.1,210.6,253,210.7,253,210.8C253,210.8,253,210.8,253,210.8z"/>
	<path class="st0" d="M253.4,211.8c-0.2,0-0.5,0-0.7-0.1c-0.6,1.7-0.3,3.6,0.8,5.1c0,0,0,0,0,0c0,0,0,0,0,0c0,0,0.1,0,0.1,0
		c1.1,0,2-1.5,2-3.3c0-0.7-0.1-1.3-0.4-2c0,0,0,0,0,0C254.6,211.7,254,211.8,253.4,211.8z"/>
	<path class="st0" d="M239.1,251.5c0.5,0.1,1.8,0.7,2.7,1l0,0l1.1-1.2l-3.8-0.3L239.1,251.5z"/>
	<path class="st0" d="M248,274.1c1.7,0,4.5-2.1,4.9-2.4v-2.2l-2.9-1l0,0l-1.3,0.6l-1.8-0.7l-0.5-0.2l-0.1,1.8c1.6-0.5,3.2-0.9,4.9-1
		l0,0c0,0,0,0,0,0l0,0.3c-1.7,0.1-3.4,0.4-5,1l0,0.3l-0.1,0c-0.5,0.1-1,0.2-1.4,0.2c-0.8,0-1.5-0.1-2.3-0.3
		c-0.8-0.1-1.5-0.4-2.2-0.6c0.2,0.9,0.4,1.8,0.8,2.6C241.4,273.5,246,274.1,248,274.1z"/>
	<path class="st0" d="M244.8,257.7l-0.3,0.4l1.7,0.7c-0.3-0.1-0.5-0.3-0.7-0.5c0,0,0,0-0.1-0.1c0,0,0,0,0,0c0,0,0,0,0,0
		c-0.2-0.2-0.4-0.4-0.5-0.6l0,0L244.8,257.7z"/>
	<path class="st0" d="M239,251.8L239,251.8h-0.5l1,1.2l0.8,1l2-0.8C241,252.6,239.2,251.9,239,251.8L239,251.8z"/>
	<path class="st0" d="M244.4,255.2c0,0.1,0,0.2,0,0.3v0c0,0.1,0,0.2,0.1,0.3c0.2,0.7,0.5,1.4,1,2c0,0,0.1,0.1,0.1,0.1
		c0,0,0.1,0,0.1,0.1c0.4,0.5,1.1,0.7,1.7,0.6c0,0,0,0,0.1,0c0.7-0.2,1.2-0.7,1.4-1.3c0.6-1.7,0.3-3.7-1-5c-0.3-0.3-0.7-0.6-1.1-0.7
		c-0.1,0-0.3-0.1-0.4-0.1c-0.1,0-0.2,0-0.3,0c-0.7,0.2-1.2,0.7-1.4,1.3c0,0.1-0.1,0.2-0.1,0.3C244.3,253.9,244.3,254.6,244.4,255.2z
		"/>
	<path class="st0" d="M246.6,264.9l-0.2,3l1.7,0.6c0,0,0,0,0,0l0,0C247.5,267.4,246.9,266.2,246.6,264.9z"/>
	<polygon class="st0" points="229.8,244.7 229.8,244.7 228.4,244.6 228.4,253.9 229.3,253.9 229.8,244.7 	"/>
	<polygon class="st0" points="238.4,244.8 238.5,243.4 238.6,242.5 232.3,242.7 232.3,242.7 229.6,242.8 229.6,242.8 228.1,242.8 
		228.1,242.8 228.1,242.8 228.1,242.8 228.1,242.8 227.9,242.8 227.9,244.3 	"/>
	<path class="st0" d="M230.8,230.3c0.3,0.1,0.6,0.2,1,0.4l0-0.6c-0.3,0-0.6-0.1-0.9-0.3L230.8,230.3L230.8,230.3z"/>
	<path class="st0" d="M230.1,223.5c-0.5,0.8-0.7,1.7-0.7,2.6c0,0.5,0.1,1,0.3,1.5c0.4,1.3,1.3,2.1,2.3,2.1c0.7-0.1,1.3-0.5,1.7-1.1
		c0.5-0.8,0.7-1.7,0.7-2.6c0-1.3-0.5-2.4-1.2-3c-0.4-0.4-0.9-0.6-1.4-0.6C231.1,222.4,230.5,222.9,230.1,223.5z"/>
	<polygon class="st0" points="229.8,249.6 235.9,249.8 235.9,249 229.9,249 	"/>
	<polygon class="st0" points="237.3,245.1 236.2,245 236.2,254 236.6,254 237.3,245.1 237.3,245.1 	"/>
	<polygon class="st0" points="272.3,248.5 272,248.8 274.7,250.3 276,248.9 272.3,248.5 	"/>
	<path class="st0" d="M269,219c0-0.3,0-0.7,0-1l0,0c-0.3,0-0.5-0.1-0.7-0.2c-0.7-0.3-1.1-0.9-1.1-1.7v-1.1l0,0v0
		c-0.4-0.3-0.6-0.7-0.6-1c0-0.1,0.1-0.3,0.2-0.4c0.1-0.1,0.2-0.2,0.4-0.3v0c0,0,0,0,0,0v-1.2c0-0.6,0.3-1.2,0.8-1.5
		c0.3-0.2,0.7-0.3,1-0.3h1.9c1,0,1.9,0.8,1.9,1.9v1.1c0,0,0.2,0.1,0.3,0.2c0.1,0.1,0.3,0.3,0.3,0.5c0,0.3-0.2,0.7-0.6,1l0,0l0,0l0,0
		l0,0v1.1c0,0.9-0.7,1.7-1.6,1.8v1.1v0c1,0,2,0.2,3,0.5l0,0c0.2-0.1,0.5-0.1,0.6-0.2c-0.8-1.1-1-3.7-1.1-6c0-1.1-0.1-2.3-0.4-3.4
		c-0.2-0.5-0.7-0.7-1.2-0.8c-1-0.2-2.1,0-2.1,0l0,0l0,0l0,0l0,0c-0.3,0-0.5-0.1-0.8-0.1c-0.3,0-0.5,0-0.8,0
		c-1.1,0.1-1.7,0.6-1.8,1.4c-0.2,1.2-0.3,2.4-0.3,3.6l0,0c0,1.6-0.2,3.1-0.4,4.6l0.8,0.3c0,0,0,0,0,0l0,0
		C266.7,219.1,267.7,219,269,219z"/>
	<path class="st0" d="M270.8,218.1c-0.5,0.1-1.1,0.1-1.6,0c0,0.1,0,0.2,0,0.3c0,0,0,0.1,0,0.1c0,0.1,0,0.2,0,0.4l1.5,0V218.1z"/>
	<path class="st0" d="M266.9,214.1c0,0.2,0.1,0.4,0.2,0.5v-0.9C267,213.9,266.9,214,266.9,214.1z"/>
	<path class="st0" d="M267.7,245.6l0.5,2.1h0.1l0.5-1.9C268.3,245.8,268,245.7,267.7,245.6z"/>
	<polygon class="st0" points="255.2,249.1 257.5,250.3 257.5,250.3 257.5,250.3 257.5,250.3 257.8,250.1 255.3,249.1 	"/>
	<path class="st0" d="M272.1,220.2c0.2-0.2,0.3-0.4,0.4-0.5v0l-0.7-0.2l-5.4,6.8l0,0c0,0,0,0,0,0l0,0c0,0.2,0,0.3,0,0.5
		c0.2-0.2,0.6-0.7,1-1.2C268.8,224,271,221.4,272.1,220.2z"/>
	<path class="st0" d="M266.6,219.5L266.6,219.5L266.6,219.5c0,0.7-0.1,4-0.2,6.3l5.1-6.4l0,0C269.9,219.3,268.3,219.3,266.6,219.5z"
		/>
	<path class="st0" d="M273.9,223.1L273.9,223.1c0.1-1.3,0.1-2.3,0.2-2.8l-2.1,2.3c-2.3,2.7-5.6,6.6-5.7,6.7c0,0,0,0,0,0
		c-0.6,3.7-2.5,12.8-2.7,13.8c3.2,3,8,2.8,10.7,2.3c0.9-0.1,1.6-0.3,1.8-0.4l0,0c-2.6-6.3-2.5-16.5-2.2-21.8l0,0L273.9,223.1
		L273.9,223.1l0-0.1c0,0,0,0,0-0.1L273.9,223.1z"/>
	<polygon class="st0" points="264.3,218.7 263.8,213.4 262.7,212.9 263,213.8 262,215.2 260.6,214.5 260.6,214.5 260.6,214.5 
		260.7,213.6 258.9,215.3 263.2,222.2 266.1,221.5 266.3,219.4 	"/>
	<polygon class="st0" points="264.3,248.6 265.5,249.9 268.3,248.4 267.9,248.1 	"/>
	<path class="st0" d="M271.1,214.5c-0.7-0.3-1.4-0.3-2.1,0c-0.5,0.1-1.1,0-1.6-0.2v1.8c0,0.8,0.7,1.5,1.5,1.5h1.9v-0.2l0,0v0
		l0.2,0.2l0,0l0,0c0.8,0,1.5-0.7,1.5-1.5v-1.8c-0.3,0.2-0.6,0.3-0.9,0.3C271.4,214.6,271.2,214.6,271.1,214.5z"/>
	<path class="st0" d="M267.4,212.2v1.7l0,0v0l0,0c0.5,0.2,1,0.3,1.5,0.2c0.7-0.3,1.5-0.3,2.3,0c0.4,0.2,0.9,0.1,1.3-0.3v-1.7
		c0-0.8-0.7-1.5-1.5-1.5H269C268.1,210.7,267.4,211.4,267.4,212.2z"/>
	<path class="st0" d="M272.8,213.7v1c0.2-0.2,0.4-0.4,0.3-0.6C273.1,213.9,272.9,213.8,272.8,213.7z"/>
	<path class="st0" d="M271.5,246l0.5,2.1h0.1l0.5-2.2C272.3,246,271.9,246,271.5,246L271.5,246z"/>
	<polygon class="st0" points="249.1,223.4 249.1,223.4 250.4,219.5 250.4,218.5 248.5,223.1 	"/>
	<polygon class="st0" points="248.9,230.6 248.3,232.6 249,233.3 249.1,230.9 249.1,230.9 249.1,230.9 249.8,231.6 250.1,231.5 
		249.6,230.6 249.6,230.6 248.9,230.6 	"/>
	<polygon class="st0" points="255.6,229.6 255.6,229.6 254.4,229.6 254.9,248.8 255.2,248.8 255.6,229.6 	"/>
	<polygon class="st0" points="251.2,250.3 252,249.1 251.7,249.1 	"/>
	<polygon class="st0" points="253.2,229.6 253.2,229.6 252.4,229.6 251.8,248.8 252.2,248.8 252.5,242.5 253.2,229.6 	"/>
	<polygon class="st0" points="249.1,223.7 249.1,223.7 248.4,223.4 248.9,230.3 249.2,230.3 249.1,223.7 	"/>
	<polygon class="st0" points="277.6,229.9 276.6,230.5 277.5,232 278.9,232.6 279.3,232.4 279,231.9 	"/>
	<path class="st0" d="M261.4,211.3l-0.5,3l0.9,0.5l0.8-1l-0.6-2.4l1.2-2l-0.2-0.4c-0.1,0-0.1,0.1-0.2,0.1c0,0-0.1,0-0.1,0
		c0,0-0.1,0.1-0.1,0.1c-0.1,0.1-0.2,0.1-1-0.7l0,0v-2.2h-0.1l-0.6,2.5l1.3,0.6l0.2,0.9l-0.3,0.1l0,0l0,0l-0.2-0.7l-1.1-0.5l-0.1,0.5
		l0.8,0.4l0.2,0.7l0,0l0,0l-0.3,0.1l-0.1-0.5l0-0.1l-0.6-0.3l0,0l-0.1,0.3L261.4,211.3z"/>
	<path class="st0" d="M245.5,270.5c0.1,0,0.3,0,0.4-0.1l0.5-8.1l0,0l0,0l0.3,0l-0.1,1.6h0c0.4,1.7,1.1,3.3,2,4.7l0.1,0l1.1-0.5
		l-2.3-8.6l-4.1-1.6c-0.4,0.6-2.2,3.7-3.5,11.6C240.5,269.8,243.3,270.8,245.5,270.5z"/>
	<path class="st0" d="M274.4,221l-0.2,2.1l0,0c0,0,0,0,0,0.1h0l1,7.8l3.3-2.1l-4.1-8.2L274.4,221z"/>
	<polygon class="st0" points="276.8,231.5 276.5,231 276.3,231.7 276.5,232.2 276.6,232.2 276.8,231.5 276.8,231.5 276.8,231.5 	"/>
	<polygon class="st0" points="256.3,221.6 257,223.6 257,223.6 258.4,223.1 256.5,218.5 256.3,221.6 	"/>
	<path class="st0" d="M283.9,270c-1.5,0.5-3,0.8-4.5,0.9c-0.5,0-1,0-1.4-0.2l-0.1,0l0-0.3l0,0l0,0l0,0c-1.6-0.6-3.3-0.9-5-1l0-0.3
		c0,0,0,0,0,0v0c1.7,0.1,3.3,0.4,4.9,1l-0.1-1.8l-2.4,0.9l-1.3-0.6l0,0l0,0l0,0l-2.9,1l0,2.2c0.4,0.3,3.2,2.4,4.9,2.4
		c2,0,6.6-0.6,7.1-1.4C283.5,271.8,283.7,270.9,283.9,270C283.9,270,283.9,270,283.9,270C283.9,270,283.9,270,283.9,270z"/>
	<polygon class="st0" points="294.3,250.7 294.3,250.1 288.3,250.1 288.3,250.1 288.3,250.9 	"/>
	<polygon class="st0" points="287.6,255.1 288,255.1 288,246.1 286.8,246.2 	"/>
	<path class="st0" d="M278.2,258.2c0.1-0.1,0.2-0.2,0.3-0.3c0.1-0.2,0.3-0.3,0.4-0.5c0,0,0,0,0,0c0,0,0.1-0.1,0.1-0.2
		c0.2-0.3,0.3-0.5,0.4-0.8c0.1-0.3,0.2-0.6,0.3-0.9l0,0c0-0.2,0.1-0.3,0.1-0.5c0-0.6,0-1.2-0.2-1.7c0-0.1-0.1-0.3-0.1-0.4
		c-0.2-0.7-0.8-1.1-1.4-1.3c-0.1,0-0.2,0-0.3,0c-0.6,0-1.1,0.3-1.5,0.7c-1.2,1.4-1.6,3.3-1,5c0.2,0.6,0.7,1.1,1.4,1.3
		c0,0,0.1,0,0.1,0C277.2,258.7,277.7,258.5,278.2,258.2z"/>
	<path class="st0" d="M275.3,268.8l0.1,0c0.9-1.5,1.6-3.1,2-4.7l-0.1-1.6l0,0l0,0l0.3,0l0.5,8.1c2.2,0.5,5.4-0.6,6.1-0.9
		c-1.3-7.9-3.2-11-3.5-11.6l-4.1,1.6l-2.3,8.6L275.3,268.8z"/>
	<path class="st0" d="M278.7,258.1L278.7,258.1L278.7,258.1C278.7,258.1,278.7,258.1,278.7,258.1L278.7,258.1
		c-0.2,0.2-0.5,0.4-0.8,0.6l1.6-0.6l0,0l-0.3-0.6C279.1,257.7,278.9,257.9,278.7,258.1z"/>
	<path class="st0" d="M283.9,255.1l1.6-1.9l0.2-0.3h-0.5h0h0l0,0h0v0h0c-0.3,0.1-2.1,0.8-3.4,1.3L283.9,255.1z"/>
	<path class="st0" d="M277.5,265C277.5,265,277.5,265,277.5,265c-0.4,1.3-0.9,2.4-1.5,3.6l1.7-0.6L277.5,265z"/>
	<path class="st0" d="M292.9,231.6c0.2-0.1,0.3-0.1,0.4-0.2l0,0l-0.1-0.5c-0.3,0.2-0.6,0.2-0.9,0.3l0,0l0,0.7
		C292.6,231.7,292.7,231.6,292.9,231.6C292.9,231.6,292.9,231.6,292.9,231.6z"/>
	<path class="st0" d="M292.4,241.6l-0.4,1.8l2.6,0.1l0,0h0l0.2-2.2C294.4,241.4,293.4,241.5,292.4,241.6L292.4,241.6z"/>
	<polygon class="st0" points="294.4,245.8 294.9,255 295.8,255 295.8,245.8 294.4,245.8 	"/>
	<path class="st0" d="M292.3,230.8c0.1,0,0.2,0,0.3,0c0,0,0.1,0,0.1,0c0.1,0,0.2-0.1,0.3-0.1c0,0,0,0,0,0c0.2-0.1,0.4-0.2,0.5-0.3
		c0,0,0,0,0,0c0.1-0.1,0.3-0.3,0.4-0.5h0c0.5-0.8,0.8-1.7,0.8-2.6c0-1.3-0.4-2.4-1-3.1c-0.4-0.4-0.8-0.6-1.3-0.7
		c-1.3,0-2.5,1.6-2.5,3.6c0,0.9,0.2,1.8,0.7,2.6h0c0.1,0.2,0.2,0.3,0.3,0.5c0,0,0,0,0,0c0.1,0.1,0.3,0.3,0.5,0.3c0,0,0.1,0,0.1,0
		c0.1,0,0.1,0.1,0.2,0.1c0.1,0,0.1,0,0.2,0c0.1,0,0.1,0,0.2,0c0.1,0,0.1,0,0.2,0C292.2,230.8,292.3,230.8,292.3,230.8z"/>
	<path class="st0" d="M285,252.7l0-0.4l0,0l-3.8,0.2l1.1,1.2C283.3,253.3,284.6,252.8,285,252.7z"/>
	<path class="st0" d="M265.2,276.6c0.8-0.2,1.4-0.4,1.7-0.5l-0.2-1.8l-0.9-9.2c-2.3-1.4-5.2-1.4-7.5,0l-1,11c0,0,0.1,0,0.1,0
		C259.6,277.7,263.1,277.1,265.2,276.6z"/>
	<path class="st0" d="M292.5,241.3c1-0.1,1.9-0.2,2.3-0.3c0.5-5.8-0.2-9.1-0.4-9.6c-0.4,0.1-1.7,0.6-2.9,1.1
		c0.2,3.1-0.2,6.1-1.1,9.1l0.6-0.1l1.3-7.5l0.1-0.6l0,0l0,0l0.3,0.1l-1.6,9.5l0,0l0,0l-2.2,0.2l-0.3,0c0,0.1,0,0.1-0.1,0.2l3.1,0.1
		l0,0l0,0l1.9-8l0,0l0,0l0.2,0l0.1,0l0,0l0,0L292.5,241.3z"/>
	<polygon class="st0" points="296,243.9 296,243.9 294.5,243.9 294.5,243.9 291.9,243.8 291.9,243.8 285.6,243.6 285.8,245.9 
		296.3,245.4 296.3,243.9 	"/>
	<path class="st0" d="M285.5,246.2L285.5,246.2L285.5,246.2l-0.2-3l3,0.1l0,0l0,0c0.1-0.2,0.1-0.4,0.1-0.4l0-0.1l2.4-0.2l0,0
		l0.1-0.8l-0.8,0.1l-0.3,0l0,0l0,0l0,0l-5.9,0.1l1.3,10.6h0.6l0.2-6.4L285.5,246.2z"/>
	<path class="st0" d="M254.8,276.9L254.8,276.9l1,0.5l0.4-0.3l-0.5-1l0,0l0,0l1.8-5.3l0,0l0.4-4.2l-3.1,9.3l-3.1,0.7
		c0.1,0.2,0.1,0.4,0.2,0.5C252.8,277,253.8,276.9,254.8,276.9z"/>
	<polygon class="st0" points="296.1,228.2 294.9,243.6 295.8,243.6 295.8,243.6 296.2,240.6 298,228.2 	"/>
	<path class="st0" d="M262.3,255.4c-0.6,0-1.1,0.3-1.5,0.7c-0.7,0.7-1.2,2-1.2,3.4c0,2.3,1.2,4.1,2.7,4.1c0.6,0,1.1-0.3,1.5-0.7
		c0.7-0.7,1.2-2,1.2-3.4C265,257.2,263.8,255.4,262.3,255.4z"/>
	<path class="st0" d="M269.5,275.8l-3.2-9.4l0.4,4.4l0,0h0l0,0l1.8,5.1l0,0l0,0l-0.5,1l0.4,0.3l0.9-0.5h0c1,0,1.9,0.1,2.9,0.3
		c0.1-0.2,0.2-0.4,0.2-0.5L269.5,275.8z"/>
	<path class="st0" d="M265,278.8l1-2c-0.8,0.2-1.7,0.4-2.5,0.5c-0.7,0.1-1.5,0.2-2.2,0.2c-1.1,0-2.2-0.2-3.2-0.6l0,0l0.9,1.9
		C260.9,279.2,262.9,279.2,265,278.8z"/>
	<path class="st2" d="M253,210.2c0.1,0,0.2,0,0.3,0c0,0,0,0,0,0c0,0,0-0.1,0.1-0.1C253.2,210.2,253.1,210.2,253,210.2z"/>
	<path class="st2" d="M252.7,211.7C252.7,211.7,252.7,211.7,252.7,211.7c-0.3,0-0.5-0.1-0.8-0.2c-0.3,0.6-0.4,1.3-0.4,1.9
		c0,1.8,0.9,3.2,1.9,3.3c0,0,0,0,0,0C252.3,215.3,252.1,213.4,252.7,211.7z"/>
	<path class="st2" d="M252,211.3c0.2,0.1,0.5,0.1,0.8,0.2c0-0.1,0.1-0.2,0.1-0.3c-0.2,0-0.5-0.1-0.7-0.1c0,0,0,0,0,0c0,0,0,0,0,0
		C252.1,211.1,252,211.2,252,211.3z"/>
	<polygon class="st2" points="252.6,210.5 252.6,210.5 252.6,210.5 	"/>
	<path class="st2" d="M252.3,210.7L252.3,210.7c0.2,0,0.4,0.1,0.6,0.1c0-0.1,0.1-0.2,0.1-0.2c-0.2,0-0.4,0-0.5-0.1h0
		C252.5,210.6,252.4,210.6,252.3,210.7z"/>
	<polygon class="st2" points="252.2,228.8 251.6,217.9 250.7,217.9 251.2,229.3 254.5,229.3 	"/>
	<polygon class="st2" points="248.6,250.5 250.6,251.4 250.8,251.2 248.9,250.3 	"/>
	<polygon class="st2" points="251.3,229.6 251.4,248.8 251.8,248.8 251.8,248.8 252.4,229.6 	"/>
	<polygon class="st2" points="251.7,249.1 251.3,249.1 249.3,250.1 249.4,250.2 250.8,250.8 251.2,250.3 251.2,250.3 251.7,249.1 	
		"/>
	<polygon class="st2" points="253.6,229.6 254.5,248.8 254.9,248.8 254.4,229.6 	"/>
	<polygon class="st2" points="257.5,250.3 255.2,249.1 255.2,249.1 254.7,249.1 256.4,250.8 257.5,250.3 	"/>
	<polygon class="st2" points="255.6,250.4 255.1,249.9 256.2,251.4 258,250.5 257.9,250.5 256.3,251.2 256.3,251.2 256.3,251.2 	"/>
	<polygon class="st2" points="249.1,223.7 249.1,223.7 249.2,230.3 249.5,230.3 249.8,223.9 	"/>
	<polygon class="st2" points="249.8,223.6 249.8,223.6 250.5,221.6 250.5,221.6 250.5,221.6 250.5,221.6 250.4,219.5 249.1,223.4 	
		"/>
	<path class="st2" d="M272.1,220.2c-1,1.2-3.3,3.8-4.6,5.4c-0.5,0.5-0.8,1-1,1.2c0,0,0,0,0,0c0,0.5,0,0.9,0,1.1v0c0,0.2,0,0.4,0,0.6
		l7.4-8.4l-1.3-0.3C272.4,219.8,272.3,220,272.1,220.2z"/>
	<path class="st2" d="M266.3,229.3c0.2-0.1,3.4-3.9,5.7-6.6l-5.7,6.4l0,0C266.3,229.1,266.2,229.2,266.3,229.3
		C266.2,229.3,266.3,229.3,266.3,229.3L266.3,229.3z"/>
	<path d="M252.9,211.1C252.9,211.1,252.9,211.1,252.9,211.1c0.2,0,0.4,0,0.5,0c0,0,0,0,0,0c0.5,0,1-0.1,1.5-0.2c0.1,0,0.2,0,0.3-0.1
		c0,0,0.1,0,0.1,0l-0.2-0.3c0,0-0.1,0-0.1,0c0,0,0,0,0,0c-0.1-0.1-0.1-0.1-0.2-0.2c-0.1,0-0.2,0-0.4,0.1c0.1,0.1,0.1,0.1,0.2,0.2
		c0,0,0,0,0,0c-0.6,0.1-1.1,0.1-1.7,0.1c0,0,0,0,0,0c0,0,0,0,0,0c-0.2,0-0.4,0-0.6-0.1h0l0,0c0.1-0.1,0.1-0.2,0.2-0.2l0,0h0
		c0,0,0,0,0,0c-0.1,0-0.2,0-0.3-0.1l0,0c0.1,0,0.2,0.1,0.3,0.1l0,0c0.2,0,0.3,0.1,0.5,0.1c0.1,0,0.2,0,0.3,0c0.4,0,0.7,0,1.1-0.1
		c0.2,0,0.3,0,0.4-0.1l0.1,0l-0.1-0.3c0,0-0.2,0-0.4,0.1c0,0,0,0,0,0c-0.6-0.5-1.5-0.5-2.1,0c0,0,0,0,0,0c0,0-0.1,0-0.1,0l-0.1,0.2
		l0,0c-0.1,0.1-0.2,0.2-0.2,0.3c0,0,0,0,0,0l0,0l0,0.1l-0.1,0.2c0.1,0,0.2,0,0.2,0.1l0,0C252.4,211.1,252.6,211.1,252.9,211.1z
		 M254,210.2C254,210.2,254,210.2,254,210.2c-0.3,0-0.5,0-0.8,0c0,0,0,0,0,0c0,0,0,0,0,0c-0.1,0-0.2,0-0.3,0c0.1,0,0.2-0.1,0.3-0.1
		c0,0,0,0,0,0c0.1,0,0.1,0,0.2,0C253.7,210.1,253.9,210.2,254,210.2z"/>
	<path d="M255,211.2C255,211.2,255,211.2,255,211.2c-0.4,0.1-0.8,0.2-1.1,0.2c-0.4,0-0.8,0-1.2,0h0c-0.3,0-0.5-0.1-0.8-0.2
		c0,0,0,0,0,0c0,0,0,0,0,0c0-0.1,0.1-0.2,0.1-0.2c0,0,0,0,0,0c-0.1,0-0.2,0-0.2-0.1l0.1-0.2c-0.5,0.8-0.8,1.8-0.8,2.7
		c-0.1,1.3,0.5,2.6,1.6,3.4v-0.1h0.3v0h-0.3v0.8h0.3V217v0c0.2,0.1,0.3,0.1,0.5,0.1c0,0,0.1,0,0.1,0c0.1,0,0.3,0,0.4-0.1v0v0.6h0
		h0.3v-0.8h-0.3v0h0.3v0.1c1-0.8,1.6-2.1,1.5-3.4c0-0.7-0.1-1.4-0.4-2.1c0,0-0.1,0.1-0.3,0.1c0.3,0.6,0.4,1.3,0.4,2
		c0,1.8-0.9,3.3-2,3.3c0,0-0.1,0-0.1,0c-1.1-0.1-1.9-1.6-1.9-3.3c0-0.7,0.1-1.3,0.4-1.9c0,0,0,0,0,0c0.3,0.1,0.5,0.1,0.8,0.2
		c0,0,0,0,0,0c0.2,0,0.5,0.1,0.7,0.1c0.6,0,1.2-0.1,1.8-0.3c0,0,0,0,0,0c0.2-0.1,0.3-0.1,0.3-0.1l-0.1-0.3l0,0
		c0-0.1-0.1-0.1-0.1-0.2c-0.1,0-0.2,0.1-0.3,0.1C254.9,211.1,255,211.1,255,211.2c0.1,0,0.2-0.1,0.3-0.1
		C255.3,211.1,255.2,211.2,255,211.2L255,211.2C255,211.2,255,211.2,255,211.2L255,211.2C255,211.2,255,211.2,255,211.2z
		 M251.8,211.2C251.8,211.2,251.8,211.2,251.8,211.2l-0.1,0.3L251.8,211.2z"/>
	<path d="M248.6,230.4L248.6,230.4l-0.7,2.3l1.4,1.3l0.1-2.3l0.4,0.4l0.7-0.4l-0.7-1.2l0-0.1l-0.3,0.2l0,0l0.3-0.2l0,0.1l0.3-6.5
		l0.5-1.4l0.4,7l0,0l0.1,19.4l0.1,0l0.1,0.3l0,0l-0.1-0.3l-0.1,0l-2.5,1.3l0.3,0.1l1.9,0.9l0.1,0l1.6-2.2l0,0h0.1l0.9-16.6l0.8,16.6
		h0.1l0,0l0.8,0.8l0.5,0.5l0.8,0.8l0,0l1.5-0.8l0.7-0.3l-3.1-1.3l-0.1,0l0,0l0.1,0l0.4-19.4l0,0l0.4-7l-0.3-0.7l0,0l0.3,0.7l0.5,1.4
		l0.3,6.5l0-0.1l0,0l0,0.1l-0.7,1.2l0.7,0.4l0.3-0.4l0.1,2.3l1.3-1.3l-0.6-2.3l0,0l0.5-7.2v0l-2.2-5.4l0-0.1l0,0l0,0.1l0-0.2h-6.2
		l0,0.1l0,0l-2.2,5.4L248.6,230.4l0.3,0.1l0,0L248.6,230.4z M249.9,223.8l0.1-0.2l0,0L249.9,223.8z M252,249.1l-0.9,1.2l0,0
		l-0.4,0.5l0,0l-1.3-0.7l-0.1-0.1l0,0l2-1l0,0L252,249.1l0.2-0.3l0.3,0.2l0,0l-0.3-0.2L252,249.1z M252.5,242.5l-0.3,6.3h-0.4h0
		h-0.4h0l-0.1-19.1h0h1.2h0.8l0,0l0-0.2h0l0,0.2L252.5,242.5z M257.8,250.1l-0.3,0.1l0,0l-1.1,0.6l0,0l-1.7-1.8l-0.2-0.3l-0.2,0.2
		l0,0l0.2-0.2l0.2,0.3h0.5l0,0L257.8,250.1z M255.3,249L255.3,249l0.1-0.2L255.3,249z M255.2,248.8L255.2,248.8h-0.3h-0.4l-1-19.1
		h0.8h1.2v0v-0.2l0,0v0.2L255.2,248.8z M257.4,230.3l-0.3-6.3l0,0l1.3-0.5l-0.5,6.8H257.4z M256.9,223.7L256.9,223.7L256.9,223.7
		l0.1,0.3l0,0L256.9,223.7z M257.7,230.9L257.7,230.9l-0.7,0.7l-0.3-0.1l0,0l0.5-0.9h0h0.7l0-0.1l0,0l0,0.1l0,0l0.6,2l-0.7,0.7l0,0
		L257.7,230.9z M258.6,223.1L258.6,223.1L258.6,223.1L258.6,223.1z M256.2,217.8l0.3,0.7l1.9,4.6l-1.4,0.5l0,0l-0.7-2l0,0l0,0
		l0.2-3.1L256.2,217.8L256.2,217.8z M256.2,217.9l-0.7,11.4h-4.3l0,0l-0.6-11.4h0.9h0H256.2z M248.3,223.1l0.2,0.1l1.9-4.6l0.3-0.6
		l0,0l-0.3,0.6l0.1,1l0,0l0.1,2.1v0l0,0l0,0v0l0,0l-0.7,2l0,0l-0.7-0.3l0,0l0,0l-0.7-0.2L248.3,223.1l-0.1,0.3l0,0L248.3,223.1z
		 M248.4,223.4L248.4,223.4l0.7,0.2l0.7,0.2l-0.3,6.3h0h-0.3h-0.3h0L248.4,223.4z M249.6,230.6L249.6,230.6l0.5,0.9l0,0l-0.2,0.1
		l-0.7-0.7l0,0l-0.1,2.4l0,0l-0.7-0.7l0,0l0.6-2l0,0H249.6z"/>
	<path d="M269,218C269,218,269,218,269,218c0,0.4,0,0.7,0,1c0.7,0,1.4,0,2.2,0V218v0c0.9-0.1,1.6-0.9,1.6-1.8v-1.1l-0.2-0.2
		c0,0,0,0,0,0l0.2,0.2l0,0l0,0l0,0c0.5-0.4,0.7-0.7,0.6-1c0-0.2-0.2-0.4-0.3-0.5c-0.1-0.1-0.3-0.2-0.3-0.2c0,0,0,0,0,0v-1.1
		c0-1-0.8-1.9-1.9-1.9H269c-0.4,0-0.7,0.1-1,0.3c-0.5,0.3-0.8,0.9-0.8,1.5v1.2c0,0,0,0,0,0c0,0,0.1,0,0.1,0l0,0c0,0,0,0-0.1,0
		c0,0,0,0,0,0c-0.1,0.1-0.3,0.2-0.4,0.3c-0.1,0.1-0.2,0.2-0.2,0.4c0,0.3,0.1,0.7,0.6,1l0,0l0,0l0,0l0,0v1.1c0,0.8,0.5,1.4,1.1,1.7
		C268.5,218,268.7,218,269,218C269,218,269,218,269,218z M269,217.9C269,217.9,269,217.8,269,217.9C269,217.8,269,217.9,269,217.9z
		 M269.1,217.8C269.1,217.8,269.1,217.8,269.1,217.8L269.1,217.8C269.1,217.8,269.1,217.8,269.1,217.8z M270.8,219l-1.5,0
		c0,0,0,0,0,0c0-0.1,0-0.2,0-0.4c0-0.1,0-0.1,0-0.1c0-0.1,0-0.2,0-0.3c0.5,0.1,1.1,0.1,1.6,0c0,0,0,0,0,0V219z M272.5,214.3
		L272.5,214.3v1.8c0,0.8-0.6,1.5-1.5,1.5l0,0l0.2,0.2l0,0l-0.2-0.2l0,0l-0.2-0.2v0v0.3c0,0,0,0,0,0v-0.1H269c-0.8,0-1.5-0.7-1.5-1.5
		v0v-1.8v0c0,0,0,0,0,0c0.5,0.2,1,0.3,1.6,0.2l0,0c0.7-0.3,1.4-0.3,2.1,0c0.2,0.1,0.4,0.1,0.5,0.1
		C271.9,214.6,272.2,214.5,272.5,214.3c0.1-0.1,0.2-0.1,0.3-0.2l0,0C272.7,214.2,272.6,214.3,272.5,214.3z M267.2,214.2
		c0,0,0.1,0,0.2,0.1C267.3,214.3,267.2,214.2,267.2,214.2z M272.7,213.6L272.7,213.6c0,0,0.1,0.1,0.1,0.1c0.2,0.1,0.3,0.2,0.3,0.4
		c0,0,0,0,0,0c0,0.2-0.1,0.4-0.3,0.6c0,0,0,0,0,0v-1C272.7,213.7,272.7,213.7,272.7,213.6L272.7,213.6z M270.9,210.7L270.9,210.7
		c0.8,0,1.5,0.7,1.5,1.5v1.7c0,0,0,0,0,0c-0.4,0.3-0.9,0.4-1.3,0.3c-0.7-0.3-1.5-0.3-2.3,0c-0.5,0.1-1,0-1.5-0.2l0,0l-0.1,0
		l-0.1,0.3c0,0,0,0,0,0l0.1-0.3l0.1,0l0,0v-1.7c0-0.8,0.7-1.5,1.5-1.5H270.9z M267.1,213.8L267.1,213.8v0.9
		c-0.2-0.1-0.2-0.3-0.2-0.5c0,0,0,0,0,0C266.9,214,267,213.9,267.1,213.8z"/>
	<path d="M273.9,223.1l0-0.2l0.3-2.8l-0.1,0.2c0,0,0,0,0,0C274,220.8,273.9,221.8,273.9,223.1L273.9,223.1z"/>
	<path d="M263.2,222.2l-4.3-6.9l1.8-1.7l0.1-0.4l-0.1-0.1l-2.2,2.1l4.5,7.3l3.2-0.8l0,0c0,1.4-0.1,3.1-0.1,4.5l0,0l0,0l-0.1,2.7l0,0
		c-0.5,3.6-2.7,14.1-2.8,14.2l0,0.1l0.1,0.1c1.2,1.1,2.6,1.9,4.2,2.3l0,0l-0.1,0l0.5,2.2l0.1,0l-0.1,0l-4.2,0.5l1.9,2l3.3-1.8
		l-0.4-0.4h0.1l0.5-2.2l0-0.1l-0.3-0.1l0,0l0.3,0.1l0,0.1c0.7,0.1,1.4,0.1,2.1,0.1h0.1l0,0l0.6,2.4h0.1l-0.4,0.4l3.3,1.8l1.9-2
		l-4.2-0.5l-0.2,0l-0.3,0.3l0.3-0.3l0.2,0l0.5-2.2l-0.2,0l-0.1,0l0,0l0.1,0c1.2-0.1,2.4-0.3,3.6-0.6l0.2-0.1l-0.1-0.2
		c-2.3-5.6-2.5-14.4-2.3-20l0.8,6.4l1.3-0.8l0-0.2l0.2,0l0.1-0.1l0,0l-0.1,0.1l0.2,0l0,0l-0.1,0l-0.2,0l0,0.2l-0.3,1l0.3,0.8h0.5
		l0.3-0.6l0,0l0.2,0.3l1.7,0.7l0.8-0.5l-1.9-2.7l0,0l1.1-0.7l-4.5-9.1v0v-0.1l0-0.1l0,0l0,0.1v0.1c0.4-0.1,0.7-0.2,0.7-0.2l0.3-0.1
		l-0.2-0.2c-0.9-0.8-1-3.7-1.2-6c0-1.2-0.1-2.3-0.4-3.5c-0.7-1.5-3.3-1-3.6-1c-1-0.2-2.1-0.1-3,0.4c-0.4,0.3-0.7,0.7-0.8,1.2
		c-0.2,1.2-0.3,2.4-0.3,3.6c0,1.5-0.2,3-0.4,4.5l0.3,0.1c0,0,0,0,0,0c0.3-1.5,0.4-3.1,0.4-4.6l0,0c0-1.2,0.1-2.4,0.3-3.6
		c0.1-0.8,0.8-1.3,1.8-1.4c0.3,0,0.5,0,0.8,0c0.3,0,0.5,0,0.8,0.1l0,0l0,0l0,0c0,0,1.2-0.2,2.1,0c0.5,0.1,1,0.3,1.2,0.8
		c0.3,1.1,0.4,2.2,0.4,3.4c0.1,2.3,0.3,4.9,1.1,6c-0.2,0.1-0.4,0.1-0.6,0.2l0,0l0,0c-1-0.3-2-0.5-3-0.5c0,0,0,0,0,0
		c-0.8-0.1-1.5-0.1-2.2,0c0,0,0,0,0,0c-1.3,0-2.3,0.1-2.5,0.1l0,0l0.1,0.1l-0.3,2.5l0,0l0.3-2.5l-0.1-0.1l-0.8-0.3l-0.3-0.1
		l-0.8-0.3l-0.4-5.3l-1.5-0.6l0,0l-0.3-1.2l1.2-2.1l-0.4-0.9l-0.2,0.1c0,0-0.3,0.2-0.5,0.3c-0.2-0.2-0.4-0.4-0.6-0.6v-2.4h-0.6
		l-1.1,4.3l0.9,1.4l-0.3,1.8l-0.1,0.4l0,0l-0.2,0.9l0,0l1.4,0.7l1-1.3l-0.2-0.9l0,0l1.1,0.4l0.5,5.3l2,0.7l-0.2,2l0,0L263.2,222.2z
		 M273.8,220.1l-7.4,8.4c0-0.2,0-0.4,0-0.6v0c0-0.3,0-0.7,0-1.1c0,0,0,0,0,0c0,0,0,0,0,0c0-0.1,0-0.3,0-0.5l0,0l0,0l-0.1,2.2l0,0
		l0.1-2.2l0,0l0,0l5.4-6.8l0,0l0.7,0.2L273.8,220.1L273.8,220.1z M266.2,229.1l-0.3,0.3l0,0L266.2,229.1z M268.3,248.4l-2.7,1.5
		l-1.3-1.3l0,0l3.7-0.5L268.3,248.4L268.3,248.4z M268.2,247.8L268.2,247.8L268.2,247.8l-0.5-2.1l0,0l0-0.1l0,0l0,0.1
		c0.3,0.1,0.7,0.1,1,0.2l0,0L268.2,247.8z M276,248.9L276,248.9l-1.3,1.3l-2.7-1.5l0.3-0.3l0,0L276,248.9z M272.1,248.1L272.1,248.1
		L272.1,248.1l-0.6-2.1l0,0l0-0.2l0,0l0,0.2c0.4,0,0.7,0,1-0.1l0,0L272.1,248.1z M277.5,229.8L277.5,229.8l0.3-0.2l0,0L277.5,229.8z
		 M276.8,231.5L276.8,231.5l-0.3,0.6h0h0l-0.2-0.5l0.2-0.8l0,0l0,0L276.8,231.5L276.8,231.5l0.1-0.1l0.3,0.1l0,0l-0.3-0.1
		L276.8,231.5z M279.3,232.4l-0.4,0.2l-1.5-0.6l-0.9-1.5l0,0l0,0l1-0.6l0,0l0,0l1.5,2.1L279.3,232.4L279.3,232.4z M278.5,228.9
		L278.5,228.9l-3.3,2.1l-1-7.8l0,0v0l0,0l0,0l0.2-2.1l0-0.3L278.5,228.9z M271.6,219.4l0.2-0.2l2.5,0.7l0-0.2l0,0l0,0.2l0,0.2
		l-0.3,2.9l0,0.1l0,0.1v0l0,0l0,0c-0.3,5.3-0.4,15.5,2.2,21.8l0,0l0,0c-0.3,0.1-1,0.3-1.8,0.4c-2.7,0.4-7.5,0.7-10.7-2.3
		c0.2-1.1,2.1-10.1,2.7-13.8c0-0.1,0-0.2,0-0.2l0,0l5.7-6.4l0-0.1l2.1-2.4l0.1-0.2l0-0.2l-2.5-0.7L271.6,219.4L271.6,219.4l-5.1,6.4
		c0.1-2.4,0.2-5.6,0.2-6.3l0,0l0,0C268.3,219.3,269.9,219.3,271.6,219.4z M261.4,211.3l-0.8-1.4l0.1-0.3l-0.2-0.1l0.1-0.3l0,0
		l-0.1,0.3l0.2,0.1l0,0l0.6,0.3l0,0l0,0.1l0.1,0.5l0.3-0.1l0,0l-0.2-0.7l-0.8-0.4l0,0l0.1-0.5l-0.2-0.1l0,0l0.2,0.1l0,0l1.1,0.5
		l0.2,0.7l0,0l0.3-0.1l-0.2-0.9l-1.3-0.6l0.6-2.5h0h0.1v2.2l0,0c0.8,0.9,0.9,0.8,1,0.7c0,0,0.1,0,0.1-0.1c0,0,0.1,0,0.1,0
		c0.1,0,0.1-0.1,0.2-0.1l0.2,0.4l-1.2,2l0.6,2.4l-0.8,1l-0.9-0.5l0,0L261.4,211.3z"/>
	<path d="M265.1,279.1L265.1,279.1l1.2-2.5l0-0.1l-0.3-0.1l0,0l0.3,0.1l0,0.1c0.5-0.2,0.8-0.3,0.8-0.3l0.1,0l-0.4-4.1l1.3,3.8
		l-0.5,1.1l0.8,0.6l1-0.5c1.2,0.1,2.6,0.2,2.8,0.3c0,0,0.1,0,0.1,0c0.1,0,0.2,0,0.5-0.9l0.1-0.2l-3.3-0.8l-3.6-10.5l-0.3,0.1l0,0
		l0.3-0.1l0-0.2l-0.1,0c-0.9-0.6-2-1-3-1.1c1.3-0.5,2.3-2.2,2.3-4.3c0-2.4-1.4-4.4-3-4.4c-1.7,0-3,2-3,4.4c0,2.1,1,3.8,2.3,4.3h0
		c-1.2,0.1-2.4,0.5-3.4,1.1l-0.1,0l0,0.2l0,0l-3.5,10.4l-3.3,0.8l0.1,0.2c0.3,0.9,0.4,0.9,0.5,0.9c0,0,0.1,0,0.1,0
		c0.2-0.1,1.6-0.2,2.8-0.3l1,0.5l0.8-0.6l-0.5-1.1l1.3-3.9l0.4-1.2l-0.3-0.1l0,0l-1.8,5.3l0,0l0.5,1l0,0l-0.4,0.3l-0.9-0.5h0
		c-1,0-1.9,0.1-2.9,0.3c-0.1-0.2-0.2-0.3-0.2-0.5c0,0,0,0,0,0l3.1-0.7l3.1-9.3l0.4-1.3l-0.3-0.1l0,0l0.3,0.1l-0.4,1.3l-0.4,4.2
		l0.3,0.1l-0.4,1.2l-0.4,4.2l0.1,0.1c0.1,0.1,0.3,0.2,0.4,0.3l0,0l1.2,2.5l0.1,0c1,0.3,2,0.4,3,0.4h0
		C262.9,279.4,264,279.3,265.1,279.1z M266.4,271l0.3-0.1L266.4,271L266.4,271z M272.6,276.6c-0.1,0.2-0.1,0.4-0.2,0.5h0
		c-1-0.1-1.9-0.2-2.9-0.3h0l-0.9,0.5l-0.4-0.3l0.5-1l0,0l-1.8-5.1h0h0l0,0l-0.4-4.4l0,0l3.2,9.4L272.6,276.6z M262.3,255.4
		c1.5,0,2.7,1.8,2.7,4.1c0,1.4-0.5,2.7-1.2,3.4c-0.4,0.4-1,0.7-1.5,0.7c-1.5,0-2.7-1.8-2.7-4.1c0-1.4,0.5-2.7,1.2-3.4
		C261.2,255.7,261.7,255.4,262.3,255.4z M257.3,276.1l1-11c2.3-1.4,5.2-1.4,7.5,0l0.9,9.2l0.2,1.8c-0.2,0.1-0.9,0.3-1.7,0.5
		C263.1,277.1,259.6,277.7,257.3,276.1C257.4,276.1,257.4,276.1,257.3,276.1L257.3,276.1z M257.5,276.5L257.5,276.5l0.3-0.1l0.2,0.4
		c1,0.4,2.1,0.7,3.2,0.6c0.7,0,1.5-0.1,2.2-0.2c0.9-0.1,1.7-0.3,2.5-0.5l0,0l-1,2c-2,0.5-4.1,0.5-6.1,0l0,0l-0.9-1.9l0,0l-0.2-0.4
		L257.5,276.5z"/>
	<path d="M279.7,252.8c-0.3-1.1-1.5-1.8-2.7-1.5c-0.4,0.1-0.8,0.4-1.1,0.7c-1.3,1.5-1.7,3.5-1,5.4c0.3,0.7,0.9,1.3,1.7,1.5
		c0.1,0,0.2,0,0.4,0c0.2,0,0.4,0,0.5-0.1l-1.2,0.5l-2.4,8.8l-3.1,1v2.6l0.1,0c0.1,0.1,3.2,2.5,5.2,2.5h0.1c2,0,6.6-0.6,7.2-1.6
		c0.4-0.9,0.7-1.9,0.9-2.9c0,0,0-0.1,0-0.1l0,0c0,0,0,0,0,0.1l0.2-0.1l0.1,0l0-0.1c-1.4-8.9-3.6-11.9-3.7-12l0,0l-0.1-0.1l-0.9,0.4
		l-0.5-0.8l0,0c0.3-0.5,0.5-1,0.6-1.6C280.2,254.7,280.1,253.7,279.7,252.8z M276.7,258.6C276.7,258.6,276.7,258.6,276.7,258.6
		c-0.7-0.2-1.2-0.7-1.4-1.3c-0.6-1.7-0.3-3.7,1-5c0.4-0.4,0.9-0.7,1.5-0.7c0.1,0,0.2,0,0.3,0c0,0,0,0,0,0c0.7,0.2,1.2,0.7,1.4,1.3
		c0,0.1,0.1,0.3,0.1,0.4c0.2,0.6,0.2,1.2,0.2,1.7c0,0.5-0.2,1-0.3,1.4c-0.1,0.3-0.2,0.5-0.4,0.8c0,0-0.1,0.1-0.1,0.2c0,0,0,0,0,0
		c-0.1,0.2-0.2,0.3-0.4,0.5c-0.1,0.1-0.2,0.2-0.3,0.3C277.7,258.5,277.2,258.7,276.7,258.6C276.7,258.6,276.7,258.6,276.7,258.6
		L276.7,258.6z M279.3,257.1L279.3,257.1l-0.3,0.2L279.3,257.1z M276.6,259.6L276.6,259.6l4.1-1.6c0.4,0.6,2.2,3.7,3.5,11.6
		c0,0,0,0,0,0c-0.7,0.2-3.8,1.4-6.1,0.9l0,0l-0.5-8.1l-0.3,0l0,0l0.1,1.6l0,0l0,0c-0.4,1.7-1.1,3.2-2,4.7h0l0,0l-0.1,0l-1.1-0.5
		L276.6,259.6z M275.4,268.8l0.3,0.2c0.1-0.1,0.2-0.3,0.3-0.4c0,0,0,0,0,0c0.6-1.1,1.1-2.3,1.5-3.5c0,0,0,0,0,0v0l0.2,2.9l0,0
		l-1.7,0.6c-0.1,0.1-0.2,0.3-0.3,0.4L275.4,268.8L275.4,268.8z M283.9,270c-0.2,0.9-0.4,1.8-0.8,2.6c-0.5,0.8-5,1.5-7.1,1.4
		c-1.7,0-4.5-2.1-4.9-2.4v-2.2l0,0l2.9-1l0,0l0.1,0l0,0l-0.1,0l0,0l1.3,0.6l2.4-0.9l0.1,1.8l0,0c-1.6-0.5-3.2-0.9-4.9-1c0,0,0,0,0,0
		l0,0.3c1.7,0.1,3.4,0.4,5,1l0,0l0.1,0l0.1-0.3c0,0,0,0,0,0l-0.1,0.3l-0.1,0l0,0l0,0.3l0.1,0c0.5,0.1,1,0.2,1.4,0.2
		C280.9,270.8,282.5,270.5,283.9,270C283.9,270,283.9,270,283.9,270c0-0.2,0.1-0.3,0.1-0.3l0,0C284,269.8,284,269.9,283.9,270z
		 M279.6,258.1L279.6,258.1L279.6,258.1l-1.6,0.6c0.3-0.1,0.5-0.3,0.8-0.6l0,0l0,0l0,0l0,0c0.2-0.2,0.4-0.4,0.5-0.6L279.6,258.1z"/>
	<polygon points="296,243.9 294.5,243.9 294.5,243.9 296,243.9 296,243.9 	"/>
	<path d="M295.8,227.9l-0.6,7.4c0-0.5-0.1-1-0.1-1.4c0,0-0.3-2.7-0.6-2.8c0,0-0.1,0-0.9,0.2l0,0.1l-0.3,0.1l0,0l0.3-0.1l0-0.1
		l-0.1-0.6c0.3-0.2,0.5-0.4,0.7-0.7c0.6-0.8,0.9-1.8,0.9-2.8c0.1-2.2-1.1-4-2.6-4.1c-1.5,0-2.8,1.7-2.9,3.9c0,1,0.2,2,0.7,2.8
		c0.4,0.7,1,1.1,1.8,1.2V231l0,0v0.1l0,0.8v0l-0.8,0.3l-0.1,0v0.1c0.2,3.1-0.2,6.2-1.1,9.2h0.1l0,0.2l0-0.2h-0.1l-6.3,0.1L285,252
		l0,0l-4.4,0.3l1.5,1.6l0.2,0.2l0.2-0.2l0,0l-0.2,0.2l-0.2-0.2l-0.7,0.3l-0.4,0.1l2.9,1.2l2.2-2.5l0-0.1l-0.2-0.2l0.2,0.2l0,0.1h0.1
		l0.2-6.7v0l0.1,0l0-0.1l0.3,0l0,0l-0.3,0l0,0.1l0.8,9.2h1v-4.2h-0.2l0,0h0.2l6-0.2h0.2l0,0h-0.2l0.2,4.3h1.5v-9.6l0.5,0v-2.1
		l-0.5,0l2.2-15.7L295.8,227.9z M294.8,241c-0.3,0-1.3,0.2-2.3,0.3l-0.1,0.3c1-0.1,1.9-0.2,2.3-0.3l0.2,0l0.1,0l0,0l-0.1,0l-0.2,0
		l0,0l-0.2,2.2h0l0.3,0l1.2-15.3h1.9l-1.8,12.4l-0.4,3l0,0l-0.9,0h0l-0.3,0l-2.6-0.1l0,0l0.4-1.8l0,0l0.1-0.3l1.4-5.8l0,0l-0.1,0
		l-0.2,0l0,0l-1.9,8l0,0l-0.1,0.2l0,0l0.1-0.2l0,0l-3.1-0.1l0,0c0-0.1,0-0.2,0.1-0.2l0.3,0l2.2-0.2l0,0l1.6-9.5l-0.3-0.1l0,0
		l-0.1,0.6l-1.3,7.5l-0.6,0.1c0,0,0,0,0,0c0.9-2.9,1.2-6,1.1-9.1c1.2-0.5,2.5-1,2.9-1.1c0,0,0,0,0,0
		C294.5,231.9,295.3,235.2,294.8,241z M288.2,250.1v-0.3h0L288.2,250.1l6.1,0v0l0,0.6l-6,0.2v-0.8H288.2z M288.3,246.1l5.8-0.3
		l0-0.2l0.3,0l0,0l-0.3,0l0,0.2l0.2,3.9h-6V246.1z M292.4,231.8L292.4,231.8l0-0.7l0,0v0c0.3,0,0.6-0.1,0.9-0.3l0-0.2l0,0l0,0.2l0,0
		l0.1,0.5l0,0l0,0c-0.1,0-0.3,0.1-0.4,0.2c0,0,0,0,0,0C292.7,231.6,292.6,231.7,292.4,231.8l0,0.2l0,0L292.4,231.8z M292,230.8
		c-0.1,0-0.1,0-0.2,0c-0.1,0-0.1,0-0.2,0c-0.1,0-0.1-0.1-0.2-0.1c0,0-0.1,0-0.1,0c0,0,0,0,0,0c-0.2-0.1-0.3-0.2-0.5-0.3c0,0,0,0,0,0
		c-0.1-0.1-0.2-0.3-0.3-0.5h0c-0.5-0.8-0.7-1.7-0.7-2.6c0.1-2,1.2-3.6,2.5-3.6c0.5,0,1,0.3,1.3,0.7c0.6,0.7,1,1.8,1,3.1
		c0,0.9-0.3,1.8-0.8,2.6c-0.1,0.2-0.2,0.3-0.4,0.5c0,0,0,0,0,0c-0.1,0.1-0.3,0.3-0.5,0.3c0,0,0,0,0,0c-0.1,0-0.2,0.1-0.3,0.1
		c0,0-0.1,0-0.1,0c-0.1,0-0.2,0-0.3,0c0,0-0.1,0-0.1,0C292.1,230.8,292.1,230.8,292,230.8z M281.2,252.5L281.2,252.5l3.8-0.2l0,0
		l0.1,0l0-0.3l0,0l0,0.3l-0.1,0l0,0.4c0,0,0,0,0,0c-0.5,0.1-1.7,0.7-2.7,1l0,0L281.2,252.5z M283.9,255.1l-2-0.8
		c1.3-0.6,3.1-1.3,3.4-1.3h0h0v0l-0.1-0.3c0,0,0,0,0,0l0.1,0.3l0,0h0.5l-0.2,0.3L283.9,255.1z M286.1,246.1v0.1l-0.2,6.4h0h-0.6
		l-1.3-10.6l5.9-0.1l0,0l0,0l0.3,0l0.8-0.1l0,0l-0.1,0.8l0,0l-2.4,0.2l0,0.1c0,0-0.1,0.2-0.1,0.4l0,0l0,0.1l0,0l0-0.1l0,0l-3-0.1
		l0.2,2.9h0l0.6,0L286.1,246.1l0.3,0v0L286.1,246.1z M288,246.1v9v0h-0.4l-0.7-8.9l0,0L288,246.1L288,246.1l0.3-0.1v0L288,246.1
		L288,246.1z M288.2,250.9L288.2,250.9L288.2,250.9L288.2,250.9z M296.1,245.6h-0.3v0.2v9.2h-0.9l-0.5-9.2v0l0,0l1.4-0.1v-0.2
		L296.1,245.6L296.1,245.6z M296.3,245.4L296.3,245.4l-10.5,0.5l-0.2-2.3l0,0l6.2,0.2l0.1,0h0l0,0l2.6,0.1l1.5,0l0.2,0V245.4z"/>
	<line class="st3" x1="285.2" y1="252.9" x2="285.2" y2="252.9"/>
	<path d="M244.2,258L244.2,258l-0.9-0.4l-0.1,0.1c-0.1,0.1-2.2,3-3.7,12l0,0.1l0.1,0l0.2,0.1c0-0.1,0-0.1,0-0.1l0.3-0.1c0,0,0,0,0,0
		l-0.3,0.1l0,0.1c0.2,1,0.5,2,0.9,2.9c0.6,1,5.2,1.6,7.2,1.6h0.1c2,0,5-2.4,5.2-2.5l0.1-0.1v-2.6l-3.1-1l-0.1,0l-0.1,0.3l0,0
		l0.1-0.3l0.1,0l-2.4-8.8l-1.2-0.5c0.2,0.1,0.4,0.1,0.6,0.1c0.1,0,0.2,0,0.4,0c0.8-0.2,1.4-0.8,1.7-1.5c0.7-1.8,0.3-3.9-1-5.4
		c-0.7-0.9-2.1-1.1-3-0.4c-0.4,0.3-0.6,0.7-0.7,1.1c-0.4,0.9-0.4,1.9-0.2,2.8c0.1,0.6,0.3,1.1,0.6,1.6l0,0L244.2,258z M244.7,257.1
		L244.7,257.1l0.3,0.2l-0.1,0.2c0,0,0,0,0,0c0.1,0.2,0.3,0.4,0.5,0.6c0,0,0,0,0,0c0,0,0,0,0.1,0.1c0.2,0.2,0.5,0.4,0.7,0.5l-1.7-0.7
		l0.3-0.4l0.1-0.1l0.1-0.2L244.7,257.1z M239.8,269.6c1.3-7.9,3.2-11,3.5-11.6l0,0l0,0l4.1,1.6l2.3,8.6l-1.1,0.5l0,0l-0.1,0l0,0
		c-0.9-1.5-1.6-3.1-2-4.7l0,0l-0.1,0h0l0.1,0l0.1-1.6l-0.3,0l0,0l-0.5,8.1c-0.1,0-0.3,0.1-0.4,0.1
		C243.3,270.8,240.5,269.8,239.8,269.6z M248.1,268.6l-1.7-0.6l0,0l0.2-3c-0.1-0.3-0.2-0.6-0.2-0.9h0c0.1,0.3,0.1,0.6,0.2,0.9
		C246.9,266.2,247.5,267.4,248.1,268.6c0.1,0.1,0.2,0.3,0.3,0.4l0,0C248.3,268.8,248.2,268.7,248.1,268.6
		C248.1,268.6,248.1,268.6,248.1,268.6z M252.9,271.7c-0.4,0.3-3.2,2.4-4.9,2.4c-2,0-6.6-0.6-7.1-1.4c-0.4-0.8-0.7-1.7-0.8-2.6
		c0,0,0,0,0,0c0,0,0,0,0,0c0.7,0.3,1.5,0.5,2.2,0.6c0.8,0.1,1.5,0.2,2.3,0.3c0.5,0,1,0,1.4-0.2l0.1,0l0-0.3l0,0c1.6-0.6,3.3-0.9,5-1
		l0-0.3l0,0c-1.7,0.1-3.3,0.4-4.9,1c0,0,0,0,0,0c-0.1,0-0.2,0.1-0.2,0.1l0.1,0.3l0,0l-0.1-0.3c0,0,0.1,0,0.2-0.1l0.1-1.8l0.5,0.2
		l1.8,0.7l1.3-0.6l0,0l2.9,1l0,0V271.7z M244.5,253.2c0-0.1,0.1-0.2,0.1-0.3c0.2-0.7,0.8-1.1,1.4-1.3c0.1,0,0.2,0,0.3,0
		c0.1,0,0.3,0,0.4,0.1c0.4,0.1,0.8,0.3,1.1,0.7c1.2,1.4,1.6,3.3,1,5c-0.2,0.7-0.7,1.2-1.4,1.3c0,0,0,0-0.1,0c-0.3,0-0.5,0-0.8,0
		c-0.4-0.1-0.7-0.3-0.9-0.6c0,0-0.1,0-0.1-0.1c0,0-0.1-0.1-0.1-0.1c-0.5-0.6-0.8-1.2-1-2c0-0.1-0.1-0.2-0.1-0.3v0c0-0.1,0-0.2,0-0.3
		C244.3,254.5,244.3,253.9,244.5,253.2z"/>
	<path d="M229.4,239.9C229.4,239.9,229.4,239.9,229.4,239.9l-0.1-1.3C229.4,239.1,229.4,239.5,229.4,239.9z"/>
	<path d="M229.8,230.3C229.8,230.3,229.8,230.3,229.8,230.3c0.4,0.1,1.7,0.6,2.9,1.1c-0.2,3.1,0.2,6.1,1.1,9.1l0,0l-0.6-0.1l0,0
		l0.1,0.3l0.7,0.1l0,0l0,0l0,0h0h0h0l0.2,0l0,0l0,0l5.9,0.1l-1.3,10.6h-0.6h0l-0.2-6.4l0,0h0l0.6,0l0.2-2.9h0l-3,0.1c0,0,0,0,0,0
		c-0.1-0.2-0.1-0.4-0.1-0.4l0-0.1l0,0l-2.2-0.2l-0.2,0l-0.1-0.8v0l-0.1-0.3l0,0l-1.4-8.2l-0.3,0.1l0,0l1.6,9.5l1.8,0.2l0.6,0.1
		c0,0.1,0,0.2,0.1,0.3c0,0,0,0,0,0l-0.6,0l-2.5,0.1l0,0l-0.3,0l-2.6,0.1l-0.3,0l-0.9,0l-0.3,0l-0.5,0v2.1l0.5,0v-0.2h0v9.7h1.5
		l0.2-4.3h-0.2l0,0h0.2l6,0.2h0.2l0-0.3h-0.2l-6-0.2l-0.2,0v0l0.2,0l0-0.6h6h0v0.8h0.2l0,0.3h-0.2v4.2h1l0.8-9.2l0.1,0l0.2,6.7h0.1
		l0-0.1l0.2-0.2l-0.2,0.2l0,0.1l2.2,2.5l2.9-1.2l-0.4-0.1l-0.7-0.3l-0.2,0.2l-0.2-0.2l0,0l0.2,0.2l0.2-0.2l1.5-1.6l-4.4-0.3l0,0
		l1.2-10.3l-6.3-0.1h0c-0.9-3-1.3-6.1-1.1-9.2v-0.1l-0.1,0l-0.8-0.3l-0.3-0.1c0,0,0,0,0,0c-0.4-0.1-0.7-0.3-1-0.4l0,0l0.1-0.5l0,0
		l0,0c0.3,0.1,0.6,0.2,0.9,0.3v-0.2l0.3,0v0l-0.3,0v0.2l0,0.6l0.3,0.1l0-0.8v0c0.7-0.1,1.4-0.6,1.8-1.2c0.5-0.8,0.7-1.8,0.7-2.8
		c-0.1-2.2-1.3-3.9-2.8-3.9c-0.8,0.1-1.5,0.5-1.9,1.2c-0.5,0.8-0.7,1.8-0.7,2.8c0,1.3,0.5,2.6,1.5,3.4l0-0.1l0.3,0.1l0,0l-0.3-0.1
		l0,0.1l-0.1,0.6c-0.8-0.3-0.8-0.2-0.9-0.2c-0.3,0.1-0.6,2.7-0.6,2.8c0,0.4-0.1,0.9-0.1,1.4l0.3,4.2l0,0.3
		C229,233.6,229.6,230.8,229.8,230.3z M227.9,244.3v-1.5l0,0l0.2,0l0,0l0,0v0v0l1.5,0v0l2.6-0.1h0l6.3-0.2l-0.1,0.9l-0.1,1.4
		L227.9,244.3z M229.3,253.9L229.3,253.9h-0.9v-9.2l1.3,0.1l0,0l0-0.1l0,0l0,0.1L229.3,253.9z M236,248.6h-6.1l0.2-3.9l5.8,0.3v0h0
		v3.7L236,248.6L236,248.6z M236.6,254h-0.4v-9l1.1,0.1l0,0l0-0.2l0,0l0,0.2L236.6,254z M242.3,253.1L242.3,253.1l-2,0.8l-0.8-1
		l-1-1.2h0h0.5l0.1-0.3c0,0,0,0,0,0l-0.1,0.3h0C239.2,251.9,241,252.6,242.3,253.1z M242.9,251.4L242.9,251.4l-1.1,1.2l0,0
		c-0.9-0.4-2.2-0.9-2.7-1c0,0,0,0,0,0l0-0.4l-0.2,0l0-0.3l0,0l0,0.3l0.1,0L242.9,251.4z M230.1,223.5c0.3-0.6,1-1,1.7-1.1
		c0.5,0,1,0.2,1.4,0.6c0.7,0.6,1.1,1.7,1.2,3c0,0.9-0.2,1.8-0.7,2.6c-0.3,0.6-1,1-1.7,1.1c-1,0-1.9-0.8-2.3-2.1
		c-0.1-0.4-0.2-0.9-0.3-1.5C229.4,225.2,229.7,224.3,230.1,223.5z"/>
	<path d="M230.6,234.3l-0.3,0.1l0,0l1.4,5.8l0.1,0.3l0,0l0,0l0,0l0,0l-0.1-0.3c0,0,0,0,0,0c-1-0.1-1.9-0.2-2.2-0.3l0,0l0,0.3l0,0
		c0.4,0,1.4,0.2,2.3,0.3c0,0,0,0,0,0l0.1,0.6l0.3,1.3v0l0.3,0l0,0L230.6,234.3z"/>
	<line class="st3" x1="238.9" y1="251.8" x2="239" y2="251.8"/>
	<polygon points="228.4,242.5 226.2,227.1 226.2,227.1 228.1,227.1 229.3,242.4 229.3,242.4 229.6,242.4 229.4,240.2 229.4,239.9 
		229.3,238.6 229,234.1 228.4,226.8 225.8,226.8 228.1,242.5 	"/>
</g>
</svg>
