<?xml version="1.0" encoding="utf-8"?>
<!-- Generator: Adobe Illustrator 27.8.1, SVG Export Plug-In . SVG Version: 6.00 Build 0)  -->
<svg version="1.1" id="Layer_1" xmlns="http://www.w3.org/2000/svg" xmlns:xlink="http://www.w3.org/1999/xlink" x="0px" y="0px"
	 viewBox="0 0 500 500" style="enable-background:new 0 0 500 500;" xml:space="preserve">
<style type="text/css">
	.st0{fill:none;}
	.st1{fill:#FFFFFF;}
	.st2{fill:#27AAE1;}
</style>
<g>
	<polygon class="st0" points="257.3,323.4 260.6,323.7 260.6,323.6 257.3,323.3 249.6,329 249.6,329 	"/>
	<path class="st0" d="M301.1,322.4h2.9l0,0L301.1,322.4c-0.8,0.2-6.7,2.6-11.1,4.4l0,0C294.5,325,300.4,322.7,301.1,322.4z"/>
	<polygon class="st0" points="294.1,265.1 294.9,266.2 295.3,270.2 294.9,266.2 294.2,265.1 294,264.9 294,264.9 	"/>
	<polygon class="st0" points="317.1,327.8 322,336.6 322,336.6 317.1,327.8 	"/>
	<path class="st0" d="M236.9,197c0,0.2,0,0.4,0.1,0.6C237,197.4,236.9,197.2,236.9,197z"/>
	<path class="st0" d="M236.6,195c-1-4.9-3.7-8.5-7-8.6h0C233,186.5,235.7,190.1,236.6,195z"/>
	<path class="st0" d="M236.8,196.2C236.8,196.2,236.8,196.2,236.8,196.2C236.8,196.2,236.8,196.2,236.8,196.2z"/>
	<polygon class="st0" points="326.4,334.8 330.2,333.3 330.2,333.3 	"/>
	<path class="st0" d="M296.5,237.6c0.3-0.5,0.6-0.9,1-1.3l0,0C297.1,236.7,296.8,237.2,296.5,237.6L296.5,237.6z"/>
	<path class="st0" d="M296.5,235.6C296.5,235.6,296.5,235.6,296.5,235.6C296.5,235.6,296.5,235.6,296.5,235.6
		c-0.6,0.7-1.1,1.5-1.5,2.4C295.4,237.1,295.9,236.4,296.5,235.6z"/>
	<path class="st0" d="M296.5,232c0,0.8,0,1.6,0,2.5C296.5,233.6,296.5,232.8,296.5,232z"/>
	<path class="st0" d="M237,200.3c0-0.9,0-1.8,0-2.7C237,198.5,237,199.4,237,200.3L237,200.3c-0.4,7.4-4.3,13.3-8.8,13.1
		c-4.4-0.2-7.7-6.5-7.3-13.9c0-1.3,0.2-2.5,0.5-3.7c-0.3,1.2-0.5,2.5-0.5,3.8h0c-0.4,7.5,2.9,13.7,7.3,13.9
		C232.7,213.6,236.6,207.7,237,200.3z"/>
	<path class="st0" d="M293.6,242.4l0.4,0.2L293.6,242.4C293.6,242.4,293.6,242.4,293.6,242.4l-4.7-2.4c0.6-6.7,2.7-13.2,6.3-19
		c0,0,0,0,0,0c0.3-0.5,0.6-0.8,0.6-0.8l-0.9-0.8l0,0l0.9,0.8c0,0-0.2,0.3-0.6,0.8c-3.6,5.7-5.7,12.2-6.3,19L293.6,242.4z"/>
	<path class="st0" d="M294.7,263.2c1.1-8.5,1.7-17,1.8-25.6C292.7,244,294.2,259.2,294.7,263.2L294.7,263.2z"/>
	<polygon class="st0" points="296.2,279.3 295.5,271.9 296.2,279.3 	"/>
	<polygon class="st0" points="294.3,242.8 293.8,243.9 293.7,243.9 293.8,243.9 294.3,242.8 	"/>
	<polygon class="st0" points="288.4,239.8 287.9,240.9 288.7,241.3 287.9,240.9 	"/>
	<polygon class="st0" points="288.5,239.8 288.4,239.8 288.4,239.8 	"/>
	<polygon class="st0" points="183.5,323.9 187.2,324.4 183.5,323.9 	"/>
	<path class="st0" d="M185.2,214.4c0,0,0.1,0,0.1,0h0l0.1,0l0,0h0C185.3,214.4,185.3,214.4,185.2,214.4L185.2,214.4
		C185.1,214.3,185.1,214.3,185.2,214.4L185.2,214.4z"/>
	<path class="st0" d="M264.1,262.8l-8.3-0.3c0,0,0-0.1,0-0.1c0,0,0,0,0,0.1c0,0,0,0,0,0L264.1,262.8L264.1,262.8z"/>
	<path class="st0" d="M216.9,217.8C216.9,217.8,216.9,217.8,216.9,217.8c0,0.4,0,0.9,0.1,1.5c0,0.3,0,0.7,0.1,1l0,0
		c0-0.4,0-0.7-0.1-1l0,0C216.9,218.7,216.9,218.2,216.9,217.8z"/>
	<polygon class="st0" points="185.1,214.3 185.1,214.3 185.1,214.3 	"/>
	<polygon class="st0" points="183.2,337.2 183.2,337.2 178.8,335.3 	"/>
	<rect x="225.9" y="216.8" class="st0" width="3.4" height="0"/>
	<polygon class="st0" points="219.2,258.1 225.8,258.5 219.2,258 	"/>
	<path class="st0" d="M185.1,326.3l-2.2-0.5h0c0,0,0,0,0,0L185.1,326.3z"/>
	<path class="st0" d="M179.4,186.4L179.4,186.4c-0.5,0.1-0.9,0.3-1.3,0.5c-0.5-0.1-1.1-0.2-1.6-0.5c0.5,0.2,1,0.4,1.6,0.5
		C178.5,186.6,178.9,186.5,179.4,186.4z"/>
	<path class="st0" d="M179.2,186.9c-0.4,0-0.7,0-1.1-0.1C178.5,186.9,178.8,186.9,179.2,186.9c0.8,0,1.6-0.2,2.3-0.6c0,0,0,0,0,0
		C180.7,186.6,180,186.8,179.2,186.9L179.2,186.9z"/>
	<polygon class="st0" points="243.1,332.7 237.4,335.1 234.5,323.9 234.4,323.9 237.4,335.1 	"/>
	<polygon class="st0" points="196.5,263.9 196.5,263.9 196.5,323.4 196.5,323.4 196.5,263.3 197.8,263.3 197.8,263.3 197.8,263.3 
		196.5,263.3 	"/>
	<path class="st0" d="M228.5,214.6c-0.1,0-0.2,0-0.3,0c-0.1,0-0.2,0-0.2,0c0.1,0,0.2,0,0.2,0l0,0
		C228.3,214.6,228.4,214.6,228.5,214.6c0.4,0,0.8,0,1.2-0.1l-0.1,0.4l0.1-0.4l0,0C229.3,214.5,228.9,214.6,228.5,214.6z"/>
	<polygon class="st0" points="225.9,212.9 225.9,212.9 225.9,214 225.9,214 	"/>
	<polygon class="st0" points="239.2,322.9 237.6,323.3 239.2,322.9 	"/>
	<path class="st0" d="M296,262.7l17.2-0.7c0,0,0,0,0,0L296,262.7L296,262.7c0.6-4.8,3.6-31,0.1-42.8l0,0
		C299.6,231.7,296.6,257.9,296,262.7z"/>
	<polygon class="st0" points="217.8,331.7 219.5,332.3 223,321.9 223,321.9 219.5,332.3 	"/>
	<polygon class="st0" points="191.7,264.2 192,272.9 191.7,264.2 191.7,264.2 189.1,264.4 189.1,264.4 190.5,279.2 189.1,264.4 	"/>
	<polygon class="st0" points="218.8,321.9 222,321.9 218.8,321.9 210.8,329.2 210.8,329.2 	"/>
	<path class="st0" d="M268.7,213.6l-0.2,1.1c-0.6,0.2-1.3,0.3-1.9,0.3h-0.1c-0.7,0-1.5-0.1-2.2-0.4v3.9l0,0v-3.9
		c0.7,0.3,1.4,0.4,2.2,0.4v0h0.1c0.7,0,1.3-0.1,1.9-0.3l0,0L268.7,213.6L268.7,213.6z"/>
	<polygon class="st0" points="254.6,232.6 254.6,232.6 255.8,232.9 255.8,232.9 	"/>
	<path class="st0" d="M271.8,190.6c1.7,2.9,2.6,6.2,2.6,9.6c0.1,3.4-0.6,6.7-2.3,9.7c-0.6,1.4-1.7,2.5-3,3.2c1.3-0.7,2.4-1.8,3-3.2
		c1.6-3,2.4-6.3,2.3-9.7C274.4,196.8,273.5,193.5,271.8,190.6c-1-1.9-2.8-3.2-4.9-3.6C269,187.4,270.8,188.7,271.8,190.6z"/>
	<path class="st0" d="M274.9,234c0-0.8,0.1-1.6,0.1-2.4l0,0C275,232.4,275,233.2,274.9,234l-6.3-0.3l-0.9,0.9l-0.9-0.8l0,0l0.9,0.9
		l0.9-0.9L274.9,234l1.2,0.1h0c0,0,0,0,0,0L274.9,234z"/>
	<polygon class="st0" points="271.7,230.6 271.7,230.6 273.9,231.3 	"/>
	<path class="st0" d="M255,222l1.2-2.6l-0.1-0.1l0.1,0.1L255,222L255,222c-1.1,2.5-2.9,6.3-4.5,9.7l0,0
		C252.1,228.3,253.8,224.5,255,222C255,222,255,222,255,222z"/>
	<polygon class="st0" points="276.9,234.1 278,234.2 278,234.2 	"/>
	<rect x="251.3" y="237.5" transform="matrix(0.988 -0.1545 0.1545 0.988 -33.656 42.1189)" class="st0" width="5.5" height="0"/>
	<polygon class="st0" points="256.2,219.8 256.2,219.8 256.2,219.8 	"/>
	<path class="st0" d="M282,242.6c-0.9-6.5-2.7-12.8-5.4-18.8c-0.5-1.1-0.9-2-1.1-2.5l-0.1-0.3l-0.2-0.3l0,0l0,0c0,0,0.1,0.1,0.2,0.3
		c0,0,0,0,0,0l0.1,0.2c0,1.4-0.1,4.8-0.3,9l-3.7-1.2l-4.3,4.4l0,0l0,0l0,0l4.3-4.4l3.7,1.2l0.7,0.2l-0.7-0.2c0.1-4.2,0.3-7.6,0.3-9
		c0.3,0.5,0.7,1.4,1.1,2.5c0,0,0,0,0,0C279.2,229.8,281.1,236.2,282,242.6L282,242.6z"/>
	<polygon class="st0" points="278,235.4 278,235.1 278,235.4 256.7,234.3 249,232.7 249,232.7 256.7,234.3 	"/>
	<polygon class="st0" points="306.3,218.6 306.3,218.6 306.2,218.7 306.3,218.6 	"/>
	<polygon class="st0" points="254.2,242.5 254.2,242.5 255.1,242.6 	"/>
	<polygon class="st0" points="274,321.6 274,321.6 271.3,321.6 266.2,262.9 266.2,262.9 266.2,262.5 266.2,262.5 266.2,262.9 
		271.3,321.6 	"/>
	<polygon class="st0" points="264.1,262.5 265,262.6 264.1,262.5 	"/>
	<path class="st0" d="M180.4,327.1l2.3-1.3h0c0.1,0,0.2,0,0.2,0c0,0-0.1,0-0.2,0l0,0L180.4,327.1l-8.9,5.1l0,0L180.4,327.1
		C180.4,327.1,180.4,327.1,180.4,327.1z"/>
	<polygon class="st0" points="268.6,240.9 256.8,238.3 256.8,238.3 268.6,240.9 	"/>
	<path class="st0" d="M275.9,242.3l-1.1,0l0,0h-0.1c-0.3,8.7-0.6,17.3-0.6,19.6l-19.2-0.6c0-0.9,0.1-2.7,0.2-5.1
		c-0.1,2.4-0.2,4.3-0.2,5.1l19.2,0.6c0.1-2.3,0.4-10.9,0.6-19.6h0.1L275.9,242.3C275.9,242.3,275.9,242.3,275.9,242.3z"/>
	<path class="st0" d="M255.5,242.6L255.5,242.6l0,1.2c0,0.5,0,1,0,1.5c0-0.5,0-1,0.1-1.5C255.4,243.3,255.5,243,255.5,242.6z"/>
	<path class="st0" d="M258.4,243.9c-1,0-2-0.1-2.9-0.2C256.4,243.9,257.4,243.9,258.4,243.9L258.4,243.9z"/>
	<polygon class="st0" points="275.1,323.3 286.7,329.2 280,334.3 280,334.3 286.7,329.2 275.1,323.3 	"/>
	<path class="st0" d="M326.1,254c-4.7,2.6-6.3,3.5-6.8,3.8c0,0,0,0,0,0C319.8,257.5,321.3,256.7,326.1,254l-3.1-3.3l0,0L326.1,254z"
		/>
	<path class="st0" d="M315.1,253.1c0,1.1-0.1,2.2-0.1,3.2l-0.1-0.1l-0.4,1.1l0,0l0.4-1.1l0.1,0.1C315,255.3,315.1,254.2,315.1,253.1
		L315.1,253.1z"/>
	<polygon class="st0" points="323.2,239.6 322.9,239.2 319.6,236 322.8,239.2 315.1,250.6 315.1,250.6 314.1,252.1 314.1,252.1 
		315.1,250.6 322.9,239.3 323.2,239.6 324.1,238.7 324.1,238.7 	"/>
	<path class="st0" d="M319.1,258L319.1,258C319.1,258,319.1,258,319.1,258L319.1,258z"/>
	<path class="st0" d="M306.1,214.5l-1.2,0.1l0,0.9c-0.5,0.2-1,0.3-1.6,0.3c-0.1,0-0.3,0-0.4,0c-0.6,0-1.2-0.1-1.8-0.3l0,0
		c0.6,0.2,1.2,0.3,1.8,0.3l0,0c0.1,0,0.3,0,0.4,0c0.5,0,1.1-0.2,1.6-0.3l0.1,2.1l0,0l-0.1-2.1l0-0.9L306.1,214.5L306.1,214.5z"/>
	<path class="st0" d="M308.4,210.6c1.4-2.7,2-5.8,1.7-8.8C310.4,204.9,309.8,207.9,308.4,210.6L308.4,210.6
		c-0.9,2.1-2.9,3.5-5.1,3.9c-4,0.3-7.6-4.3-8.5-10.5c0.8,6.2,4.5,10.8,8.5,10.6C305.6,214.2,307.5,212.7,308.4,210.6z"/>
	<path class="st0" d="M294.9,198.1c-0.3,1.5-0.4,3.1-0.2,4.6l0,0c0,0,0,0,0,0C294.5,201.2,294.6,199.6,294.9,198.1z"/>
	<polygon class="st0" points="314.8,253.2 314.8,253.2 314.5,252.4 314.4,252 314.4,252 314.5,252.4 314.5,252.4 	"/>
	<path class="st0" d="M312.5,218.9c5.2,4.5,9.9,9.6,13.8,15.3l0,0C322.4,228.5,317.7,223.4,312.5,218.9
		C312.5,218.9,312.5,218.9,312.5,218.9z"/>
	<polygon class="st0" points="304.8,266 304.8,266 306,266 306,266 	"/>
	<polygon class="st0" points="301.2,320.7 301.2,320.7 298.1,286.8 	"/>
	<polygon class="st0" points="304.3,263.5 304.8,266.1 304.8,266 304.3,263.5 304.3,263.4 304.3,263.4 304.3,263.5 295.9,263.9 
		296.4,269 295.9,263.9 	"/>
	<path class="st0" d="M288.7,241.3c-0.1,1-0.1,2-0.1,3C288.6,243.3,288.7,242.3,288.7,241.3L288.7,241.3z"/>
	<polygon class="st0" points="295.9,263.2 294.7,263.3 294.7,263.3 295.9,263.2 	"/>
	<polygon class="st0" points="306,267.5 306,266 306,266 	"/>
	<path class="st0" d="M313,262.6l1.2-0.2l0,0L313,262.6c0,0,0,0.2,0.1,0.5l-7.5,0.3l0,0l7.5-0.3c0.6,4.4,4.4,34.2,5.6,63.4h0
		c-1.1-29.1-5-59-5.6-63.4L313,262.6z"/>
	<path class="st0" d="M313.7,240.4l1-1.6l2.9-4.8l0.1-0.1l0,0l-0.1,0.1l-3.6-3.6l-1.1-1.1l0,0l1.1,1.1c0.3,2.6,0.5,5.5,0.8,8.4
		L313.7,240.4L313.7,240.4z"/>
	<polygon class="st0" points="218.3,224.9 227.2,225.2 226.9,222.7 227.1,225.2 218.3,224.9 217.5,226.6 217.5,226.5 216.3,226.5 
		216.3,226.5 217.5,226.5 217.5,226.6 218.2,240.7 218.2,240.7 217.5,226.6 	"/>
	<path class="st0" d="M175.7,187.3L175.7,187.3c0.1,0,0.1,0,0.2,0.1C175.8,187.4,175.8,187.4,175.7,187.3z"/>
	<polygon class="st0" points="214.9,221.7 216.1,221.9 214.9,221.7 	"/>
	<path class="st0" d="M209.3,232.9L209.3,232.9l6.8-11l0,0v0l0,0c0.1-0.5,0.1-1,0.2-1.4l0,0c0.3-2.1,0.5-3.4,0.5-3.4l0,0
		c0,0-0.2,1.4-0.5,3.4c-0.1,0.5-0.1,0.9-0.2,1.5v0L209.3,232.9L209.3,232.9z"/>
	<polygon class="st0" points="225.8,223.9 225.8,223.9 225.6,221 219.8,220.7 225.6,221 	"/>
	<polygon class="st0" points="196.5,218.9 196.6,221.2 196.5,218.9 	"/>
	<path class="st0" d="M188,189.6L188,189.6c-0.1,0-0.1,0.1-0.2,0.1C187.9,189.6,187.9,189.6,188,189.6z"/>
	<path class="st0" d="M181.9,213.4l-1.2,0.2c0,0,0,0,0,0L181.9,213.4C181.9,213.4,181.9,213.4,181.9,213.4z"/>
	<polygon class="st0" points="196.7,226.2 196.7,226.2 200.7,230.1 	"/>
	<polygon class="st0" points="198.9,221.8 208.1,233 208.6,237.9 208.6,237.9 208.1,233 208.1,232.8 208.2,232.8 208.1,232.8 
		208.1,233 	"/>
	<polygon class="st0" points="214.6,229.6 214.6,229.6 210,239.1 210.2,241.2 210.2,241.2 210,239.1 214.6,229.6 217.6,223.6 
		217.6,223.6 	"/>
	<path class="st0" d="M177.7,248.6l0.9-0.8l-1.3-1.7l-1.7-13.3c0.2-0.2,0.4-0.3,0.6-0.5l-0.7-1l0,0l0.7,1c-0.2,0.2-0.4,0.3-0.6,0.5
		c-1.7,1.6-3.3,3.4-4.7,5.4l0,0l6.4,8l1.4,1.7L177.7,248.6L177.7,248.6z"/>
	<polygon class="st0" points="214.5,229.9 209.8,237.5 209.3,233.3 209.8,237.5 210,239.1 209.8,237.5 	"/>
	<polygon class="st0" points="184.1,315.9 181.9,282 184.1,315.9 184.3,319.7 184.1,315.9 	"/>
	<polygon class="st0" points="177.4,260 176.7,260.2 177.4,260 177.4,259.3 	"/>
	<polygon class="st0" points="178.8,258.1 178.9,256.9 178.9,256.9 178.8,258.1 177.4,258 171.1,257.6 172.4,261.7 172.4,261.7 
		171.2,257.6 177.4,258 177.4,258 178.8,258.1 179,259.6 179,259.6 179.4,260.6 179,259.6 	"/>
	<polygon class="st0" points="196.5,227.5 196.5,227.5 196.5,227.5 	"/>
	<polygon class="st0" points="216.4,228.8 217,240.9 216.9,258.3 215.2,258.9 215.2,258.9 216.9,258.3 217,240.9 217,240.7 
		217,240.7 217,240.9 216.4,228.8 	"/>
	<polygon class="st0" points="213.4,232.2 214.6,232.4 214.6,232.4 213.4,232.2 	"/>
	<path class="st0" d="M182.7,213.4C182.7,213.4,182.7,213.4,182.7,213.4c-0.1-0.1-0.3-0.2-0.4-0.3
		C182.4,213.2,182.6,213.3,182.7,213.4z"/>
	<polygon class="st0" points="184.3,263.5 184.2,263.5 180.8,263.7 180.8,263.7 184.3,263.5 196.5,262.7 195.3,217.9 195.3,217.9 
		196.5,262.7 	"/>
	<polygon class="st0" points="175.1,220.4 175.1,220.4 175.3,221.6 	"/>
	<path class="st0" d="M177,210.4c-2.3-2.6-3.7-5.8-4.2-9.3c-0.5-3-0.2-6.1,0.8-9l0,0c-1,2.9-1.3,6-0.8,9
		C173.3,204.6,174.7,207.8,177,210.4c1,1.2,2.3,2.1,3.8,2.6C179.3,212.5,178,211.6,177,210.4z"/>
	<path class="st0" d="M165.2,244.9c0.1-0.3,0.3-0.6,0.5-1C165.5,244.3,165.3,244.6,165.2,244.9l-1.4-1c0,0,0,0,0,0l-2.2-1.6
		c1.6-6.9,9.7-17.5,12.4-20.9l1,7.4c0,0,0,0,0,0l0.3,2.6c-1.6,1.2-3.2,3.1-4.7,5.1c1.5-2,3.1-3.9,4.7-5.1l0,0l-0.3-2.6l-1-7.4
		c0.5-0.7,0.9-1.1,0.9-1.1l-0.9-0.8l0,0l0.9,0.8c0,0-0.3,0.4-0.9,1.1c-2.7,3.4-10.9,14.1-12.4,20.9l2.2,1.6L165.2,244.9
		C165.2,244.9,165.2,244.9,165.2,244.9z"/>
	<path class="st0" d="M176.4,202.2L176.4,202.2C176.4,202.2,176.4,202.2,176.4,202.2c-0.5-3-0.3-6.2,0.7-9.1c0,0,0,0,0,0
		C176.1,196,175.9,199.1,176.4,202.2z"/>
	<polygon class="st0" points="177.5,248.4 178.1,252.5 177.6,248.5 177.6,248.4 171.7,241.2 171.7,241.2 	"/>
	<polygon class="st0" points="178.7,256 178.7,256 179.4,255 178.3,254.2 178.3,254.2 167.7,246.7 178.3,254.2 179.4,255 	"/>
	<path class="st0" d="M166.2,245.6c0.6-1,2.1-3.6,3.9-6.3l0,0l-0.2-0.3l0.9-0.8l0,0l-0.9,0.8l0.2,0.3
		C168.3,241.9,166.8,244.5,166.2,245.6c-0.2,0.3-0.3,0.5-0.3,0.5l-1.1-0.6c0,0,0,0,0,0l1.1,0.6C165.9,246.1,166,245.9,166.2,245.6
		l1.5,1.1l0,0L166.2,245.6z"/>
	<path class="st0" d="M183.4,186.5l-0.8-0.9c0,0,0,0,0,0L183.4,186.5c-0.1,0.1-0.2,0.1-0.2,0.2c0,0,0,0,0,0
		C183.2,186.6,183.3,186.5,183.4,186.5z"/>
	<path class="st0" d="M175.5,188.8C175.5,188.8,175.5,188.8,175.5,188.8c-0.3-0.1-0.5-0.2-0.8-0.4l0,0
		C175,188.6,175.3,188.7,175.5,188.8z"/>
	<path class="st0" d="M186,187.9l-0.5-0.5L186,187.9c-0.1,0.1-0.3,0.2-0.4,0.3c0,0,0,0,0,0L186,187.9z"/>
	<path class="st0" d="M189.5,208.5c1.4-3.2,1.9-6.7,1.3-10.1c-0.4-2.7-1.3-5.3-2.8-7.6c0.2-0.1,0.3-0.1,0.5-0.2l-0.4-0.8l0.4,0.8
		c-0.2,0.1-0.3,0.1-0.5,0.2c0,0,0,0,0,0c1.5,2.3,2.4,4.9,2.8,7.6C191.4,201.9,190.9,205.4,189.5,208.5z"/>
	<path class="st0" d="M177.4,191.9C177.4,191.9,177.4,191.9,177.4,191.9C177.4,191.9,177.4,191.9,177.4,191.9L177.4,191.9
		c3.4,0.2,6.8-0.5,9.9-2c0,0,0,0,0,0C184.2,191.4,180.8,192,177.4,191.9z"/>
	<path class="st0" d="M178.1,189.5L178.1,189.5c2.3,0.2,4.7-0.5,6.4-2.1c0,0,0,0,0,0C182.8,189,180.5,189.7,178.1,189.5z"/>
	<path class="st0" d="M177.7,190.7C177.7,190.7,177.7,190.7,177.7,190.7c-1-0.1-2-0.4-3-0.8c0,0,0,0,0,0
		C175.7,190.3,176.7,190.5,177.7,190.7C177.7,190.7,177.7,190.7,177.7,190.7z"/>
	<polygon class="st0" points="238.5,220 238.5,220 239.1,222.4 	"/>
	<path class="st0" d="M173.2,191.2l0.4-0.5c0.2,0.1,0.4,0.2,0.6,0.3c0,0,0,0,0,0c0.1-0.2,0.3-0.5,0.4-0.7c-0.1,0.2-0.3,0.5-0.4,0.7
		c-0.2-0.1-0.4-0.2-0.6-0.3L173.2,191.2l-0.4,0.5c0,0,0,0,0,0L173.2,191.2z"/>
	<polygon class="st0" points="189.1,264.3 187.9,264.3 187.9,264.5 184.7,264.7 180.8,264.9 180.8,264.3 180.8,264.3 180.8,264.9 
		180.8,265 184.7,264.7 187.9,264.5 186,323.1 187.9,264.5 187.9,264.4 189.1,264.3 	"/>
	<path class="st0" d="M172.6,332.7L172.6,332.7c0.6-0.4,1.2-0.9,1.9-1.4C173.8,331.8,173.1,332.3,172.6,332.7z"/>
	<polygon class="st0" points="234.2,259.7 234.2,259.7 234.2,260.4 234.2,260.4 237.9,321.8 235.3,322.4 235.3,322.4 237.9,321.8 
		234.2,260.4 	"/>
	<polygon class="st0" points="240.5,259.5 240.5,259.5 243.4,260.3 244.4,244.5 244.4,244.5 243.4,260.3 	"/>
	<polygon class="st0" points="240.5,270.6 241.8,274.1 241.8,274.1 	"/>
	<polygon class="st0" points="205.4,332.4 205.4,332.4 205,332.7 	"/>
	<rect x="239.2" y="245.8" transform="matrix(0.9667 -0.256 0.256 0.9667 -54.9394 69.4877)" class="st0" width="0.5" height="0"/>
	<polygon class="st0" points="244.2,243.3 244.8,243.2 245.1,244.3 245.1,244.3 244.8,243.2 244.2,243.3 	"/>
	<polygon class="st0" points="205,332.7 205,332.7 202.7,329.8 	"/>
	<polygon class="st0" points="194.5,325.2 194.5,325.2 197.7,325.2 199.1,326.5 199.1,326.5 197.7,325.2 	"/>
	<polygon class="st1" points="244.2,243.3 239.3,223.4 237.6,239.3 237.6,239.3 239.5,244.6 244.2,243.3 244.2,243.3 	"/>
	<polygon class="st1" points="239.7,245.7 240.5,259.5 243.4,260.3 244.4,244.5 239.7,245.7 239.7,245.7 	"/>
	<path class="st1" d="M254.6,232.6c0.1-3.6,0.3-7.8,0.3-10.6c-1.1,2.5-2.9,6.3-4.5,9.7L254.6,232.6L254.6,232.6
		C254.6,232.6,254.6,232.6,254.6,232.6L254.6,232.6z"/>
	<path class="st1" d="M275,231.7l-1.1-0.4l-2.2-0.7l-3,3.1l0,0l6.3,0.3C275,233.2,275,232.4,275,231.7z"/>
	<path class="st1" d="M275.1,230.4c0.1-4.2,0.3-7.6,0.3-9l-0.1-0.2c-6.3-1-12.7-1.5-19.1-1.4c0,0,0,0,0,0v0c0,0,0,0,0,0
		c0,1.6-0.1,5.8-0.3,13.1l0,0c0,0,0,0,0,0l0,0l1,0.2l10.2,0.5l4.3-4.4L275.1,230.4z"/>
	<polygon class="st1" points="178.1,252.5 177.5,248.4 171.7,241.2 167.7,246.7 167.7,246.7 167.7,246.7 178.3,254.2 	"/>
	<polygon class="st1" points="245,271.5 243.5,261.8 240.4,261 239.1,267 240.5,270.6 241.8,274.1 	"/>
	<polygon class="st1" points="214.4,267.4 216.8,272 217.1,272 217.9,272 217.9,259.2 215,260.2 215,260.2 	"/>
	<path class="st1" d="M217,240.9l-0.7-12.1l-1.8,3.6v0c-0.8,5.4-1.5,10.2-1.6,10.9l2.2,15.5l1.7-0.6L217,240.9z"/>
	<path class="st1" d="M219.2,258l6.6,0.5l8.5,0.6l4.2-38.8c-6-2.4-18.6-2.5-21.6-2.5c0,0.4,0,0.9,0.1,1.5l0,0c0,0,0,0,0,0l9.7,0.6
		l0.3,2.9l0.2,2.4l-8.8-0.3l-0.9,1.7l0.8,14.1h0v0v0.1v0l0,0l0,0L219.2,258z"/>
	<polygon class="st1" points="219.2,259.3 219.2,320.1 222.8,320.1 226.5,264.4 225.9,259.8 220.7,259.4 	"/>
	<polygon class="st1" points="275.1,323.3 272,323.3 280,334.3 286.7,329.2 	"/>
	<polygon class="st1" points="216.1,221.9 209.3,232.9 209.3,233.3 209.8,237.5 214.5,229.9 214.6,229.6 214.6,229.6 214.6,229.6 
		217.6,223.6 217.6,223.6 217.6,223.6 225.8,223.9 225.6,221 219.8,220.7 216.9,220.5 216.1,221.8 216.1,221.9 	"/>
	<polygon class="st1" points="249.6,329 257.6,333.5 260.6,323.7 257.3,323.4 	"/>
	<polygon class="st1" points="208.6,237.9 208.1,233 198.9,221.8 196.5,218.9 196.6,221.2 196.7,226.2 196.7,226.2 200.7,230.1 	"/>
	<path class="st1" d="M272.1,209.9c1.6-3,2.4-6.3,2.3-9.7c0-3.4-0.9-6.7-2.6-9.6c-1-1.9-2.8-3.2-4.9-3.6c-0.2,0-0.5-0.1-0.7-0.1
		h-0.1c-4.4,0.1-7.9,6.2-7.8,13.7h0c0.1,7.4,3.8,13.4,8.2,13.4h0.1c0.9-0.1,1.8-0.4,2.5-0.8C270.5,212.4,271.5,211.3,272.1,209.9z"
		/>
	<path class="st1" d="M266.5,215.1L266.5,215.1c-0.7,0-1.5-0.1-2.2-0.4v3.9l3.5,0l0.6-3.8c-0.6,0.2-1.3,0.3-1.9,0.3H266.5z"/>
	<polygon class="st1" points="184.7,264.7 184.1,315.9 184.1,315.9 184.1,315.9 184.3,319.7 184.6,323.4 186,323.4 186,323.1 
		187.9,264.5 	"/>
	<polygon class="st1" points="196.5,263.9 196.5,263.9 191.7,264.2 192,272.9 193.8,312.5 193.8,312.6 194.8,323.4 196.5,323.4 
		196.5,263.9 	"/>
	<polygon class="st1" points="243.1,332.7 246.9,331.1 239.2,322.9 237.6,323.3 234.5,323.9 237.4,335.1 	"/>
	<path class="st1" d="M180.3,327.1l-8.9,5.1l1.1,0.5l0,0c0.6-0.4,1.2-0.9,1.9-1.4C176.4,329.9,178.7,328.3,180.3,327.1z"/>
	<path class="st1" d="M256.8,237.1L256.8,237.1l0.1,0l25,5.5c-0.9-6.5-2.7-12.8-5.4-18.7c-0.1,2.5-0.2,6.1-0.4,10.2l0,0c0,0,0,0,0,0
		l0.7,0l1.1,0.1l0,0h0l0,0.9l0,0.3l-21.3-1.1l-7.6-1.6l2.3,5.2L256.8,237.1L256.8,237.1z"/>
	<path class="st1" d="M182.7,325.8c0.1,0,0.2,0,0.2,0c0,0,0,0,0,0h0l2.2,0.5l1.1,0.3l0,0l0.3-1l-2.8-0.4L182.7,325.8z"/>
	<polygon class="st1" points="210.8,329.2 217.8,331.7 219.5,332.3 223,321.9 222,321.9 218.8,321.9 	"/>
	<path class="st1" d="M274,261.9c0.1-2.3,0.4-10.9,0.6-19.6h0.1l-3.9-0.9l0,0c-4,1.6-8.2,2.4-12.5,2.5c0,0,0,0,0,0l0,0
		c-1,0-2-0.1-2.9-0.2c0,0.5,0,1-0.1,1.5c-0.1,4.1-0.3,7.9-0.4,10.9c-0.1,2.4-0.2,4.3-0.2,5.1L274,261.9z"/>
	<path class="st1" d="M268.6,240.9l-11.8-2.6l-6.2,1l0,0l0,0l-1.8-4c-0.8,1.7-1.4,3.1-1.7,3.8C248.5,240.3,255.2,245.2,268.6,240.9z
		"/>
	<path class="st1" d="M264.1,262.8l-8.3-0.3c0.1,4.6,0.9,31.9,1.7,59.1h0h2.4L264.1,262.8L264.1,262.8z"/>
	<polygon class="st1" points="271.3,321.6 274,321.6 274,263.1 266.2,262.9 266.2,262.9 266.2,262.9 	"/>
	<polygon class="st1" points="177.4,259.3 177.4,258 177.4,258 177.4,258 171.2,257.6 172.4,261.7 176.7,260.2 177.4,260 	"/>
	<path class="st1" d="M303.4,215.7c-0.1,0-0.3,0-0.4,0l0,0c-0.6,0-1.2-0.1-1.8-0.3l0.5,2.2l3.4-0.2l-0.1-2.1
		C304.4,215.6,303.9,215.7,303.4,215.7z"/>
	<path class="st1" d="M175,228.8L175,228.8C175,228.8,175,228.8,175,228.8l-1-7.4c-2.7,3.4-10.9,14.1-12.4,20.9l2.2,1.6
		C164.8,239,172.7,231,175,228.8z"/>
	<path class="st1" d="M296,262.6L296,262.6l17.2-0.7c2.4-14-1.4-39.7-2-43.9l-4.8,0.5v0v0l-0.2,0l-0.2,0l-9.9,1.1
		C299.6,231.7,296.6,257.9,296,262.6z"/>
	<path class="st1" d="M322.9,250.7l-7.8,2.4l0,0c0,1.1-0.1,2.2-0.1,3.2l0,0c1.8,0.7,3.7,1.4,4.3,1.5c0.5-0.3,2.1-1.2,6.8-3.8
		L322.9,250.7z"/>
	<path class="st1" d="M186,214c-0.3,0.1-0.6,0.2-0.9,0.3l0.1,0c0,0,0.1,0,0.1,0h0l0,0l-0.1,0h0c0,0-0.1,0-0.1,0l-0.1,0c0,0,0,0,0,0
		l0,0l0,0c-0.3,0.1-0.7,0.2-1.1,0.2l0.5,3.1l1.4-0.1V214z"/>
	<path class="st1" d="M185.1,214.3L185.1,214.3L185.1,214.3L185.1,214.3C185.1,214.3,185.1,214.3,185.1,214.3z"/>
	<path class="st1" d="M319.6,236l-1.2-1.2l-3.6,6.1l0,0c0.2,3.2,0.3,6.5,0.3,9.6l7.7-11.3L319.6,236z"/>
	<path class="st1" d="M176.4,202.2C176.4,202.2,176.4,202.2,176.4,202.2L176.4,202.2c1.3,5.4,3.2,9.2,5.9,11
		c0.1,0.1,0.3,0.2,0.4,0.3c0.4,0,0.8,0,1.1,0c2.6-0.5,4.7-2.4,5.7-4.8c1.4-3.2,1.8-6.7,1.3-10.1c-0.4-2.7-1.3-5.3-2.8-7.6
		c-3,1.4-6.2,2.2-9.4,2.3c-0.5,0-1,0-1.5-0.1c0,0,0,0,0,0C176.1,196,175.9,199.1,176.4,202.2z"/>
	<path class="st1" d="M312.5,218.9c0.3,1.9,0.8,5.3,1.2,9.6l9.8,9.7l0,0l2.8-4C322.4,228.5,317.7,223.4,312.5,218.9z"/>
	<path class="st1" d="M290,326.8l6.7,4l7.4-8.4h-2.9C300.4,322.7,294.5,325,290,326.8z"/>
	<polygon class="st1" points="199.1,326.5 197.7,325.2 194.5,325.2 194.7,326.5 194.7,326.5 195.9,325.8 	"/>
	<polygon class="st1" points="320.3,328.1 317.1,327.8 322,336.6 326.4,334.8 330.2,333.3 	"/>
	<path class="st1" d="M184.3,263.5L184.3,263.5L184.3,263.5l12.3-0.8l-1.2-44.9c-2.2,0.3-8.4,1.1-13.5,1.8v40.6L184.3,263.5z"/>
	<polygon class="st1" points="205,332.7 205.4,332.4 202.6,329.8 202.7,329.8 	"/>
	<path class="st1" d="M228.2,213.3c4.4,0.2,8.4-5.6,8.8-13.1v0c0-0.9,0-1.8,0-2.7c0,0,0,0,0,0c0-0.2,0-0.4-0.1-0.6
		c0-0.2,0-0.5-0.1-0.7c0,0,0,0,0,0c-0.1-0.4-0.1-0.8-0.2-1.2c-1-4.9-3.7-8.5-7-8.6h-0.3c-2.3,0.2-4.4,1.5-5.6,3.6
		c-1.1,1.8-2,3.7-2.5,5.8c-0.3,1.2-0.5,2.5-0.5,3.7C220.5,206.9,223.8,213.1,228.2,213.3z"/>
	<path class="st1" d="M179.4,186.4L179.4,186.4l-0.2,0.5c0.8,0,1.6-0.2,2.3-0.6c-0.5-0.1-1.1-0.1-1.6,0
		C179.7,186.3,179.5,186.3,179.4,186.4C179.4,186.4,179.4,186.4,179.4,186.4L179.4,186.4C179.4,186.4,179.4,186.4,179.4,186.4z"/>
	<polygon class="st1" points="298.1,286.8 301.2,320.7 304.3,320.7 304.8,266.1 304.8,266.1 304.3,263.5 295.9,263.9 296.4,269 
		296.5,270.2 296.5,270.4 297.5,280.6 297.5,280.6 	"/>
	<polygon class="st1" points="306,266 306,266 306,266 306,266 306,266 306,266 	"/>
	<path class="st1" d="M305.6,263.5l11.1,63.1h2c-1.1-29.1-5-59-5.6-63.4L305.6,263.5z"/>
	<path class="st1" d="M228.5,214.6c-0.1,0-0.2,0-0.3,0l0,0c-0.1,0-0.2,0-0.2,0c-0.7-0.1-1.4-0.2-2-0.6v0c0,0,0,0,0,0v2.8h3.4l0.3-2
		l0.1-0.4C229.3,214.5,228.9,214.6,228.5,214.6z"/>
	<path class="st1" d="M177.8,190.7c-0.1,0.4-0.3,0.8-0.4,1.2c3.4,0.2,6.8-0.5,9.9-2c-0.5-0.6-1-1.2-1.6-1.7l0,0c0,0,0,0,0,0
		c0,0,0,0,0,0c-1.8,1.6-4.2,2.5-6.6,2.5C178.6,190.7,178.2,190.7,177.8,190.7C177.7,190.7,177.7,190.7,177.8,190.7
		C177.7,190.7,177.8,190.7,177.8,190.7z"/>
	<path class="st1" d="M303.3,214.5c2.3-0.3,4.2-1.8,5.1-3.9v0c1.4-2.7,2-5.8,1.7-8.8c0-0.1,0-0.1,0-0.2c-0.2-3.1-1.2-6.1-3-8.7
		c-1.2-1.8-3.1-3-5.3-3.1c-0.1,0-0.2,0-0.3,0c-2.3,0.3-4.2,1.8-5.1,3.9c-0.7,1.4-1.2,2.9-1.5,4.4c-0.3,1.5-0.4,3.1-0.2,4.6
		c0,0,0,0,0,0l0,0c0,0.4,0.1,0.8,0.1,1.2C295.7,210.1,299.3,214.8,303.3,214.5z"/>
	<polygon class="st1" points="234.2,260.4 227.1,259.9 235.3,322.4 237.9,321.8 	"/>
	<polygon class="st1" points="294.1,265.1 291.2,266.6 291.6,274.2 295,279.3 296.2,279.3 295.5,271.9 295.3,270.3 295.3,270.2 
		294.9,266.2 	"/>
	<path class="st1" d="M288.9,240l4.7,2.4c0.2-1.6,0.7-3,1.4-4.4c0.4-0.8,0.9-1.6,1.5-2.4c0-0.4,0-0.8,0-1.2c0-0.8,0-1.6,0-2.5
		c-0.1-3.7-0.6-7.3-1.3-10.9c0,0,0,0,0,0c0,0,0,0,0,0C291.6,226.8,289.4,233.3,288.9,240z"/>
	<path class="st1" d="M288.7,241.3c-0.1,1-0.1,2-0.1,3c-0.2,7,0.7,13.9,2.7,20.6l0,0c0,0,0,0,0,0l2.2-1.2
		c-0.9-6.7-0.9-13.4-0.2-20.1l0,0L288.7,241.3z"/>
	<path class="st1" d="M184.6,187.4c-0.5-0.3-1-0.6-1.5-0.8c0,0,0,0,0,0c0,0,0,0,0,0c0,0,0,0,0,0c-1.2,0.9-2.6,1.4-4.1,1.4
		c-0.1,0-0.2,0-0.3,0c-0.2,0.4-0.4,0.9-0.5,1.4C180.5,189.7,182.8,189,184.6,187.4z"/>
	<path class="st2" d="M172.8,201.2c0.4,3.4,1.9,6.7,4.2,9.3c1,1.2,2.3,2.1,3.8,2.6c0.6,0.2,1.3,0.3,1.9,0.4
		c-0.1-0.1-0.3-0.2-0.4-0.3c-2.8-1.8-4.7-5.5-5.9-11h0h0c-0.5-3-0.3-6.2,0.7-9.1c-1.2-0.1-2.3-0.4-3.4-0.9c0,0,0,0,0,0
		C172.6,195.1,172.3,198.2,172.8,201.2z"/>
	<path class="st2" d="M177.4,191.9C177.4,191.9,177.4,191.9,177.4,191.9c0.1-0.4,0.3-0.8,0.4-1.2c0,0,0,0,0,0c-1-0.1-2-0.4-3-0.8
		c-0.1,0.2-0.2,0.3-0.3,0.5c-0.1,0.2-0.3,0.5-0.4,0.7C175.1,191.5,176.2,191.8,177.4,191.9z"/>
	<path class="st2" d="M179.2,186.9l0.2-0.5l0,0c0,0,0,0,0,0c-0.5,0.1-0.9,0.3-1.3,0.5c0,0,0,0,0,0c0,0,0,0,0.1,0
		C178.5,186.9,178.8,186.9,179.2,186.9L179.2,186.9z"/>
	<path class="st2" d="M178.1,189.5c0.2-0.5,0.4-1,0.5-1.4h0c-0.7,0-1.4-0.2-2-0.4c-0.4,0.3-0.8,0.7-1.1,1.1c0,0,0,0,0,0c0,0,0,0,0,0
		C176.4,189.2,177.2,189.4,178.1,189.5z"/>
	<path class="st2" d="M184.6,217.7l-0.5-3.1h0v0c-0.4,0.1-0.7,0.1-1.1,0.1c-0.3,0-0.5,0-0.8,0c0.3,1.2,0.6,2.5,0.7,3.1L184.6,217.7z
		"/>
	<path class="st2" d="M180,257.7l0.2,1.5l0.6,4.5l3.5-0.2l0,0l-2.4-3.3v-40.6c-2.9,0.4-5.5,0.7-6.7,0.8l0.2,1.2L180,257.7z"/>
	<path class="st2" d="M167.7,246.7L167.7,246.7l4-5.5l0,0l0,0l-1.6-1.9c-1.9,2.7-3.3,5.3-3.9,6.3L167.7,246.7z"/>
	<path class="st2" d="M175.3,231.4l-0.3-2.6l0,0c-2.3,2.2-10.2,10.3-11.2,15.1c0,0,0,0,0,0l1.4,1c0.1-0.3,0.3-0.6,0.6-1
		c1-1.8,2.8-4.7,4.9-7.4C172.1,234.5,173.7,232.6,175.3,231.4z"/>
	<polygon class="st2" points="177.4,258 177.4,258 177.4,259.3 177.4,260 177.4,260 179,259.4 179,259.6 178.8,258.1 	"/>
	<polygon class="st2" points="200.7,230.1 196.7,226.2 196.8,227.7 196.8,227.7 208.8,239.6 208.6,238 208.6,237.9 208.6,237.9 	"/>
	<polygon class="st2" points="214.6,229.6 214.5,229.9 209.8,237.5 210,239.1 214.6,229.6 	"/>
	<polygon class="st2" points="184.1,315.9 184.7,264.7 180.8,265 181.9,282 184.1,315.9 	"/>
	<polygon class="st2" points="191.7,264.2 189.1,264.4 190.5,279.2 193.8,312.5 192,272.9 	"/>
	<path class="st2" d="M184,338.8l-12.6-5.3c-0.7,0.5-1.1,0.9-1.1,0.9l13.6,5.5l4.5-12.7l-1-0.3l0,0L184,338.8z"/>
	<path class="st2" d="M183,325.8C183,325.8,183,325.8,183,325.8C183,325.8,182.9,325.8,183,325.8c-0.1,0-0.2,0-0.3,0h0l-2.3,1.3
		c0,0,0,0,0,0c-1.7,1.1-3.9,2.7-5.9,4.1c-0.7,0.5-1.3,1-1.9,1.4l6.2,2.6l4.4,1.9l3-10.6l-1.1-0.3L183,325.8z"/>
	<polygon class="st2" points="195.9,325.8 194.7,326.5 196.1,338.1 205,332.7 202.7,329.8 202.6,329.8 202.6,329.8 199.2,326.5 
		199.1,326.5 199.1,326.5 	"/>
	<polygon class="st2" points="205.8,333.6 195.8,339.8 195.9,340.9 206.4,334.4 	"/>
	<path d="M231,213.7L231,214c3.8-1.7,6.9-7.1,7.2-13.7c0.4-8.1-3.4-14.9-8.5-15.2c-2.8,0-5.5,1.6-6.9,4.1c-2,3-3,6.5-3.2,10.2
		c-0.3,6.1,1.8,11.5,5,13.9v3.6c1.8,0.1,3.8,0.3,5.8,0.5l0.5-3.3L231,213.7l-1.2-0.2l0,0L231,213.7z M220.9,199.4L220.9,199.4
		c0-1.3,0.2-2.5,0.5-3.8c0.5-2,1.3-4,2.5-5.8c1.1-2,3.2-3.4,5.6-3.6h0.3h0c3.3,0.2,6,3.7,7,8.6c0.1,0.4,0.1,0.8,0.2,1.2c0,0,0,0,0,0
		c0,0.2,0.1,0.5,0.1,0.7c0,0.2,0,0.4,0.1,0.6c0,0,0,0,0,0c0.1,0.9,0.1,1.8,0,2.7c-0.4,7.5-4.3,13.3-8.8,13.1
		C223.8,213.1,220.5,206.9,220.9,199.4z M229.6,214.8l-0.3,2l0,0h-3.4v0V214v-1.1h0v1.1v0c0.6,0.3,1.3,0.5,2,0.6c0.1,0,0.2,0,0.2,0
		c0.1,0,0.2,0,0.3,0c0.4,0,0.8,0,1.2-0.1l0,0L229.6,214.8z"/>
	<polygon points="197.8,263.3 197.8,263.3 197.8,263.3 	"/>
	<path d="M178.5,255.8l0.1,1l0,0l-9.2-0.6l2.1,7l7.5-2.6l0.2-0.1l0,0l-0.2,0.1l0.5,3.8l0.8-0.1l-0.8,0.1h-0.1l3.8,59.6l0.1,0l-0.1,0
		l-14.6,8.4l2.7,1.1l12.6,5.3l3.4-11.9l0,0l0.7-2.4l-0.9-0.1l-3.7-0.5l0,0l3.7,0.5l1.6-50.5l4.8,50.1h-0.5v0l2,16.2l0.6-0.4l10-6.2
		l1.6-1l-9.2-8.6h-0.4v-60.7h0l0,0v0h-1.2v60.1h0h-1.7l-1-10.8l0-0.1l-3.2-33.3l-1.4-14.8v0l2.6-0.2l0,0l4.9-0.3v0v-0.6h1.2
		l-0.9-33.8l-1.2-1.2l0,0l1.2,1.2l12.9,12.8l3.1-6.2c-0.6,4.1-1,7.1-1.1,7.2l0,0.1l2.2,16h-0.1l-0.7,8.4l2.8,5.6h1.9V272l-0.8,0
		l-0.3,0l-2.4-4.6l0.6-7.2l0,0l0,0l2.9-1v-0.7h0.2l0.1-17.6v-0.1v0h0h0l-0.8-14.1l0-0.1l-1.2,0.1l0,0l1.2-0.1v0.1l0.8-1.7l8.8,0.3
		l-0.2-2.4l-0.3-2.9l-9.7-0.6c0,0,0,0,0,0c0,0.3,0,0.7,0.1,1l0,0c0-0.4,0-0.7-0.1-1c0-0.6-0.1-1.1-0.1-1.5c0,0,0,0,0,0
		c3,0,15.5,0.1,21.6,2.5l-4.2,38.8l-8.5-0.6l-6.6-0.5l0,0l-0.9-17.2l0,0l-0.1,17.6h1v0.8l1.5,0.1l5.2,0.4l0,0l0-0.3l0,0l0,0.3
		l0.6,4.7l0.8,6.2l6.8,52.2l5-1.1l-3.7-61.9v0l1.9-17.7l-0.9-2.6l1.1-0.4l0,0l-1.1,0.4l0.9,2.6l1.2,3.3l0.8,15l0,0l-1.5,6.8l3.5,8.9
		l5-4.1l-1.7-11l0,0l1.1-16.8l-5.9-24.3l0-0.1l0,0l0,0.1l0-0.3l-0.4-0.2c-2.9-1.1-5.8-1.8-8.9-2.1c-2-0.2-3.9-0.4-5.8-0.5
		c-4.5-0.3-8.1-0.2-8.4-0.2h-0.6l0,0.3l0,0c-0.1,0.5-0.3,2.2-0.7,4.5c0,0,0,0,0,0l-6.3,10.3l-12.1-14.8l-0.1-0.2l-0.9,0.8l0,0
		l0.9-0.8l0.1,0.2v-0.5l-0.7,0.1c-2.6,0.3-5.6,0.8-8.6,1.1l0,0v-4.4H186v0.7v3.6l-1.4,0.1l0,0l-1.7,0.1c-0.2-0.7-0.4-1.9-0.7-3.1
		c0,0,0,0,0,0c0.3,0,0.5,0,0.8,0c0.4,0,0.7,0,1.1-0.1h0c0.4-0.1,0.7-0.1,1.1-0.2c0.3-0.1,0.6-0.2,0.9-0.3v-0.7h1.2
		c1.5-1.1,2.7-2.5,3.4-4.2c1.5-3.4,2-7.1,1.4-10.8c-1.1-7.6-6.1-13.3-11.3-13.3h-0.1c-0.3,0-0.7,0-1,0.1c-1.1,0.2-2.2,0.6-3.1,1.3
		c0.5,0.2,1,0.4,1.6,0.5c0.4-0.2,0.9-0.4,1.3-0.5c0,0,0,0,0,0c0.1,0,0.3-0.1,0.4-0.1c0.5-0.1,1.1-0.1,1.6,0c0,0,0,0,0,0
		c-0.7,0.4-1.5,0.6-2.3,0.6c-0.4,0-0.7,0-1.1-0.1c0,0,0,0-0.1,0c0,0,0,0,0,0c-0.5-0.1-1.1-0.2-1.6-0.5l-0.2-0.1l-0.2,0.4l-0.3,0.6
		l0.3-0.6c-2.7,2.4-4.4,5.9-4.6,9.5c-0.2,1.7-0.1,3.5,0.1,5.2c0.5,3.7,2,7.1,4.5,9.9c1.3,1.4,2.9,2.5,4.7,3.1c0,0,0,0,0,0
		c0.4,1.7,0.8,3.6,0.9,4.1c-3.9,0.5-7,0.9-7.3,0.9h-0.7l0.1,0.4l0,0c-1.5,1.8-11.9,14.7-13.5,22.7l-0.1,0.4L178.5,255.8L178.5,255.8
		z M186.3,326.6L186.3,326.6l-3,10.6l0,0l-4.4-1.9l-6.2-2.6l0,0l0,0l-1.1-0.5l0,0l8.9-5.1l2.3-1.3l0,0l1.1-0.6l2.8,0.4L186.3,326.6z
		 M199.1,326.5L199.1,326.5l3.5,3.3l0,0l2.8,2.6l0,0l-0.4,0.3l0,0l-8.9,5.5l-1.5-11.7l0,0l-0.2-1.3l0,0l3.2,0L199.1,326.5z
		 M237.9,321.8l-2.6,0.5v0l-8.2-62.5l7.1,0.5l0,0l0-0.7l0,0l0,0.6L237.9,321.8z M239.2,245.9l0.5-0.1l4.7-1.2l0,0l-1,15.8l-2.9-0.8
		l0,0l-0.7-13.8l0,0L239.2,245.9L239.2,245.9z M240.5,270.6l-1.4-3.5l1.3-6l3.1,0.8l1.5,9.7l-3.1,2.6l0,0L240.5,270.6z M245.1,244.3
		L245.1,244.3l-0.3-1.2l-0.6,0.1l-4.7,1.2l-1.8-5.2l0,0l1.7-15.9l4.9,19.9l0,0l0.6-0.1L245.1,244.3z M238.5,220l0.6,2.3L238.5,220
		L238.5,220z M179,259.6L179,259.6l-0.1-0.2l-1.6,0.5l0,0l-0.7,0.3l-4.3,1.5l0,0l-1.3-4.1l6.3,0.4l1.4,0.1l0.1-1.2l0,0l-0.1,1.2
		L179,259.6l0.3,1L179,259.6z M177.2,246.1l-6.4-8l0,0c1.3-2,2.9-3.8,4.7-5.4c0.2-0.2,0.4-0.3,0.6-0.5l-0.7-1l0,0l0.7,1
		c-0.2,0.2-0.4,0.3-0.6,0.5L177.2,246.1l1.4,1.7l-0.9,0.8l0,0l0.9-0.8L177.2,246.1z M187.9,264.4v0.1l-1.9,58.6l0,0.3h-1.5l-0.2-3.7
		l-0.2-3.7l-2.2-33.9l-1.1-17.1l0,0l0-0.6l0,0l0,0.6l3.8-0.3l3.2-0.2L187.9,264.4l1.2-0.1v0L187.9,264.4z M196.5,227.5L196.5,227.5
		L196.5,227.5L196.5,227.5z M214.6,232.4l-1.2-0.2c0,0,0,0,0,0L214.6,232.4L214.6,232.4z M217,240.7L217,240.7l0,0.2l-0.1,17.4
		l-1.7,0.6l0,0l-2.2-15.5c0.1-0.7,0.8-5.5,1.6-10.9v0l1.8-3.6l0,0l0.7,12.1V240.7z M216.1,221.9L216.1,221.9c0.1-0.5,0.1-1,0.2-1.5
		c0.3-2.1,0.5-3.4,0.5-3.4l0,0c0,0-0.2,1.3-0.5,3.4l0,0C216.3,220.8,216.2,221.3,216.1,221.9L216.1,221.9l0.8-1.3l2.9,0.2l5.8,0.3
		l0.3,2.9l0,0l-8.2-0.3l0,0l-2.9,6l-4.7,9.5l0.2,2.1l0,0l-0.2-2.1l-0.2-1.7l-0.4-4.1l0-0.5l0,0l0,0L216.1,221.9l-1.2-0.2
		c0,0,0,0,0,0L216.1,221.9z M208.2,232.8l-0.1,0l0,0.2l0.5,5l0,0l0.2,1.7l-12-11.9l0,0l0-1.5l0,0l0,0l-0.1-5l-0.1-2.3l0,0l2.3,2.8
		l9.2,11.2l0-0.2L208.2,232.8z M180.7,213.6l1.2-0.2c0,0,0,0,0,0L180.7,213.6C180.7,213.7,180.7,213.7,180.7,213.6z M188,189.6
		c-0.1,0-0.1,0.1-0.2,0.1C187.9,189.6,187.9,189.6,188,189.6L188,189.6z M175.7,187.3c0.1,0,0.1,0,0.2,0.1
		C175.8,187.4,175.8,187.4,175.7,187.3L175.7,187.3z M175.5,188.8C175.5,188.8,175.5,188.8,175.5,188.8c0.4-0.4,0.7-0.8,1.1-1.1
		c0.7,0.2,1.3,0.3,2,0.4h0c0.1,0,0.2,0,0.3,0c1.5,0,2.9-0.5,4.1-1.4c0,0,0,0,0,0c0.1-0.1,0.2-0.1,0.2-0.2l-0.8-0.9c0,0,0,0,0,0
		l0.8,0.9c-0.1,0.1-0.2,0.1-0.2,0.2c0,0,0,0,0,0c0.5,0.2,1,0.5,1.5,0.8c0,0,0,0,0,0c-1.8,1.5-4.1,2.3-6.4,2.1v0
		C177.2,189.4,176.4,189.2,175.5,188.8c-0.3-0.1-0.5-0.2-0.8-0.4l0,0C175,188.6,175.3,188.7,175.5,188.8z M173.2,191.2l0.4-0.5
		c0.2,0.1,0.4,0.2,0.6,0.3c0.1-0.2,0.3-0.5,0.4-0.7c0.1-0.2,0.2-0.3,0.3-0.5c0,0,0,0,0,0c0.9,0.4,1.9,0.7,3,0.8c0,0,0,0,0,0
		c0.4,0.1,0.8,0.1,1.2,0.1c2.4,0,4.8-0.9,6.6-2.5c0,0,0,0,0,0c0.1-0.1,0.3-0.2,0.4-0.3l-0.4-0.5l0.5,0.5l-0.4,0.3l0,0
		c0.6,0.5,1.2,1.1,1.6,1.7c0,0,0,0,0,0c-3.1,1.5-6.5,2.1-9.9,2l0,0c0,0,0,0,0,0c-1.1-0.1-2.2-0.4-3.3-0.8c0,0,0,0,0,0
		c-0.2-0.1-0.4-0.2-0.6-0.3L173.2,191.2l-0.4,0.5c0,0,0,0,0,0L173.2,191.2z M177,210.4c-2.3-2.6-3.7-5.8-4.2-9.3
		c-0.5-3-0.2-6.1,0.8-9l0,0c0,0,0,0,0,0c1.1,0.5,2.2,0.8,3.4,0.9c0,0,0,0,0,0c0,0,0,0,0,0c0.5,0.1,1,0.1,1.5,0.1
		c3.3-0.1,6.5-0.9,9.4-2.3c0,0,0,0,0,0c0.2-0.1,0.3-0.1,0.5-0.2l-0.4-0.8l0.4,0.8c-0.2,0.1-0.3,0.1-0.5,0.2c1.5,2.3,2.5,4.9,2.8,7.6
		c0.6,3.4,0.1,6.9-1.3,10.1c-1,2.5-3.1,4.3-5.7,4.8c-0.4,0.1-0.8,0.1-1.1,0c0,0,0,0,0,0c-0.7-0.1-1.3-0.2-1.9-0.4
		C179.3,212.5,178,211.6,177,210.4z M175.1,220.4c1.2-0.1,3.8-0.4,6.7-0.8c5.1-0.6,11.2-1.5,13.5-1.8c0,0,0,0,0,0l1.2,44.9
		l-12.3,0.8l-3.5,0.2l0,0l-0.6-4.5l-0.2-1.5l-4.7-36.1L175.1,220.4C175.1,220.4,175.1,220.4,175.1,220.4z M161.6,242.3
		c1.6-6.9,9.7-17.5,12.4-20.9c0.5-0.7,0.9-1.1,0.9-1.1l-0.9-0.8l0,0l0.9,0.8c0,0-0.3,0.4-0.9,1.1l1,7.4l0.3,2.6l0,0
		c-1.6,1.2-3.2,3.1-4.7,5.1c-2.1,2.7-3.8,5.7-4.9,7.4c-0.2,0.4-0.4,0.7-0.5,1c0,0,0,0,0,0l-1.4-1L161.6,242.3z M167.7,246.7
		l-1.6-1.1c-0.2,0.3-0.3,0.5-0.3,0.5l-1.1-0.6c0,0,0,0,0,0l1.1,0.6c0,0,0.1-0.2,0.3-0.5c0.6-1,2.1-3.6,3.9-6.3l-0.2-0.3l0.9-0.8l0,0
		l-0.9,0.8l0.2,0.3l0,0l1.6,1.9l0,0l5.9,7.3l0,0l0.5,4l0.2,1.7l0,0l1.1,0.8l-0.7,1l0,0l0.7-1l-1.1-0.8L167.7,246.7z"/>
	<path d="M248.2,233.8c-1.3,2.9-2.4,5.1-2.4,5.1l-0.2,0.4l0.3,0.3c2.3,2.1,5.2,3.5,8.3,3.9c0-0.2,0-0.4,0-0.5c0,0.2,0,0.4,0,0.5
		c-0.3,9.5-0.6,18.2-0.6,18.3l0,0.6l1.1,0l0-0.6l0,0l0,0.6c0.1,4.4,0.9,32.2,1.7,59.7v0.3l0.7-0.5l4.1,0.3l4.1-57.6l-0.2-2.3l0.2,0
		l0,0l-0.2,0l0.2,2.3l5,57.3h-0.6l10.2,13.9l9.3-7l-13.7-6.9h-0.1l0-59.6v0h0v0c0-0.2,0.4-10,0.7-20c0,0,0,0,0,0l7.4,1.6l-0.1-0.8
		c-0.9-7.7-3.2-15.3-6.6-22.2c0,0,0,0,0,0c0-0.3,0-0.4,0-0.4l0-0.5l-0.5-0.1c-2.3-0.5-4.7-0.8-7-1l0.8-4.9l0.1-0.3l0,0l0,0.3
		c1.4-0.9,2.5-2.1,3.3-3.6c1.7-3.2,2.6-6.7,2.4-10.3c0-3.6-1-7.2-2.8-10.3c-1.3-2.5-3.9-4.2-6.7-4.3c-5.1,0.1-9.1,6.8-9,14.9
		c0.1,6.2,2.6,11.4,6.1,13.5v4.6c0,0,0,0,0,0c-4.3-0.2-7.5-0.1-7.6-0.1l-0.6,0l0,0.5l0,0c-0.4,1-3.3,7.2-5.7,12.4l0,0L247,231
		L248.2,233.8l0.7,1.5l1.8,4l0,0l6.2-1l0,0l11.8,2.6c0,0,0,0,0,0c-13.3,4.3-20-0.6-21.5-1.8c0.3-0.6,0.9-2,1.7-3.8c0,0,0,0,0,0
		L248.2,233.8z M254.2,242.5C254.2,242.5,254.2,242.5,254.2,242.5l0.8,0L254.2,242.5z M257.5,321.6L257.5,321.6
		c-0.8-27.2-1.5-54.5-1.7-59.1c0,0,0,0,0,0c0,0,0-0.1,0-0.1c0,0,0,0.1,0,0.1l8.3,0.3l0,0l0,0l-4.2,58.8H257.5z M264.1,262.5
		L264.1,262.5l0.9,0.1L264.1,262.5z M266.2,262.9l0-0.4l0,0L266.2,262.9L266.2,262.9l7.8,0.3v58.5v0h-2.7L266.2,262.9z M286.7,329.2
		l-6.7,5.1l0,0l-8-11h3.1h0L286.7,329.2z M274.8,242.3h-0.1c-0.3,8.7-0.6,17.3-0.6,19.6l-19.2-0.6c0-0.9,0.1-2.7,0.2-5.1
		c0.1-3,0.2-6.8,0.4-10.9c0-0.5,0-1,0-1.5l0-1.2l0,0c0,0.4,0,0.8,0,1.2c1,0.1,2,0.2,2.9,0.2c0,0,0,0,0,0c4.3-0.1,8.5-0.9,12.5-2.5
		l0,0L274.8,242.3L274.8,242.3l1.1,0c0,0,0,0,0,0L274.8,242.3z M268.5,214.8L268.5,214.8l-0.6,3.9l-3.5,0l0,0v-3.9
		c0.7,0.3,1.4,0.4,2.2,0.4h0.1C267.3,215.1,267.9,215,268.5,214.8l0.2-1.1l0,0L268.5,214.8z M271.8,190.6c1.7,2.9,2.6,6.2,2.6,9.6
		c0.1,3.4-0.6,6.7-2.3,9.7c-0.6,1.4-1.7,2.5-3,3.2c-0.8,0.4-1.6,0.7-2.5,0.8h-0.1c-4.4,0-8.1-6-8.2-13.4h0
		c-0.1-7.5,3.4-13.6,7.8-13.7h0.1c0.2,0,0.5,0.1,0.7,0.1C269,187.4,270.8,188.7,271.8,190.6z M251.3,238L251.3,238l-2.3-5.2l0,0
		l7.6,1.6l21.3,1.1l0-0.3l0-0.9h0l-1.1-0.1l-0.7,0h0l-1.2-0.1l-6.3-0.3l-0.9,0.9l-0.9-0.9l0,0l0.9,0.8l0.9-0.9l0,0l3-3.1l0,0
		l2.2,0.7l1.1,0.4l0,0c0,0.8-0.1,1.6-0.1,2.4l1.2,0.1l0,0c0.2-4.1,0.3-7.7,0.4-10.2c0,0,0,0,0,0c-0.5-1.1-0.9-2-1.1-2.5
		c0,1.4-0.1,4.8-0.3,9l0.7,0.2l-0.7-0.2l-3.7-1.2l-4.3,4.4l0,0l0,0l0,0l-10.2-0.5l-1-0.2l0,0l-1.2-0.3l0,0l-4.2-0.9l0,0
		c1.6-3.4,3.3-7.3,4.5-9.7h0l1.2-2.6l-0.1-0.1l0.1,0.1L255,222c0,0,0,0,0,0c-0.1,2.7-0.2,6.9-0.3,10.6l0,0l1.2,0.3l0,0
		c0.2-7.3,0.3-11.5,0.3-13.1c0,0,0,0,0,0c0,0,0,0,0,0c6.4-0.1,12.8,0.4,19.1,1.4c0,0,0,0,0,0c-0.1-0.2-0.2-0.3-0.2-0.3l0,0l0,0
		l0.2,0.3l0.1,0.3c0.3,0.5,0.7,1.4,1.1,2.5c2.7,5.9,4.6,12.3,5.4,18.8l0,0l-25-5.5l-0.1,0l0,0L251.3,238z"/>
	<polygon points="219.2,259.3 219.2,258.5 217.9,258.5 217.9,321 218.3,320.7 224,320.7 227.3,270.6 226.5,264.4 222.8,320.1 
		222.8,320.1 219.2,320.1 	"/>
	<path d="M220.3,333.9l4.5-13.2h-6.4l-0.4,0.3l-9.5,8.7L220.3,333.9z M218.8,321.9l3.2,0l1.1,0h0l-3.5,10.4l-1.7-0.6l-7-2.5l0,0
		L218.8,321.9z"/>
	<path d="M236.6,336.8l12.3-5.3l-9.3-9.9l-0.5,0.1l-5,1L233,323L236.6,336.8z M234.5,323.9l3.1-0.7l1.7-0.4l0,0l7.7,8.1l-3.8,1.6
		l-5.7,2.4L234.5,323.9L234.5,323.9z"/>
	<path d="M262.2,322.6l-1.1-0.1l-4.1-0.4l-0.7,0.5l-8.9,6.6l11,6.1L262.2,322.6z M257.3,323.3l3.3,0.3l0,0l-3,9.8l-8-4.4l0,0
		L257.3,323.3z"/>
	<path d="M287.2,326.6l9.7,5.8l9.8-11.1h-1.2l0.4-48.6l9.5,53.8l4.5,0.3c-1.2-30.7-5.4-62.3-5.7-64.3l0,0v0c0.3-1.6,0.5-3.3,0.6-4.9
		l0,0c1.5,0.7,3,1.2,4.5,1.5c0.1,0,0.2,0,0.3-0.1l0,0c0.5-0.3,4.7-2.7,7.5-4.2l0.7-0.4l-4.7-5l-7.4,2.3l0,0l11.8-17.3l-0.2-0.3
		c-3.9-6.9-14.2-15.9-15.4-16.9l-0.1-0.1l-0.8,0.9c0,0,0,0,0,0l0.8-0.9l0.1,0.1l0-0.3l-5.9,0.7l-0.1-2.5l0,0
		c1.4-0.9,2.6-2.1,3.4-3.6c1.5-3,2.2-6.3,1.9-9.7c-0.2-3.3-1.3-6.6-3.2-9.3c-1.9-3.4-6.2-4.6-9.7-2.7c-1.4,0.8-2.6,2.1-3.2,3.6
		c-1.5,3-2.2,6.3-1.9,9.7c0,4.8,2.4,9.3,6.3,12.1l-0.1-0.2l1.2-0.3l0,0l-1.2,0.3l0.1,0.2l0.8,3.2l0,0l-6.1,0.7l0.2,0.7
		c0,0,0,0.1,0,0.1l0,0c-2.6,3.6-4.4,7.6-5.5,11.9c-2.8,11.2-2.5,23,1,34.1l1.1-0.6l0,0c-2-6.7-2.9-13.6-2.7-20.6c0-1,0.1-2,0.1-3
		l0,0l4.6,2.3l0,0l0,0c-0.8,6.7-0.7,13.4,0.2,20.1l0.9-0.5l0,0l-0.9,0.5l-2.2,1.2l-1.1,0.6l-0.3,0.2l0.5,9l3.9,5.9h1.9l0,0l3.8,41
		c-1.3,0.5-4.3,1.6-11.7,4.6L287.2,326.6z M296.5,270.4l0-0.2l-0.1-1.2l-0.5-5.2l8.4-0.3l0-0.1l0,0l0,0.1l0.4,2.5v0.1v0l-0.5,54.6
		h-3.1h0l-3.2-33.9l-0.6-6.2h0L296.5,270.4z M294.7,263.3C294.7,263.3,294.7,263.3,294.7,263.3l1.2-0.1v0L294.7,263.3z M306,266
		l0,1.5L306,266L306,266L306,266l-1.2,0v0L306,266L306,266L306,266z M318.7,326.5L318.7,326.5h-2l-11.1-63.1l0,0l7.5-0.3
		c0-0.3-0.1-0.5-0.1-0.5l1.2-0.2l0,0l-1.2,0.2l0.1,0.5C313.7,267.5,317.6,297.4,318.7,326.5z M313.9,230.4l-1.1-1.1l0,0L313.9,230.4
		l3.6,3.6l0.1-0.1l0,0l-0.1,0.1l-2.9,4.8l-1,1.6l0,0l1-1.6C314.5,235.9,314.2,233,313.9,230.4z M314.4,252L314.4,252l0.1,0.3
		l0.3,0.8l0,0l-0.3-0.8l0,0L314.4,252z M319.1,258L319.1,258C319.1,258,319.1,258,319.1,258L319.1,258z M326.1,254
		c-4.7,2.6-6.3,3.5-6.8,3.8c0,0,0,0,0,0c-0.6-0.2-2.5-0.9-4.3-1.5l0,0l-0.1-0.1l-0.4,1.1l0,0l0.4-1.1l0.1,0.1
		c0.1-1.1,0.1-2.1,0.1-3.2l0,0l0,0l7.8-2.4l0,0L326.1,254z M323.2,239.6l-0.4-0.3l-7.7,11.3l-1,1.5l0,0l1-1.5c0,0,0,0,0,0
		c0-3.1-0.1-6.4-0.3-9.6l0,0l3.6-6.1l1.2,1.2l3.2,3.2L323.2,239.6l0.8-0.9l0,0L323.2,239.6z M326.3,234.2L326.3,234.2l-2.8,4l0,0
		l-9.8-9.7c-0.5-4.2-1-7.7-1.2-9.6c0,0,0,0,0,0C317.7,223.4,322.4,228.5,326.3,234.2z M305,215.4l0.1,2.1l0,0l-3.4,0.2l-0.5-2.2l0,0
		c0.6,0.2,1.2,0.3,1.8,0.3c0.1,0,0.3,0,0.4,0C303.9,215.7,304.4,215.6,305,215.4l-0.1-0.9l1.2-0.1l0,0l-1.2,0.1L305,215.4z
		 M294.8,204c-0.1-0.4-0.1-0.8-0.1-1.2l0,0l0,0c-0.1-1.6-0.1-3.1,0.2-4.6c0.3-1.5,0.8-3,1.5-4.4c0.9-2.1,2.9-3.6,5.1-3.9
		c0.1,0,0.2,0,0.3,0c2.2,0.1,4.1,1.3,5.3,3.1c1.8,2.6,2.8,5.6,3,8.7c0,0.1,0,0.1,0,0.2c0.2,3-0.4,6.1-1.7,8.8
		c-0.9,2.1-2.9,3.6-5.1,3.9C299.3,214.8,295.6,210.2,294.8,204z M296.1,219.8l9.9-1.1l0.2,0l0.1,0l0.1,0v0l4.8-0.5
		c0.6,4.2,4.4,29.9,2,43.9c0,0,0,0,0,0l-17.2,0.7C296.6,257.9,299.6,231.7,296.1,219.8L296.1,219.8z M297.5,236.3L297.5,236.3
		c-0.4,0.4-0.7,0.8-1,1.3h0C296.8,237.2,297.1,236.7,297.5,236.3z M295.1,221.1c0.3-0.5,0.6-0.8,0.6-0.8l-0.9-0.8l0,0l0.9,0.8
		C295.7,220.3,295.5,220.6,295.1,221.1C295.2,221.1,295.2,221.1,295.1,221.1c0.8,3.6,1.2,7.2,1.3,10.9c0,0.8,0,1.6,0,2.5
		c0,0.4,0,0.8,0,1.2c0,0,0,0,0,0c0,0,0,0,0,0c-0.6,0.7-1.1,1.5-1.5,2.4c-0.7,1.4-1.2,2.9-1.4,4.4c0,0,0,0,0,0l0.4,0.2l-0.4-0.2
		l-4.7-2.4C289.4,233.3,291.6,226.8,295.1,221.1z M288.5,239.8L288.5,239.8L288.5,239.8L288.5,239.8z M287.9,240.9l0.5-1.1
		L287.9,240.9l0.8,0.4L287.9,240.9z M293.7,243.9L293.7,243.9l0.6-1.1l0,0L293.7,243.9L293.7,243.9z M296.5,237.7
		c-0.2,8.5-0.8,17.1-1.8,25.6l0,0.1C294.2,259.2,292.7,244,296.5,237.7z M294.2,265.1l0.8,1.1l0.4,4l0,0.2l0.1,1.5l0.7,7.5h0l-1.2,0
		l-3.4-5.1l-0.4-7.7L294.2,265.1l-0.2-0.2l0,0L294.2,265.1z M301.1,322.4l2.9,0l0,0l-7.4,8.4l-6.7-4l0,0
		C294.5,325,300.4,322.7,301.1,322.4z"/>
	<path d="M319.9,326.8l-4.5-0.3l-0.5,0l6.5,11.6l11.6-4.7l-12.4-6.5L319.9,326.8z M326.4,334.8l-4.5,1.8l0,0l-4.9-8.7l0,0l3.2,0.2
		l9.9,5.2l0,0L326.4,334.8z"/>
</g>
</svg>
