<?xml version="1.0" encoding="utf-8"?>
<!-- Generator: Adobe Illustrator 27.8.1, SVG Export Plug-In . SVG Version: 6.00 Build 0)  -->
<svg version="1.1" id="Layer_1" xmlns="http://www.w3.org/2000/svg" xmlns:xlink="http://www.w3.org/1999/xlink" x="0px" y="0px"
	 viewBox="0 0 500 500" style="enable-background:new 0 0 500 500;" xml:space="preserve">
<style type="text/css">
	.st0{fill:#FFFFFF;}
	.st1{clip-path:url(#SVGID_00000082353278580609934850000014450831830734247065_);}
	.st2{fill:#27AAE1;}
</style>
<path id="Path_1803" class="st0" d="M260.8,279.7h1l0.2-30.2h-3L260.8,279.7z"/>
<path id="Path_1804" class="st0" d="M253.9,279.7h1.2l3-30.2h-2.7L253.9,279.7z"/>
<path id="Path_1805" class="st0" d="M252.6,249.2l1.3-9.3l-0.8-7l-1.2,16.1L252.6,249.2z"/>
<g id="Group_188">
	<g>
		<defs>
			<rect id="SVGID_1_" x="232.5" y="215.4" width="35" height="69.2"/>
		</defs>
		<clipPath id="SVGID_00000006690493677501573680000011593705983376550025_">
			<use xlink:href="#SVGID_1_"  style="overflow:visible;"/>
		</clipPath>
		<g id="Group_187" style="clip-path:url(#SVGID_00000006690493677501573680000011593705983376550025_);">
			<path id="Path_1806" class="st0" d="M255.7,229L255.7,229c-3.7,0-7.9,0-8.9,0l-0.1,2.3l6.2-0.6l0-0.2l0-0.2l0.3,0
				c0,0,1.6-0.1,3.5-0.1v-0.4C256.2,229.5,255.9,229.2,255.7,229"/>
			<path id="Path_1807" class="st0" d="M234.3,254.6l0.2-4l1.1,1.2l0.5-0.3l-0.9-1.5H234l-1,3.4L234.3,254.6z"/>
			<path id="Path_1808" class="st0" d="M233.2,238.1l0.8,11.5h0.8l-0.2-11L233.2,238.1z"/>
			<path id="Path_1809" class="st0" d="M234.7,238.1l2-5.1l-0.2-3.3l-3.3,7.8L234.7,238.1z"/>
			<path id="Path_1810" class="st0" d="M257.6,229.9c-0.2,0-0.4,0-0.6-0.1v0.2l1.8-0.1c0-0.1,0-0.3,0-0.4
				C258.4,229.8,258,229.9,257.6,229.9"/>
			<path id="Path_1811" class="st0" d="M263.1,283.3l3.1-0.8l-4.2-2.2h-1L263.1,283.3z"/>
			<path id="Path_1812" class="st0" d="M263.8,252.8l0.8-1.2l0.5,0.7l-0.2,2.4l1-0.4l-0.5-3.6l-1-0.1l-1,2L263.8,252.8z"/>
			<path id="Path_1813" class="st0" d="M239.9,218.5c-1.2,2.9-0.6,6.3,1.6,8.6c0.1,0,0.2,0,0.2,0c1.9,0,3.4-2.5,3.4-5.6
				c0-1.1-0.2-2.3-0.7-3.3c-1,0.3-2,0.5-3,0.5C241,218.6,240.5,218.6,239.9,218.5"/>
			<path id="Path_1814" class="st0" d="M265.7,239.2l-3.1-7.8v5.3l1.3,2.8L265.7,239.2z"/>
			<path id="Path_1815" class="st0" d="M244.3,217.7c-0.1-0.2-0.2-0.3-0.3-0.4c-0.8,0.2-1.7,0.3-2.5,0.3c-0.4,0-0.8,0-1.2-0.1
				c-0.1,0.2-0.2,0.4-0.2,0.5C241.5,218.3,243,218.2,244.3,217.7"/>
			<path id="Path_1816" class="st0" d="M244.6,280.4l0.6-32h-2.4l1.6,32H244.6z"/>
			<path id="Path_1817" class="st0" d="M241.8,227.5c-0.3,0-0.6,0-0.8-0.1v1h1.8v-1.1C242.4,227.5,242.1,227.5,241.8,227.5"/>
			<path id="Path_1818" class="st0" d="M264.4,250.1l1,0.1l0.4-10.6l-1.8,0.3L264.4,250.1z"/>
			<path id="Path_1819" class="st0" d="M259.7,232.8l-0.2-2.4c-2.3,0.1-5.3,0.2-6.2,0.2l2,18.4h6.7v-17l-0.1,0.5L259.7,232.8z"/>
			<path id="Path_1820" class="st0" d="M259.9,229.5l0.3,2.8l0.2,0l-0.1-1.5l0.5,0l0.1,1.5l0.2,0l-0.1-1.5l0.5,0l0.1,1.5h0l0.3-2
				l-0.3-1.1c-0.3,0-1.1,0-2.1,0c-0.1,0.1-0.2,0.2-0.3,0.3c0,0.2,0,0.5,0.1,0.7l0.2,0l0-0.4L259.9,229.5z"/>
			<path id="Path_1821" class="st0" d="M241.3,215.9c0,0.1-0.1,0.1-0.1,0.2c0.5,0,1,0,1.6,0c-0.3-0.1-0.6-0.2-0.9-0.2
				C241.6,215.9,241.4,215.9,241.3,215.9"/>
			<path id="Path_1822" class="st0" d="M243.3,216.5c-0.6,0.1-1.2,0.1-1.8,0.1c-0.2,0-0.5,0-0.7,0c-0.1,0.1-0.2,0.3-0.3,0.4
				c1,0.1,2.1,0,3.1-0.2C243.6,216.8,243.5,216.6,243.3,216.5"/>
			<path id="Path_1823" class="st0" d="M251.1,253.5l1-2.9l0.6,1l0.4-0.3l-0.5-1.6l-0.8-0.2l-1.9,3.8L251.1,253.5z"/>
			<path id="Path_1824" class="st0" d="M240.4,228.9h-1.7l1,18l3.9,1h1.5l1.1-19C246.3,228.9,240.4,228.9,240.4,228.9z"/>
			<path id="Path_1825" class="st0" d="M237.2,283.9l2.2-3h-0.1l-2.3,2.8L237.2,283.9z"/>
			<path id="Path_1826" class="st0" d="M254.4,283.8l0.7-3.6h-1.3l-2.6,3.1L254.4,283.8z"/>
			<path id="Path_1827" class="st0" d="M249,282.7l-3.8-1.6l3.2,1.9L249,282.7z"/>
			<path id="Path_1828" class="st0" d="M257.6,229.4c1.7,0,3.1-2.4,3.1-5.3s-1.4-5.3-3.1-5.3s-3.1,2.4-3.1,5.3
				C254.5,227,255.9,229.4,257.6,229.4"/>
			<path id="Path_1829" class="st0" d="M239.6,280.4l1.8-32h-0.8l-1.1,32H239.6z"/>
			<path id="Path_1830" class="st2" d="M240.8,216.1c0.1,0,0.2,0,0.4,0c0.1-0.1,0.1-0.1,0.1-0.2C241.1,216,240.9,216,240.8,216.1"/>
			<path id="Path_1831" class="st2" d="M240.2,216.5c-0.1,0.1-0.3,0.3-0.4,0.4c0.3,0.1,0.6,0.1,0.8,0.1c0.1-0.2,0.2-0.3,0.3-0.4
				C240.6,216.6,240.4,216.6,240.2,216.5"/>
			<path id="Path_1832" class="st2" d="M240.4,217.5c-0.3,0-0.6-0.1-0.9-0.2c-0.1,0.1-0.2,0.3-0.3,0.5c0.3,0.1,0.6,0.2,0.9,0.2
				C240.2,217.9,240.3,217.7,240.4,217.5"/>
			<path id="Path_1833" class="st2" d="M239.9,218.5c-0.3-0.1-0.6-0.1-1-0.3c-0.4,1-0.6,2.1-0.6,3.2c0,3,1.4,5.4,3.2,5.6
				C239.3,224.8,238.7,221.4,239.9,218.5"/>
			<path id="Path_1834" class="st2" d="M239.4,280.4l1.1-32H238l0.2,32H239.4z"/>
			<path id="Path_1835" class="st2" d="M236.9,283.7l2.3-2.8H238l-3.3,1.8L236.9,283.7z"/>
			<path id="Path_1836" class="st2" d="M238.8,228.9H237l1,19h5.7l-3.9-1L238.8,228.9z"/>
			<path id="Path_1837" class="st2" d="M244.4,280.4l-1.6-32h-1l1.6,32H244.4z"/>
			<path id="Path_1838" class="st2" d="M248.4,283l-3.2-1.9l-0.4-0.2h-1l2.8,3L248.4,283z"/>
			<path id="Path_1839" class="st2" d="M246.8,284.6l2.5-1.1l-0.4-0.3l-2.3,1.1L246.8,284.6z"/>
			<path id="Path_1840" class="st2" d="M234.8,249.6h0.3l0.4-10.6l-1-0.4L234.8,249.6z"/>
			<path id="Path_1841" class="st2" d="M235.6,238.5l1.2-3.4l-0.1-2l-2,5.1L235.6,238.5z"/>
			<path id="Path_1842" d="M240.9,227.1v0.3c0.6,0.2,1.2,0.2,1.8,0V227h0.5v0.1c1.5-0.9,2.5-3.1,2.5-5.7c0-1.2-0.2-2.4-0.7-3.5
				c-0.1,0-0.2,0.1-0.4,0.2c0.4,1,0.7,2.2,0.7,3.3c0,3.1-1.5,5.6-3.4,5.6c-0.1,0-0.2,0-0.2,0c-1.8-0.2-3.2-2.6-3.2-5.6
				c0-1.1,0.2-2.2,0.6-3.2c-0.1,0-0.1,0-0.2-0.1l0.2-0.4c0.1,0,0.2,0.1,0.2,0.1c0.1-0.2,0.2-0.3,0.3-0.5c-0.1,0-0.3-0.1-0.4-0.1
				l0.1-0.2c-0.9,1.3-1.3,2.9-1.3,4.5c0,2.6,1.1,4.9,2.6,5.7v-0.1H240.9z"/>
			<path id="Path_1843" d="M243.7,216.9c0.2,0,0.4-0.1,0.5-0.1c-0.1-0.1-0.2-0.2-0.3-0.4c-0.2,0-0.4,0.1-0.6,0.1
				C243.5,216.6,243.6,216.8,243.7,216.9"/>
			<path id="Path_1844" d="M244.3,217.7c0.2-0.1,0.4-0.1,0.4-0.2c-0.1-0.1-0.2-0.3-0.2-0.4c-0.1,0-0.3,0.1-0.5,0.1
				C244.1,217.4,244.2,217.6,244.3,217.7"/>
			<path id="Path_1845" d="M239.8,216.9c0.1-0.2,0.3-0.3,0.4-0.4c-0.2,0-0.4-0.1-0.5-0.1c-0.1,0.1-0.3,0.3-0.4,0.4
				C239.4,216.9,239.6,216.9,239.8,216.9"/>
			<path id="Path_1846" d="M240.8,216.1c0.2-0.1,0.3-0.1,0.5-0.2c0.2,0,0.3-0.1,0.5-0.1c0.3,0,0.6,0.1,0.9,0.2
				c0.3,0,0.5-0.1,0.8-0.1c-1-0.8-2.4-0.8-3.4,0C240.3,216.1,240.5,216.1,240.8,216.1"/>
			<path id="Path_1847" d="M240.2,216.5c0.2,0,0.4,0.1,0.7,0.1c0.2,0,0.5,0,0.7,0c0.6,0,1.2,0,1.8-0.1c0.2,0,0.4-0.1,0.6-0.1
				c0.2,0,0.3,0,0.3,0l-0.1-0.5c0,0-0.3,0-0.7,0.1c-0.2,0-0.5,0.1-0.8,0.1c-0.5,0-1,0.1-1.6,0c-0.1,0-0.2,0-0.4,0
				c-0.2,0-0.5-0.1-0.7-0.1c-0.1,0-0.2-0.1-0.3-0.1l-0.2,0.4l0,0C239.8,216.4,240,216.5,240.2,216.5"/>
			<path id="Path_1848" d="M239.4,217.4c0.3,0.1,0.6,0.1,0.9,0.2c0.4,0,0.8,0.1,1.2,0.1c0.8,0,1.7-0.1,2.5-0.3
				c0.2,0,0.4-0.1,0.5-0.1c0.1,0,0.1,0,0.2-0.1l-0.2-0.4c-0.1,0-0.2,0.1-0.3,0.1c-0.1,0-0.3,0.1-0.5,0.1c-1,0.2-2.1,0.2-3.1,0.2
				c-0.3,0-0.6-0.1-0.8-0.1c-0.2,0-0.3-0.1-0.5-0.1l-0.1,0l-0.1,0.2l-0.1,0.2C239.2,217.3,239.3,217.3,239.4,217.4"/>
			<path id="Path_1849" d="M240.1,218c-0.3-0.1-0.6-0.1-0.9-0.2c-0.1,0-0.2-0.1-0.2-0.1l-0.2,0.4c0.1,0,0.1,0,0.2,0.1
				c0.3,0.1,0.6,0.2,1,0.3c0.5,0.1,1.1,0.2,1.6,0.2c1,0,2-0.2,3-0.5c0.2-0.1,0.4-0.1,0.4-0.2l0.1,0l-0.2-0.4l-0.1,0
				c-0.1,0-0.2,0.1-0.4,0.2C243,218.2,241.5,218.3,240.1,218"/>
			<path id="Path_1850" d="M240.9,227.4v-0.3h-0.5v1.4h0.5V227.4z"/>
			<path id="Path_1851" d="M242.7,227v1.5h0.5V227H242.7z"/>
			<path id="Path_1852" d="M246.8,228.5L246.8,228.5z"/>
			<path id="Path_1853" d="M246.5,231.3l0.1,0l0.1-2.3h-0.2v-0.5h-10.1l0,0.2l0-0.1l0.4,0.2l-0.4,1l0.2,3.3l0.1,2v0l0.5,0.2
				l-0.4,1.1l0.6,11.9v0h0.5v0.2h3.4l0-0.3h0.5l0,0.2h3.4v-0.2l0.5,0l0,0l1-16.4h0L246.5,231.3z M245.2,247.9h-7.3l-1-19h9.3
				L245.2,247.9z"/>
			<path id="Path_1854" d="M237.3,235.2l-0.4-0.2v0l-1.2,3.4l0.2,0.1l-0.2,0.4l-0.2-0.1l-0.4,10.6H234l-0.8-11.5l-0.3-0.1l0.2-0.4
				l0.2,0.1l3.3-7.8l0.4-1l-0.4-0.2l0,0.1l-3.8,9l0.8,12.1l0,0l0.5,0.1l-0.1,0.2h1.2l-0.1-0.1l0.4-0.2l0.1,0.1l0.5-10.9l0.9-2.5
				L237.3,235.2z"/>
			<path id="Path_1855" d="M235.1,249.9l0.1,0.1l0.9,1.5l-0.5,0.3l-1.1-1.2l-0.2,4l-1.2-1.2l1-3.4l0.1-0.2l-0.5-0.1l0,0l-1.1,3.8
				l2.2,2.1l0.2-3.9l0.6,0.6l1.2-0.7l-1.1-2l-0.1-0.1L235.1,249.9z"/>
			<path id="Path_1856" d="M233.3,237.6l-0.2-0.1l-0.2,0.4l0.3,0.1l1.3,0.5l1,0.4l0.2,0.1l0.2-0.4l-0.2-0.1l-0.9-0.4L233.3,237.6z"
				/>
			<path id="Path_1857" d="M245.2,248.2v0.2l-0.6,32h-1.1l-1.6-32l0-0.2h-0.5l0,0.3l-1.8,32h-1.4l-0.2-32v-0.2h-0.5v0l0.2,32.3
				l0.1-0.1l0.2,0.4l-0.1,0h1.3l0.3-0.4l0.4,0.3l-0.1,0.1h0.1l1.5-28.2l1.4,28.2h0.1l-0.1-0.1l0.3-0.3l0.4,0.4h1l0,0l0.2-0.4
				l0.1,0.1l0.6-32.3l0,0L245.2,248.2z"/>
			<path id="Path_1858" d="M244.7,280.9L244.7,280.9l0.5,0.2l3.8,1.6l-0.6,0.3l-1.9,0.9l-2.8-3l-0.4-0.4l-0.3,0.3l0.1,0.1l3.4,3.6
				l0.2-0.1l2.3-1.1l1.2-0.6l-5.1-2.2l-0.1-0.1L244.7,280.9z"/>
			<path id="Path_1859" d="M239.6,280.5l-0.3,0.4l-2.2,3l-0.3-0.1l-2.2-1.1l3.3-1.8l0.1,0l-0.2-0.4l-0.1,0.1l-4.1,2.2l3.7,1.8
				l2.6-3.6l0.1-0.1L239.6,280.5z"/>
			<path id="Path_1860" d="M255.7,229c0.2,0.3,0.5,0.5,0.9,0.6v-0.1h0.5v0.3c0.2,0.1,0.4,0.1,0.6,0.1c0.4,0,0.8-0.1,1.1-0.3
				c0-0.2,0-0.4,0-0.5l0.5-0.1c0,0,0,0.1,0,0.2c0.1-0.1,0.2-0.2,0.3-0.3h-0.1v-0.5h0.5c0.9-1.3,1.3-2.9,1.3-4.5
				c0-3.2-1.6-5.8-3.6-5.8s-3.6,2.6-3.6,5.8c0,1.6,0.4,3.1,1.3,4.4h0.4L255.7,229z M254.5,224.1c0-2.9,1.4-5.3,3.1-5.3
				c1.7,0,3.1,2.4,3.1,5.3c0,2.9-1.4,5.3-3.1,5.3C255.9,229.4,254.5,227,254.5,224.1"/>
			<path id="Path_1861" d="M259.2,229.1l-0.5,0.1c0,0.1,0,0.3,0,0.5c0,0.1,0,0.3,0,0.4l0.5,0c0-0.2,0-0.5-0.1-0.7
				C259.2,229.2,259.2,229.1,259.2,229.1"/>
			<path id="Path_1862" d="M257,229.5h-0.5v0.6l0.5,0V229.5z"/>
			<path id="Path_1863" d="M255.4,249.3l0,0.2h2.7l0-0.3h0.9l0,0.3h3v-0.2h0.5v-11.6l-0.5-1l0.4-0.2l0,0v-5.3l-0.3-0.7l-0.2,1.4v17
				h-6.7l-2-18.4c0.9,0,3.9-0.2,6.2-0.2l0-0.5l-0.2,0l-0.5,0L257,230l-0.5,0c-1.8,0.1-3.4,0.1-3.5,0.1l-0.3,0l0,0.2v0l0.5,0
				l-0.2,2.6l0.8,7v0l0.5,0.1l-0.3,1.9l0.8,7.4v0L255.4,249.3z"/>
			<path id="Path_1864" d="M262.6,249.5v-0.2V249.5z"/>
			<path id="Path_1865" d="M262.4,230.1l-0.1,0.5l0.3,0.7l3.1,7.8l0.2,0l0.1,0.5l-0.1,0l-0.4,10.6l-1-0.1l-0.4-10.2l-0.2,0l-0.1-0.5
				l0.2,0l-1.3-2.8l0,0l-0.4,0.2l0.5,1l1,2l0.4,10.6l0-0.1l0.4,0.2l0,0.1l1,0.1l0-0.1l0.5-0.1v0l0.4-11.2l-3.7-9.4L262.4,230.1
				L262.4,230.1z"/>
			<path id="Path_1866" d="M265.4,250.6l0,0.1l0.5,3.6l-1,0.4l0.2-2.4l-0.5-0.7l-0.8,1.2l-0.4-0.3l1-2l0-0.1l-0.4-0.2l0,0.1
				l-1.2,2.3l1.2,0.9l0.7-1.1l-0.3,3l2.1-0.9l-0.6-4v0L265.4,250.6z"/>
			<path id="Path_1867" d="M263.7,239.5l0.1,0.5l0.2,0l1.8-0.3l0.1,0l-0.1-0.5l-0.2,0l-1.8,0.3L263.7,239.5z"/>
			<path id="Path_1868" d="M253.9,239.9L253.9,239.9l-1.3,9.3l-0.7-0.1l1.2-16.1l0.2-2.6l-0.5,0v0l0,0.2l0.3,0l0,0.5l-0.4,0
				l-1.4,18.1l0,0l0.4,0.2l-0.1,0.2l0.8,0.2l0-0.1l0.5-0.1l0,0.1l1.1-7.6l0.3-1.9L253.9,239.9z"/>
			<path id="Path_1869" d="M252.5,249.6l0,0.1l0.5,1.6l-0.4,0.3l-0.6-1l-1,2.9l-1.2-0.2l1.9-3.8l0.1-0.2l-0.4-0.2l0,0l-2.3,4.5
				l2.2,0.3l0.8-2.3l0.3,0.5l1.1-0.8l-0.6-2l0,0L252.5,249.6z"/>
			<path id="Path_1870" d="M260.8,279.8l0.2,0.4h1l-0.1,0l0.2-0.4l0.1,0.1l0.2-30.3v-0.2h-0.5v0.2l-0.2,30.2h-1l-1.7-30.2l0-0.3
				h-0.9l0,0.3l-3,30.2h-1.2l1.5-30.2l0-0.2l-0.5,0v0l-1.5,30.6l0.1-0.1l0.4,0.3l-0.1,0.1h1.3l0.1-0.3l0.5,0.1l0,0.2h0l3-30.5h0.1
				l1.7,30.5h0.1l-0.1-0.1L260.8,279.8z"/>
			<path id="Path_1871" d="M262.2,279.8l-0.2,0.4l0.1,0l4.2,2.2l-3.1,0.8l-2-3l-0.2-0.4l-0.4,0.3l0.1,0.1l2.4,3.6l4.7-1.2l-5.2-2.7
				L262.2,279.8z"/>
			<path id="Path_1872" d="M255.1,279.9l-0.1,0.3l-0.7,3.6l-3.2-0.5l2.6-3.1l0.1-0.1l-0.4-0.3l-0.1,0.1l-3.2,3.8l4.5,0.7l0.8-4.1
				l0-0.2L255.1,279.9z"/>
			<path id="Path_1873" d="M246.8,228.9c1,0,5.2,0,8.9,0v0v-0.5h-0.4c-3.6,0-7.4,0-8.4,0h-0.3v0.5L246.8,228.9"/>
			<path id="Path_1874" d="M259.4,229h0.1c1,0,1.8,0,2.1,0l0.3,1.1l-0.3,2h0l0,0.2l-0.5,0l0-0.2l-0.2,0l0,0.1l-0.5,0l0-0.1l-0.2,0
				l-0.3-2.8l-0.5,0l0,0.4l0,0.5l0.2,2.4l2.3-0.2l0.1-0.5l0.2-1.4l0.1-0.5l0-0.1l-0.3-1.5h-0.2c0,0-0.8,0-1.9,0h-0.5L259.4,229z"/>
			<path id="Path_1875" d="M253.1,231.1l0-0.5l-0.3,0c-2.8,0.3-5.6,0.6-6.2,0.6l-0.1,0l0,0.5h0l6.1-0.6L253.1,231.1"/>
			<path id="Path_1876" d="M261,230.7l0.1,1.5l0,0.2l0.5,0l0-0.2l-0.1-1.5L261,230.7z"/>
			<path id="Path_1877" d="M260.3,230.7l0.1,1.5l0,0.1l0.5,0l0-0.1l-0.1-1.5L260.3,230.7z"/>
		</g>
	</g>
</g>
</svg>
