<?xml version="1.0" encoding="utf-8"?>
<!-- Generator: Adobe Illustrator 27.8.1, SVG Export Plug-In . SVG Version: 6.00 Build 0)  -->
<svg version="1.1" id="Layer_1" xmlns="http://www.w3.org/2000/svg" xmlns:xlink="http://www.w3.org/1999/xlink" x="0px" y="0px"
	 viewBox="0 0 500 500" style="enable-background:new 0 0 500 500;" xml:space="preserve">
<style type="text/css">
	.st0{clip-path:url(#SVGID_00000063592709813893908180000014586522589975326650_);}
	.st1{fill:#FFFFFF;}
	.st2{fill:#27AAE1;}
</style>
<g>
	<defs>
		<rect id="SVGID_1_" x="144.2" y="164.5" width="211.7" height="171.1"/>
	</defs>
	<clipPath id="SVGID_00000066487150772109204960000010330342122619478444_">
		<use xlink:href="#SVGID_1_"  style="overflow:visible;"/>
	</clipPath>
	<g id="Group_23" style="clip-path:url(#SVGID_00000066487150772109204960000010330342122619478444_);">
		<path id="Path_417" class="st1" d="M307.6,331.8l2.6-76.1l34.4-12.6c0,0,13.2,37.8,7.4,79.5L307.6,331.8z"/>
		<path id="Path_418" class="st1" d="M217.3,167c-0.8-0.1-1.6-0.2-2.4-0.2c-0.3,0-0.7,0-1,0c5.1,0.7,9.7,3.1,13.3,6.8
			c0.7,0.1,1.4,0.2,2.1,0.2C226.3,170.2,222,167.8,217.3,167"/>
		<path id="Path_419" class="st1" d="M208.9,246.7c-0.9,0-1.8-0.1-2.7-0.2c-3.4-0.5-6.6-1.8-9.4-3.9l-0.5,3.5
			c4.2,0.9,8.8,1.9,13.7,3.3l0.4-2.8C210,246.7,209.4,246.7,208.9,246.7"/>
		<path id="Path_420" class="st1" d="M305.7,243.7c3.2,1.1,6.7,1.1,10,0.1c12.3-3.8,17.5-22.4,11.6-41.3s-20.7-31.2-33-27.3
			c-12.3,3.8-17.5,22.4-11.6,41.3c4.3,13.8,13.4,24.1,22.8,27.1L305.7,243.7C305.7,243.6,305.7,243.7,305.7,243.7"/>
		<path id="Path_421" class="st1" d="M287.7,232.2l0.1,0.3c-14.9,3.5-26.3,8-30.8,12.1l2.5,38.6c2.7-0.4,9.3-1.1,18.8-1.4l-0.7-1.1
			l-12.1-7.3l4.8-8.1l-6.2-11.3l4.8-3.3l17.1,21.3l8.8,9.6c1.1,0,2.2,0.1,3.3,0.1l-0.3-24.5l0.8-0.3c0.3-0.1,1.7-0.6,3.9-1.4
			c0.2-3.6,0.4-7.1,0.6-10.5C297.5,243,292.1,238.4,287.7,232.2 M287.5,246.4c-0.2-0.1-0.5-0.2-0.7-0.2c-2.2-0.6-5.4-0.8-7.4,0.6
			c-3,1.9-4,2-9,1.9c-4.4,0-8.5,3.2-8.6,3.2l-1.5-1.9c0.2-0.2,4.8-3.7,10.1-3.7c4.8,0.1,5.3,0,7.6-1.5c3.3-2.2,8-1.2,9.3-0.9
			c0.3,0.1,0.6,0.2,1,0.3c0.1,0,0.2,0.1,0.2,0.1l1.3-0.7l1.1,2.1C289.3,246.6,288.8,246.9,287.5,246.4"/>
		<path id="Path_422" class="st1" d="M229.2,176.3c1.1,1.7,1.9,3.5,2.5,5.5c0.9,0.1,1.7,0.2,2.6,0.2c-0.8-1.9-1.8-3.8-3-5.5
			C230.6,176.4,229.9,176.4,229.2,176.3"/>
		<path id="Path_423" class="st1" d="M316.4,246.1c-1.1,0.3-2.2,0.6-3.3,0.7c0.7,1.3,1.8,3.1,2.6,4.5c2.9-1,5.9-2,9-2.9
			c-0.7-1.6-1.6-3.8-2.3-5.5C320.5,244.4,318.5,245.4,316.4,246.1"/>
		<path id="Path_424" class="st1" d="M305.5,246.1c-0.2,2.8-0.3,5.8-0.5,8.8c2.3-0.8,5.2-1.8,8.3-2.8c-1.1-1.9-2.5-4.3-3-5.2
			C308.7,246.8,307.1,246.6,305.5,246.1"/>
		<path id="Path_425" class="st1" d="M252,290.3l3.2-4.5H254l-2.4,3.7L252,290.3z"/>
		<path id="Path_426" class="st1" d="M251.1,285.8h-1.4l0.6,1.2L251.1,285.8z"/>
		<path id="Path_427" class="st1" d="M250.4,292.5L236,264.2l-0.1,4.4l12.5,26.7L250.4,292.5z"/>
		<path id="Path_428" class="st1" d="M211,244.2c11.9-1.4,22.7-14.7,26-32.5c-2.5,0.9-5,1.5-7.6,1.9
			C225.3,229.7,219.4,240.6,211,244.2"/>
		<path id="Path_429" class="st1" d="M233.1,191.3c0,2.1-0.1,4.1-0.4,6.2c1.7,0.1,3.4,0.1,5.2,0c-0.1-2-0.4-3.9-0.7-5.9
			C235.8,191.5,234.4,191.4,233.1,191.3"/>
		<path id="Path_430" class="st1" d="M231.1,206.4c-0.3,1.6-0.7,3.2-1.1,4.7c2.5-0.5,5-1.2,7.4-2.1c0.2-1.1,0.3-2.2,0.4-3.3
			C235.6,206.1,233.4,206.3,231.1,206.4"/>
		<path id="Path_431" class="st1" d="M232.4,184.3c0.3,1.5,0.5,3.1,0.6,4.7c1.2,0.1,2.4,0.2,3.7,0.3c-0.4-1.6-0.8-3.2-1.4-4.7
			C234.3,184.4,233.3,184.4,232.4,184.3"/>
		<path id="Path_432" class="st1" d="M238,199.9c-1,0.1-2.1,0.1-3.1,0.1c-0.9,0-1.7,0-2.5-0.1c-0.1,0.6-0.2,1.3-0.3,2
			c-0.1,0.7-0.3,1.4-0.4,2.1c2.1-0.1,4.2-0.4,6.3-0.7C238,202.1,238,201,238,199.9"/>
		<path id="Path_433" class="st1" d="M213,246.3l-0.6,3.8c7.8,2.2,15.5,5,23,8.3l0.7,0.3l0,0.5l12.4,24.3h8.6l-2.5-38.4
			c-9-3.3-18.4-5.5-27.9-6.8C223,242.2,218.2,245,213,246.3"/>
		<path id="Path_434" class="st1" d="M146.8,304.6l7.2-1.9c-1.6-29.8,15.2-45.3,20.1-49.2c0.4-3.2,0.7-5.7,1-7.4
			C168.8,250,144.1,267.8,146.8,304.6"/>
		<path id="Path_435" class="st1" d="M298.2,285.5l0-1.1c-0.4,0-0.7,0-1.1-0.1L298.2,285.5z"/>
		<path id="Path_436" class="st1" d="M310.2,255.7c-4.7,1.6-8.3,2.9-9.9,3.5l0.3,29l12.8,14C314.9,282.2,311.3,261.3,310.2,255.7"/>
		<path id="Path_437" class="st1" d="M170.8,283.4c0.2-2.4,0.4-4.7,0.7-7c-1.7,2.1-3,4.5-4,7H170.8z"/>
		<path id="Path_438" class="st1" d="M268.4,254l-1.2,0.8l5.8,10.5l-4.3,7.2l10.6,6.4l28.2,48c3.1-6.2,4.8-13.8,5.6-21.7l-29-31.6
			L268.4,254z"/>
		<path id="Path_439" class="st1" d="M233.6,264.9l0.1-4.7c-7.5-3.2-15.3-6-23.1-8.2L194,248c-8-1.6-14.1-2.3-16.4-2.6
			c-0.2,1.3-0.5,3.7-0.9,6.8C195,250.6,228.5,262.9,233.6,264.9"/>
		<path id="Path_440" class="st2" d="M232.3,199.9c-19.5-0.8-33.3-11.3-39.5-17.1c-0.5,0.8-0.9,1.6-1.3,2.4
			c5.4,6.5,19.1,19.8,40.1,18.7c0.1-0.7,0.3-1.4,0.4-2.1C232.2,201.2,232.2,200.6,232.3,199.9"/>
		<path id="Path_441" class="st2" d="M233.1,191.3c-22.2-1.9-32.7-9.6-36.8-13.7c-0.8,1-1.5,2-2.2,3.1c5.8,5.5,19.3,16.1,38.6,16.8
			C232.9,195.5,233.1,193.4,233.1,191.3"/>
		<path id="Path_442" class="st2" d="M229.2,206.4c-19.7,0-32.9-12-38.8-18.8c-0.4,1-0.8,2-1.2,3c2.9,4.6,6.5,8.7,10.6,12.3
			c9,7.6,19.2,10.4,30.3,8.2c0.4-1.5,0.7-3.1,1.1-4.7C230.5,206.4,229.8,206.4,229.2,206.4"/>
		<path id="Path_443" class="st2" d="M229.4,213.7c-2.1,0.3-4.2,0.5-6.4,0.5c-17.7,0-29.2-12.6-34.8-20.7c-0.8,2.8-1.5,5.6-1.9,8.5
			c-1.4,10.4-0.1,20.5,3.8,28.5c3.8,7.8,9.6,12.7,16.3,13.6c0.8,0.1,1.6,0.2,2.4,0.2c0.7,0,1.4,0,2-0.1
			C219.4,240.6,225.3,229.8,229.4,213.7"/>
		<path id="Path_444" class="st2" d="M200.3,173.2c-0.8,0.7-1.6,1.5-2.4,2.4c0,0-0.1,0.1-0.1,0.1c3.7,3.7,13.6,11.2,35.2,13.2
			c-0.1-1.6-0.3-3.1-0.6-4.7C219.2,183,205.9,176.3,200.3,173.2"/>
		<path id="Path_445" class="st2" d="M213.9,166.9c-2.6,0.2-5.2,0.9-7.5,2.1c6.8,2.1,13.7,3.7,20.8,4.7
			C223.6,170,219,167.6,213.9,166.9"/>
		<path id="Path_446" class="st2" d="M203.6,170.6c-0.5,0.3-0.9,0.6-1.4,1c5.8,3.1,17.8,8.8,29.5,10.2c-0.6-1.9-1.4-3.8-2.5-5.5
			C220.5,175.3,211.9,173.4,203.6,170.6"/>
		<path id="Path_447" class="st2" d="M154,302.6l8.6-2.3c-0.8-17.8,7.2-26,9.3-27.8c0.8-7.5,1.6-14.1,2.2-19
			C169.2,257.3,152.4,272.8,154,302.6"/>
		<path id="Path_448" class="st2" d="M165,299.7l4.6-1.2c0.3-4.3,0.6-8.5,1-12.6h-3.9C165.3,290.3,164.8,295,165,299.7"/>
		<path id="Path_449" class="st2" d="M248.4,295.3l-12.5-26.7l-0.5,26.7l13.4,18.2l5.5-13.1l-4-7.8L248.4,295.3z"/>
		<path id="Path_450" class="st2" d="M258.5,285.8l-1.2,0.2l0-0.2h-2l-3.2,4.5l3.6,7.1l5-11.9C259.3,285.7,258.6,285.8,258.5,285.8
			L258.5,285.8L258.5,285.8L258.5,285.8z"/>
		<path id="Path_451" class="st2" d="M233.6,264.9c-5.1-2-38.6-14.3-56.9-12.6c-2.1,16.1-6.4,53.1-5.7,78.9l-1.1,0l0,0
			c0,0,38.4,7.2,63.8,3l-1.3,0L233.6,264.9z"/>
		<path id="Path_452" d="M231.3,176.5c1.2,1.7,2.2,3.6,3,5.5c0.9,0.1,1.7,0.1,2.6,0.1c-0.9-2.2-2-4.3-3.3-6.3l0,0.9
			C232.8,176.6,232,176.5,231.3,176.5"/>
		<path id="Path_453" d="M194.1,180.7c0.7-1.1,1.4-2.1,2.2-3.1c-0.6-0.6-1.1-1.2-1.6-1.8c-0.8,1-1.6,2.1-2.3,3.2
			C192.8,179.5,193.4,180.1,194.1,180.7"/>
		<path id="Path_454" d="M197.2,240.4l-0.3,2.2c2.7,2.1,6,3.4,9.4,3.9c0.9,0.1,1.8,0.2,2.7,0.2c0.5,0,1.1,0,1.6-0.1l0.2-1.5l2.4,0.4
			l-0.1,0.8c5.3-1.3,10-4,13.7-8c-0.2,0-0.4-0.1-0.6-0.1l0.3-2.4c0.8,0.1,1.6,0.2,2.3,0.3c5.3-6.4,9.4-15.2,11-25.3
			c-0.9,0.4-1.7,0.7-2.6,1c-3.3,17.7-14.2,31.1-26,32.5c-0.7,0.1-1.4,0.1-2,0.1c-0.8,0-1.6-0.1-2.4-0.2c-6.7-0.9-12.5-5.8-16.3-13.6
			c-3.9-8-5.2-18.1-3.8-28.5c0.4-2.9,1-5.7,1.9-8.5c-0.6-0.9-1.2-1.8-1.7-2.6c-1.2,3.5-2,7.1-2.5,10.8c-1.5,10.9-0.1,21.5,4,29.9
			c1.6,3.5,3.9,6.6,6.6,9.2l0.1-0.7L197.2,240.4z"/>
		<path id="Path_455" d="M238,203.2c0.8-0.1,1.5-0.3,2.3-0.5l0.1,0.4c0-1.2,0-2.3,0-3.4c-0.8,0.1-1.6,0.1-2.4,0.2
			C238,201,238,202.1,238,203.2"/>
		<path id="Path_456" d="M235.2,184.4c0.6,1.6,1,3.1,1.4,4.7c0.8,0,1.6,0.1,2.4,0.1l-0.1,2.4c-0.6,0-1.2-0.1-1.8-0.1
			c0.4,1.9,0.6,3.9,0.7,5.9c0.8,0,1.6-0.1,2.4-0.2c-0.3-4.4-1.1-8.7-2.5-12.9c-0.4,0-0.7,0-1.1,0
			C236.2,184.5,235.7,184.5,235.2,184.4"/>
		<path id="Path_457" d="M237.5,209c0.8-0.3,1.7-0.6,2.5-1c0.1-0.9,0.2-1.9,0.3-2.8c-0.8,0.2-1.6,0.3-2.4,0.5
			C237.7,206.8,237.6,207.9,237.5,209"/>
		<path id="Path_458" d="M202.2,171.6c0.4-0.3,0.9-0.7,1.4-1c-1.3-0.4-2-0.7-2.2-0.7l0.3-0.9c-0.6,0.4-1.2,0.9-1.8,1.4
			C200.5,170.6,201.3,171.1,202.2,171.6"/>
		<path id="Path_459" d="M206.4,169c2.3-1.2,4.9-1.9,7.5-2.1c0.3,0,0.7,0,1,0c0.8,0,1.6,0.1,2.4,0.2c4.7,0.8,8.9,3.2,12,6.9
			c1.1,0.1,2.2,0.2,3.2,0.3c-3.9-5.2-9-8.7-14.8-9.5c-5-0.6-10.1,0.5-14.4,3.3C204,168.2,205.1,168.5,206.4,169"/>
		<path id="Path_460" d="M191.5,185.3c0.4-0.8,0.8-1.6,1.3-2.4c-0.7-0.6-1.3-1.2-1.8-1.7c-0.4,0.7-0.8,1.4-1.2,2.1
			C190.3,183.7,190.8,184.4,191.5,185.3"/>
		<path id="Path_461" d="M189.2,190.6c0.4-1,0.7-2,1.2-3c-0.7-0.8-1.2-1.4-1.7-2c-0.4,0.8-0.7,1.6-1,2.4
			C188.1,188.7,188.6,189.6,189.2,190.6"/>
		<path id="Path_462" d="M197.8,175.7c0,0,0.1-0.1,0.1-0.1c0.8-0.9,1.6-1.7,2.4-2.4c-1-0.5-1.7-1-2.2-1.2c-0.6,0.6-1.3,1.3-1.9,1.9
			C196.7,174.6,197.2,175.2,197.8,175.7"/>
		<path id="Path_463" d="M287.7,232.2c4.4,6.2,9.8,10.8,15.5,13.1c0-0.6,0.1-1.2,0.1-1.8l2.2,0.1c-9.4-3-18.5-13.3-22.8-27.1
			c-5.9-18.9-0.7-37.4,11.6-41.3c12.3-3.8,27.1,8.4,33,27.3s0.7,37.4-11.6,41.3c-3.3,1-6.8,0.9-10-0.1c0,0.8-0.1,1.6-0.1,2.4
			c1.6,0.5,3.2,0.7,4.8,0.8l-0.2-0.3l2.1-1.2c0,0,0.3,0.6,0.8,1.4c1.1-0.1,2.3-0.3,3.3-0.7c2.1-0.7,4.1-1.8,5.9-3.2
			c-0.5-1.3-0.9-2.3-0.9-2.3l2.2-0.9c0,0,0.2,0.6,0.6,1.5c7.8-8.1,10.3-23.6,5.4-39.4c-6.3-20.2-22.5-33.1-36-28.9
			c-13.5,4.2-19.4,24.1-13.1,44.3c1.4,4.6,3.5,9,6.1,13.1l0.7-0.2L287.7,232.2z"/>
		<path id="Path_464" d="M203.6,170.6c8.3,2.8,16.9,4.7,25.6,5.7c0.7,0.1,1.4,0.1,2,0.2c0.8,0.1,1.5,0.1,2.3,0.1l0-0.9l0.1-1.5
			c-0.4,0-0.8,0-1.1-0.1c-1.1-0.1-2.1-0.2-3.2-0.3c-0.7-0.1-1.4-0.2-2.1-0.2c-7-1-14-2.6-20.8-4.7c-1.3-0.4-2.4-0.8-3.1-1
			c-0.6-0.2-1-0.3-1-0.4l-0.5,1.4l-0.3,0.9C201.6,169.9,202.3,170.2,203.6,170.6"/>
		<path id="Path_465" d="M200.3,173.2c5.6,3.1,19,9.7,32.1,11c1,0.1,1.9,0.2,2.9,0.2c0.5,0,0.9,0,1.4,0c0.4,0,0.7,0,1.1,0
			c0.4,0,0.9,0,1.3,0l-0.1-2.4c-0.7,0-1.4,0.1-2,0.1c-0.9,0-1.7,0-2.6-0.1c-0.8-0.1-1.7-0.1-2.6-0.2c-11.7-1.4-23.7-7.1-29.5-10.2
			c-0.9-0.5-1.7-0.9-2.3-1.3c-0.7-0.4-1.2-0.7-1.2-0.7l-1.3,2c0.1,0,0.3,0.2,0.6,0.3C198.6,172.3,199.3,172.7,200.3,173.2"/>
		<path id="Path_466" d="M196.2,177.6c4.1,4.1,14.6,11.8,36.8,13.7c1.3,0.1,2.7,0.2,4.1,0.3c0.6,0,1.2,0.1,1.8,0.1l0.1-2.4
			c-0.8,0-1.6-0.1-2.4-0.1c-1.3-0.1-2.5-0.2-3.7-0.3c-21.6-2-31.5-9.5-35.2-13.2c-0.6-0.6-1.1-1.2-1.6-1.8c-0.1-0.1-0.2-0.2-0.2-0.2
			l-2,1.3c0.2,0.3,0.4,0.6,0.6,0.9C195.1,176.5,195.7,177.1,196.2,177.6"/>
		<path id="Path_467" d="M192.8,182.8c6.2,5.8,20,16.3,39.5,17.1c0.8,0,1.7,0.1,2.5,0.1c1,0,2.1,0,3.1-0.1c0.8,0,1.6-0.1,2.4-0.2
			c0.1,0,0.1,0,0.2,0l-0.2-2.4h0c-0.8,0.1-1.6,0.1-2.4,0.2c-1.8,0.1-3.5,0.1-5.2,0c-19.4-0.8-32.9-11.3-38.6-16.8
			c-0.7-0.6-1.3-1.2-1.7-1.7c-0.9-0.9-1.4-1.5-1.4-1.6l-1.9,1.5c0,0,0.7,0.9,2,2.2C191.5,181.6,192.1,182.2,192.8,182.8"/>
		<path id="Path_468" d="M190.4,187.6c5.9,6.8,19.1,18.8,38.8,18.8c0.6,0,1.3,0,1.9-0.1c2.2-0.1,4.5-0.3,6.7-0.7
			c0.8-0.1,1.6-0.3,2.4-0.5c0.2,0,0.4-0.1,0.5-0.1l-0.4-1.9l-0.1-0.4c-0.8,0.2-1.5,0.3-2.3,0.5c-2.1,0.4-4.2,0.6-6.3,0.7
			c-21,1.1-34.7-12.2-40.1-18.7c-0.7-0.8-1.2-1.5-1.6-2.1c-0.6-0.9-1-1.4-1-1.4l-2,1.3c0,0.1,0.7,1,1.9,2.6
			C189.2,186.2,189.7,186.9,190.4,187.6"/>
		<path id="Path_469" d="M188.3,193.5c5.6,8.1,17.1,20.7,34.8,20.7c2.1,0,4.3-0.2,6.4-0.5c2.6-0.4,5.1-1.1,7.6-1.9
			c0.9-0.3,1.7-0.6,2.6-1c0.5-0.2,0.9-0.4,1.4-0.6l-1-2.2l-0.1,0c-0.9,0.4-1.7,0.7-2.5,1c-2.4,0.9-4.9,1.6-7.4,2.1
			c-11.1,2.2-21.2-0.6-30.3-8.2c-4.1-3.5-7.7-7.7-10.6-12.3c-0.6-1-1.1-1.9-1.6-2.6c-0.7-1.3-1.1-2.2-1.1-2.2l-2.2,1
			c0.7,1.4,1.4,2.8,2.3,4.1C187.1,191.7,187.7,192.5,188.3,193.5"/>
		<path id="Path_470" d="M196.9,242.6l0.3-2.2l-2.4-0.3l-0.1,0.7l-0.7,4.8c0.8,0.1,1.5,0.3,2.4,0.5L196.9,242.6z"/>
		<path id="Path_471" d="M194,248l16.5,3.9C204.5,250.3,198.9,249,194,248"/>
		<path id="Path_472" d="M213.1,245.4l-2.4-0.4l-0.2,1.5l-0.4,2.8c0.8,0.2,1.5,0.4,2.3,0.7l0.6-3.8L213.1,245.4z"/>
		<path id="Path_473" d="M321.3,240.7c0,0,0.4,1,0.9,2.3c0.7,1.6,1.6,3.8,2.3,5.5c0.8-0.2,1.5-0.5,2.3-0.7c-0.8-1.9-2-4.7-2.7-6.5
			c-0.4-0.9-0.6-1.5-0.6-1.5L321.3,240.7z"/>
		<path id="Path_474" d="M312.2,245.4l-2.1,1.2l0.2,0.3c0.5,0.9,1.9,3.3,3,5.2c0.8-0.3,1.5-0.5,2.3-0.8c-0.8-1.4-1.8-3.2-2.6-4.5
			C312.6,245.9,312.2,245.4,312.2,245.4"/>
		<path id="Path_475" d="M233.3,296.5l1.9-1.4l0.2,0.3l0.5-26.7l0.1-4.4l-2.2-4.3l2.1-1.1l0.1,0.3l0-0.5l-0.7-0.3
			c-7.5-3.3-15.1-6-23-8.3c-0.8-0.2-1.6-0.4-2.3-0.7c-4.9-1.4-9.6-2.4-13.7-3.3c-0.8-0.2-1.6-0.3-2.4-0.5c-10.3-2-17.2-2.6-17.3-2.6
			l-1.1-0.1l-0.1,0.4l1,2c0,0-0.6,0.3-1.4,0.8c-0.2,1.6-0.6,4.2-1,7.4c-0.6,5-1.4,11.5-2.2,19c0.3-0.2,0.4-0.4,0.5-0.4l1.4,1.9
			c-0.9,0.7-1.6,1.5-2.3,2.4c-0.2,2.3-0.5,4.6-0.7,7h1.1v2.4h-1.3c-0.4,4.1-0.7,8.3-1,12.6l0.8-0.2l0.6,2.3l-1.6,0.4
			c-0.7,10.6-1.1,21.1-0.9,30.3l1.3,0l1.1,0c-0.6-25.8,3.7-62.8,5.7-78.9c0.4-3.2,0.7-5.5,0.9-6.8c2.4,0.2,8.4,1,16.4,2.6
			c4.9,1,10.5,2.2,16.5,3.9c7.9,2.2,15.6,4.9,23.1,8.2l-0.1,4.7l-1.2,69.3l1.3,0l1.1,0l0.6-35L233.3,296.5z"/>
		<path id="Path_476" d="M345.4,243l-0.9,0.1c-3.9,0.5-10.6,2.4-17.7,4.6c-0.8,0.2-1.5,0.5-2.3,0.7c-3,1-6.1,1.9-9,2.9
			c-0.8,0.3-1.6,0.5-2.3,0.8c-3.1,1-5.9,2-8.3,2.8c0,0.5-0.1,1.1-0.1,1.6l0,0.4l-2.4-0.1l0-0.4l0-0.6c-2.2,0.8-3.7,1.3-3.9,1.4
			l-0.8,0.3l0.3,24.5c0.4,0,0.8,0,1.1,0.1l0.3,0l-0.2,2.4l-0.3,0c-0.3,0-0.6,0-1-0.1l0,1.1l2.4,2.6l-0.3-29c1.6-0.6,5.2-1.9,9.9-3.5
			c-0.2-0.9-0.3-1.4-0.3-1.4l2.3-0.5c0,0,0.1,0.4,0.2,1.2c10.5-3.6,24.6-8.1,31.5-9.3c2.7,6.6,4.7,13.4,6.1,20.3
			c3.8,18.6,4.4,37.8,1.8,56.6l2.4,0.3c6.2-47.6-8.3-78.8-8.5-79.1L345.4,243z"/>
		<path id="Path_477" d="M171,300.5l-0.6-2.3l-0.8,0.2l-4.6,1.2c0,0.5,0,1,0.1,1.5l-2.4,0.2c0-0.4,0-0.7-0.1-1.1l-8.6,2.3l-7.2,1.9
			c-2.6-36.7,22.1-54.6,28.3-58.5c0.9-0.5,1.4-0.8,1.4-0.8l-1-2l-0.1-0.1c-0.4,0.2-34.9,18.6-30.9,63.1l0.1,1.4l24.8-6.6L171,300.5z
			"/>
		<path id="Path_478" d="M162.6,300.3c0,0.4,0,0.7,0.1,1.1l2.4-0.2c0-0.5-0.1-1-0.1-1.6c-0.2-4.7,0.3-9.3,1.7-13.8h-1v-2.4h1.8
			c1-2.5,2.3-4.9,4-7c0.7-0.9,1.5-1.7,2.3-2.4l-1.4-1.9c0,0-0.2,0.2-0.5,0.4C169.8,274.3,161.8,282.5,162.6,300.3"/>
		<path id="Path_479" d="M165.7,283.4v2.4h6.2v-2.4H165.7z"/>
		<path id="Path_480" d="M260.6,285.5l-5,11.9l1.2,2.3l-2.1,1.1l-0.3-0.5l-5.5,13.1l-13.4-18.2l-0.2-0.3l-1.9,1.4l2.1,2.8l14,19
			l13.9-33.1C262.3,285.3,261.4,285.4,260.6,285.5"/>
		<path id="Path_481" d="M251.6,289.5l-0.2,0.3l-2-1.3l1-1.5l-0.6-1.2h-1.9v-2.4h0.7l-12.4-24.3l-0.1-0.3l-2.1,1.1l2.2,4.3
			l14.4,28.3l4,7.8l0.3,0.5l2.1-1.1l-1.2-2.3l-3.6-7.1L251.6,289.5z"/>
		<path id="Path_482" d="M249.4,288.5l2,1.3l0.2-0.3l2.4-3.7h-2.9l-0.8,1.2L249.4,288.5z"/>
		<path id="Path_483" d="M309.9,254.2c0,0,0.1,0.6,0.3,1.4c1.1,5.6,4.7,26.5,3.3,46.4l-12.8-14l-2.4-2.6l-1.1-1.2
			c-0.9-0.1-1.8-0.1-2.7-0.1v-2.4c0.1,0,0.3,0,0.4,0l-8.8-9.6l-17.1-21.3l-4.8,3.3l6.2,11.3l-4.8,8.1l12.1,7.3l0.6,1.1
			c0.7,0,1.3,0,2-0.1l0.1,2.4c-0.2,0-0.4,0-0.7,0l28,47.6l1-1.8c6.1-10.6,8.5-26.7,7.3-47.8c-0.6-9.2-1.7-18.3-3.4-27.3
			c-0.1-0.7-0.2-1.1-0.2-1.2L309.9,254.2z M307.5,327l-28.2-48l-10.6-6.4l4.3-7.2l-5.8-10.5l1.2-0.8l15.8,19.7l29,31.6
			C312.4,313.2,310.6,320.8,307.5,327"/>
		<path id="Path_484" d="M226,238.2c0.2,0,0.4,0.1,0.6,0.1c9.5,1.2,18.9,3.5,27.9,6.8l-0.1-1.3l0.4-0.4c0.2-0.2,0.4-0.4,0.6-0.5
			c-8.7-3.1-17.7-5.4-26.8-6.7c-0.8-0.1-1.5-0.2-2.3-0.3L226,238.2z"/>
		<path id="Path_485" d="M258.5,285.8h-1.2l0,0.2L258.5,285.8z"/>
		<path id="Path_486" d="M280.3,281.8c-0.7,0-1.3,0-2,0.1c-9.5,0.3-16.1,1.1-18.8,1.4l-2.5-38.6c4.5-4.1,15.9-8.6,30.8-12.1
			l-0.1-0.3l-0.5-2l-0.7,0.2c-7.7,1.9-24.3,6.4-31,12.4c-0.2,0.2-0.4,0.4-0.6,0.5l-0.4,0.4l0.1,1.3l2.5,38.4h1.4v2.4l0.1,0
			c0,0,0.8-0.1,2.1-0.3c0.7-0.1,1.6-0.2,2.7-0.3c3.6-0.4,9.2-0.8,16.3-1l0.7,0L280.3,281.8z"/>
		<path id="Path_487" d="M305.7,243.7C305.7,243.7,305.7,243.6,305.7,243.7l-0.2-0.1l-2.2-0.1c0,0.6-0.1,1.2-0.1,1.8
			c-0.2,3.4-0.4,6.9-0.6,10.5l0,0.6l0,0.4l2.4,0.1l0-0.4c0-0.5,0.1-1.1,0.1-1.6c0.2-3,0.3-6,0.5-8.8
			C305.6,245.3,305.6,244.5,305.7,243.7"/>
		<path id="Path_488" d="M247.8,283.4v2.4h10.7v-2.4H247.8z"/>
		<path id="Path_489" d="M294.4,281.8v2.4c0.9,0,1.8,0,2.7,0.1c0.4,0,0.7,0,1.1,0.1c0.3,0,0.6,0,1,0.1l0.3,0l0.2-2.4l-0.3,0
			c-0.4,0-0.8,0-1.1-0.1c-1.1-0.1-2.2-0.1-3.3-0.1C294.7,281.8,294.6,281.8,294.4,281.8"/>
		<path id="Path_490" d="M288.6,244.3c-0.1,0-0.2-0.1-0.2-0.1c-0.2-0.1-0.5-0.2-1-0.3c-1.4-0.4-6.1-1.4-9.3,0.9
			c-2.4,1.5-2.9,1.6-7.6,1.5c-5.3,0-9.9,3.6-10.1,3.7l1.5,1.9c0,0,4.2-3.2,8.6-3.2c5,0.1,6,0,9-1.9c2-1.3,5.2-1.1,7.4-0.6
			c0.2,0.1,0.5,0.2,0.7,0.3c1.3,0.5,1.7,0.2,3.5-0.7l-1.1-2.1C289.4,243.9,288.7,244.2,288.6,244.3"/>
	</g>
</g>
</svg>
