<?xml version="1.0" encoding="utf-8"?>
<!-- Generator: Adobe Illustrator 27.8.1, SVG Export Plug-In . SVG Version: 6.00 Build 0)  -->
<svg version="1.1" id="Layer_1" xmlns="http://www.w3.org/2000/svg" xmlns:xlink="http://www.w3.org/1999/xlink" x="0px" y="0px"
	 viewBox="0 0 500 500" style="enable-background:new 0 0 500 500;" xml:space="preserve">
<style type="text/css">
	.st0{fill:none;}
	.st1{fill:#27AAE1;}
</style>
<g>
	<polygon class="st0" points="257.1,201.6 257.1,201 241.4,208.7 243.4,209 	"/>
	<polygon class="st0" points="251.3,241.1 234.4,269.8 234,269.2 229.1,279.4 218.4,266.8 211.6,281.1 275.9,281.1 	"/>
	<polygon class="st1" points="287.4,281.1 259,227.8 251.3,241.1 275.9,281.1 	"/>
	<polygon class="st1" points="234,269.2 224.3,254.5 218.4,266.8 229.1,279.4 	"/>
	<polygon class="st1" points="257.4,210.8 257.1,201.6 243.4,209 	"/>
	<path d="M260.4,224.8l-0.8-28l-27,13.4l24.9,3.2l0.3,11.4l-23.5,40.1l-10.4-15.7l-15.2,31.8h-0.5v2.6l83.6,0.1L260.4,224.8z
		 M257.1,201l0,0.7l0.3,9.2l-14-1.8l-2-0.3L257.1,201z M218.4,266.8l5.9-12.3l9.8,14.7l0.4,0.7l16.8-28.7l7.8-13.3l28.4,53.3
		l-11.6,0l-64.3,0L218.4,266.8z"/>
</g>
</svg>
