<?xml version="1.0" encoding="utf-8"?>
<!-- Generator: Adobe Illustrator 27.8.1, SVG Export Plug-In . SVG Version: 6.00 Build 0)  -->
<svg version="1.1" id="Layer_1" xmlns="http://www.w3.org/2000/svg" xmlns:xlink="http://www.w3.org/1999/xlink" x="0px" y="0px"
	 viewBox="0 0 500 500" style="enable-background:new 0 0 500 500;" xml:space="preserve">
<style type="text/css">
	.st0{fill:none;}
	.st1{fill:#FFFFFF;}
	.st2{fill:#27AAE1;}
</style>
<g>
	
		<rect x="239.9" y="232.2" transform="matrix(0.4789 -0.8779 0.8779 0.4789 -76.5616 335.3382)" class="st0" width="8.6" height="0"/>
	<path class="st0" d="M258.9,249.6L258.9,249.6c0,0,0.1,0.1,0.1,0.1l0,0c7.2,11.5,11.1,28.8,11.7,31.3l0,0
		c-0.6-2.5-4.5-19.8-11.7-31.3C258.9,249.7,258.9,249.7,258.9,249.6z"/>
	<path class="st0" d="M260.8,213.7c-0.2,0-0.3-0.1-0.5-0.1C260.5,213.6,260.6,213.6,260.8,213.7L260.8,213.7z"/>
	<path class="st0" d="M257.8,218.7c0.2-0.8,0.4-1.6,0.8-2.4c0,0,0,0,0,0C258.2,217,257.9,217.8,257.8,218.7
		c-0.5,2.6,0.1,5.1,1.4,6.4C257.9,223.8,257.3,221.3,257.8,218.7z"/>
	<path class="st0" d="M252.1,248.8l-0.3-0.6l0,0L252.1,248.8c2.4,4,15.8,27,17.7,32.5l0,0C267.9,275.7,254.5,252.8,252.1,248.8
		L252.1,248.8z"/>
	<path class="st0" d="M262.5,213.3c-0.2,0-0.5-0.1-0.7-0.1v0c0,0,0,0,0,0C262,213.2,262.3,213.3,262.5,213.3
		C262.5,213.3,262.5,213.3,262.5,213.3z"/>
	<path class="st0" d="M258,259l-0.7-0.1c0,0,0,0.1,0,0.1c-1.3-2.3-2.6-4.5-3.6-6.2l-0.5-0.8c0,0,0,0,0,0l0.5,0.8
		c1,1.7,2.2,3.9,3.6,6.2c-0.9,10.9-9.8,19.6-11,20.7l0,0c1.2-1.1,10-9.7,11-20.7c0,0,0-0.1,0-0.1L258,259C258,259,258,259,258,259z"
		/>
	<polygon class="st0" points="245.3,279.6 245.2,279.5 245.2,279.5 245.3,279.6 246.2,279.7 245.3,279.6 	"/>
	<path class="st0" d="M260.1,216.6c-0.5-0.1-1-0.2-1.5-0.3l0,0C259.1,216.4,259.6,216.6,260.1,216.6L260.1,216.6z"/>
	<polygon class="st0" points="248.9,281.7 248.9,281.7 246.3,280.5 245,280.4 244.4,280.3 243.4,282.9 243.4,282.9 244.4,280.3 
		245,280.4 245,280.4 246.3,280.5 248.8,281.7 252.1,284.1 250.1,285.3 250.1,285.3 252.1,284.1 	"/>
	<polygon class="st0" points="272.4,285.8 277.2,286.8 277.7,286.2 277.2,286.8 	"/>
	<polygon class="st0" points="252.9,283.6 252.9,283.6 252.4,283.9 	"/>
	<path class="st0" d="M262.8,213L262.8,213c0,0,0.1,0,0.1,0C262.9,213,262.8,213,262.8,213z"/>
	<path class="st0" d="M260.7,212.9c0.3,0.1,0.7,0.2,1.1,0.3C261.4,213.1,261,213,260.7,212.9z"/>
	<path class="st0" d="M260.8,213.7C260.8,213.7,260.8,213.7,260.8,213.7c-0.3,0.2-0.6,0.4-0.8,0.7c0,0,0,0,0,0c0,0,0,0,0,0l0,0
		C260.2,214.1,260.5,213.9,260.8,213.7z"/>
	<path class="st0" d="M270,282l1.3-0.2l0.7,0.2c2.2,0.8,5.8,2.2,6.8,2.7l0,0c-1-0.5-4.6-1.9-6.8-2.7l7.1,2.4l0,0l-7.1-2.4l-0.7-0.2
		L270,282l0.4,3.4l0,0L270,282z"/>
	<path class="st0" d="M264.1,234.7L264.1,234.7L264.1,234.7c0.5-1.9,0.9-3.5,1.1-4.4l4,6.6v0l-4-6.6l-0.4-0.7l0,0l0.4,0.7
		C264.9,231.2,264.5,232.8,264.1,234.7z"/>
	<path class="st0" d="M261.4,228.4C261.4,228.4,261.4,228.4,261.4,228.4L261.4,228.4L261.4,228.4L261.4,228.4l-2-0.4l-0.6-0.1l0,0
		l0.5,0.1c0,0,0,0,0,0L261.4,228.4z"/>
	<path class="st0" d="M269.2,241.9L269.2,241.9c0,0,0-0.7,0-1l0,0V241.9z"/>
	<rect x="269.2" y="236.8" class="st0" width="0.7" height="0"/>
	<path class="st0" d="M256.7,227.6L256.7,227.6c-0.2,2.1-1.3,12.1-1.8,17.5C255.5,239.7,256.5,229.7,256.7,227.6z"/>
	<polygon class="st0" points="241,235.9 241,235.9 239.6,235.1 239.6,235.1 240.9,235.9 241.1,237.8 239.9,239 236.6,236.8 
		239.9,239 241.1,237.8 	"/>
	<path class="st0" d="M254.5,248.4l4.4,0.6c0,0,0,0,0,0L254.5,248.4c0-0.1,0-0.3,0.1-0.6C254.6,248.1,254.5,248.3,254.5,248.4
		l-2.6-0.4l3.2-20.5c0,0,0,0,0,0l-3.2,20.5L254.5,248.4z"/>
	<path class="st0" d="M276.3,227.3c0.9,0.6,2.2,1.5,2.7,1.8c0,0,0,0,0,0C278.5,228.8,277.2,228,276.3,227.3l-1.3,1.8l0,0
		L276.3,227.3z"/>
	<polygon class="st0" points="269.9,240.8 269.9,240.8 269.9,237 276,231.6 276.4,231.8 276.4,231.8 276,231.5 269.9,237 	"/>
	<polygon class="st0" points="276.8,231.3 276.9,232 276.9,232 276.8,231.3 276.9,231.3 276.9,231.3 	"/>
	<polygon class="st0" points="276.2,230.9 276.2,230.9 276.2,230.9 276.2,230.9 	"/>
	<path class="st1" d="M245.8,278.8c-0.2,0.2-0.4,0.5-0.5,0.7l0.1,0L245.8,278.8z"/>
	<polygon class="st1" points="245,280.4 245,280.4 245,280.4 244.4,280.3 243.4,282.9 245.7,283.7 244.1,282.7 	"/>
	<path class="st1" d="M275,229.2l1.2,1.7l0,0l0,0l0,0l0.8,0.4l0,0l0,0l0,0l1.3-0.2c0.2-0.7,0.6-1.6,0.7-2c-0.5-0.3-1.7-1.2-2.7-1.8
		L275,229.2z"/>
	<path class="st1" d="M264.1,234.7l5.2,6.2v0l0,0c0-1.2,0-3.9,0-4l-4-6.6C265,231.2,264.6,232.8,264.1,234.7z"/>
	<polygon class="st1" points="240.2,234.7 240.7,235 246.7,228 254.1,229.3 254.4,227.4 245.7,226.1 	"/>
	<polygon class="st1" points="269.9,237 269.9,240.8 276.4,231.8 276,231.6 	"/>
	<path class="st1" d="M254.7,249.1c1.8,3.2,14.5,25.7,15.5,32.1l0.4-0.1c-0.6-2.5-4.5-19.8-11.7-31.3L254.7,249.1z"/>
	<polygon class="st1" points="241.1,237.8 240.9,235.9 239.6,235.1 237.8,235.1 236.6,236.8 239.9,239 	"/>
	<path class="st1" d="M253.7,252.9l-0.5-0.8c0.1,6.8-1.1,13.6-3.7,20c0.9-1.6,1.7-3,2.3-3.9C253.5,265.4,253.7,255.4,253.7,252.9z"
		/>
	<path class="st1" d="M278.8,284.8L278.8,284.8l0.3-0.4l-7.1-2.4C274.2,282.9,277.8,284.3,278.8,284.8z"/>
	<path class="st1" d="M261.4,214.6c1.4,0.2,2.8,0.3,4.2,0.2c-0.2-0.2-0.3-0.5-0.5-0.7c-0.2,0-0.4,0-0.5,0c-0.9,0-1.7-0.1-2.6-0.2
		C261.8,214.1,261.6,214.4,261.4,214.6C261.4,214.6,261.4,214.6,261.4,214.6z"/>
	<path class="st1" d="M264.8,216c0.4,0,0.9-0.1,1.3-0.2c0-0.1-0.1-0.2-0.1-0.3c-0.6,0.1-1.1,0.1-1.7,0.1v0c-1.1,0-2.2-0.1-3.3-0.3
		c-0.2,0.2-0.3,0.5-0.5,0.7C261.9,216.1,263.4,216.1,264.8,216z"/>
	<path class="st1" d="M262.5,213.3C262.5,213.3,262.5,213.3,262.5,213.3C262.5,213.3,262.5,213.3,262.5,213.3
		c0.6,0.1,1.2,0.1,1.8,0.1c-0.3-0.2-0.6-0.3-0.9-0.3c-0.2,0-0.3,0-0.5,0c0,0-0.1,0-0.1,0h0C262.7,213.1,262.6,213.2,262.5,213.3
		C262.5,213.3,262.5,213.3,262.5,213.3z"/>
	<polygon class="st1" points="252.1,284.1 252.4,283.9 252.9,283.6 248.9,281.7 252.1,284.1 	"/>
	<path class="st1" d="M261.1,227.6l0.4-0.9c0,0-0.1,0-0.1,0c-0.2,0-0.5,0-0.7-0.1v0c-0.3-0.1-0.6-0.2-0.9-0.3l-0.2,1c0,0,0,0,0,0
		l0,0C260.1,227.4,260.6,227.5,261.1,227.6z"/>
	<path class="st1" d="M259.8,225.5c0.3,0.2,0.6,0.3,1,0.4c1.3,0.2,2.5-0.3,3.4-1.2c1.1-1.2,1.9-2.7,2.2-4.3c0.3-1.3,0.2-2.6-0.1-3.9
		c-1.3,0.2-2.6,0.3-3.9,0.3c-0.8,0-1.5-0.1-2.3-0.2C258.6,219.4,258.5,222.7,259.8,225.5z"/>
	<path class="st1" d="M254.6,247.9c0,0.2,0,0.4-0.1,0.6l4.4,0.6c1.5-2.8,5.2-17.3,5.7-19.4c-1-0.5-2.1-1-3.3-1.2l0.1,0
		c0,0,0,0-0.1,0l-2-0.4c0,0,0,0,0,0l0,0c-1-0.2-1.9-0.3-2.6-0.3c0,0,0,0,0,0c-0.2,2.1-1.3,12.1-1.8,17.5
		C254.7,246.3,254.6,247.2,254.6,247.9z"/>
	<path class="st2" d="M259.2,225.1c0.2,0.2,0.4,0.3,0.6,0.5c0,0,0,0,0,0c-1.3-2.8-1.2-6.2,0.3-8.9h0c-0.5-0.1-1-0.2-1.5-0.3l0,0
		c0,0,0,0,0,0c-0.4,0.8-0.6,1.5-0.8,2.4C257.3,221.3,257.9,223.8,259.2,225.1z"/>
	<path class="st2" d="M262.5,213.3C262.5,213.3,262.5,213.3,262.5,213.3c0.1-0.1,0.2-0.2,0.3-0.3h0c-0.3,0-0.6,0.1-0.9,0.1v0
		C262,213.2,262.3,213.3,262.5,213.3z"/>
	<path class="st2" d="M258.9,215.7c0.5,0.1,1,0.2,1.6,0.3c0.1-0.3,0.3-0.5,0.5-0.7c0,0,0,0,0,0c-0.6-0.1-1.1-0.2-1.5-0.3
		C259.3,215.2,259.1,215.4,258.9,215.7C258.9,215.7,258.9,215.7,258.9,215.7L258.9,215.7z"/>
	<path class="st2" d="M260.8,213.7c-0.3,0.2-0.6,0.4-0.8,0.7l0,0c0,0,0,0,0,0c0.4,0.1,0.9,0.2,1.4,0.3c0.2-0.3,0.4-0.5,0.6-0.7
		c0,0,0,0,0,0c0,0,0,0,0,0C261.5,213.8,261.1,213.7,260.8,213.7z"/>
	<polygon class="st2" points="253.7,231.8 253.8,231.4 253.6,231.8 	"/>
	<polygon class="st2" points="240.7,235 241.2,235.3 247.1,229.1 247.1,229.1 247.1,229.1 253.8,231.4 254.1,229.4 246.7,228 
		240.7,235 	"/>
	<path class="st2" d="M252.1,248.8c2.4,4,15.8,27,17.7,32.5l0.4-0.1l0,0c-1-6.4-13.7-28.8-15.5-32.1L252.1,248.8z"/>
	<path class="st2" d="M257.3,259.1c-1.3-2.3-2.6-4.5-3.6-6.2c0,2.6-0.2,12.5-1.9,15.2c-0.6,0.9-1.4,2.4-2.3,3.9c0,0,0,0,0,0
		c-1,2.4-2.3,4.7-3.8,6.8c0,0,0,0,0,0l-0.4,0.8l0,0l0.8,0.2l0.2,0C247.5,278.7,256.4,270,257.3,259.1z"/>
	<polygon class="st2" points="252,284.9 252.7,284.6 252.7,284.6 252.7,284.6 	"/>
	<polygon class="st2" points="248.8,281.7 246.3,280.5 245,280.4 245,280.4 244.1,282.7 245.7,283.7 245.7,283.7 250.1,285.3 
		252.1,284.1 	"/>
	<polygon class="st2" points="275.9,287.3 277.4,287.7 277.5,287.6 277.5,287.6 	"/>
	<path class="st2" d="M254.5,248.4c0-0.1,0-0.3,0.1-0.6c0.1-0.6,0.2-1.6,0.3-2.7c0.6-5.5,1.7-15.4,1.8-17.5
		c-0.7-0.1-1.3-0.1-1.7-0.1l-3.2,20.5L254.5,248.4z"/>
	<polygon class="st2" points="248.3,285.4 249.5,286.1 249.9,285.9 248.7,285.5 	"/>
	<path class="st2" d="M271.3,281.8L270,282l0.4,3.4l2.1,0.4l4.8,1l0.5-0.7l1.1-1.4c-1-0.5-4.6-1.9-6.8-2.7L271.3,281.8z"/>
	<path d="M266.1,215.8c0.3,0,0.5-0.1,0.7-0.1c0-0.1-0.1-0.2-0.1-0.3c-0.2,0.1-0.4,0.1-0.7,0.1C266,215.5,266.1,215.7,266.1,215.8
		C266.1,215.8,266.1,215.8,266.1,215.8z"/>
	<path d="M258.7,214.8c-0.2,0.2-0.3,0.4-0.4,0.7c0.2,0.1,0.4,0.2,0.7,0.2c0.2-0.3,0.3-0.5,0.5-0.7
		C259.2,214.9,258.9,214.8,258.7,214.8z"/>
	<polygon points="258.9,215.7 258.9,215.7 258.9,215.7 	"/>
	<path d="M260.9,215.2c1.1,0.2,2.2,0.3,3.3,0.3c0.6,0,1.1,0,1.7-0.1c0.2,0,0.5-0.1,0.7-0.1c0.2,0,0.3-0.1,0.4-0.1l-0.2-0.7
		c-0.2,0.1-0.4,0.1-0.6,0.1c0,0,0,0,0,0c-0.1-0.2-0.3-0.4-0.4-0.6c-0.3,0-0.6,0-0.8,0.1l0,0c0.2,0.2,0.4,0.4,0.5,0.7
		c-1.4,0.1-2.8,0.1-4.2-0.2c0,0,0,0,0,0c-0.5-0.1-1-0.2-1.4-0.3c0,0,0,0,0,0s0,0,0,0c0,0,0,0,0,0c0.3-0.2,0.5-0.5,0.8-0.7
		c0,0,0,0,0,0c0.3,0.1,0.7,0.2,1.1,0.2c0,0,0,0,0,0c0.9,0.1,1.7,0.2,2.6,0.2c0.2,0,0.4,0,0.5,0c0.3,0,0.5,0,0.8-0.1
		c0.2,0,0.3,0,0.5,0l-0.1-0.7c-0.3,0-0.7,0.1-1,0.1c0,0,0,0,0,0c-0.5-0.5-1.2-0.9-1.9-1c-1-0.2-1.9,0-2.8,0.5
		c0.3,0.1,0.7,0.2,1.1,0.3c0,0,0,0,0,0c0.3-0.1,0.6-0.1,0.9-0.1h0h0h0c0,0,0.1,0,0.1,0c0.2,0,0.3,0,0.5,0c0.3,0.1,0.6,0.2,0.9,0.3
		c-0.6,0-1.2-0.1-1.8-0.1c0,0,0,0,0,0c-0.2,0-0.5-0.1-0.7-0.1c-0.4-0.1-0.8-0.2-1.1-0.3c-0.3-0.1-0.5-0.2-0.8-0.3l-0.3,0.6
		c0,0,0.1,0.1,0.3,0.1c0.1,0,0.2,0.1,0.3,0.1c-0.1,0-0.2-0.1-0.3-0.1c-0.2,0.1-0.3,0.3-0.5,0.4c-0.1,0.1-0.2,0.2-0.3,0.3
		c-0.7-0.2-1.1-0.3-1.1-0.3l-0.2,0.7c0.1,0,0.4,0.1,0.9,0.2c0.2,0.1,0.5,0.1,0.7,0.2l0,0C259.9,215.1,260.4,215.2,260.9,215.2
		C260.9,215.2,260.9,215.2,260.9,215.2z M260.8,213.7L260.8,213.7c-0.2,0-0.3-0.1-0.5-0.1C260.5,213.6,260.6,213.6,260.8,213.7z"/>
	<path d="M280.3,284.1L280.3,284.1l-8.9-3h0l-2.2,0.3l0,0.2l0.5,4.3l6,1.3l0.1,0l1.6,0.3l0,0l0.1-0.1L280.3,284.1z M269.9,282
		l1.3-0.2l0.7,0.2l7.1,2.4l0,0l-0.3,0.4l0,0l0,0l-1.1,1.4l-0.5,0.7l-4.8-1l-2.1-0.4l0,0L269.9,282z"/>
	<path d="M247,280.1l-0.5-0.2l-2.2-0.2l-0.4,0l-1.4,3.7l5.8,2.1l0.4,0.1l1.1,0.4l0,0l0.3,0.1l1.9-1.1l0,0l0.6-0.4l0,0l1.7-1
		L247,280.1z M250.1,285.3L250.1,285.3l-4.4-1.5l0,0l-2.3-0.8l0,0l1-2.6l0.6,0.1l1.3,0.1l2.5,1.2l0,0l4.1,1.9l0,0l-0.5,0.3l-0.3,0.2
		l0,0L250.1,285.3z"/>
	<path d="M241.8,238.1l-0.2-2.3l0-0.2l-0.7,0l0,0l0.7-0.1l0,0.2l5.7-6l6.2,2.2l0.1-0.2l0.1-0.4l0,0l0,0h0l0,0l-6.6-2.3l0,0l-5.9,6.2
		l0,0l-0.5-0.3l0,0l-0.5-0.3l5.5-8.6l8.7,1.3l0,0l-0.3,1.9l-0.3,2h0l0,0l-0.1,0.4l-2.6,16.8l0.2,0l-0.1-0.1l0,0l0.1,0.1
		c0.2,0.3,0.6,1,1.2,2.1c0-0.1,0-0.1,0-0.1l0.7-0.1c0,0,0,0,0,0l-0.7,0.1c0,0,0,0,0,0.1c0.1,1.3,1,17.2-8.2,28.8l0,0.1l2.2,0.2
		l0.5,0.2c1.7-1.7,9.6-9.7,10.9-20c4.7,8.2,10.3,18.3,11.3,21.5l0-0.2l2.2-0.3h0c-0.3-1.5-4.4-19.7-11.8-31.7c1-1.9,3-8.7,4.3-13.9
		l-0.4-0.5l0,0l0.4,0.5l5.7,6.9l7.5-10.5l0,0l1.7-0.3l0.1-0.2c0.3-0.8,0.6-1.7,0.9-2.5c0-0.2,0-0.2-3.3-2.4l-0.3-0.2l-2,2.8l1.4,1.9
		l-5.8,5.3l-4.2-6.9l0,0l0-0.1l-0.2-0.1c-1.1-0.6-2.2-1.1-3.5-1.4l0,0l0.6-1.2l0,0c0.9-0.2,1.7-0.7,2.3-1.4c1.2-1.3,2.1-2.9,2.4-4.7
		c0.3-1.4,0.3-2.8-0.1-4.2c0,0,0,0,0,0c0.2,0,0.3-0.1,0.4-0.1l-0.2-0.7c0,0-0.2,0-0.4,0.1c-0.2,0-0.4,0.1-0.7,0.1
		c-0.4,0.1-0.9,0.1-1.3,0.2c-1.4,0.2-2.9,0.2-4.3,0c0,0,0,0,0,0c-0.5-0.1-1-0.2-1.6-0.3c-0.2-0.1-0.4-0.1-0.7-0.2
		c-0.2-0.1-0.3-0.1-0.5-0.2l-0.3,0.6c0.1,0.1,0.3,0.1,0.4,0.2c-0.4,0.8-0.7,1.6-0.8,2.5c-0.6,3.1,0.3,6,2,7.4l0-0.2l0.7,0.1
		l-0.1,0.5c0.3,0.2,0.6,0.3,0.9,0.3c0.2,0,0.5,0.1,0.7,0.1c0,0,0.1,0,0.1,0l0.3-0.6l0.6,0.3l0,0l-0.6-0.3l-0.3,0.6l-0.4,0.9
		c0,0,0,0,0,0c-0.5-0.1-1-0.2-1.5-0.3l0,0l0,0l1.5,0.3l0,0l-1.5-0.3v0l0.2-1l0.1-0.5l-0.7-0.1l0,0.2l-0.2,1.3l0,0
		c-1.4-0.2-2.7-0.3-4.1-0.4l0,0h0l-9.5-1.4l-5.8,9.1h0.2v0h-2.3l-1.8,2.5l4.4,2.9L241.8,238.1z M257.8,218.7
		c0.2-0.8,0.4-1.6,0.8-2.4c0,0,0,0,0,0c0,0,0,0,0,0l0,0l0,0c0.5,0.1,1,0.3,1.5,0.3c0.8,0.1,1.5,0.2,2.3,0.2c1.3,0,2.6-0.1,3.9-0.3
		c0.3,1.3,0.3,2.6,0.1,3.9c-0.3,1.6-1.1,3.1-2.2,4.3c-0.8,1-2.1,1.4-3.4,1.2c-0.4-0.1-0.7-0.2-1-0.4c0,0,0,0,0,0
		c-0.2-0.1-0.4-0.3-0.6-0.5C257.9,223.8,257.3,221.3,257.8,218.7z M257.3,259.1c-0.9,11-9.8,19.6-11,20.7l0,0l-0.2,0l-0.8-0.2
		l-0.1,0c0,0,0,0,0,0c0.2-0.2,0.4-0.5,0.5-0.7c0,0,0,0,0,0c1.5-2.1,2.8-4.4,3.8-6.8c0,0,0,0,0,0c2.6-6.3,3.8-13.1,3.7-20
		c0,0,0,0,0,0l0.5,0.8C254.7,254.6,256,256.7,257.3,259.1c0-0.1,0-0.1,0-0.1l0.7,0.1c0,0,0,0,0,0l-0.7-0.1
		C257.3,259,257.3,259,257.3,259.1z M270.6,281.1l-0.4,0.1l0,0l-0.4,0.1l0,0c-1.9-5.6-15.3-28.5-17.7-32.5l-0.3-0.6l0,0l0.3,0.6l0,0
		l2.6,0.4l4.2,0.6l0,0c0,0-0.1-0.1-0.1-0.1l0,0c0,0,0.1,0.1,0.1,0.1C266.1,261.2,270.1,278.6,270.6,281.1L270.6,281.1z M276,231.5
		l0.4,0.2l0,0l-6.5,9.1l0,0V237L276,231.5z M276.3,227.3c0.9,0.6,2.2,1.5,2.7,1.8c0,0,0,0,0,0c-0.1,0.4-0.5,1.3-0.7,2l-1.3,0.2l0,0
		l-0.1,0l0.1,0.7l0,0l-0.1-0.7l0.1,0l0,0l-0.8-0.4l0,0l0,0l0,0l0,0l0,0l-1.2-1.7l0,0L276.3,227.3z M269.2,236.8h0.7v0L269.2,236.8
		L269.2,236.8z M264.8,229.6l0.4,0.7l4,6.6v0c0,0.1,0,2.8,0,4c0,0.3,0,0.9,0,1h0v-1v0l-5.2-6.2l0,0l0,0c0.5-1.9,0.9-3.5,1.1-4.4
		L264.8,229.6L264.8,229.6z M255,227.5c0.3,0,0.9,0,1.7,0.1h0c0,0,0,0,0,0c0.7,0.1,1.7,0.2,2.6,0.3l0,0l-0.5-0.1l0,0l0.6,0.1l2,0.4
		l0.1,0l0,0l0,0l-0.1,0c1.1,0.3,2.2,0.7,3.3,1.2c-0.5,2.1-4.1,16.7-5.7,19.4c0,0,0,0,0,0l-4.4-0.6l-2.6-0.4L255,227.5
		C255,227.5,255,227.5,255,227.5z M236.6,236.8l1.2-1.6h1.8h0l1.4,0.8l0,0l0.1,2l-1.2,1.1L236.6,236.8z"/>
</g>
</svg>
