<?xml version="1.0" encoding="utf-8"?>
<!-- Generator: Adobe Illustrator 27.8.1, SVG Export Plug-In . SVG Version: 6.00 Build 0)  -->
<svg version="1.1" id="Layer_1" xmlns="http://www.w3.org/2000/svg" xmlns:xlink="http://www.w3.org/1999/xlink" x="0px" y="0px"
	 viewBox="0 0 500 500" style="enable-background:new 0 0 500 500;" xml:space="preserve">
<style type="text/css">
	.st0{fill:#FFFFFF;}
	.st1{clip-path:url(#SVGID_00000023263601436093966030000013237085657367004553_);}
	.st2{fill:#27AAE1;}
</style>
<path id="Path_1803" class="st0" d="M260.8,279.7h1l0.2-30.2h-3L260.8,279.7z"/>
<path id="Path_1804" class="st0" d="M253.9,279.7h1.2l3-30.2h-2.7L253.9,279.7z"/>
<path id="Path_1805" class="st0" d="M252.6,249.2l1.3-9.3l-0.8-7l-1.2,16.1L252.6,249.2z"/>
<path id="Path_1952" class="st0" d="M254.5,229.3h1.1l0.7-11.4h-4.6l0.6,10.9L254.5,229.3z"/>
<path id="Path_1953" class="st0" d="M257.4,230.3h0.6l0.5-6.8l-1.3,0.5L257.4,230.3z"/>
<g>
	<defs>
		<rect id="SVGID_1_" x="218.5" y="213.1" width="93.1" height="72.3"/>
	</defs>
	<clipPath id="SVGID_00000170237211522211498880000014733032617603519925_">
		<use xlink:href="#SVGID_1_"  style="overflow:visible;"/>
	</clipPath>
	<g id="Group_273" style="clip-path:url(#SVGID_00000170237211522211498880000014733032617603519925_);">
		<path id="Path_2361" class="st2" d="M247.4,218.8c-0.6-0.2-1.2-0.5-1.8-0.8c-1.4,2.1-2.3,4.4-2.7,6.9c-1.1,6.3,1.1,12.1,4.9,13.6
			C242.7,230.9,244.8,223.5,247.4,218.8"/>
		<path id="Path_2362" class="st2" d="M248.3,215.1c-0.4,0.3-0.7,0.6-1,0.9c0.4,0.1,0.9,0.3,1.5,0.4c0.3-0.4,0.5-0.8,0.8-1.1
			C249.1,215.3,248.7,215.2,248.3,215.1"/>
		<path id="Path_2363" class="st2" d="M246.7,216.5c-0.3,0.3-0.5,0.6-0.8,0.9c0.6,0.3,1.2,0.5,1.8,0.7c0.2-0.4,0.5-0.8,0.7-1.1
			C247.7,216.9,247.2,216.7,246.7,216.5"/>
		<path id="Path_2364" class="st2" d="M249.1,214.6c0.3,0,0.6,0.1,0.9,0.1c0.2-0.3,0.5-0.6,0.6-0.8
			C250.1,214.1,249.6,214.3,249.1,214.6"/>
		<path id="Path_2365" class="st2" d="M228.3,282.5L228.3,282.5z"/>
		<path id="Path_2366" class="st2" d="M228.7,282.5h6.4l6.1-41.1l-3.1-0.6L228.7,282.5z"/>
		<path id="Path_2367" d="M294.6,240.1l-3.8,0.3l0,0.2l-0.2-0.2l-5.5,21.1l-10.2,0.5l-1.5-0.5l-11.5-2.1l-7.2-7.9
			c0.5-4.6,0.9-7.9,0.9-7.9l0-0.3l-5.3-1l0.4-2.8c4.2-0.5,8.2-5.3,9.3-11.7c0.6-3,0.3-6.1-0.6-8.9c0.1-0.1,0.3-0.1,0.4-0.2l-0.2-0.6
			c-0.1,0.1-0.3,0.1-0.4,0.2c-0.2-0.4-0.4-0.9-0.6-1.3c0.2-0.1,0.4-0.2,0.6-0.3l-0.3-0.6c-0.2,0.1-0.5,0.2-0.7,0.3
			c-0.3-0.4-0.6-0.8-0.9-1.2c0.2,0,0.4-0.1,0.6-0.2l-0.2-0.6c-0.3,0.1-0.6,0.2-1,0.2c-0.9-0.8-2-1.4-3.2-1.6
			c-1.8-0.3-3.7,0.2-5.1,1.3c-0.8-0.1-1.3-0.3-1.4-0.3l-0.2,0.6c0.1,0,0.3,0.1,0.8,0.2c-0.3,0.2-0.6,0.5-0.9,0.8
			c-0.4-0.2-0.7-0.3-0.7-0.3l-0.3,0.6c0,0,0.2,0.1,0.5,0.2c-0.3,0.3-0.5,0.6-0.7,0.9c-0.4-0.2-0.6-0.3-0.6-0.3l-0.4,0.6
			c0,0,0.2,0.1,0.6,0.3c-1.4,2.1-2.4,4.6-2.8,7.1c-0.9,5.2,0.4,10.1,3,12.8l-0.9,3.7l-1.3-0.2v-3.4l-0.3,0l-3.5-1.6l-15.2,1.6
			l-5.4,45.5l0.7,0.1l5.3-44.7l3.2,2l-3.4,41.5l0.7,0.1l3.4-41.4l13.9-2.3v2.5l-4.7-0.9l-9.6,42.4l0.3,0.1l0.3,0.1l0-0.1l9.4-41.7
			l3.1,0.6l13.6,2.5c-0.2,1.5-0.9,8.7-1.8,16.4l-7-9.2l-0.5,0.4l11.2,14.9l-2.5,4.3l-13.9-16l-0.5,0.4l12.2,14.1
			c-0.7,7-1.4,12.9-1.4,12.9l0.7,0.1c0-0.1,0.6-5.6,1.3-12.3l1.3,1.5l0.1,0.1h9.8l12.2,14l24.4-7l0.2,0l11-25.7L294.6,240.1z
			 M228.1,240.1l-2.9-1.9l13.8-1.5l2.4,1.1L228.1,240.1z M259.2,227.8c-1.1,6.4-5.2,11.2-9.4,11.2c-0.7,0-1.4-0.1-2-0.4
			c-3.9-1.5-6-7.3-4.9-13.6c0.4-2.5,1.3-4.8,2.7-6.9c0.6,0.3,1.2,0.5,1.8,0.8c2,0.7,4.2,1.1,6.3,1.1c1.7,0,3.3-0.2,4.9-0.7
			C259.6,221.9,259.8,224.9,259.2,227.8 M258.4,218.5c-3.5,1-7.3,0.9-10.7-0.4c-0.6-0.2-1.2-0.4-1.8-0.7c0.3-0.3,0.5-0.6,0.8-0.9
			c0.4,0.2,1,0.3,1.7,0.5c0.5,0.1,1.1,0.3,1.8,0.4c1.2,0.2,2.5,0.4,3.7,0.4c1.3,0,2.6-0.2,3.8-0.5
			C258,217.7,258.2,218.1,258.4,218.5 M257.4,216.7c-2.8,0.7-5.8,0.6-8.6-0.3c-0.6-0.2-1.1-0.3-1.5-0.4c0.3-0.3,0.7-0.6,1-0.9
			c0.4,0.1,0.8,0.1,1.3,0.2c1.4,0.2,2.8,0.3,4.3,0.3c0.8,0,1.7,0,2.5-0.2C256.7,215.9,257.1,216.3,257.4,216.7 M253.2,213.8
			c0.9,0.2,1.7,0.5,2.5,1.1c-1.9,0.2-3.8,0.1-5.7-0.2c-0.3,0-0.6-0.1-0.9-0.1c0.5-0.3,1-0.5,1.5-0.6c0.5-0.1,1.1-0.2,1.6-0.2
			C252.6,213.7,252.9,213.8,253.2,213.8 M245.7,238.1c0.9,0.7,1.9,1.2,3,1.4c0.3,0.1,0.7,0.1,1.1,0.1c0,0,0.1,0,0.1,0l-0.3,2.6
			l-4.6-0.8L245.7,238.1z M276.9,280.2l21.5-4.7l1.5,2.3l-23.3,6.7L276.9,280.2z M298.7,275l8.8-19.9l3-1.7l-10.3,23.9L298.7,275z
			 M294.4,240.7l16.3,12l-3.3,1.8L291.2,241L294.4,240.7z M290.9,241.5l16,13.5l-8.7,19.6l-12.6-12.9L290.9,241.5z M285.1,262.1
			l12.6,12.9l-21,4.5c-0.7-0.8-3.9-4.7-6.9-8.2h4.2l4.7,1.3l5.4,0l0.9-2.6l-0.3-0.1c-3.9-1.6-8.6-3.5-8.9-3.5c0,0-0.4,0-1.1,0l0,0
			l-0.4-0.8l5.1,1l0.9-2.6l-4-1.5L285.1,262.1z M257.3,266.6c2.2,0.1,17.7,0.5,18.5,0.6c0.5,0.1,5.3,2.1,8.4,3.4l-0.6,1.6h-4.8
			l-4.7-1.3h-19.2L257.3,266.6z M265.4,266.1c-0.3-0.4-0.5-0.6-0.7-0.8h6.5l0.7,1L265.4,266.1 M264.5,266.1L264.5,266.1L264.5,266.1
			L264.5,266.1 M279.6,264.5l-0.5,1.4l-5.9-1.2l0.8,1.7l-1.3,0l-1.2-1.7h-7.3l-0.1-0.1l0,0.1h-3.2l1-4.6l11.3,2L279.6,264.5z
			 M261.2,259.8l-1,4.6l-6.5-5.4c0.2-2.3,0.5-4.5,0.7-6.5L261.2,259.8z M253.7,259.7l6.6,5.6h3.6l-0.2,0.8l-6.5-0.2l-3.7-4.9
			L253.7,259.7 M269,271.4c3,3.6,6.5,7.8,7.2,8.6l-0.3,4.2l-11.2-12.8H269z"/>
	</g>
</g>
</svg>
