<?xml version="1.0" encoding="UTF-8"?><svg id="Layer_1" xmlns="http://www.w3.org/2000/svg" width="40" height="40" viewBox="0 0 40 40" fill="#fff"><path d="M18.923,8.5c.898.244,1.75.576,2.448,1.224.964.895,1.51,1.989,1.585,3.306.02.343.012.689.005,1.033-.013.622-.362,1.009-.902,1.014-.541.005-.874-.364-.924-.995-.047-.593-.022-1.211-.188-1.771-.406-1.37-1.736-2.122-3.245-1.931-1.235.156-2.316,1.286-2.378,2.603-.057,1.205-.012,2.416-.012,3.681.186,0,.36,0,.534,0,2.35,0,4.701-.006,7.051.003,1.362.005,2.306.711,2.611,1.942.057.229.064.474.064.711.004,3.129.007,6.257,0,9.386-.003,1.714-1.094,2.791-2.812,2.792-3.039.002-6.078.002-9.117,0-1.716-.001-2.805-1.08-2.808-2.795-.006-3.054.045-6.109-.021-9.161-.034-1.591.961-2.838,2.631-2.898,0-.17-.003-.343,0-.516.023-1.21-.059-2.435.096-3.628.259-1.997,1.78-3.498,3.747-3.913.069-.014.131-.057.197-.086.479,0,.958,0,1.438,0ZM18.23,18.476c-1.527,0-3.053-.001-4.58,0-.759.001-1.005.24-1.006.985-.002,3.039-.002,6.077,0,9.116,0,.813.293,1.105,1.111,1.105,2.964.003,5.927.003,8.891,0,.823,0,1.116-.288,1.116-1.098.003-3.038.002-6.077,0-9.116,0-.752-.243-.991-.997-.993-1.512-.002-3.024,0-4.535,0Z" stroke-width="0"/><path d="M26.638,15.182c-.46-.122-.753-.304-.891-.71-.138-.405-.052-.801.302-.985.684-.356,1.399-.667,2.131-.906.382-.125.722.14.899.511.172.36.15.792-.171.979-.725.424-1.51.746-2.27,1.109Z" stroke-width="0"/><path d="M26.641,10.928c-.019.08-.036.215-.084.339-.21.542-.414,1.087-.648,1.619-.222.506-.702.711-1.176.538-.458-.167-.696-.667-.515-1.178.209-.589.438-1.173.701-1.74.202-.435.604-.59,1.041-.478.382.098.669.456.68.9Z" stroke-width="0"/><path d="M25.659,16.632c-.015-.843.56-1.287,1.193-1.077.594.196,1.175.438,1.743.701.483.224.654.695.48,1.157-.171.455-.622.685-1.134.512-.592-.2-1.187-.414-1.738-.703-.266-.14-.435-.465-.545-.59Z" stroke-width="0"/><path d="M17.298,25.48c0-.164-.01-.33.001-.493.031-.443-.052-.776-.431-1.121-.805-.732-.71-1.98.108-2.697.783-.686,1.961-.602,2.646.189.71.82.585,1.997-.262,2.709-.133.112-.232.337-.24.514-.029.626-.004,1.255-.014,1.883-.01.586-.365.974-.879.988-.532.014-.909-.382-.927-.986-.01-.329-.002-.658-.002-.986Z" stroke-width="0"/></svg>