<?xml version="1.0" encoding="utf-8"?>
<!-- Generator: Adobe Illustrator 27.8.1, SVG Export Plug-In . SVG Version: 6.00 Build 0)  -->
<svg version="1.1" id="Layer_1" xmlns="http://www.w3.org/2000/svg" xmlns:xlink="http://www.w3.org/1999/xlink" x="0px" y="0px"
	 viewBox="0 0 500 500" style="enable-background:new 0 0 500 500;" xml:space="preserve">
<style type="text/css">
	.st0{fill:#FFFFFF;}
	.st1{fill:#008CC7;}
</style>
<path id="Path_1803" class="st0" d="M260.8,279.7h1l0.2-30.2h-3L260.8,279.7z"/>
<path id="Path_1804" class="st0" d="M253.9,279.7h1.2l3-30.2h-2.7L253.9,279.7z"/>
<path id="Path_1805" class="st0" d="M252.6,249.2l1.3-9.3l-0.8-7l-1.2,16.1L252.6,249.2z"/>
<path id="Path_1952" class="st0" d="M254.5,229.3h1.1l0.7-11.4h-4.6l0.6,10.9L254.5,229.3z"/>
<path id="Path_1953" class="st0" d="M257.4,230.3h0.6l0.5-6.8l-1.3,0.5L257.4,230.3z"/>
<path id="Path_8" class="st1" d="M223.7,186.6l23.4,50l7.6-16.2l-9.9-21.2h31.4l-52.7,112.5h73.9L274,261.6l-7.6,16.2l9.8,21.1H245
	l52.5-112.4H223.7z"/>
</svg>
